<?xml version="1.0" encoding="UTF-8" standalone="no"?>
<!-- Created with Inkscape (http://www.inkscape.org/) -->
<svg
   xmlns:dc="http://purl.org/dc/elements/1.1/"
   xmlns:cc="http://web.resource.org/cc/"
   xmlns:rdf="http://www.w3.org/1999/02/22-rdf-syntax-ns#"
   xmlns:svg="http://www.w3.org/2000/svg"
   xmlns="http://www.w3.org/2000/svg"
   xmlns:sodipodi="http://sodipodi.sourceforge.net/DTD/sodipodi-0.dtd"
   xmlns:inkscape="http://www.inkscape.org/namespaces/inkscape"
   width="481"
   height="588"
   id="svg2"
   sodipodi:version="0.32"
   inkscape:version="0.44.1"
   sodipodi:docbase="E:\Data\Document\svg"
   sodipodi:docname="hand.svg"
   inkscape:export-filename="K:\Data\Document\alsa_immer_eu\album\Hand.png"
   inkscape:export-xdpi="74.839996"
   inkscape:export-ydpi="74.839996"
   version="1.0">
  <defs
     id="defs4" />
  <sodipodi:namedview
     id="base"
     pagecolor="#ffffff"
     bordercolor="#ffffff"
     borderopacity="0.0"
     inkscape:pageopacity="0.0"
     inkscape:pageshadow="0"
     inkscape:zoom="1"
     inkscape:cx="274.94816"
     inkscape:cy="152.27376"
     inkscape:document-units="px"
     inkscape:current-layer="layer1"
     inkscape:window-width="1162"
     inkscape:window-height="969"
     inkscape:window-x="50"
     inkscape:window-y="-5" />
  <metadata
     id="metadata7">
    <rdf:RDF>
      <cc:Work
         rdf:about="">
        <dc:format>image/svg+xml</dc:format>
        <dc:type
           rdf:resource="http://purl.org/dc/dcmitype/StillImage" />
      </cc:Work>
    </rdf:RDF>
  </metadata>
  <g
     inkscape:label="Calque 1"
     inkscape:groupmode="layer"
     id="layer1"
     transform="translate(0,-0.362183)">
    <rect
       style="opacity:1;fill:white;fill-opacity:1;fill-rule:nonzero;stroke:none;stroke-width:0;stroke-miterlimit:4;stroke-dasharray:none;stroke-opacity:1"
       id="rectFondBlanc"
       width="481"
       height="588"
       x="0"
       y="0.36218262"
       inkscape:label="#rect1987" />
    <path
       style="fill:#f4d7d7;fill-rule:evenodd;stroke:black;stroke-width:1px;stroke-linecap:butt;stroke-linejoin:miter;stroke-opacity:1"
       d="M 371.29289,581.72614 C 371.80743,571.01876 372.02559,553.29681 372.5,544.86218 C 373.2864,530.88065 372.38935,488.91959 371,483.36218 C 346.69874,461.5782 316.86857,443.36218 282,443.36218 C 245.32955,446.95761 212.66997,457.52333 185,476.41243 C 177.09229,481.68424 185.43422,498.72533 190,510.36218 C 195.54681,521.97442 199.86536,536.84663 202.41421,546.67589 C 204.88737,556.21325 207.45868,580.19691 208,582.36218"
       id="pathBras"
       sodipodi:nodetypes="csccccsc"
       inkscape:label="#path2114" />
    <path
       style="fill:#f4d7d7;fill-rule:evenodd;stroke:black;stroke-width:1px;stroke-linecap:butt;stroke-linejoin:miter;stroke-opacity:1"
       d="M 267,520.36218 C 258.61427,522.34566 248.71365,524.68377 242,526.36218 C 233.86849,526.88423 225.785,527.36295 218,524.36218 C 211.55091,520.8517 202.47235,517.30989 194,516.36218 C 183.12233,512.14365 172.8726,506.5532 164,498.36218 C 150.24676,490.57381 145.41841,475.5949 137,463.36218 C 126.53866,449.96336 118.22607,435.27991 107.5,421.86218 C 102.81073,415.60847 95.775697,402.85025 86,388.36218 C 77.608643,376.09642 67.211674,354.14915 64.5,345.86218 C 62.148148,340.73925 55.990276,325.7386 52,316.36218 C 47.763111,307.91463 40.810299,295.10338 36,287.36218 C 31.596654,280.27589 32,262.27715 32,255.36218 C 33.166667,246.19551 40.727404,246.14525 42.5,245.86218 C 47.909824,244.99826 61.072554,243.38032 66,247.36218 C 82.708054,252.66201 90.22873,263.53274 98,279.36218 C 100.54225,284.44668 104.98461,300.34679 109,304.36218 C 122.82052,317.49806 128.4461,328.66526 133.5,335.86218 C 136.87856,341.74074 144.07231,346.15144 149,347.36218 C 154,349.69551 158.70982,341.41813 161,338.86218 C 166.64977,332.55676 167.90267,325.78312 168,317.86218 C 168.05695,313.22761 168.33731,305.62575 169,300.36218 C 170.28854,290.12763 169.77693,282.97754 170,275.86218 C 170.25718,267.6587 165,257.41689 165,247.36218 C 162.91931,239.76562 163.77232,222.76484 164,216.36218 C 164.34013,206.79695 163,190.80758 162.5,183.36218 C 162.03754,176.47572 158.33007,159.46595 158,150.36218 C 157.617,139.79858 154.332,121.33224 154,110.36218 C 153.79264,103.51055 154.91806,91.512206 155.5,85.362183 C 156.11172,78.897395 156.54853,67.56494 156.5,59.862183 C 156.47002,55.10374 159.84825,47.469198 164.5,43.862183 C 171.16164,36.700546 184.55784,32.391101 193,38.862183 C 204.31358,47.048601 203.17589,55.055822 205.5,59.862183 C 209.11654,67.341328 208.16667,76.695516 209,84.362183 C 209.62511,92.274231 210.42805,99.902529 209,112.86218 C 209,118.55904 209.53925,130.92185 210,138.36218 C 210.5,146.43628 212.93955,162.47221 214,168.36218 C 215.58741,177.179 217.5,192.75643 217,200.86218 C 216.33893,211.57907 219.16051,223.16138 220,230.36218 C 220.88348,237.94033 226.7997,249.31874 232,253.86218 C 235.99534,257.35286 243.5,248.58712 243.5,236.86218 C 242.46789,219.79795 246.04436,200.48828 245.5,193.36218 C 245.01655,187.03347 246,179.69552 246,178.36218 C 245.19155,175.12837 246,171.69552 246,168.36218 C 246,161.11887 243.36091,151.83036 244,142.36218 C 244.39276,136.54337 243.40648,120.73627 243,112.36218 C 243,90.57688 242.44034,102.42725 242.5,92.862183 C 242.5426,86.532602 244.40048,73.760247 245.5,69.362183 C 245.81511,59.122619 248.45993,48.402255 250.5,41.362183 C 253.74712,32.35066 262.05671,19.069647 274,18.362183 C 290.57464,19.160758 294.30852,25.886118 295,35.862183 C 295.27134,39.776842 296.33333,52.195516 297,55.862183 C 297.25629,61.337005 298.1612,74.014276 298.5,80.862183 C 298.90611,89.070562 301.02241,101.12703 301.5,108.36218 C 301.77737,112.56411 300.07407,124.21998 300.5,132.36218 C 298.60319,140.65581 301,152.63382 301,161.86218 C 301,170.32279 301,179.15896 301,190.36218 C 301,202.64667 297.87206,213.12487 300,223.36218 C 300.8945,227.66553 301.92903,240.08803 306.5,240.86218 C 314.15008,242.15782 321.83137,228.64323 324,206.36218 C 325.32872,192.17708 328,177.88406 328,166.36218 C 326.36179,159.80936 332.22036,139.57462 334,132.86218 C 336.82199,122.21821 338.25287,109.87367 341,101.86218 C 339.71519,89.363693 344.29363,76.720172 346,64.362183 C 348.5,55.224451 351.27226,45.08992 358,42.362183 C 364.5,36.648138 371.83333,39.028849 376,40.862183 C 383,46.112506 385.56753,53.607425 387.5,61.362183 C 389.09303,67.754808 387.33333,79.028849 386.5,84.862183 C 386.50714,92.89074 387.11203,102.70302 386.5,111.86218 C 385.89833,120.86635 383.5,131.6358 383.5,138.86218 C 383.60894,148.83984 382,164.13639 382,175.86218 C 379.76975,190.58161 379.00149,204.79236 376,219.36218 C 373.93712,229.05577 368.57431,242.59643 368.5,253.36218 C 368.5,262.62986 363.90214,274.66647 376,276.36218 C 383,284.73184 392.34952,259.04819 396.5,251.36218 C 401.30882,239.94219 407.92205,222.37225 410.5,214.36218 C 413.34938,206.60731 419.69807,195.72555 422,188.36218 C 428.02408,176.31403 430.66987,165.96902 433,157.86218 C 436.96662,149.92894 444.51759,143.23213 450,142.36218 C 457.3317,141.19878 463.34682,147.24947 468,154.36218 C 471.01267,162.33684 467.60266,174.67159 466,186.36218 C 462.95042,201.53006 459.01954,214.94686 455.57107,223.66979 C 453.08717,229.91756 446.82843,243.65874 444,251.89771 C 440.65369,260.00455 436.77606,270.81479 433.58579,276.77639 C 430.07967,283.3282 423.70318,292.65901 421.5,301.36218 C 418.35913,313.92564 418,324.67411 418,334.36218 C 418,340.56908 416,346.10711 416,354.36218 C 416.77095,364.60583 412.75812,374.134 414,384.36218 C 414.64676,386.94923 414.5,394.69552 413.5,401.36218 C 414.32302,411.15424 409.6109,423.91859 408,430.36218 C 406.06414,438.10562 401,455.48848 401,458.86218 C 392.04085,475.29227 391.15912,487.04395 385.5,494.86218 C 380.64993,501.06232 375.68101,510.10143 370,514.36218 C 365.31887,517.87303 360.2902,522.21708 356,524.36218 C 347.99244,528.75122 338.99989,533.11981 325,534.36218 C 315.394,533.48865 304.31732,529.19393 298,528.36218 C 288.48125,523.87768 277.36944,520.92824 267,520.36218 z "
       id="pathContourMain"
       sodipodi:nodetypes="ccccccccccscscccccsssscssssssccsccssssscscsscscccscsscssssccsccccscscccccccccsccccscscccsccscccc"
       inkscape:label="#path2086" />
    <path
       style="fill:none;fill-rule:evenodd;stroke:black;stroke-width:1px;stroke-linecap:butt;stroke-linejoin:miter;stroke-opacity:1"
       d="M 196,269.36218 C 210.45988,264.22161 230.24529,255.13526 241.5,252.36218 C 253.58976,250.36219 266.72578,247.24929 273,245.36218 C 287.43083,243.19227 303.2799,239.11765 316,243.36218 C 327.30625,245.45906 340.9517,254.24286 348.5,257.36218 C 355.41369,261.15534 365.53632,270.94603 372,274.86218 C 380.2873,279.88321 389.65408,288.97774 393.5,291.86218"
       id="pathPaumeHaut"
       sodipodi:nodetypes="cccccsc"
       inkscape:label="#path2088" />
    <path
       style="fill:none;fill-rule:evenodd;stroke:black;stroke-width:1px;stroke-linecap:butt;stroke-linejoin:miter;stroke-opacity:1"
       d="M 220.5,288.36218 C 230.2703,295.63248 244.73675,303.36218 252,306.36218 C 256.94749,308.40568 272.60628,313.16532 279,315.86218 C 285.83363,319.36218 300.49304,319.58843 308,322.36218 C 321.9732,325.28019 328.99023,326.78861 342,332.36218 C 356.2497,336.96206 369.42615,335.71448 379,341.36218"
       id="pathPaumeMilieu"
       sodipodi:nodetypes="cscccc"
       inkscape:label="#path2090" />
    <path
       style="fill:none;fill-rule:evenodd;stroke:black;stroke-width:1px;stroke-linecap:butt;stroke-linejoin:miter;stroke-opacity:1"
       d="M 204,312.36218 C 210.65519,311.99285 225.01061,324.3834 236,333.36218 C 244.59996,342.67524 257.21117,358.77982 262.5,368.36218 C 267.03209,377.42637 273.48056,392.1551 276,401.86218 C 278.58347,411.81596 282.99793,427.60754 284,440.36218 C 284.99549,453.03311 288.72525,471.26318 288,482.36218"
       id="pathLigne"
       sodipodi:nodetypes="cccssc"
       inkscape:label="#path2092" />
    <path
       style="fill:none;fill-rule:evenodd;stroke:black;stroke-width:1px;stroke-linecap:butt;stroke-linejoin:miter;stroke-opacity:1"
       d="M 110.5,306.86218 C 107.5886,309.11425 104.76378,311.79805 102.08631,314.45135 C 99.193274,317.31826 96.472278,320.14958 94,322.36218"
       id="pathPouce"
       sodipodi:nodetypes="csc"
       inkscape:label="#path2094" />
    <path
       style="fill:none;fill-rule:evenodd;stroke:black;stroke-width:1px;stroke-linecap:butt;stroke-linejoin:miter;stroke-opacity:1"
       d="M 174,182.36218 C 177.92596,177.8531 190.18148,174.86218 201,174.86218"
       id="pathIndexMilieu"
       sodipodi:nodetypes="cc"
       inkscape:label="#path2096" />
    <path
       style="fill:none;fill-rule:evenodd;stroke:black;stroke-width:1px;stroke-linecap:butt;stroke-linejoin:miter;stroke-opacity:1"
       d="M 169.5,111.86218 C 177.35493,107.82504 187.43881,107.44836 196.08212,108.81919 C 198.53162,109.20769 200.86542,109.73653 203,110.36218"
       id="pathIndexHaut"
       sodipodi:nodetypes="csc"
       inkscape:label="#path2098" />
    <path
       style="fill:none;fill-rule:evenodd;stroke:black;stroke-width:1px;stroke-linecap:butt;stroke-linejoin:miter;stroke-opacity:1"
       d="M 258.5,99.362183 C 263.57714,98.257139 270.93057,97.497008 277.50678,97.68582 C 282.3199,97.824011 286.71669,98.470527 289.5,99.862183"
       id="pathMajeurHaut"
       sodipodi:nodetypes="csc"
       inkscape:label="#path2100" />
    <path
       style="fill:none;fill-rule:evenodd;stroke:black;stroke-width:1px;stroke-linecap:butt;stroke-linejoin:miter;stroke-opacity:1"
       d="M 258,158.36218 C 263.86977,155.26973 271.12285,155.085 277.16505,155.998 C 280.69619,156.53156 283.81378,157.44005 286,158.36218"
       id="pathMajeurMilieu"
       sodipodi:nodetypes="csc"
       inkscape:label="#path2102" />
    <path
       style="fill:none;fill-rule:evenodd;stroke:black;stroke-width:1px;stroke-linecap:butt;stroke-linejoin:miter;stroke-opacity:1"
       d="M 349.5,101.86218 C 353.59079,102.79366 358.43959,102.25758 362.98014,102.13172 C 367.20742,102.01453 371.16753,102.25291 374,104.36218"
       id="pathAnnulaireHaut"
       sodipodi:nodetypes="csc"
       inkscape:label="#path2104" />
    <path
       style="fill:none;fill-rule:evenodd;stroke:black;stroke-width:1px;stroke-linecap:butt;stroke-linejoin:miter;stroke-opacity:1"
       d="M 338,167.36218 C 345.97772,169.31761 358.04457,168.38447 366,172.36218"
       id="pathAnnulaireMilieu"
       sodipodi:nodetypes="cc"
       inkscape:label="#path2106" />
    <path
       style="fill:none;fill-rule:evenodd;stroke:black;stroke-width:1px;stroke-linecap:butt;stroke-linejoin:miter;stroke-opacity:1"
       d="M 432,189.36218 C 432.00147,189.36511 446.71147,190.8589 451.5,198.36218"
       id="pathAuriculaireHaut"
       sodipodi:nodetypes="cc"
       inkscape:label="#path2108" />
    <path
       style="fill:none;fill-rule:evenodd;stroke:black;stroke-width:1px;stroke-linecap:butt;stroke-linejoin:miter;stroke-opacity:1"
       d="M 414,230.36218 C 417.31862,230.18951 421.79118,231.14109 425.74718,232.74226 C 429.34311,234.19769 432.51225,236.18983 434,238.36218"
       id="pathAuriculaireMilieu"
       sodipodi:nodetypes="csc"
       inkscape:label="#path2110" />
  </g>
</svg>
