<?xml version="1.0" encoding="UTF-8" standalone="no"?>
<!-- Created with Inkscape (http://www.inkscape.org/) -->

<svg
   xmlns:dc="http://purl.org/dc/elements/1.1/"
   xmlns:cc="http://creativecommons.org/ns#"
   xmlns:rdf="http://www.w3.org/1999/02/22-rdf-syntax-ns#"
   xmlns:svg="http://www.w3.org/2000/svg"
   xmlns="http://www.w3.org/2000/svg"
   xmlns:sodipodi="http://sodipodi.sourceforge.net/DTD/sodipodi-0.dtd"
   xmlns:inkscape="http://www.inkscape.org/namespaces/inkscape"
   id="svg2993"
   version="1.1"
   inkscape:version="0.48.0 r9654"
   width="896"
   height="1034"
   sodipodi:docname="Unbrella.svg">
  <metadata
     id="metadata2999">
    <rdf:RDF>
      <cc:Work
         rdf:about="">
        <dc:format>image/svg+xml</dc:format>
        <dc:type
           rdf:resource="http://purl.org/dc/dcmitype/StillImage" />
        <dc:title />
      </cc:Work>
    </rdf:RDF>
  </metadata>
  <defs
     id="defs2997" />
  <sodipodi:namedview
     pagecolor="#ffffff"
     bordercolor="#666666"
     borderopacity="1"
     objecttolerance="10"
     gridtolerance="10"
     guidetolerance="10"
     inkscape:pageopacity="0"
     inkscape:pageshadow="2"
     inkscape:window-width="1440"
     inkscape:window-height="844"
     id="namedview2995"
     showgrid="false"
     inkscape:zoom="0.35355339"
     inkscape:cx="-4.0421269"
     inkscape:cy="566.53566"
     inkscape:window-x="-4"
     inkscape:window-y="-4"
     inkscape:window-maximized="1"
     inkscape:current-layer="svg2993" />
  <path
     inkscape:connector-curvature="0"
     id="path3011"
     d="m 397.44591,964.4228 c -20.1338,-3.4116 -32.3014,-21.9405 -31.7758,-48.3882 0.1108,-5.5769 1.1184,-17.9868 2.2391,-27.5777 2.3293,-19.9351 2.3424,-26.113 0.057,-26.8628 -0.8468,-0.2778 -2.1022,0.011 -2.7899,0.6415 -0.9135,0.8377 -1.8355,0.7783 -3.4229,-0.2204 -3.0966,-1.9484 -4.7744,-12.6421 -2.6979,-17.1958 1.8204,-3.992 5.7994,-6.361 9.9745,-5.9385 2.7628,0.2796 3.3829,-0.097 4.6172,-2.8036 0.7841,-1.7196 1.369,-4.2725 1.2998,-5.6731 -0.139,-2.8112 2.5289,-6.2894 5.9853,-7.8029 1.8474,-0.8089 2.3788,-2.1818 3.0459,-7.8701 0.4445,-3.7896 0.9361,-9.5998 1.0925,-12.9116 0.2771,-5.8653 2.1502,-21.236 5.7079,-46.839 0.9632,-6.9311 1.9315,-14.8636 2.1518,-17.6278 0.2204,-2.7643 1.0563,-8.9793 1.8575,-13.8113 0.8013,-4.8319 1.9112,-12.9967 2.4665,-18.1439 1.8795,-17.4223 3.0558,-27.4624 3.8469,-32.8335 0.4334,-2.9433 1.6372,-16.0164 2.675,-29.0512 1.0378,-13.0348 2.484,-28.7377 3.2138,-34.8953 0.7298,-6.1575 1.6246,-15.7158 1.9883,-21.2405 0.3637,-5.5247 1.0051,-11.1883 1.4252,-12.5857 0.4202,-1.3975 1.165,-7.742 1.6552,-14.099 0.4902,-6.3569 1.1289,-12.2673 1.4193,-13.1341 0.7514,-2.2426 -3.1994,-5.2657 -12.0425,-9.2149 -4.2651,-1.9047 -8.0262,-4.2973 -8.6342,-5.4925 -0.7519,-1.4781 -1.6817,-1.9345 -3.0784,-1.5112 -1.4098,0.4272 -2.3289,-0.039 -3.1104,-1.5785 -0.7549,-1.4869 -3.0548,-2.72 -7.1994,-3.8598 -3.3496,-0.9212 -7.4678,-2.2001 -9.1515,-2.8421 -3.4512,-1.3159 -11.3975,-3.1565 -13.6731,-3.167 -0.8262,0 -3.3161,-0.2433 -5.5331,-0.532 -2.2169,-0.2888 -8.4454,-0.5057 -13.841,-0.4821 -8.3135,0.036 -9.8912,0.29 -10.3413,1.6622 -0.4781,1.4571 -0.6635,1.4558 -1.8536,-0.014 -1.207,-1.4903 -2.6113,-1.4759 -16.1006,0.1649 -15.8197,1.9242 -32.4655,5.1933 -35.3942,6.9512 -0.9868,0.5923 -4.3156,1.6096 -7.3973,2.2607 -3.5826,0.7568 -5.9324,1.8283 -6.5161,2.9711 -2.0386,3.9918 -9.6599,12.0806 -10.7933,11.4552 -1.4957,-0.8252 -1.7409,-4.7657 -0.3893,-6.2579 0.5609,-0.6193 1.1097,-2.2008 1.2196,-3.5145 0.1098,-1.3137 0.9497,-6.3729 1.8663,-11.2427 1.2814,-6.8079 1.4558,-10.8659 0.7544,-17.5587 -1.195,-11.4026 -2.2498,-16.3121 -3.8823,-18.0692 -1.2863,-1.3845 -3.6361,-6.0254 -9.8914,-19.5353 -5.6438,-12.1894 -21.3794,-31.9832 -25.2728,-31.7906 -1.0067,0.05 -3.1711,-1.5009 -4.8097,-3.4459 -4.6023,-5.4632 -17.8639,-15.2545 -21.4389,-15.8289 -1.7595,-0.2827 -4.7154,-1.5399 -6.5686,-2.7938 -1.8532,-1.2539 -4.8531,-2.697 -6.6665,-3.2068 -1.8134,-0.5098 -3.9988,-1.4488 -4.8563,-2.0867 -0.8576,-0.6379 -3.3856,-1.6489 -5.6178,-2.2467 -2.2323,-0.5978 -6.9643,-2.0277 -10.5157,-3.1777 -3.5514,-1.1499 -7.0256,-1.8398 -7.7204,-1.533 -0.6948,0.3068 -2.1296,0.028 -3.1885,-0.6188 -4.0889,-2.4989 -27.921,-3.1711 -30.02648,-0.8469 -0.9684,1.069 -9.1137,1.4068 -9.8025,0.4065 -0.3036,-0.4411 0.5398,-2.5092 1.8743,-4.5958 2.2303,-3.4873 4.9649,-5.5164 21.87068,-16.2289 4.2744,-2.7084 30.5002,-30.5678 35.4786,-37.6884 2.5753,-3.6836 35.5067,-43.681 39.9473,-48.5188 1.7986,-1.9595 8.6201,-9.792 15.1588,-17.4055 17.4784,-20.3514 59.7952,-62.56259 62.8717,-62.71469 0.5293,-0.026 4.9091,-3.1883 9.733,-7.0269 4.8239,-3.8387 12.5833,-9.5676 17.2432,-12.731 11.9427,-8.1073 35.4802,-21.377 38.1526,-21.5091 2.8483,-0.1409 15.6541,-4.1064 22.9795,-7.1159 3.0898,-1.2694 6.9998,-2.3764 8.6888,-2.4599 1.6889,-0.083 4.4716,-0.9663 6.1835,-1.96171 2.6573,-1.54502 6.111,-1.91558 23.6041,-2.53256 11.2702,-0.3975 23.1853,-0.91157 26.4779,-1.14237 15.33014,-0.77948 28.48141,-2.87946 44.0195,-3.44005 2.50123,-9.77474 8.16917,-42.94487 13.3113,-60.848896 -0.79594,19.968796 -3.39998,51.835986 -3.3256,60.467836 6.17383,0.43241 18.57988,1.86473 31.0852,3.54776 2.7747,0.43222 6.6286,0.9207 8.5641,1.08551 18.16,1.54641 26.3481,2.61311 30.2907,3.94614 2.5531,0.8632 6.8785,1.7768 9.612,2.0302 2.7334,0.2533 7.2788,1.5956 10.1008,2.9829 2.8219,1.3872 6.2703,2.7878 7.663,3.1123 1.3928,0.3246 6.3179,2.1589 10.9447,4.0762 4.6268,1.9174 9.4331,3.4443 10.6806,3.393 3.1672,-0.1301 11.8666,4.9504 13.3316,7.7857 0.6691,1.2947 2.6018,2.8492 4.295,3.4544 1.6932,0.6053 4.5692,2.4083 6.391,4.0069 1.8219,1.5985 6.5595,5.3835 10.5281,8.4112 3.9686,3.0277 9.69,8.288 12.7143,11.6898 3.0243,3.4017 7.7478,7.8099 10.4966,9.7961 2.7489,1.9861 7.867,6.9623 11.3736,11.0582 3.5066,4.0959 8.8731,10.1183 11.9255,13.3831 3.0525,3.2648 5.5665,6.2701 5.5867,6.6784 0.02,0.4083 1.5513,2.47179 3.4024,4.58549 3.3505,3.8258 11.7144,17.7664 11.822,19.7044 0.031,0.5596 0.7056,2.1242 1.499,3.477 0.7934,1.3529 3.3792,7.3074 5.7462,13.2324 2.3671,5.925 5.4558,13.419 6.8639,16.6534 1.4082,3.2344 3.4232,8.3161 4.4778,11.2926 5.6136,15.8432 22.0735,57.1562 24.45,61.3673 7.613,13.4904 14.9232,21.1151 27.707,28.8989 7.4985,4.5658 17.7727,15.206 17.9394,18.5787 0.085,1.7131 -0.3476,1.9099 -3.1823,1.4488 -1.8042,-0.2934 -3.8198,-0.9248 -4.4791,-1.403 -1.11,-0.805 -5.5878,-0.014 -7.7436,1.3673 -0.5103,0.3271 -4.9876,0.8981 -9.9495,1.2691 -10.932,0.8172 -21.2861,3.3784 -35.6519,8.8191 -25.4347,9.6326 -40.8858,19.388 -48.4811,30.6093 -1.8026,2.6631 -4.9726,7.1786 -7.0445,10.0344 -2.0719,2.8558 -4.0031,6.1052 -4.2915,7.2208 -0.2885,1.1156 -1.4444,3.4255 -2.5687,5.1331 -1.1244,1.7076 -3.6244,6.3367 -5.5557,10.2869 -3.003,6.1424 -3.4875,8.1528 -3.3464,13.8862 0.091,3.6871 -0.2658,7.3092 -0.7925,8.0489 -0.5267,0.7398 -1.1917,2.5957 -1.4779,4.1242 -0.606,3.237 -2.4307,3.649 -4.9581,1.1194 -0.984,-0.9848 -4.3902,-2.3987 -7.5694,-3.1419 -5.6479,-1.3204 -9.2955,-2.3524 -20.3788,-5.7656 -8.8442,-2.7236 -20.9961,-3.1047 -43.2571,-1.3565 -23.2926,1.8292 -31.7064,3.8658 -46.5008,11.2558 -1.8809,0.9395 -5.4896,2.7415 -8.0193,4.0044 -2.5297,1.2629 -5.2326,2.0885 -6.0065,1.8346 -0.7739,-0.2539 -1.9492,0.2615 -2.6118,1.1454 -0.6626,0.8838 -1.9936,1.646 -2.9577,1.6936 -0.9642,0.048 -2.2792,0.7886 -2.9223,1.6464 -0.6431,0.8578 -2.0431,1.6028 -3.1112,1.6557 -1.068,0.053 -3.3595,1.2925 -5.0921,2.7548 -1.7326,1.4624 -3.621,2.6821 -4.1964,2.7106 -0.5754,0.029 -3.1327,2.1196 -5.683,4.6471 -2.5503,2.5274 -6.522,5.6217 -8.826,6.8761 -4.0338,2.1962 -9.1093,6.845 -23.2536,21.299 -5.3259,5.4425 -6.5414,7.2725 -6.2683,9.4375 0.4317,3.4227 -2.3509,8.2485 -4.6055,7.9872 -1.2308,-0.1426 -1.6876,0.5055 -1.6132,2.289 0.065,1.5545 -0.5386,2.6449 -1.6084,2.9063 -0.9417,0.2301 -1.736,-0.064 -1.7652,-0.6536 -0.029,-0.5896 -0.7693,-1.0366 -1.6447,-0.9933 -0.8754,0.043 -1.8712,-0.8086 -2.2128,-1.893 -0.8793,-2.7913 -2.1083,-2.3829 -3.7655,1.2512 -0.7871,1.7261 -1.9754,2.9865 -2.6406,2.801 -2.4059,-0.671 -1.9975,-3.9191 1.2292,-9.7755 l 3.2903,-5.9719 -2.3612,-5.2527 c -1.2986,-2.8891 -2.7711,-6.1337 -3.2723,-7.2102 -0.5011,-1.0766 -2.1041,-4.9396 -3.5621,-8.5846 -3.4561,-8.6402 -5.7517,-8.9394 -5.5688,-0.7258 0.07,3.1629 -0.4617,8.4831 -1.1825,11.8228 -0.7208,3.3397 -1.7095,12.1743 -2.1971,19.6325 -1.2791,19.5623 -5.9213,66.4221 -8.9209,90.0505 -0.7738,6.0957 -1.7222,14.4777 -2.1075,18.6268 -0.3853,4.1491 -1.488,12.9894 -2.4503,19.645 -0.9624,6.6557 -2.114,15.2731 -2.5591,19.1498 -0.4452,3.8767 -1.1005,9.541 -1.4562,12.5873 -0.5959,5.1019 -2.8385,21.6129 -6.5917,48.5299 -0.823,5.9026 -1.4639,11.3895 -1.4241,12.1931 0.045,0.9118 1.6795,1.7179 4.3478,2.1444 3.1085,0.4969 4.3884,1.224 4.6888,2.6638 0.2273,1.0892 0.9199,2.8908 1.5391,4.0036 1.4056,2.5261 0.7294,10.0188 -2.9882,33.1116 -1.5192,9.4365 -3.4143,22.1456 -4.2113,28.2424 -0.7971,6.0968 -1.752,12.677 -2.122,14.6227 -0.9177,4.8251 -0.4071,18.0442 0.748,19.3673 0.5159,0.5909 1.557,2.7143 2.3135,4.7186 0.9023,2.3903 2.6159,4.3286 4.98,5.6329 3.1281,1.7258 4.6819,1.8784 11.7578,1.1546 14.8135,-1.5154 23.272,-9.3515 28.5893,-26.4857 1.4356,-4.6263 2.8784,-10.5311 3.2061,-13.1218 1.0435,-8.2503 4.3447,-12.0541 10.7357,-12.3701 6.7827,-0.3354 10.3501,7.9787 8.2282,19.1768 -2.8632,15.1102 -5.8434,25.7871 -8.4268,30.1899 -0.8733,1.4884 -4.8972,6.4218 -8.9418,10.9632 -7.7253,8.6739 -13.9846,12.839 -23.136,15.3954 -7.17,2.0029 -27.8116,3.3097 -34.4665,2.1821 z m 30.8804,-6.1713 c 9.9365,-2.0583 14.4372,-4.8478 23.1178,-14.3283 7.3452,-8.0222 13.3303,-17.9957 13.1375,-21.8927 -0.039,-0.796 0.8866,-4.8501 2.0576,-9.009 2.4525,-8.7102 2.4658,-18.7567 0.027,-20.5849 -0.8327,-0.6243 -1.9633,-0.8259 -2.5122,-0.4479 -1.9737,1.3589 -6.3091,9.4746 -8.2599,15.4619 -7.1142,21.8354 -7.7907,22.9653 -17.6733,29.5176 -6.2884,4.1693 -7.1935,4.4668 -16.5853,5.4514 -9.6584,1.0126 -10.0246,0.9726 -13.2004,-1.4422 -1.7966,-1.366 -3.6871,-2.4628 -4.2012,-2.4374 -0.5141,0.025 -2.1777,-2.4264 -3.6969,-5.4485 -2.2157,-4.4077 -2.8367,-7.1005 -3.139,-13.6116 -0.2074,-4.4642 -0.027,-10.0688 0.4003,-12.4545 0.4274,-2.3857 1.5886,-10.3278 2.5803,-17.649 2.8337,-20.9185 5.297,-37.1344 6.3566,-41.8441 0.5353,-2.3795 0.7054,-4.7155 0.3779,-5.1911 -0.3274,-0.4755 -0.2164,-2.0316 0.2466,-3.4579 1.1989,-3.693 -0.5022,-4.17 -4.6608,-1.3067 -3.5894,2.4714 -8.1424,3.1947 -17.6938,2.811 l -4.9629,-0.1994 -1.3201,7.0371 c -0.7261,3.8704 -1.6959,10.8853 -2.1553,15.5888 -0.4593,4.7034 -1.369,11.0561 -2.0215,14.117 -5.4212,25.4298 -5.8188,44.2344 -1.2517,59.1937 1.5553,5.0945 3.7856,9.8932 5.7474,12.3661 4.4528,5.613 12.7241,10.303 19.859,11.2604 3.2097,0.4307 6.0776,1.0021 6.3731,1.2697 0.699,0.6332 14.8101,-1.062 23.0531,-2.7695 z m -32.9494,-132.9122 c 0.4229,-4.4263 1.0656,-12.568 1.4282,-18.0926 0.5868,-8.9405 2.6945,-25.0282 6.2716,-47.8682 0.6518,-4.1622 1.6151,-11.4187 2.1407,-16.1254 0.8374,-7.4999 2.07,-16.0565 6.6097,-45.8824 0.5912,-3.884 1.8199,-15.8843 2.7306,-26.6674 1.7198,-20.3631 3.6434,-41.2607 5.2311,-56.8278 0.5081,-4.9811 1.0407,-12.4415 1.1837,-16.5786 0.2633,-7.6205 1.161,-15.7051 2.4592,-22.1485 0.3923,-1.9468 1.2595,-6.4952 1.9273,-10.1076 l 1.2142,-6.5679 -3.0909,-3.8521 c -1.7,-2.1186 -3.4706,-3.7858 -3.9347,-3.7048 -1.6251,0.2834 -4.8908,28.4169 -5.5401,47.7265 -0.1392,4.1369 -0.7499,10.3901 -1.3572,13.896 -0.6073,3.5059 -1.0042,8.3953 -0.8821,10.8653 0.2942,5.9491 -0.9081,18.3126 -2.0917,21.5091 -0.5192,1.4023 -1.1876,5.7156 -1.4853,9.585 -0.5321,6.9166 -1.9519,18.3638 -4.9979,40.296 -0.8471,6.0993 -2.032,14.7184 -2.6332,19.1535 -0.6012,4.4351 -1.4092,10.1069 -1.7956,12.604 -0.3865,2.4972 -1.0067,7.8884 -1.3782,11.9806 -0.3716,4.0922 -1.1969,10.4407 -1.8339,14.1078 -0.637,3.6671 -1.4749,9.837 -1.8619,13.7108 -0.387,3.8739 -1.1483,11.3456 -1.6918,16.6038 -0.5434,5.2583 -1.5197,15.8945 -2.1694,23.636 -0.6497,7.7416 -1.3842,16.448 -1.6321,19.3476 -0.5083,5.9441 0.9153,8.5155 4.3457,7.8499 1.7789,-0.3453 2.1716,-1.516 2.834,-8.4486 z m 72.3433,-259.6398 c 9.4211,-10.6618 24.6128,-24.9962 26.595,-25.0942 0.3602,-0.018 1.8073,-0.9116 3.2158,-1.9863 6.5726,-5.0146 30.1266,-14.9406 39.3111,-16.5663 2.9626,-0.5244 6.503,-1.8192 7.8675,-2.8773 1.3646,-1.0582 5.8166,-2.8051 9.8934,-3.882 4.0768,-1.077 9.1886,-2.4826 11.3596,-3.1235 10.7087,-3.1616 34.8786,-3.6944 47.0062,-1.0363 2.7835,0.6101 7.8309,1.2342 11.2164,1.387 3.3856,0.1527 8.2186,0.8662 10.7401,1.5855 6.5501,1.8686 13.852,2.3885 13.7824,0.9813 -0.031,-0.6225 -1.5906,-4.0984 -3.4662,-7.7241 -4.3756,-8.4584 -4.8498,-9.4267 -7.7808,-15.8878 -1.3438,-2.9622 -3.3137,-7.1451 -4.3776,-9.2951 -3.3096,-6.6889 -12.2007,-29.1595 -13.7937,-34.8613 -0.8347,-2.9874 -2.704,-8.5269 -4.154,-12.3099 -1.4501,-3.783 -3.5589,-10.8875 -4.6863,-15.7878 -2.7929,-12.1387 -5.7042,-22.888 -7.5688,-27.9452 -0.8544,-2.3174 -1.5883,-4.9163 -1.6307,-5.7754 -0.043,-0.8591 -0.8043,-2.9458 -1.6928,-4.6371 -1.8634,-3.5468 -7.5272,-19.8356 -7.6316,-21.9481 -0.039,-0.7818 -0.7433,-2.3861 -1.5658,-3.5651 -0.8225,-1.179 -1.9001,-3.9223 -2.3948,-6.0964 -0.4946,-2.174 -1.218,-4.391 -1.6075,-4.9266 -0.3895,-0.5356 -1.3397,-3.4206 -2.1116,-6.4111 -0.7718,-2.9906 -1.9341,-6.7628 -2.5828,-8.3827 -2.648,-6.6122 -3.7536,-10.3003 -5.6272,-18.7713 -2.7316,-12.3505 -5.955,-18.4424 -19.6039,-37.0507 -16.8234,-22.93629 -28.491,-34.97749 -43.5298,-44.92379 -4.5543,-3.0122 -10.9702,-7.7861 -14.2575,-10.6088 -3.9694,-3.4083 -6.4986,-4.9018 -7.5299,-4.4464 -2.9591,1.3067 -5.128,9.6471 -5.8207,22.3834 -0.3692,6.789 -0.9024,12.7626 -1.185,13.2747 -0.2825,0.5121 -0.4752,6.4731 -0.4282,13.24669 0.047,6.7736 -0.315,12.8646 -0.8044,13.5355 -0.8661,1.1875 -1.3106,8.9318 -1.4507,25.2771 -0.038,4.4072 -0.3141,11.855 -0.614,16.5505 -0.2998,4.6955 -0.735,14.1786 -0.967,21.0735 -0.232,6.8948 -0.6158,17.5017 -0.853,23.5709 -0.2371,6.0691 -0.5873,16.8996 -0.7781,24.0678 -0.3637,13.6576 -2.2581,48.9865 -2.9062,54.1973 -0.2076,1.6691 -0.6043,6.8756 -0.8816,11.57 -0.2773,4.6944 -1.136,14.8743 -1.9081,22.6219 -0.7722,7.7476 -1.5741,18.8921 -1.7822,24.7657 -0.4193,11.8412 -1.8303,20.9455 -4.9023,31.6332 -3.9252,13.656 -8.5052,42.9725 -6.6995,42.8833 0.5249,-0.026 4.389,-3.9341 8.5868,-8.6847 z m -14.2262,-6.0548 c 0.4268,-3.6005 1.2757,-9.4996 1.8866,-13.1092 0.6109,-3.6096 1.4582,-10.1844 1.883,-14.6108 0.4248,-4.4264 2.1544,-15.3251 3.8434,-24.2194 3.7697,-19.8505 5.3515,-30.0617 6.0872,-39.2971 0.3105,-3.8984 1.5347,-19.0756 2.7204,-33.727 1.1857,-14.6515 2.3664,-32.2813 2.6237,-39.1774 0.2574,-6.8961 0.6619,-17.5041 0.8989,-23.5732 0.237,-6.0691 0.7029,-19.6086 1.0353,-30.0878 0.3324,-10.4792 0.8501,-23.3455 1.1504,-28.5917 1.7439,-30.4659 0.422,-70.32909 -2.723,-82.11989 -0.92,-3.449 -1.7802,-8.1253 -1.9116,-10.3917 -0.2997,-5.1677 -2.0878,-6.7153 -5.8538,-5.0662 -7.1934,3.1498 -16.1557,11.4731 -30.3609,28.1957 -12.3606,14.55129 -16.833,20.76729 -26.0046,36.14339 -6.0921,10.2133 -13.5968,22.5447 -16.677,27.403 -3.0803,4.8584 -6.1234,9.9649 -6.7625,11.3479 -2.2584,4.8867 -3.8227,7.7672 -10.3454,19.0489 -3.6251,6.2701 -7.8695,14.2779 -9.4321,17.7951 -1.5626,3.5173 -4.7816,9.7315 -7.1533,13.8095 -4.6404,7.9786 -4.8648,8.4012 -9.3841,17.6775 -1.6495,3.3856 -3.7599,7.3734 -4.6899,8.8618 -0.93,1.4884 -2.0977,3.7989 -2.5949,5.1344 -0.4972,1.3356 -2.5616,5.3714 -4.5875,8.9686 -2.026,3.5972 -3.6665,6.8863 -3.6456,7.3092 0.021,0.4229 -1.9496,3.8516 -4.379,7.6194 -10.1117,15.6824 -12.1225,19.0469 -12.7065,21.2608 -0.3377,1.28 -2.4,4.9463 -4.583,8.1474 -2.1829,3.2012 -4.6944,7.4331 -5.5809,9.4042 -0.8866,1.9712 -2.6002,5.0271 -3.8081,6.7908 -2.6087,3.8094 -2.6397,4.3328 -0.389,6.5854 2.6042,2.6064 0.3409,5.195 -4.0201,4.598 -3.0473,-0.4171 -3.5206,-0.057 -7.2989,5.5506 -2.2222,3.2982 -4.9845,7.3906 -6.1384,9.0943 -1.154,1.7037 -3.3284,5.6365 -4.8321,8.7396 -1.5036,3.103 -3.2385,6.4337 -3.8552,7.4015 -1.5045,2.3607 -0.1341,3.3952 2.573,1.9423 2.5894,-1.3898 5.958,-2.7473 13.9871,-5.6368 7.163,-2.5778 25.1909,-3.7001 47.9112,-2.9826 20.7807,0.6562 30.5599,2.0855 38.663,5.6511 10.1516,4.467 23.9878,11.5179 26.3589,13.4326 1.1471,0.9263 4.0461,2.5498 6.4421,3.6077 2.3961,1.0579 7.5719,4.6696 11.5019,8.0261 6.8271,5.8308 9.8535,9.3442 21.7777,25.2828 6.1926,8.2774 7.1579,8.0193 8.3736,-2.2388 z m 10.0483,-23.0835 c -0.012,-0.2422 -0.4712,-0.4182 -1.0206,-0.391 -0.5493,0.027 -0.9752,0.5253 -0.9464,1.1071 0.029,0.5817 0.488,0.7577 1.0205,0.391 0.5326,-0.3666 0.9585,-0.8648 0.9465,-1.1071 z m 1.556,-9.0288 c -0.041,-0.824 -0.5236,-1.476 -1.0729,-1.4488 -0.5493,0.027 -0.9654,0.7236 -0.9247,1.5476 0.041,0.8239 0.5235,1.4759 1.0729,1.4487 0.5493,-0.027 0.9654,-0.7235 0.9247,-1.5475 z m 1.0929,-9.4696 c -1.3238,-1.9226 -2.6127,-1.0156 -2.4763,1.7428 0.1236,2.4978 0.2549,2.5776 1.6705,1.0146 0.8451,-0.9329 1.2077,-2.1738 0.8058,-2.7574 z m 191.1966,-17.6198 c 1.7916,-3.9391 3.2364,-7.5876 3.2107,-8.1077 -0.026,-0.5201 1.0141,-3.5062 2.3108,-6.6358 3.7965,-9.1631 28.4605,-33.5549 44.7339,-44.2402 13.3603,-8.7725 32.7728,-16.8432 44.217,-18.3829 4.0639,-0.5468 7.3742,-1.2929 7.3561,-1.6581 -0.018,-0.3652 -3.1382,-2.9607 -6.9337,-5.7678 -3.7955,-2.8072 -11.1615,-8.2656 -16.3688,-12.1299 -9.6282,-7.1449 -36.7197,-30.9493 -38.7905,-34.0839 -0.6251,-0.9462 -2.722,-4.376 -4.6599,-7.6219 -1.9378,-3.2459 -4.0023,-6.1658 -4.5877,-6.4888 -0.8963,-0.4945 -5.9256,-7.0387 -10.1441,-13.1995 -3.3213,-4.8506 -12.9912,-16.361 -41.1638,-48.9985 -16.9166,-19.5975 -33.6729,-35.5555 -40.8066,-38.86239 -1.4089,-0.6531 -4.8532,-2.9079 -7.6538,-5.0107 -6.0882,-4.571 -19.6173,-12.5386 -27.4344,-16.1567 -14.8728,-6.8838 -20.3274,-9.1021 -24.5225,-9.9732 -2.5038,-0.5199 -5.1211,-1.3662 -5.8164,-1.8807 -0.6953,-0.5145 -1.7243,-0.7564 -2.2867,-0.5375 -1.3457,0.5238 4.9989,8.9264 10.8091,14.3155 8.7215,8.0892 16.7449,17.6793 20.5022,24.50539 4.6926,8.5253 7.3064,13.7573 7.354,14.7203 0.037,0.749 6.7658,15.1185 9.603,20.5073 2.3577,4.4783 11.6405,23.8303 14.0741,29.3407 1.19,2.6945 2.9627,8.0135 3.9394,11.8199 0.9766,3.8064 3.1197,10.9092 4.7623,15.784 1.6427,4.8749 3.7908,12.428 4.7737,16.7848 0.9828,4.3567 3.7779,15.0317 6.2113,23.7221 2.4334,8.6905 5.2078,19.1412 6.1655,23.2239 4.4958,19.1672 15.1348,52.5924 19.6089,61.6067 0.5335,1.0749 2.2863,4.8179 3.8951,8.3178 1.6087,3.4998 3.5837,7.6823 4.3887,9.2945 8.8736,17.7714 7.9823,17.3817 13.2531,5.7933 z m -190.4511,13.6488 c -0.097,-1.9552 -2.0347,-1.6932 -2.3192,0.3135 -0.1736,1.2246 0.1944,1.7012 1.0551,1.3662 0.7269,-0.2829 1.2958,-1.0388 1.2641,-1.6797 z m -154.5665,2.4732 c 5.7199,-1.563 -3.0912,-1.4604 -9.3892,0.1094 -2.1487,0.5355 -2.4999,0.9199 -1.4247,1.5597 0.7847,0.4669 2.761,0.495 4.3916,0.062 1.6306,-0.4326 4.5206,-1.2118 6.4223,-1.7314 z m -39.3268,-22.6605 c 3.7898,-5.1036 8.9507,-12.5351 11.4687,-16.5143 2.5181,-3.9792 6.3652,-9.6347 8.5494,-12.5677 13.8023,-18.5352 19.2093,-25.9109 20.8503,-28.4418 7.8668,-12.1328 16.2466,-25.78 16.2155,-26.4082 -0.021,-0.4175 0.5646,-1.5001 1.3005,-2.4059 0.7358,-0.9058 5.0806,-9.0407 9.6549,-18.0776 4.5744,-9.037 8.6945,-17.1254 9.1558,-17.9742 0.4614,-0.8488 3.1816,-6.1646 6.0449,-11.8129 2.8633,-5.6484 5.9119,-11.431 6.7747,-12.8503 0.8628,-1.4194 3.3343,-6.2658 5.4922,-10.7699 3.504,-7.3136 7.2249,-13.9156 17.2661,-30.6355 1.6706,-2.7818 3.7492,-6.5275 4.6191,-8.3237 2.4365,-5.0308 4.6322,-8.5917 12.2194,-19.8171 3.8529,-5.7004 9.5054,-14.4729 12.5611,-19.4944 14.2284,-23.38169 20.199,-30.57159 33.6437,-40.51429 6.7608,-4.9997 10.4503,-8.366 10.2167,-9.3218 -0.5226,-2.1385 -4.0374,-2.3569 -5.3687,-0.3335 -1.3519,2.0546 -8.245,3.7992 -8.3286,2.1079 -0.031,-0.6212 0.8805,-1.1758 2.0249,-1.2323 1.2183,-0.06 1.8846,-0.612 1.6075,-1.3311 -1.2158,-3.1549 -39.424,-0.3309 -51.6291,3.816 -4.0618,1.3801 -8.6339,2.5537 -10.1602,2.6082 -1.5263,0.054 -6.7829,1.6316 -11.6814,3.5048 -4.8984,1.8732 -9.3623,3.4284 -9.9197,3.456 -0.5575,0.028 -2.9681,1.5147 -5.357,3.3048 -3.3177,2.4862 -4.6731,3.0077 -5.7393,2.2083 -1.0604,-0.795 -3.5813,0.014 -10.4925,3.3686 -5.0033,2.4283 -12.1815,5.814 -15.9516,7.5239 -3.7702,1.7098 -8.5926,4.4132 -10.7164,6.0074 -2.1239,1.5943 -9.1193,5.9095 -15.5454,9.5895 -12.4293,7.11779 -27.1695,17.07299 -32.0785,21.66519 -1.6366,1.531 -8.0754,6.8655 -14.3085,11.8544 -17.4857,13.9955 -39.5783,35.0987 -59.5445,56.8779 -5.8868,6.4214 -11.1452,11.6971 -11.6852,11.7238 -0.5401,0.027 -0.963,0.4309 -0.9399,0.8981 0.048,0.9628 -9.2464,7.6154 -10.7425,7.6894 -0.5363,0.026 -3.2303,1.8856 -5.9868,4.1313 -6.8514,5.5818 -17.1687,12.4567 -25.6446,17.0881 -3.8873,2.1242 -7.0494,4.236 -7.0268,4.6931 0.023,0.4571 2.8653,0.9981 6.3171,1.2023 10.6121,0.6277 18.8031,2.4513 27.4949,6.1213 4.5806,1.9341 9.6897,3.956 11.3536,4.4932 7.5752,2.4457 43.3767,29.0117 52.8414,39.2105 6.3187,6.8087 12.9485,16.2958 15.7057,22.4746 0.8414,1.8858 2.9508,6.2058 4.6874,9.6 1.7366,3.3942 3.1996,7.0237 3.2511,8.0653 0.082,1.6678 1.9874,6.1932 4.5512,10.8122 0.464,0.8359 1.5074,4.076 2.3188,7.2001 0.9054,3.4861 1.9185,5.5122 2.6227,5.245 0.6311,-0.2394 4.2481,-4.611 8.0379,-9.7147 z m 472.9585,-96.6548 c -0.082,-1.483 -5.1217,-11.565 -6.9456,-13.8964 -1.0255,-1.3108 -1.9124,-3.3498 -1.9708,-4.5311 -0.1396,-2.8237 -4.0798,-10.5988 -6.1624,-12.1601 -2.4786,-1.8583 -4.2373,-5.4783 -6.6286,-13.6442 -5.2651,-17.9796 -7.8653,-25.6623 -11.1651,-32.9889 -1.9409,-4.3094 -3.9628,-9.262 -4.493,-11.0059 -1.2779,-4.2027 -9.0666,-21.1057 -10.2555,-22.2562 -0.5143,-0.4978 -0.972,-1.6534 -1.0173,-2.5681 -0.045,-0.9147 -1.0376,-2.7614 -2.2054,-4.1038 -1.1677,-1.3424 -2.1601,-3.1887 -2.2053,-4.1029 -0.1347,-2.7241 -10.3011,-17.8242 -17.3012,-25.69719 -2.1105,-2.3736 -6.1994,-7.578 -9.0865,-11.5653 -5.0828,-7.0197 -21.9222,-25.0687 -23.9914,-25.7148 -0.5894,-0.184 -0.714,0.5018 -0.2952,1.6254 0.4341,1.1647 0.1617,2.4597 -0.6796,3.2312 -1.1312,1.0373 -2.2816,0.8299 -5.9204,-1.0677 -2.484,-1.2954 -5.4762,-2.3078 -6.6492,-2.2497 -1.173,0.058 -4.0974,-0.6571 -6.4986,-1.5891 -3.7106,-1.4402 -17.8545,-5.2496 -28.6934,-7.7281 -1.6709,-0.3821 -7.5658,-1.145 -13.0997,-1.6954 -5.534,-0.5504 -13.4582,-1.3505 -17.6093,-1.778 -15.9274,-1.6401 -51.0598,0.051 -50.9411,2.4517 0.021,0.4287 1.9763,1.2426 4.3446,1.8087 7.2,1.721 16.8483,6.0512 25.2091,11.314 4.367,2.7488 11.5033,6.6659 15.8584,8.7045 17.1924,8.0479 36.879,20.4161 47.355,29.751 3.8057,3.39119 10.1077,8.93669 14.0045,12.32339 3.8968,3.3867 9.5116,9.4167 12.4774,13.4001 2.9658,3.9834 7.0979,8.9948 9.1825,11.1364 4.0425,4.1532 13.9682,15.5496 26.1054,29.9733 33.1237,39.3642 40.5029,47.0449 59.7558,62.1978 14.4664,11.3856 19.6475,14.6834 19.5219,12.4254 z m -601.4773,-20.0969 c 2.6973,-1.5261 8.5638,-5.5332 13.0367,-8.9048 4.473,-3.3716 11.0478,-8.0828 14.6108,-10.4694 9.4791,-6.3493 13.6132,-9.9582 19.4354,-16.9666 6.6451,-7.9989 13.596,-15.2218 23.419,-24.3356 4.295,-3.9849 14.1293,-13.1896 21.854,-20.455 7.7247,-7.2654 15.9134,-14.6539 18.1973,-16.4188 2.2838,-1.765 8.2123,-6.3569 13.1745,-10.2043 10.3144,-7.9973 13.6203,-10.1942 28.4573,-18.91159 5.8864,-3.4584 12.8791,-7.8284 15.5394,-9.7111 5.67,-4.0126 16.0438,-9.6476 23.7962,-12.9259 3.0176,-1.2761 10.7521,-5.1712 17.1879,-8.6559 6.4357,-3.4847 18.4419,-9.4504 26.6804,-13.2571 14.455,-6.6791 15.4209,-6.9769 27.6132,-8.5129 25.8485,-3.2564 36.4572,-4.0513 41.9892,-3.1462 8.7873,1.4379 8.1757,-0.5582 -1.0696,-3.4909 -2.5175,-0.7986 -5.5136,-2.1637 -6.658,-3.0335 -3.4669,-2.6352 -11.045,-5.3677 -17.3841,-6.2682 -3.2978,-0.4686 -6.4421,-1.2169 -6.9873,-1.663 -0.5452,-0.4461 -2.1599,-0.7533 -3.5881,-0.6826 -1.4283,0.071 -3.042,-0.2179 -3.5861,-0.6412 -1.5297,-1.19 -14.6041,-3.2635 -23.1596,-3.6729 -7.6247,-0.3648 -18.6026,0.5357 -20.5126,1.6827 -1.0539,0.6329 -2.399,0.8844 -2.9891,0.5588 -0.5901,-0.3256 -1.8774,0.2119 -2.8608,1.1945 -0.9834,0.9825 -2.1956,1.5614 -2.6939,1.2865 -0.9563,-0.5276 -8.9152,2.3734 -10.5608,3.8492 -1.1177,1.0025 -16.2264,7.8247 -17.4816,7.8936 -0.4625,0.026 -1.9318,0.9951 -3.2651,2.1549 -1.3332,1.1597 -2.7871,1.9083 -3.2308,1.6635 -1.2073,-0.666 -12.6296,5.9724 -17.0135,9.888 -2.1096,1.8841 -4.9432,3.805 -6.2969,4.2687 -1.3538,0.4636 -5.4438,3.0862 -9.089,5.828 -3.6452,2.7417 -7.9953,5.883 -9.667,6.9807 -1.6717,1.0976 -4.8513,3.5076 -7.0658,5.3555 -2.2146,1.8479 -6.6717,5.47 -9.9047,8.0491 -3.233,2.5791 -6.5993,5.6863 -7.4807,6.9049 -0.8813,1.2185 -3.0187,3.3227 -4.7498,4.6759 -1.7311,1.3531 -3.8129,3.922 -4.6262,5.7085 -0.8133,1.7864 -4.52,6.32709 -8.2369,10.09019 -9.3356,9.4516 -16.7367,18.0396 -16.6721,19.3459 0.067,1.3605 -4.9584,6.5941 -14.1199,14.7041 -7.3002,6.4623 -12.872,13.198 -14.0723,17.0117 -0.3831,1.2173 -4.6488,6.6831 -9.4794,12.1462 -7.3885,8.356 -8.669,10.3072 -8.0658,12.2903 0.4689,1.5411 0.026,3.5676 -1.2776,5.8533 -1.9064,3.3413 -1.9737,3.3732 -1.5197,0.7192 0.3,-1.7537 0.06,-2.7563 -0.6522,-2.7211 -0.6199,0.031 -5.2487,4.5448 -10.2862,10.0313 -5.0374,5.4866 -13.0159,13.9796 -17.73,18.8734 -4.714,4.8938 -7.9615,8.8791 -7.2166,8.8562 0.7449,-0.023 3.5612,-1.2902 6.2585,-2.8162 z m 444.3972,-40.7568 c -0.856,-0.7753 -1.146,-0.6489 -1.0904,0.4753 0.098,1.9854 1.5077,3.2621 1.9304,1.7485 0.1793,-0.6422 -0.1987,-1.6429 -0.84,-2.2238 z m -3.416,-9.7723 c -0.7521,-0.6813 -1.2203,-0.7172 -1.1893,-0.091 0.066,1.3331 1.3055,2.4559 1.9391,1.7563 0.2698,-0.2978 -0.068,-1.0471 -0.7498,-1.665 z m -31.3737,-67.5329 c -0.7521,-0.6813 -1.2203,-0.7172 -1.1893,-0.091 0.066,1.3331 1.3055,2.4559 1.9391,1.7563 0.2698,-0.2978 -0.068,-1.047 -0.7498,-1.6649 z m 84.4486,-50.03369 c -0.074,-1.4976 -17.3899,-11.429 -22.6874,-13.0122 -18.357,-5.4864 -23.5912,-7.3702 -29.0345,-10.4496 -7.0335,-3.979 -14.6356,-7.2799 -16.5479,-7.1854 -0.7126,0.035 -3.5016,-1.1322 -6.1979,-2.5944 -2.8829,-1.5634 -7.1716,-2.8465 -10.4114,-3.115 -3.03,-0.2511 -7.1766,-0.9538 -9.2146,-1.5615 -2.038,-0.6076 -5.4353,-0.7908 -7.5495,-0.4071 -2.1142,0.3838 -5.6574,0.9146 -7.8739,1.1796 -2.2165,0.2651 -7.301,2.0506 -11.2989,3.9679 -3.9979,1.9172 -7.6698,3.5057 -8.1598,3.53 -1.2021,0.059 -12.3083,8.9106 -14.2397,11.3485 -2.0897,2.6376 -0.9713,8.4269 1.6033,8.2996 1.0039,-0.05 2.0808,-0.5535 2.3931,-1.1196 0.3123,-0.5661 3.0466,-1.1519 6.076,-1.3017 3.0295,-0.1498 11.9853,-1.5502 19.9019,-3.1119 l 14.3937,-2.8395 18.2707,1.796 c 16.279,1.6002 28.0703,3.1791 57.012,7.6343 6.9527,1.0702 8.6462,1.6932 9.4001,3.4579 0.5057,1.184 1.7723,2.1104 2.8146,2.0589 1.0423,-0.052 3.008,0.6851 4.3684,1.6369 3.8607,2.7014 7.0674,3.5228 6.9817,1.7883 z m -114.7622,3.0307 c -2.9637,-1.2261 -5.9005,-2.03 -6.5263,-1.7864 -0.6257,0.2435 1.349,1.2561 4.3884,2.2502 7.5646,2.4743 8.6634,2.2359 2.1379,-0.4638 z m -120.3957,-9.5272 c 0.536,-0.5473 -0.3652,-0.8617 -2.2089,-0.7706 -3.7373,0.1849 -6.2312,1.1795 -6.1679,2.46 0.054,1.0954 7.0267,-0.3107 8.3768,-1.6894 z m 91.2624,-20.2267 c 2.0659,-1.6528 6.3815,-4.5826 9.5902,-6.5106 7.2523,-4.3579 10.8369,-7.3461 9.8665,-8.225 -1.4847,-1.3448 -20.5844,-4.0763 -24.2113,-3.4625 l -3.7234,0.6301 0.339,6.632 c 0.4454,8.7145 1.6574,14.0759 3.1652,14.0013 0.6697,-0.033 2.9079,-1.4125 4.9738,-3.0653 z m -26.7027,-1.42 c -0.015,-0.3039 -1.2327,-2.1504 -2.706,-4.1035 -1.4732,-1.9532 -2.7265,-4.5188 -2.785,-5.7014 -0.1475,-2.9846 -4.3722,-5.1732 -9.4968,-4.9198 -2.3691,0.1171 -5.2442,-0.3764 -6.3892,-1.0968 -2.8988,-1.8239 -38.3657,0.1427 -40.6679,2.2549 -0.8544,0.7839 -2.4402,1.1721 -3.5704,0.8739 -2.4595,-0.6488 -9.0629,0.8061 -9.0047,1.9841 0.023,0.4633 1.7412,1.0422 3.8183,1.2866 7.84,0.9223 18.2486,2.5622 28.5066,4.4911 5.8363,1.0975 15.1419,2.4991 20.679,3.1145 5.5372,0.6156 11.8828,1.3829 14.1015,1.7054 5.2399,0.7614 7.5485,0.7955 7.5146,0.111 z"
     style="fill:#000000"
     sodipodi:nodetypes="csscccssccccccccscssscscssccsccccccsscccccssssccssscccscscsccsscsscsccscccccssccccccccsccsccscccccsscccccsssccccccccsscssccsccccsscccsccsccscccscsssscccscccssccccssccssccscccscscccssccsccscccsscccscsscccssccsscccsccccsccsssccsscsccssccssccscccssccccccccscsccssccsscscccsccssccscscssscscssssccssscssccscccsccccsccccccsssscsscccccccccccccccscsscccssccssscssscssccscccscscssccccccccccsccsccscscsscssscccccscscccccssssscccsccsssscsccscsccscssccccscscccscscsccsssssscssccssssscscssssscsccsccsssccccsccccccscccscscsccsccscccccccsccccscccscscsscccccccssscsccccssccsccccsccscscscccccscccsccc" />
  <path
     style="opacity:0.88789238000000004;fill:#00da00;fill-opacity:1;fill-rule:nonzero;stroke:none"
     d="M 375.375 340.5625 C 369.7011 350.9978 364.2356 360.94912 357.59375 373.59375 C 342.75935 401.83515 324.24625 435.6844 316.46875 448.8125 C 307.90815 463.2627 302.53755 474.4675 302.84375 477.1875 C 303.21555 480.491 302.12635 482.00055 298.71875 482.84375 C 295.69895 483.59095 291.1147 488.76795 285.5625 497.71875 C 280.8756 505.27455 276.96825 512.043 276.90625 512.75 C 276.84435 513.457 281.4488 512.243 287.125 510.0625 C 300.0661 505.0912 331.62685 503.35315 356.71875 506.21875 C 371.92145 507.95495 377.5151 509.67405 393.0625 517.46875 C 417.7864 529.86405 426.40735 536.3787 439.28125 552.3125 C 445.27135 559.7264 450.524 565.44475 450.9375 565.03125 C 451.3509 564.61785 453.482 551.9423 455.6875 536.875 C 457.893 521.8078 461.0508 501.7337 462.6875 492.25 C 466.31516 471.23044 470.1672 415.50829 472.625 362.5 C 464.80098 361.85705 456.96972 361.06355 449.25 359.96875 C 440.77678 358.76709 432.39234 357.27234 424.15625 355.5 C 420.0382 354.61383 415.97439 353.659 411.9375 352.625 C 407.90061 351.591 403.90991 350.49777 399.96875 349.3125 C 396.02759 348.12723 392.14335 346.87123 388.3125 345.53125 C 384.48165 344.19127 380.70595 342.74813 377 341.25 C 376.44975 341.02756 375.92231 340.78847 375.375 340.5625 z "
     id="path3785" />
  <path
     style="opacity:0.58744393;fill:#00ff00;fill-opacity:1;fill-rule:nonzero;stroke:none"
     d="M 375.375 340.5625 C 375.92231 340.78847 376.44975 341.02756 377 341.25 C 380.70595 342.74813 384.48165 344.19127 388.3125 345.53125 C 392.14335 346.87123 396.02759 348.12723 399.96875 349.3125 C 403.90991 350.49777 407.90061 351.591 411.9375 352.625 C 415.97439 353.659 420.0382 354.61383 424.15625 355.5 C 432.39234 357.27234 440.77678 358.76709 449.25 359.96875 C 456.96972 361.06355 464.80098 361.85705 472.625 362.5 C 474.56184 320.72739 475.7177 280.35812 474.6875 261.78125 C 473.0207 231.72583 469.8231 215.02565 466.0625 216.46875 C 461.1707 218.34588 453.3589 225.58391 439.4375 241.09375 C 421.09838 261.52535 403.13116 289.51406 375.375 340.5625 z "
     id="path3029" />
  <path
     style="opacity:0.86098655;fill:#e00000;fill-opacity:1;fill-rule:nonzero;stroke:none"
     d="M 289.25 262.40625 C 280.18866 268.44355 271.69974 274.48391 265 279.84375 C 255.81 287.19585 233.1999 308.01385 214.75 326.09375 C 183.4796 356.73715 172.29755 366.0289 148.53125 381.0625 C 138.28815 387.5419 138.0332 390.52975 147.6875 390.59375 C 166.6435 390.71905 203.2609 411.5442 228.875 436.75 C 239.8232 447.5236 244.58025 454.14105 250.78125 467.21875 C 255.13875 476.40875 259.8231 487.68625 261.1875 492.28125 C 262.5519 496.87625 264.36155 500.625 265.21875 500.625 C 266.07595 500.625 272.74175 492.01025 280.03125 481.46875 C 287.32085 470.92725 297.11385 457.2742 301.78125 451.125 C 315.69885 432.789 328.5686 410.85365 353.375 363.15625 C 358.18571 353.90626 362.74523 345.42614 367.28125 337.03125 C 366.89285 336.85322 366.48043 336.7112 366.09375 336.53125 C 362.52728 334.87153 359.03741 333.13726 355.625 331.3125 C 352.21259 329.48774 348.86877 327.55573 345.625 325.5625 C 342.38123 323.56927 339.2168 321.50889 336.15625 319.34375 C 333.0957 317.17861 330.144 314.93425 327.28125 312.59375 C 324.4185 310.25325 321.65036 307.80054 319 305.28125 C 316.34964 302.76196 313.7984 300.17028 311.375 297.46875 C 308.9516 294.76722 306.6506 291.98096 304.46875 289.09375 C 302.2869 286.20654 300.23822 283.20133 298.3125 280.125 C 296.38678 277.04867 294.59252 273.89388 292.9375 270.625 C 291.59004 267.96358 290.40925 265.19738 289.25 262.40625 z "
     id="path3782" />
  <path
     style="opacity:0.70852018;fill:#ff0000;fill-opacity:1;fill-rule:nonzero;stroke:none"
     d="M 289.25 262.40625 C 290.40925 265.19738 291.59004 267.96358 292.9375 270.625 C 294.59252 273.89388 296.38678 277.04867 298.3125 280.125 C 300.23822 283.20133 302.2869 286.20654 304.46875 289.09375 C 306.6506 291.98096 308.9516 294.76722 311.375 297.46875 C 313.7984 300.17028 316.34964 302.76196 319 305.28125 C 321.65036 307.80054 324.4185 310.25325 327.28125 312.59375 C 330.144 314.93425 333.0957 317.17861 336.15625 319.34375 C 339.2168 321.50889 342.38123 323.56927 345.625 325.5625 C 348.86877 327.55573 352.21259 329.48774 355.625 331.3125 C 359.03741 333.13726 362.52728 334.87153 366.09375 336.53125 C 366.48043 336.7112 366.89285 336.85322 367.28125 337.03125 C 385.22586 303.82086 401.56515 276.21082 419.8125 248.4375 C 428.7916 234.77098 436.09055 226.28968 445.03125 219.125 C 458.15655 208.60705 459.90445 205.90018 450.90625 210 C 446.60575 211.95944 445.28515 211.94242 443.96875 209.8125 C 439.96465 203.33368 388.0625 211.77832 366.0625 222.5 C 360.5489 225.18708 355.0253 227.40625 353.8125 227.40625 C 346.90597 227.40625 315.60973 244.84355 289.25 262.40625 z "
     id="path3031" />
  <path
     style="opacity:1;fill:#e3e30d;fill-opacity:1;fill-rule:nonzero;stroke:none"
     d="M 280.09375 224.84375 C 266.10512 235.95595 253.21958 248.32348 241.28125 262.1875 C 231.22985 273.8603 217.19065 289.72 210.09375 297.4375 C 191.56215 317.5896 180.3815 332.77275 178.1875 340.71875 C 176.9759 345.10695 175.33625 347.27695 173.71875 346.65625 C 171.48165 345.79775 156.41835 359.7703 149.15625 369.4375 C 147.73535 371.3295 147.103 372.875 147.75 372.875 C 151.3038 372.875 183.796 347.3432 192.375 337.8125 C 206.7418 321.8521 249.8226 282.08535 266 269.84375 C 272.17553 265.17063 279.1719 260.34947 286.65625 255.46875 C 286.00756 253.59169 285.28305 251.74527 284.71875 249.8125 C 283.6489 246.14818 282.7554 242.39846 282 238.53125 C 281.2446 234.66404 280.64512 230.69853 280.21875 226.625 C 280.15811 226.04569 280.14756 225.42727 280.09375 224.84375 z "
     id="path3779" />
  <path
     style="opacity:0.58744393;fill:#ffff00;fill-opacity:1;fill-rule:nonzero;stroke:none"
     d="M 280.09375 224.84375 C 280.14756 225.42727 280.15811 226.04569 280.21875 226.625 C 280.64512 230.69853 281.2446 234.66404 282 238.53125 C 282.7554 242.39846 283.6489 246.14818 284.71875 249.8125 C 285.28305 251.74527 286.00756 253.59169 286.65625 255.46875 C 306.75409 242.36248 331.12112 228.69744 358.375 215.4375 C 396.0587 197.10312 407.2096 194.11659 438.8125 193.875 L 450.78125 193.78125 L 441.9375 189.21875 C 430.0865 183.09791 399.39755 176.28125 383.71875 176.28125 C 368.95165 176.28125 354.0674 180.83979 331.125 192.375 C 312.54885 201.7149 295.63628 212.49717 280.09375 224.84375 z "
     id="path3033" />
  <path
     style="opacity:0.95964126000000005;fill:#e200e2;fill-opacity:1;fill-rule:nonzero;stroke:none"
     d="M 479.90625 362.96875 C 475.81992 459.24226 472.06442 505.09228 465.40625 538.4375 C 462.22615 554.3634 459.625 568.4517 459.625 569.75 C 459.625 571.0483 467.3521 564.5536 476.8125 555.3125 C 496.392 536.1868 503.26085 532.2772 540.21875 519.1875 C 566.39015 509.9181 567.11105 509.80075 591.34375 509.71875 C 604.85845 509.67275 622.37215 510.79675 630.28125 512.21875 C 638.19045 513.64085 645.11545 514.3533 645.65625 513.8125 C 646.19705 513.2717 643.94565 507.48495 640.65625 500.96875 C 630.02915 479.91645 615.51955 441.33545 608.03125 414.15625 C 604.68733 402.01918 599.32634 384.98526 594.78125 371.5 C 588.28147 370.34529 581.72579 369.27507 575 368.4375 C 567.1366 367.45827 559.14108 366.68268 551 366.0625 C 542.85892 365.44232 534.57258 364.99764 526.1875 364.65625 C 517.80242 364.31486 509.31413 364.08036 500.71875 363.9375 C 493.78644 363.82228 486.84342 363.41746 479.90625 362.96875 z "
     id="path3788" />
  <path
     style="opacity:0.58744393;fill:#ff00ff;fill-opacity:1;fill-rule:nonzero;stroke:none"
     d="M 479.90625 362.96875 C 486.84342 363.41746 493.78644 363.82228 500.71875 363.9375 C 509.31413 364.08036 517.80242 364.31486 526.1875 364.65625 C 534.57258 364.99764 542.85892 365.44232 551 366.0625 C 559.14108 366.68268 567.1366 367.45827 575 368.4375 C 581.72579 369.27507 588.28147 370.34529 594.78125 371.5 C 593.86571 368.7836 592.80637 365.33074 592 363.0625 C 587.1905 349.5337 580.62065 329.6242 577.40625 318.8125 C 567.87765 286.7625 543.7815 253.87817 512.375 230.09375 C 501.8529 222.12526 492.77345 215.59375 492.21875 215.59375 C 487.15685 215.59375 485.00635 240.86228 480.28125 355.15625 C 480.15786 358.14096 480.02895 360.07788 479.90625 362.96875 z "
     id="path3035" />
  <path
     style="opacity:0.76233184;fill:#0000ff;fill-opacity:1;fill-rule:nonzero;stroke:none"
     d="M 606.1875 373.84375 C 609.23485 384.76243 612.36747 396.23424 616.75 412.4375 C 628.9066 457.3831 642.43785 493.66265 650.96875 504.28125 C 652.67155 506.40085 653.69295 505.58945 655.96875 500.34375 C 657.54285 496.71535 660.48445 490.05985 662.53125 485.53125 C 664.77935 480.55715 673.60205 470.28115 684.78125 459.59375 C 694.94361 449.87852 705.25796 442.03691 715.78125 435.9375 C 714.75022 434.67699 713.77378 433.34193 712.71875 432.125 C 710.23064 429.25508 707.64985 426.50969 705.03125 423.875 C 702.41265 421.24031 699.74487 418.72199 697 416.3125 C 694.25513 413.90301 691.46069 411.60057 688.59375 409.40625 C 685.72681 407.21193 682.79729 405.11419 679.8125 403.125 C 676.82771 401.13581 673.78594 399.26283 670.6875 397.46875 C 667.58906 395.67467 664.42662 393.95276 661.21875 392.34375 C 658.01088 390.73474 654.75059 389.21522 651.4375 387.78125 C 648.12441 386.34728 644.75784 385.01897 641.34375 383.75 C 637.92966 382.48103 634.47964 381.27025 630.96875 380.15625 C 627.45786 379.04225 623.88472 378.0003 620.28125 377.03125 C 615.69637 375.79827 610.91452 374.86054 606.1875 373.84375 z "
     id="path3791" />
  <path
     style="opacity:0.58744393;fill:#0000ff;fill-opacity:1;fill-rule:nonzero;stroke:none"
     d="M 606.1875 373.84375 C 610.91452 374.86054 615.69637 375.79827 620.28125 377.03125 C 623.88472 378.0003 627.45786 379.04225 630.96875 380.15625 C 634.47964 381.27025 637.92966 382.48103 641.34375 383.75 C 644.75784 385.01897 648.12441 386.34728 651.4375 387.78125 C 654.75059 389.21522 658.01088 390.73474 661.21875 392.34375 C 664.42662 393.95276 667.58906 395.67467 670.6875 397.46875 C 673.78594 399.26283 676.82771 401.13581 679.8125 403.125 C 682.79729 405.11419 685.72681 407.21193 688.59375 409.40625 C 691.46069 411.60057 694.25513 413.90301 697 416.3125 C 699.74487 418.72199 702.41265 421.24031 705.03125 423.875 C 707.64985 426.50969 710.23064 429.25508 712.71875 432.125 C 713.77378 433.34193 714.75022 434.67699 715.78125 435.9375 C 725.76668 430.14985 735.93674 425.93263 746.34375 423.34375 L 756.84375 420.71875 L 744.8125 411.78125 C 722.2717 395.03085 697.59665 372.2037 690.53125 361.5625 C 682.25235 349.0936 648.82635 308.84175 625.03125 282.71875 C 614.02905 270.64025 602.26 260.30181 590.75 252.5625 C 572.7527 240.46113 545.7671 226.6628 535.3125 224.21875 C 529.8521 222.94223 530.3907 223.88408 542.8125 237.09375 C 554.6619 249.69469 558.3735 255.77822 574.5625 289.03125 C 589.73044 320.18675 594.28094 331.18242 606.1875 373.84375 z "
     id="path3037" />
  <path
     style="opacity:0.58744393;fill:#d45500;fill-opacity:1;fill-rule:nonzero;stroke:none"
     d="m 726.71941,383.0138 c -18.1647,-14.602 -26.2014,-23.0608 -69.4101,-73.0555 -19.6435,-22.7286 -41.953,-46.2979 -51.1694,-54.05889 -15.6001,-13.13677 -57.0706,-37.63289 -80.1998,-47.37315 l -9.7977,-4.126 7.6169,-1.25826 c 22.039,-3.64068 64.5573,0.97656 96.89,10.52169 13.2187,3.90239 20.9145,5.32529 21.7233,4.01654 2.3693,-3.83354 34.7751,33.62579 46.7616,54.05387 8.8763,15.1274 21.1749,43.415 29.9891,68.9773 4.3628,12.6526 8.8285,24.0845 9.9238,25.4043 3.1484,3.7935 13.9348,26.7763 13.0038,27.7073 -0.462,0.462 -7.3612,-4.4022 -15.3315,-10.8092 z"
     id="path3039"
     inkscape:connector-curvature="0" />
  <path
     style="opacity:0.58744393;fill:#00ffff;fill-opacity:1;fill-rule:nonzero;stroke:none"
     d="m 578.55491,194.44118 -35.384,-4.9434 -23.2161,3.82663 c -14.8716,2.45123 -23.6481,3.12758 -24.4181,1.88174 -1.9496,-3.1545 12.9257,-14.58865 24.8257,-19.08276 15.0973,-5.70156 31.5593,-4.38485 51.3123,4.10419 8.1089,3.48486 21.7921,8.93442 30.4072,12.11012 24.5458,9.04812 25.5433,8.95894 -23.527,2.10348 z"
     id="path3041"
     inkscape:connector-curvature="0" />
  <path
     style="opacity:0.58744393;fill:#000000;fill-opacity:1;fill-rule:nonzero;stroke:none"
     d="m 428.69111,175.45396 c -15.392,-2.39633 -28.4941,-4.86564 -29.1158,-5.48734 -1.4782,-1.47818 18.36,-3.7474 34.53,-3.94976 18.5161,-0.23171 25.0585,1.70818 28.5533,8.4664 2.8613,5.53316 2.8086,5.72654 -1.5085,5.53066 -2.4604,-0.11164 -17.067,-2.16362 -32.459,-4.55996 z"
     id="path3043"
     inkscape:connector-curvature="0" />
  <path
     style="opacity:0.70403587;fill:#aa0000;fill-opacity:1;fill-rule:nonzero;stroke:none"
     d="m 488.36841,177.97349 c -2.6533,-13.2664 -2.2942,-13.75274 9.0981,-12.32344 5.6762,0.71214 10.9995,1.90828 11.8296,2.65809 0.8301,0.74981 -2.2661,4.02999 -6.8802,7.28929 -12.8204,9.05586 -12.7151,9.03804 -14.0475,2.37606 z"
     id="path3045"
     inkscape:connector-curvature="0" />
  <path
     style="fill:#784421;fill-opacity:1;fill-rule:nonzero;stroke:none"
     d="m 399.10821,959.4275 c -19.199,-4.5808 -27.2101,-16.8233 -28.273,-43.2064 -0.4108,-10.1957 0.6636,-22.5242 2.9072,-33.3604 0.5145,-2.4847 1.9078,-11.3982 3.0962,-19.8077 1.1885,-8.4096 2.4854,-16.9322 2.8819,-18.939 l 0.7211,-3.6488 8.4645,-6e-4 c 7.9613,-5e-4 8.7266,-0.1245 12.8708,-2.085 2.4234,-1.1464 4.6549,-2.0845 4.9588,-2.0845 0.7879,0 0.1293,8.0961 -1.3852,17.0277 -0.713,4.2048 -2.9107,18.9043 -4.8838,32.6654 -3.1507,21.9746 -3.5487,26.0081 -3.2695,33.1353 0.295,7.53 0.4963,8.4906 2.7915,13.3236 2.2151,4.6644 2.9336,5.5087 6.8778,8.0819 l 4.4044,2.8734 6.3956,-0.3972 c 12.3975,-0.77 15.9999,-1.9914 24.1271,-8.1805 5.9936,-4.5642 7.5099,-7.2032 12.9089,-22.466 5.7402,-16.2275 9.6933,-22.2287 12.2968,-18.6681 2.6276,3.5934 -1.1186,26.9487 -5.7303,35.7246 -4.6416,8.833 -14.7247,20.0533 -21.6882,24.1342 -4.3552,2.5523 -7.7791,3.6172 -16.4948,5.1302 -11.5848,2.011 -17.863,2.2069 -23.9778,0.7479 l 0,0 z"
     id="path3047"
     inkscape:connector-curvature="0" />
</svg>
