<?xml version="1.0" encoding="UTF-8" standalone="no"?>
<!-- Created with Inkscape (http://www.inkscape.org/) -->
<svg
   xmlns:dc="http://purl.org/dc/elements/1.1/"
   xmlns:cc="http://creativecommons.org/ns#"
   xmlns:rdf="http://www.w3.org/1999/02/22-rdf-syntax-ns#"
   xmlns:svg="http://www.w3.org/2000/svg"
   xmlns="http://www.w3.org/2000/svg"
   xmlns:sodipodi="http://sodipodi.sourceforge.net/DTD/sodipodi-0.dtd"
   xmlns:inkscape="http://www.inkscape.org/namespaces/inkscape"
   width="568.82159"
   height="324.14285"
   id="svg3175"
   sodipodi:version="0.32"
   inkscape:version="0.46"
   sodipodi:docbase="/Users/Adam/Desktop/Work/Shyla The Cat"
   sodipodi:docname="yarn.svg"
   inkscape:output_extension="org.inkscape.output.svg.inkscape"
   version="1.0">
  <defs
     id="defs3177">
    <inkscape:perspective
       sodipodi:type="inkscape:persp3d"
       inkscape:vp_x="0 : 526.18109 : 1"
       inkscape:vp_y="0 : 1000 : 0"
       inkscape:vp_z="744.09448 : 526.18109 : 1"
       inkscape:persp3d-origin="372.04724 : 350.78739 : 1"
       id="perspective25" />
  </defs>
  <sodipodi:namedview
     id="base"
     pagecolor="#ffffff"
     bordercolor="#ffffff"
     borderopacity="0.0"
     inkscape:pageopacity="0.0"
     inkscape:pageshadow="0"
     inkscape:zoom="0.37512071"
     inkscape:cx="422.36035"
     inkscape:cy="365.26021"
     inkscape:document-units="px"
     inkscape:current-layer="layer1"
     inkscape:window-width="697"
     inkscape:window-height="667"
     inkscape:window-x="1428"
     inkscape:window-y="182"
     showgrid="false" />
  <metadata
     id="metadata3180">
    <rdf:RDF>
      <cc:Work
         rdf:about="">
        <dc:format>image/svg+xml</dc:format>
        <dc:type
           rdf:resource="http://purl.org/dc/dcmitype/StillImage" />
      </cc:Work>
    </rdf:RDF>
  </metadata>
  <g
     inkscape:label="Layer 1"
     inkscape:groupmode="layer"
     id="layer1"
     transform="translate(-53.642853,-477.43364)">
    <g
       id="g3250">
      <path
         d="M 213.5933,747.28469 C 230.22581,724.85797 252.08197,709.75869 273.55107,697.69542 C 301.92186,683.1128 332.21929,678.50705 362.21766,675.07317 C 394.18872,670.81328 423.84628,683.95969 453.02521,699.98025 C 479.48655,716.02625 506.48633,729.79884 534.67707,738.86319 C 556.93896,745.79191 579.5137,746.34074 602.08116,742.86718 C 607.98738,742.28986 613.40524,739.28285 618.96443,736.8797 L 595.47169,761.71393 C 590.17425,763.38705 584.9632,765.5952 579.45633,765.75682 C 557.16048,767.8062 534.92047,766.28466 513.07824,759.25316 C 485.03012,749.73222 458.26208,735.15618 431.78851,719.4185 C 402.97416,703.69852 373.67261,691.40205 342.17449,695.3241 C 311.44974,698.86739 280.60702,704.72756 251.92601,721.05043 C 232.53304,732.88561 272.50231,699.84156 241.69982,730.48138 L 213.5933,747.28469 z"
         id="path3185"
         style="opacity:1;fill:#ff479e;fill-opacity:1;fill-rule:nonzero;stroke:#cf465c;stroke-width:7;stroke-linecap:round;stroke-miterlimit:4;stroke-dasharray:none;stroke-opacity:1" />
      <path
         d="M 374.28571,639.50507 A 158.57143,158.57143 0 1 1 57.142853,639.50507 A 158.57143,158.57143 0 1 1 374.28571,639.50507 z"
         sodipodi:ry="158.57143"
         sodipodi:rx="158.57143"
         sodipodi:cy="639.50507"
         sodipodi:cx="215.71428"
         id="path3183"
         style="opacity:1;fill:#ff479e;fill-opacity:1;fill-rule:nonzero;stroke:#cf465c;stroke-width:7;stroke-linecap:round;stroke-miterlimit:4;stroke-dasharray:none;stroke-opacity:1"
         sodipodi:type="arc" />
      <path
         sodipodi:nodetypes="czc"
         id="path3212"
         d="M 129.29171,507.20433 C 129.29171,507.20433 184.24265,499.94784 231.89398,503.61333 C 279.54531,507.27882 319.89703,521.86628 319.89703,521.86628"
         style="fill:none;fill-opacity:1;fill-rule:evenodd;stroke:#cf465c;stroke-width:6;stroke-linecap:butt;stroke-linejoin:miter;stroke-miterlimit:4;stroke-dasharray:none;stroke-opacity:1" />
      <path
         sodipodi:nodetypes="czc"
         id="path3216"
         d="M 59.980692,613.83668 C 59.980692,613.83668 139.62485,603.12789 217.26652,608.45951 C 294.9082,613.79112 370.54739,635.16314 370.54739,635.16314"
         style="fill:none;fill-opacity:1;fill-rule:evenodd;stroke:#cf465c;stroke-width:6;stroke-linecap:butt;stroke-linejoin:miter;stroke-miterlimit:4;stroke-dasharray:none;stroke-opacity:1" />
      <path
         sodipodi:nodetypes="czc"
         id="path3218"
         d="M 73.309735,581.84697 C 73.309735,581.84697 144.96132,569.05823 218.60428,573.72339 C 292.24724,578.38856 367.88158,600.50763 367.88158,600.50763"
         style="fill:none;fill-opacity:1;fill-rule:evenodd;stroke:#cf465c;stroke-width:6;stroke-linecap:butt;stroke-linejoin:miter;stroke-miterlimit:4;stroke-dasharray:none;stroke-opacity:1" />
      <path
         sodipodi:nodetypes="czc"
         id="path3220"
         d="M 94.636203,543.19275 C 94.636203,543.19275 160.93773,534.67314 225.25036,539.33831 C 289.563,544.00347 351.88673,561.85341 351.88673,561.85341"
         style="fill:none;fill-opacity:1;fill-rule:evenodd;stroke:#cf465c;stroke-width:6;stroke-linecap:butt;stroke-linejoin:miter;stroke-miterlimit:4;stroke-dasharray:none;stroke-opacity:1" />
      <path
         sodipodi:nodetypes="czc"
         id="path3222"
         d="M 211.93178,609.83796 C 211.93178,609.83796 219.11533,657.27634 214.45016,703.26153 C 209.785,749.24673 193.27112,793.77875 193.27112,793.77875"
         style="fill:none;fill-rule:evenodd;stroke:#cf465c;stroke-width:6;stroke-linecap:butt;stroke-linejoin:miter;stroke-miterlimit:4;stroke-dasharray:none;stroke-opacity:1" />
      <path
         sodipodi:nodetypes="czc"
         id="path3226"
         d="M 246.58729,611.17087 C 246.58729,611.17087 255.70299,655.89711 251.37105,701.88231 C 247.03912,747.86751 229.25954,795.11166 229.25954,795.11166"
         style="fill:none;fill-rule:evenodd;stroke:#cf465c;stroke-width:6;stroke-linecap:butt;stroke-linejoin:miter;stroke-miterlimit:4;stroke-dasharray:none;stroke-opacity:1" />
      <path
         sodipodi:nodetypes="czc"
         id="path3228"
         d="M 281.2428,615.16958 C 281.2428,615.16958 291.12558,655.89811 287.46009,699.2175 C 283.79461,742.53689 266.58085,788.44714 266.58085,788.44714"
         style="fill:none;fill-rule:evenodd;stroke:#cf465c;stroke-width:6;stroke-linecap:butt;stroke-linejoin:miter;stroke-miterlimit:4;stroke-dasharray:none;stroke-opacity:1" />
      <path
         sodipodi:nodetypes="czc"
         id="path3230"
         d="M 317.23122,621.8341 C 317.23122,621.8341 325.08568,650.17716 321.42019,687.16526 C 317.75471,724.15335 302.56927,769.78648 302.56927,769.78648"
         style="fill:none;fill-rule:evenodd;stroke:#cf465c;stroke-width:6;stroke-linecap:butt;stroke-linejoin:miter;stroke-miterlimit:4;stroke-dasharray:none;stroke-opacity:1" />
      <path
         sodipodi:nodetypes="czc"
         id="path3232"
         d="M 347.88802,631.16443 C 347.88802,631.16443 353.78487,654.57088 351.45228,680.56252 C 349.1197,706.55415 338.55769,735.13097 338.55769,735.13097"
         style="fill:none;fill-rule:evenodd;stroke:#cf465c;stroke-width:6;stroke-linecap:butt;stroke-linejoin:miter;stroke-miterlimit:4;stroke-dasharray:none;stroke-opacity:1" />
      <path
         sodipodi:nodetypes="czc"
         id="path3238"
         d="M 174.28571,607.36218 C 174.28571,607.36218 181.28091,621.08587 191.45949,633.05015 C 201.63806,645.01444 215,655.21933 215,655.21933"
         style="fill:none;fill-rule:evenodd;stroke:#cf465c;stroke-width:6;stroke-linecap:butt;stroke-linejoin:miter;stroke-miterlimit:4;stroke-dasharray:none;stroke-opacity:1" />
      <path
         sodipodi:nodetypes="czc"
         id="path3240"
         d="M 142.85714,607.36218 C 142.85714,607.36218 157.09543,636.18562 175.13115,658.68562 C 193.16686,681.18562 215,697.36218 215,697.36218"
         style="fill:none;fill-rule:evenodd;stroke:#cf465c;stroke-width:6;stroke-linecap:butt;stroke-linejoin:miter;stroke-miterlimit:4;stroke-dasharray:none;stroke-opacity:1" />
      <path
         sodipodi:nodetypes="czc"
         id="path3242"
         d="M 112.85714,608.79075 C 112.85714,608.79075 136.83743,650.22023 160.94457,681.47023 C 185.05172,712.72023 209.28571,733.79075 209.28571,733.79075"
         style="fill:none;fill-rule:evenodd;stroke:#cf465c;stroke-width:6;stroke-linecap:butt;stroke-linejoin:miter;stroke-miterlimit:4;stroke-dasharray:none;stroke-opacity:1" />
      <path
         sodipodi:nodetypes="czc"
         id="path3244"
         d="M 85.714286,610.93361 C 85.714286,610.93361 112.20173,659.10277 141.48745,697.31706 C 170.77316,735.53134 202.85714,763.79075 202.85714,763.79075"
         style="fill:none;fill-rule:evenodd;stroke:#cf465c;stroke-width:6;stroke-linecap:butt;stroke-linejoin:miter;stroke-miterlimit:4;stroke-dasharray:none;stroke-opacity:1" />
      <path
         sodipodi:nodetypes="czc"
         id="path3246"
         d="M 60.714286,621.6479 C 60.714286,621.6479 87.257974,673.35535 120.11512,716.39106 C 152.97226,759.42678 192.14286,793.79075 192.14286,793.79075"
         style="fill:none;fill-rule:evenodd;stroke:#cf465c;stroke-width:6;stroke-linecap:butt;stroke-linejoin:miter;stroke-miterlimit:4;stroke-dasharray:none;stroke-opacity:1" />
      <path
         sodipodi:nodetypes="czc"
         id="path3248"
         d="M 57.857143,660.93361 C 57.857143,660.93361 79.074306,700.35747 105.32431,732.6789 C 131.5743,765.00033 162.85714,790.21933 162.85714,790.21933"
         style="fill:none;fill-rule:evenodd;stroke:#cf465c;stroke-width:6;stroke-linecap:butt;stroke-linejoin:miter;stroke-miterlimit:4;stroke-dasharray:none;stroke-opacity:1" />
    </g>
  </g>
</svg>
