<?xml version="1.0" encoding="UTF-8" standalone="no"?>
<!-- Created with Inkscape (http://www.inkscape.org/) -->
<svg
   xmlns:dc="http://purl.org/dc/elements/1.1/"
   xmlns:cc="http://creativecommons.org/ns#"
   xmlns:rdf="http://www.w3.org/1999/02/22-rdf-syntax-ns#"
   xmlns:svg="http://www.w3.org/2000/svg"
   xmlns="http://www.w3.org/2000/svg"
   xmlns:xlink="http://www.w3.org/1999/xlink"
   xmlns:sodipodi="http://sodipodi.sourceforge.net/DTD/sodipodi-0.dtd"
   xmlns:inkscape="http://www.inkscape.org/namespaces/inkscape"
   height="128.00000pt"
   id="svg1"
   inkscape:version="0.46"
   sodipodi:docbase="C:\Documents and Settings\Emily\Desktop\andy\SVG\svgart"
   sodipodi:docname="knife.svg"
   sodipodi:version="0.32"
   width="128.00000pt"
   inkscape:output_extension="org.inkscape.output.svg.inkscape"
   inkscape:export-filename="C:\Documents and Settings\All Users\Documents\Ubuntu Brig\Andy Fitzsimon\knife.png"
   inkscape:export-xdpi="90"
   inkscape:export-ydpi="90">
  <metadata
     id="metadata3">
    <rdf:RDF>
      <cc:Work
         rdf:about="">
        <dc:title>Etiquette Icons</dc:title>
        <dc:description />
        <dc:subject>
          <rdf:Bag>
            <rdf:li>weapon</rdf:li>
            <rdf:li />
            <rdf:li>tool</rdf:li>
          </rdf:Bag>
        </dc:subject>
        <dc:publisher>
          <cc:Agent
             rdf:about="http://www.openclipart.org">
            <dc:title>Andy Fitzsimon</dc:title>
          </cc:Agent>
        </dc:publisher>
        <dc:creator>
          <cc:Agent>
            <dc:title>Andy Fitzsimon</dc:title>
          </cc:Agent>
        </dc:creator>
        <dc:rights>
          <cc:Agent>
            <dc:title>Andy Fitzsimon</dc:title>
          </cc:Agent>
        </dc:rights>
        <dc:date />
        <dc:format>image/svg+xml</dc:format>
        <dc:type
           rdf:resource="http://purl.org/dc/dcmitype/StillImage" />
        <cc:license
           rdf:resource="http://web.resource.org/cc/PublicDomain" />
        <dc:language>en</dc:language>
      </cc:Work>
      <cc:License
         rdf:about="http://web.resource.org/cc/PublicDomain">
        <cc:permits
           rdf:resource="http://web.resource.org/cc/Reproduction" />
        <cc:permits
           rdf:resource="http://web.resource.org/cc/Distribution" />
        <cc:permits
           rdf:resource="http://web.resource.org/cc/DerivativeWorks" />
      </cc:License>
    </rdf:RDF>
  </metadata>
  <defs
     id="defs3">
    <inkscape:perspective
       sodipodi:type="inkscape:persp3d"
       inkscape:vp_x="0 : 80 : 1"
       inkscape:vp_y="0 : 1000 : 0"
       inkscape:vp_z="160 : 80 : 1"
       inkscape:persp3d-origin="80 : 53.333333 : 1"
       id="perspective45" />
    <linearGradient
       id="linearGradient889">
      <stop
         id="stop890"
         offset="0.00000000"
         style="stop-color:#000000;stop-opacity:0.21875000;" />
      <stop
         id="stop892"
         offset="1.0000000"
         style="stop-color:#000000;stop-opacity:0.00000000;" />
    </linearGradient>
    <linearGradient
       id="linearGradient832">
      <stop
         id="stop833"
         offset="0.00000000"
         style="stop-color:#ffffff;stop-opacity:1.0000000;" />
      <stop
         id="stop834"
         offset="1.0000000"
         style="stop-color:#ffffff;stop-opacity:0.00000000;" />
    </linearGradient>
    <linearGradient
       id="linearGradient828">
      <stop
         id="stop829"
         offset="0.00000000"
         style="stop-color:#000;stop-opacity:1;" />
      <stop
         id="stop836"
         offset="0.50000000"
         style="stop-color:#cfcfcf;stop-opacity:1.0000000;" />
      <stop
         id="stop830"
         offset="1.0000000"
         style="stop-color:#bababa;stop-opacity:1.0000000;" />
    </linearGradient>
    <linearGradient
       id="linearGradient831"
       x1="0.83536583"
       x2="0.20121951"
       xlink:href="#linearGradient832"
       y1="0.11442786"
       y2="0.53233832" />
    <linearGradient
       id="linearGradient835"
       x1="-0.83098590"
       x2="1.2570423"
       xlink:href="#linearGradient828"
       y1="1.4563106"
       y2="0.28155339" />
    <linearGradient
       id="linearGradient838"
       x1="0.56338030"
       x2="0.83802819"
       xlink:href="#linearGradient828"
       y1="0.61240309"
       y2="3.1240311" />
    <linearGradient
       id="linearGradient840"
       x1="0.98550725"
       x2="0.44202900"
       xlink:href="#linearGradient832"
       y1="0.19900498"
       y2="0.70646769" />
    <linearGradient
       id="linearGradient843"
       x1="0.43309858"
       x2="0.49295774"
       xlink:href="#linearGradient832"
       y1="-3.5744681"
       y2="0.93617022" />
    <linearGradient
       id="linearGradient845"
       x1="0.91901410"
       x2="0.88380283"
       xlink:href="#linearGradient832"
       y1="-0.87378639"
       y2="0.42718446" />
    <linearGradient
       id="linearGradient884"
       xlink:href="#linearGradient889" />
    <linearGradient
       id="linearGradient885"
       x1="0.24647887"
       x2="0.71830982"
       xlink:href="#linearGradient889"
       y1="-3.9629633"
       y2="1.5925926" />
    <linearGradient
       id="linearGradient886"
       x1="1.3523009"
       x2="-0.12349188"
       xlink:href="#linearGradient889"
       y1="1.5658391"
       y2="1.0224361" />
    <linearGradient
       gradientTransform="scale(1.054410,0.948398)"
       id="linearGradient887"
       x1="0.19436614"
       x2="0.19436614"
       xlink:href="#linearGradient889"
       y1="2.1754706"
       y2="-0.37860444" />
    <linearGradient
       gradientTransform="scale(1.066736,0.937439)"
       id="linearGradient888"
       x1="0.19426098"
       x2="0.19426098"
       xlink:href="#linearGradient889"
       y1="2.1488326"
       y2="-0.35498804" />
    <linearGradient
       id="linearGradient899"
       xlink:href="#linearGradient889" />
  </defs>
  <sodipodi:namedview
     bordercolor="#666666"
     borderopacity="1.0"
     id="base"
     inkscape:cx="30.691683"
     inkscape:cy="103.47414"
     inkscape:pageopacity="0.0"
     inkscape:pageshadow="2"
     inkscape:window-height="667"
     inkscape:window-width="640"
     inkscape:window-x="132"
     inkscape:window-y="174"
     inkscape:zoom="1.7366334"
     pagecolor="#ffffff"
     showgrid="false"
     inkscape:current-layer="svg1" />
  <g
     id="g953"
     style="fill:url(#linearGradient886);"
     transform="matrix(0.280072,0.493844,-0.601389,0.317887,158.2005,-51.60513)">
    <path
       d="M 235.93426,172.66510 C 223.22343,172.33745 210.63176,173.95615 198.13515,175.92589 C 188.80233,178.59645 173.03618,170.26542 168.52756,179.74167 C 178.76089,179.71132 159.50999,180.87898 156.26982,181.43402 C 136.82578,184.04282 118.34987,191.16247 99.428132,196.09786 C 78.849032,202.58994 57.549429,207.74682 38.331324,217.75405 C 31.584036,227.28906 52.390560,230.18857 59.199600,230.77490 C 82.101162,232.81534 104.42085,225.90227 126.86014,222.54041 C 140.44491,219.64330 154.50444,218.23504 167.69244,213.91759 C 173.56232,210.04519 172.45131,208.45330 170.78356,214.28345 C 176.98108,220.07794 192.32244,223.42754 194.81467,212.46595 C 203.40770,202.36514 218.19894,205.15232 229.94056,204.13919 C 241.79138,203.43070 253.97794,204.88728 265.62665,202.99590 C 273.80001,200.22376 281.84151,186.98173 271.93425,181.22760 C 260.85449,175.85669 248.34681,172.29130 235.93426,172.66510 z "
       id="path954"
       style="fill:url(#linearGradient886);fill-rule:evenodd;stroke:none;stroke-opacity:1;stroke-width:1pt;stroke-linejoin:miter;stroke-linecap:butt;fill-opacity:1;" />
    <path
       d="M 210.06250 175.18750 C 202.04223 175.88298 194.01070 178.19029 185.95594 176.62741 C 181.22544 176.01922 175.93542 175.24238 171.55987 177.50784 C 167.77339 179.00366 174.18818 179.49937 172.25870 180.28877 C 165.16122 182.04183 157.62989 181.81690 150.46073 183.41301 C 137.17272 185.63512 124.42019 190.09333 111.42389 193.53749 C 95.962227 197.90048 80.544774 202.73283 65.180189 207.60122 C 56.264590 210.63522 47.566213 214.28231 39.125000 218.43750 C 36.172642 221.07190 39.378619 225.13517 42.347667 226.04442 C 46.833856 227.90380 51.831873 228.71901 56.623726 229.56798 C 70.862594 231.39813 85.143050 229.02369 99.162169 226.60850 C 117.54215 223.43123 135.92134 220.18770 154.20335 216.49124 C 158.73831 215.49675 163.34496 214.37183 167.69467 212.87281 C 169.53615 211.30870 171.48871 209.98305 173.53125 208.68750 C 173.08807 210.80958 170.46632 214.00961 173.46875 215.25000 C 178.34274 218.14498 184.59951 220.08656 189.99169 217.48159 C 193.50512 216.04533 193.36541 211.36088 196.79376 209.69159 C 199.50291 207.39435 202.62298 205.96629 206.04428 205.08192 C 216.11167 202.96773 226.54971 203.84081 236.78680 203.30618 C 246.30190 202.84656 255.89678 203.40498 265.34375 202.06250 C 270.68562 200.21180 274.85649 194.96781 275.48512 189.37670 C 275.78579 184.78474 271.80506 181.60774 267.80920 180.30605 C 261.97320 177.63448 255.65280 176.20224 249.44874 174.69060 C 241.07631 173.23705 232.48993 173.36996 224.03762 173.80330 C 219.37924 174.26470 214.72087 174.72610 210.06250 175.18750 z "
       id="path955"
       style="fill:url(#linearGradient886);fill-rule:evenodd;stroke:none;stroke-opacity:1;stroke-width:1pt;stroke-linejoin:miter;stroke-linecap:butt;fill-opacity:1;" />
    <path
       d="M 222.37500 175.65625 C 210.78810 176.65170 199.21644 178.79639 187.56467 178.39655 C 182.89623 178.01139 178.11870 177.35128 173.53125 178.65625 C 174.94883 180.55105 172.44222 182.53575 170.53498 182.18639 C 157.13939 184.19328 143.64883 185.96125 130.68593 190.03688 C 108.75038 196.22099 86.999677 202.59364 65.261763 209.43869 C 56.749902 212.47663 48.496897 216.23497 40.250000 219.93750 C 39.656328 224.00615 44.489378 225.10784 47.527701 225.76934 C 55.546759 228.16046 64.022298 228.21082 72.309534 228.22559 C 93.382170 226.60428 114.06658 222.05724 134.84593 218.40154 C 145.80835 216.31230 156.96051 214.50752 167.45176 210.68061 C 170.08490 209.29401 172.44909 207.52171 174.87500 205.81250 C 177.10461 208.45127 172.76144 210.93508 174.53125 213.68750 C 178.89796 216.70947 185.34702 218.08123 189.99608 214.98312 C 192.99264 211.92325 195.19595 207.91554 199.35232 206.21732 C 208.20248 201.60981 218.58421 202.60905 228.25149 201.94493 C 240.20547 201.61840 252.20653 201.30344 264.10320 200.30339 C 269.49313 198.82485 274.19982 193.13182 273.25171 187.43580 C 271.82429 182.92798 266.56904 181.70579 262.65625 180.12500 C 251.59409 176.25020 239.79037 174.78982 228.05916 175.41577 C 226.16444 175.49593 224.26972 175.57609 222.37500 175.65625 z "
       id="path956"
       style="fill:url(#linearGradient886);fill-rule:evenodd;stroke:none;stroke-opacity:1;stroke-width:1pt;stroke-linejoin:miter;stroke-linecap:butt;fill-opacity:1;" />
    <path
       d="M 226.81250 171.00000 C 211.84485 171.36956 197.00686 175.39068 182.00529 173.49321 C 178.00531 173.15679 173.60657 173.34914 170.04944 175.18762 C 168.16991 177.46126 165.65739 179.02974 162.63556 178.92994 C 154.00314 180.13934 145.37452 181.35992 136.97021 183.73853 C 123.21205 187.20253 109.52763 191.21360 95.934246 195.14621 C 77.386717 201.19235 58.410577 206.20555 40.783176 214.72123 C 37.935147 215.56406 34.737205 217.66989 35.408898 221.09748 C 35.195975 224.81799 38.580162 227.43624 41.790595 228.56448 C 48.316719 231.83383 55.812097 232.10885 62.938876 232.84746 C 71.485991 232.56189 80.056480 232.55576 88.494660 230.98970 C 111.00753 227.72254 133.35209 223.38754 155.66905 218.99171 C 160.30058 217.97169 164.85023 216.59902 169.40625 215.28125 C 172.15971 218.70966 176.70995 220.04811 180.81250 221.09375 C 185.29017 221.77720 190.45169 221.23291 193.88617 218.10146 C 195.85013 214.82647 198.09422 211.67165 201.71593 210.08102 C 209.24216 205.92845 218.21805 207.25733 226.48247 206.56385 C 238.91555 206.02528 251.39022 205.73604 263.79775 205.04439 C 266.87721 204.48388 269.61312 203.20372 272.00002 201.17659 C 275.37245 198.05258 277.95954 193.71582 278.21875 189.03125 C 278.35524 184.90412 275.80063 181.10585 271.99995 179.54444 C 266.05445 176.09523 259.16487 174.62622 252.66879 172.56638 C 244.19521 170.47886 235.45524 171.03698 226.81250 171.00000 z "
       id="path957"
       style="fill:url(#linearGradient886);fill-rule:evenodd;stroke:none;stroke-opacity:1;stroke-width:1pt;stroke-linejoin:miter;stroke-linecap:butt;fill-opacity:1;" />
    <path
       d="M 220.03125 177.68750 C 207.46516 178.78129 194.88259 180.37952 182.24987 179.65029 C 179.93912 180.06093 176.83517 179.46103 175.00391 180.48250 C 174.42707 184.18938 169.81656 183.66772 167.04157 184.42148 C 152.71413 186.87395 138.31471 189.16841 124.43665 193.61292 C 103.13154 199.79128 81.926690 205.96281 60.875868 212.94669 C 54.708914 215.56862 48.541956 218.19056 42.375000 220.81250 C 44.442355 224.36390 49.156620 224.18236 52.733624 225.09858 C 61.318314 226.70404 70.137720 226.43254 78.799464 225.82632 C 102.50611 222.99107 125.94123 218.32140 149.35608 213.74967 C 157.16305 211.90024 165.37851 210.52398 172.01129 205.69991 C 173.40978 204.80754 175.88405 202.47649 176.38292 205.35305 C 178.05222 207.94880 174.45858 211.43376 177.34375 213.37500 C 181.49977 215.19362 187.09230 215.59185 190.35323 211.89710 C 192.97199 209.38687 195.28998 206.54417 198.70430 205.05189 C 206.90483 200.84389 216.46084 200.95231 225.47729 200.40349 C 238.65480 199.76430 252.02318 199.87777 265.03159 197.90731 C 269.07462 195.93853 272.50379 191.15420 270.84375 186.56250 C 266.00697 182.24400 259.41200 180.99722 253.33593 179.36031 C 242.40691 176.99968 231.14371 176.68981 220.03125 177.68750 z "
       id="path958"
       style="fill:url(#linearGradient886);fill-rule:evenodd;stroke:none;stroke-opacity:1;stroke-width:1pt;stroke-linejoin:miter;stroke-linecap:butt;fill-opacity:1;" />
  </g>
  <path
     d="M 97.539295,84.985530 C 96.596725,82.185279 88.266324,70.395399 84.439261,66.785249 C 80.612212,63.175103 33.352971,21.322625 33.352971,21.322625 C 33.352971,21.322625 33.340526,38.607342 43.948107,51.728120 C 54.555694,64.848907 72.747928,86.668800 75.182467,89.081190 C 77.693835,91.630397 80.464100,90.794656 82.257636,93.027065 C 85.096193,80.454510 98.481875,87.785793 97.539295,84.985530 z "
     id="path826"
     sodipodi:nodetypes="cccczcz"
     style="fill:url(#linearGradient835);fill-rule:evenodd;stroke:none;stroke-opacity:1;stroke-width:1pt;stroke-linejoin:miter;stroke-linecap:butt;fill-opacity:1;" />
  <path
     d="M 88.175283,83.640198 C 88.175283,83.640198 71.194138,61.105850 68.572841,58.250918 C 65.951543,55.395985 35.762783,24.752384 35.762783,24.752384 C 35.762783,24.752384 35.390792,37.687531 40.704845,44.884404 C 46.018903,52.081287 74.802555,86.568242 76.143706,87.596780 C 77.484864,88.625326 81.436872,90.223951 82.187072,89.293616 C 82.937267,88.363296 84.281367,85.317791 86.070542,85.331167 C 87.859742,85.344540 88.175283,83.640198 88.175283,83.640198 z "
     id="path827"
     sodipodi:nodetypes="cccccccc"
     style="fill:url(#linearGradient831);fill-rule:evenodd;stroke:none;stroke-opacity:1;stroke-width:1pt;stroke-linejoin:miter;stroke-linecap:butt;fill-opacity:1;" />
  <path
     d="M 78.018750,91.288513 C 75.850724,92.539596 77.489436,99.058277 78.769576,100.88466 C 80.049716,102.71105 80.447169,104.77858 82.321199,104.48980 C 84.195231,104.20101 89.212967,103.16496 94.550845,110.85751 C 99.888715,118.55007 110.70816,138.64804 111.40702,139.06159 C 112.10588,139.47513 113.61178,141.17474 115.60018,141.54289 C 117.58859,141.91102 121.65643,142.12953 123.33743,141.27040 C 125.01846,140.41127 125.29479,137.20179 125.68625,136.38808 C 126.07772,135.57434 124.20804,124.23739 121.87847,119.18244 C 119.65756,114.32100 112.42478,102.34751 109.39265,99.214229 C 106.36052,96.080955 101.79666,87.953747 100.83208,84.423015 C 99.867495,80.892284 96.698545,79.964670 95.056615,80.030496 L 96.122385,81.603188 C 98.333465,84.865929 88.838463,83.470845 85.537934,85.186709 C 82.374242,86.825731 82.962714,92.658157 80.129692,91.873319 L 78.018750,91.288513 z "
     id="path837"
     sodipodi:nodetypes="ccczzzzzzccczzzc"
     style="fill:url(#linearGradient838);fill-opacity:1;fill-rule:evenodd;stroke:#000000;stroke-width:0.61665096pt;" />
  <path
     d="M 94.181435,86.630548 C 94.181435,86.630548 99.827345,86.259852 105.06702,96.043764 C 110.30666,105.82767 124.90766,126.38977 122.70178,134.24614 C 120.49589,142.10252 113.11431,135.30308 113.11431,135.30308 C 113.11431,135.30308 85.566069,97.577133 88.386739,92.175310 C 91.207405,86.773478 94.181435,86.630548 94.181435,86.630548 z "
     id="path839"
     style="fill:url(#linearGradient840);fill-opacity:1;fill-rule:evenodd;stroke:#000000;stroke-width:0.61665096pt;" />
  <path
     d="M 97.691155,111.53676 C 97.691155,111.53676 101.50344,111.91563 105.03792,118.20975 C 108.57240,124.50388 118.05166,137.53837 116.40972,138.46041 C 114.76777,139.38244 112.39115,139.63718 110.97441,136.47327 C 109.55766,133.30937 97.691155,111.53676 97.691155,111.53676 z "
     id="path842"
     style="fill:url(#linearGradient843);fill-rule:evenodd;stroke:none;stroke-opacity:1;stroke-width:1pt;stroke-linejoin:miter;stroke-linecap:butt;fill-opacity:1;" />
  <path
     d="M 59.816088,48.576664 L 78.879826,70.987030 C 83.279638,76.159220 92.195335,75.504150 87.599021,71.130084 L 78.321886,62.301518 C 78.321886,62.301518 62.586353,47.740922 60.877027,47.260984 C 59.167707,46.781055 59.816088,48.576664 59.816088,48.576664 z "
     id="path844"
     sodipodi:nodetypes="czzccc"
     style="fill:url(#linearGradient845);fill-rule:evenodd;stroke:none;stroke-opacity:1;stroke-width:1pt;stroke-linejoin:miter;stroke-linecap:butt;fill-opacity:1;" />
  <path
     style="font-size:12px;font-style:normal;font-weight:normal;fill:#000000;fill-opacity:1;stroke:none;stroke-width:1pt;stroke-linecap:butt;stroke-linejoin:miter;stroke-opacity:1;font-family:helvetica"
     d="M 0.82643923,-16.252435 L 0.82643923,-24.842279 L 1.9631572,-24.842279 L 1.9631572,-20.582513 L 6.2287822,-24.842279 L 7.7697982,-24.842279 L 4.1662822,-21.36181 L 7.9280012,-16.252435 L 6.4280012,-16.252435 L 3.3694072,-20.600092 L 1.9631572,-19.228998 L 1.9631572,-16.252435 L 0.82643923,-16.252435 z M 8.7541732,-16.252435 L 8.7541732,-22.475092 L 9.7033922,-22.475092 L 9.7033922,-21.590326 C 10.160421,-22.273914 10.820576,-22.61571 11.683861,-22.615717 C 12.058856,-22.61571 12.403583,-22.548327 12.71804,-22.413568 C 13.032488,-22.278796 13.26784,-22.102039 13.424095,-21.883295 C 13.580339,-21.664539 13.689714,-21.404774 13.75222,-21.103998 C 13.791277,-20.908681 13.810808,-20.566884 13.810814,-20.078607 L 13.810814,-16.252435 L 12.756126,-16.252435 L 12.756126,-20.037592 C 12.756121,-20.467275 12.715106,-20.788564 12.633079,-21.001459 C 12.551043,-21.214344 12.405536,-21.384266 12.196556,-21.511224 C 11.987567,-21.638172 11.742451,-21.701649 11.461204,-21.701654 C 11.011983,-21.701649 10.624288,-21.559071 10.298118,-21.27392 C 9.9719452,-20.988759 9.8088592,-20.447744 9.8088612,-19.650873 L 9.8088612,-16.252435 L 8.7541732,-16.252435 z M 15.43972,-23.629388 L 15.43972,-24.842279 L 16.494407,-24.842279 L 16.494407,-23.629388 L 15.43972,-23.629388 z M 15.43972,-16.252435 L 15.43972,-22.475092 L 16.494407,-22.475092 L 16.494407,-16.252435 L 15.43972,-16.252435 z M 18.357689,-16.252435 L 18.357689,-21.654779 L 17.426048,-21.654779 L 17.426048,-22.475092 L 18.357689,-22.475092 L 18.357689,-23.137201 C 18.357688,-23.555162 18.394797,-23.865709 18.469017,-24.068842 C 18.570578,-24.342271 18.749289,-24.56395 19.00515,-24.733881 C 19.261007,-24.903794 19.619405,-24.988755 20.080345,-24.988763 C 20.377217,-24.988755 20.705342,-24.953599 21.06472,-24.883295 L 20.906517,-23.963373 C 20.687763,-24.002428 20.480732,-24.021959 20.285423,-24.021967 C 19.965108,-24.021959 19.738546,-23.9536 19.605736,-23.816888 C 19.472921,-23.680162 19.406515,-23.424303 19.406517,-23.04931 L 19.406517,-22.475092 L 20.619407,-22.475092 L 20.619407,-21.654779 L 19.406517,-21.654779 L 19.406517,-16.252435 L 18.357689,-16.252435 z M 25.693626,-18.256342 L 26.78347,-18.121576 C 26.611589,-17.484856 26.29323,-16.990716 25.828392,-16.639154 C 25.363543,-16.287592 24.769794,-16.11181 24.047142,-16.11181 C 23.136983,-16.11181 22.415304,-16.392084 21.882103,-16.952631 C 21.348899,-17.513176 21.082298,-18.299308 21.082298,-19.311029 C 21.082298,-20.3579 21.351829,-21.170399 21.890892,-21.748529 C 22.429953,-22.326648 23.129171,-22.61571 23.988548,-22.615717 C 24.820575,-22.61571 25.500262,-22.332507 26.027611,-21.766107 C 26.554948,-21.199696 26.81862,-20.402822 26.818626,-19.375482 C 26.81862,-19.312979 26.816667,-19.219229 26.812767,-19.094232 L 22.172142,-19.094232 C 22.211203,-18.410636 22.404562,-17.887199 22.75222,-17.52392 C 23.099874,-17.160638 23.533467,-16.978997 24.053001,-16.978998 C 24.439716,-16.978997 24.769794,-17.08056 25.043236,-17.283685 C 25.316668,-17.486809 25.533465,-17.811028 25.693626,-18.256342 L 25.693626,-18.256342 z M 22.230736,-19.96142 L 25.705345,-19.96142 C 25.658465,-20.484853 25.525653,-20.877431 25.306907,-21.139154 C 24.970966,-21.545399 24.535419,-21.748524 24.000267,-21.748529 C 23.515889,-21.748524 23.108663,-21.586414 22.778587,-21.262201 C 22.448507,-20.937978 22.26589,-20.504384 22.230736,-19.96142 L 22.230736,-19.96142 z"
     id="text1232" />
  <path
     style="font-size:12px;font-style:normal;font-weight:normal;fill:#000000;fill-opacity:1;stroke:none;stroke-width:1pt;stroke-linecap:butt;stroke-linejoin:miter;stroke-opacity:1;font-family:helvetica"
     d="M 6.3285932,-11.67791 L 6.609055,-11.607072 C 6.5502619,-11.376727 6.4444868,-11.201077 6.2917294,-11.080122 C 6.1389672,-10.959167 5.9522353,-10.89869 5.7315288,-10.89869 C 5.5031095,-10.89869 5.3173423,-10.945192 5.1742198,-11.038198 C 5.0310972,-11.131203 4.9221886,-11.265891 4.8474963,-11.442264 C 4.772804,-11.618636 4.7354567,-11.80802 4.7354567,-12.010416 C 4.7354567,-12.231121 4.7776226,-12.423637 4.8619546,-12.587964 C 4.9462841,-12.752288 5.0662758,-12.877098 5.2219273,-12.962395 C 5.3775787,-13.047688 5.5488901,-13.090335 5.7358663,-13.090337 C 5.9478978,-13.090335 6.1261965,-13.036363 6.2707673,-12.928421 C 6.4153333,-12.820475 6.516048,-12.668679 6.5729141,-12.473033 L 6.2967898,-12.407977 C 6.247634,-12.562181 6.1763145,-12.674462 6.0828289,-12.74482 C 5.9893408,-12.815175 5.8717572,-12.850353 5.7300829,-12.850355 C 5.5672023,-12.850353 5.4310671,-12.811319 5.3216798,-12.733255 C 5.2122876,-12.655186 5.1354266,-12.550375 5.0910943,-12.41882 C 5.0467596,-12.287262 5.024591,-12.151609 5.0245934,-12.011861 C 5.024591,-11.831633 5.0508553,-11.674295 5.1033814,-11.539848 C 5.1559075,-11.405399 5.2375872,-11.304925 5.3484252,-11.238424 C 5.4592584,-11.171922 5.5792501,-11.138672 5.7083979,-11.138672 C 5.8654927,-11.138672 5.9984945,-11.18397 6.1074056,-11.274566 C 6.2163118,-11.365161 6.2900393,-11.499609 6.3285932,-11.67791 L 6.3285932,-11.67791 z M 6.9198768,-10.934832 L 6.9198768,-12.470141 L 7.1540744,-12.470141 L 7.1540744,-12.237387 C 7.2138297,-12.346293 7.2690057,-12.418096 7.3196049,-12.452793 C 7.3702041,-12.487488 7.4258612,-12.504836 7.4865812,-12.504838 C 7.574286,-12.504836 7.6634341,-12.476886 7.754033,-12.420988 L 7.6643988,-12.17956 C 7.6007896,-12.217146 7.5371804,-12.23594 7.4735712,-12.235941 C 7.4167051,-12.23594 7.3656248,-12.218833 7.3203278,-12.18462 C 7.2750308,-12.150404 7.2427439,-12.102938 7.223467,-12.042221 C 7.1945553,-11.949696 7.1800969,-11.848499 7.1800969,-11.738628 L 7.1800969,-10.934832 L 6.9198768,-10.934832 z M 8.9626177,-11.429253 L 9.2315153,-11.396003 C 9.1891076,-11.238905 9.1105589,-11.116987 8.9958694,-11.030246 C 8.8811774,-10.943506 8.7346821,-10.900135 8.5563834,-10.900135 C 8.3318205,-10.900135 8.1537611,-10.969287 8.0222052,-11.10759 C 7.8906493,-11.245893 7.8248689,-11.439855 7.8248689,-11.689475 C 7.8248689,-11.947769 7.8913698,-12.148236 8.024374,-12.290877 C 8.1573757,-12.433516 8.3298935,-12.504836 8.541925,-12.504838 C 8.747211,-12.504836 8.9149102,-12.434962 9.0450228,-12.295214 C 9.1751304,-12.155464 9.2401879,-11.958852 9.2401879,-11.705378 C 9.2401879,-11.689957 9.2397043,-11.666826 9.238742,-11.635985 L 8.0937665,-11.635985 C 8.1034037,-11.467322 8.1511112,-11.338175 8.2368891,-11.248544 C 8.3226644,-11.158911 8.4296436,-11.114096 8.5578292,-11.114096 C 8.6532418,-11.114096 8.7346821,-11.139154 8.8021477,-11.189271 C 8.8696108,-11.239387 8.9231016,-11.319381 8.9626177,-11.429253 L 8.9626177,-11.429253 z M 8.1082223,-11.849946 L 8.9655094,-11.849946 C 8.9539427,-11.979092 8.9211747,-12.075952 8.8672027,-12.140527 C 8.7843166,-12.240759 8.6768562,-12.290876 8.5448167,-12.290877 C 8.4253086,-12.290876 8.3248331,-12.250879 8.2433928,-12.170886 C 8.1619525,-12.090891 8.1168973,-11.983911 8.1082223,-11.849946 L 8.1082223,-11.849946 z M 10.561538,-11.124215 C 10.465158,-11.042293 10.372395,-10.984467 10.283245,-10.950734 C 10.194094,-10.917002 10.09844,-10.900135 9.996279,-10.900135 C 9.8276151,-10.900135 9.6979861,-10.941337 9.6073897,-11.023741 C 9.5167957,-11.106144 9.4714963,-11.211438 9.4714963,-11.339621 C 9.4714963,-11.414796 9.4886045,-11.483466 9.5228184,-11.54563 C 9.5570323,-11.607794 9.6018482,-11.65767 9.657266,-11.695258 C 9.7126838,-11.732845 9.7750889,-11.761277 9.8444815,-11.780553 C 9.8955618,-11.794045 9.9726646,-11.807056 10.07579,-11.819586 C 10.285894,-11.844644 10.440581,-11.874521 10.539853,-11.909218 C 10.540815,-11.944877 10.541298,-11.967526 10.541298,-11.977165 C 10.541298,-12.08318 10.516722,-12.157874 10.467568,-12.201245 C 10.401068,-12.260035 10.30228,-12.28943 10.171205,-12.289432 C 10.048803,-12.28943 9.9584481,-12.267986 9.9001411,-12.225099 C 9.8418316,-12.182209 9.7987009,-12.106311 9.7707514,-11.997405 L 9.5163121,-12.032101 C 9.539443,-12.141008 9.5775133,-12.228953 9.6305205,-12.295937 C 9.6835303,-12.362919 9.7601495,-12.414481 9.8603831,-12.450625 C 9.9606168,-12.486765 10.076752,-12.504836 10.208792,-12.504838 C 10.339866,-12.504836 10.446365,-12.489416 10.528288,-12.458576 C 10.610207,-12.427733 10.670444,-12.388941 10.708998,-12.342199 C 10.747547,-12.295454 10.774534,-12.236422 10.789954,-12.165103 C 10.798627,-12.120768 10.802964,-12.040774 10.802967,-11.925121 L 10.802967,-11.578158 C 10.802964,-11.336248 10.808506,-11.183247 10.819591,-11.119155 C 10.830675,-11.055064 10.852599,-10.993622 10.885369,-10.934832 L 10.613583,-10.934832 C 10.586595,-10.988804 10.569248,-11.051931 10.561538,-11.124215 L 10.561538,-11.124215 z M 10.539853,-11.705378 C 10.4454,-11.666826 10.303726,-11.634057 10.114822,-11.607072 C 10.007843,-11.591651 9.9321862,-11.574302 9.8878515,-11.555027 C 9.8435167,-11.535751 9.8093028,-11.50756 9.7852098,-11.470455 C 9.7611142,-11.433349 9.7490664,-11.392147 9.7490664,-11.34685 C 9.7490664,-11.277457 9.7753307,-11.21963 9.8278569,-11.173368 C 9.880383,-11.127107 9.957244,-11.103976 10.058442,-11.103976 C 10.158676,-11.103976 10.247824,-11.125902 10.325892,-11.169754 C 10.403959,-11.213606 10.461304,-11.273602 10.497928,-11.349741 C 10.525878,-11.408532 10.539853,-11.495272 10.539853,-11.609963 L 10.539853,-11.705378 z M 11.775908,-11.167586 L 11.813495,-10.937723 C 11.740246,-10.922302 11.67471,-10.914592 11.616884,-10.914592 C 11.522431,-10.914592 11.449185,-10.929531 11.39714,-10.959408 C 11.345095,-10.989285 11.30847,-11.02856 11.287269,-11.077231 C 11.266065,-11.125902 11.255463,-11.228304 11.255463,-11.384437 L 11.255463,-12.267747 L 11.064633,-12.267747 L 11.064633,-12.470141 L 11.255463,-12.470141 L 11.255463,-12.850355 L 11.51424,-13.006488 L 11.51424,-12.470141 L 11.775908,-12.470141 L 11.775908,-12.267747 L 11.51424,-12.267747 L 11.51424,-11.369981 C 11.51424,-11.295769 11.518817,-11.248061 11.527973,-11.226859 C 11.537129,-11.205655 11.552068,-11.188789 11.572788,-11.17626 C 11.593511,-11.16373 11.623146,-11.157466 11.6617,-11.157466 C 11.690611,-11.157466 11.728682,-11.160839 11.775908,-11.167586 L 11.775908,-11.167586 z M 13.079908,-11.429253 L 13.348806,-11.396003 C 13.306398,-11.238905 13.227849,-11.116987 13.11316,-11.030246 C 12.998468,-10.943506 12.851972,-10.900135 12.673674,-10.900135 C 12.449111,-10.900135 12.271051,-10.969287 12.139495,-11.10759 C 12.007939,-11.245893 11.942159,-11.439855 11.942159,-11.689475 C 11.942159,-11.947769 12.00866,-12.148236 12.141664,-12.290877 C 12.274666,-12.433516 12.447184,-12.504836 12.659215,-12.504838 C 12.864501,-12.504836 13.0322,-12.434962 13.162313,-12.295214 C 13.292421,-12.155464 13.357478,-11.958852 13.357478,-11.705378 C 13.357478,-11.689957 13.356994,-11.666826 13.356032,-11.635985 L 12.211057,-11.635985 C 12.220694,-11.467322 12.268401,-11.338175 12.354179,-11.248544 C 12.439955,-11.158911 12.546934,-11.114096 12.675119,-11.114096 C 12.770532,-11.114096 12.851972,-11.139154 12.919438,-11.189271 C 12.986901,-11.239387 13.040392,-11.319381 13.079908,-11.429253 L 13.079908,-11.429253 z M 12.225513,-11.849946 L 13.0828,-11.849946 C 13.071233,-11.979092 13.038465,-12.075952 12.984493,-12.140527 C 12.901607,-12.240759 12.794146,-12.290876 12.662107,-12.290877 C 12.542599,-12.290876 12.442123,-12.250879 12.360683,-12.170886 C 12.279243,-12.090891 12.234188,-11.983911 12.225513,-11.849946 L 12.225513,-11.849946 z M 14.673044,-10.934832 L 14.673044,-11.128552 C 14.575702,-10.976274 14.43258,-10.900135 14.243679,-10.900135 C 14.121277,-10.900135 14.008756,-10.933868 13.906115,-11.001333 C 13.80347,-11.068798 13.723957,-11.163008 13.667577,-11.283963 C 13.611194,-11.404917 13.583003,-11.543943 13.583006,-11.701041 C 13.583003,-11.854282 13.608545,-11.993308 13.659625,-12.118119 C 13.710705,-12.242928 13.787327,-12.338583 13.889487,-12.405086 C 13.991648,-12.471585 14.105856,-12.504836 14.232113,-12.504838 C 14.324636,-12.504836 14.407041,-12.485319 14.479325,-12.446288 C 14.551607,-12.407253 14.610398,-12.356413 14.655697,-12.293769 L 14.655697,-13.054195 L 14.914474,-13.054195 L 14.914474,-10.934832 L 14.673044,-10.934832 z M 13.850455,-11.701041 C 13.850455,-11.504428 13.891898,-11.357451 13.974784,-11.260109 C 14.057668,-11.162767 14.155491,-11.114096 14.268256,-11.114096 C 14.381981,-11.114096 14.4786,-11.160598 14.558113,-11.253604 C 14.637624,-11.346608 14.677382,-11.488526 14.677382,-11.679356 C 14.677382,-11.88946 14.636901,-12.043665 14.555944,-12.141973 C 14.474988,-12.240277 14.375235,-12.28943 14.256689,-12.289432 C 14.141035,-12.28943 14.044416,-12.242205 13.966832,-12.147755 C 13.889246,-12.053303 13.850455,-11.904398 13.850455,-11.701041 L 13.850455,-11.701041 z M 16.386173,-10.934832 L 16.144746,-10.934832 L 16.144746,-13.054195 L 16.404969,-13.054195 L 16.404969,-12.298106 C 16.514839,-12.435925 16.655068,-12.504836 16.825659,-12.504838 C 16.920109,-12.504836 17.009501,-12.485801 17.093833,-12.447733 C 17.178163,-12.409662 17.247555,-12.356172 17.302011,-12.287263 C 17.356462,-12.218351 17.399111,-12.135225 17.429952,-12.037884 C 17.460794,-11.94054 17.476214,-11.836452 17.476214,-11.725617 C 17.476214,-11.462504 17.411157,-11.259145 17.281049,-11.115541 C 17.150936,-10.971937 16.994804,-10.900135 16.812649,-10.900135 C 16.631456,-10.900135 16.489298,-10.975792 16.386173,-11.127107 L 16.386173,-10.934832 z M 16.383281,-11.714052 C 16.383281,-11.529968 16.408341,-11.396966 16.458457,-11.315045 C 16.540378,-11.181079 16.651214,-11.114096 16.790964,-11.114096 C 16.904689,-11.114096 17.002995,-11.163489 17.085881,-11.262278 C 17.168765,-11.361065 17.210208,-11.508283 17.210211,-11.703932 C 17.210208,-11.904398 17.170453,-12.052339 17.090942,-12.147755 C 17.011428,-12.243169 16.91529,-12.290876 16.802528,-12.290877 C 16.688801,-12.290876 16.590496,-12.241482 16.50761,-12.142695 C 16.424724,-12.043906 16.383281,-11.901025 16.383281,-11.714052 L 16.383281,-11.714052 z M 17.782698,-10.343549 L 17.753784,-10.587869 C 17.810648,-10.572449 17.860282,-10.564738 17.90269,-10.564738 C 17.960516,-10.564738 18.006778,-10.574376 18.041475,-10.593652 C 18.07617,-10.612928 18.104601,-10.639914 18.126769,-10.67461 C 18.143152,-10.700632 18.169658,-10.765206 18.206283,-10.868331 C 18.211101,-10.882787 18.218812,-10.903991 18.229414,-10.93194 L 17.646805,-12.470141 L 17.927267,-12.470141 L 18.246761,-11.581049 C 18.288202,-11.468286 18.32531,-11.349741 18.358078,-11.225413 C 18.387954,-11.344922 18.423614,-11.46154 18.465057,-11.575267 L 18.793226,-12.470141 L 19.053449,-12.470141 L 18.469395,-10.908809 C 18.406748,-10.740147 18.358078,-10.624011 18.323383,-10.560401 C 18.277119,-10.474625 18.224111,-10.411738 18.164356,-10.37174 C 18.104601,-10.331744 18.033281,-10.311745 17.950398,-10.311744 C 17.90028,-10.311745 17.844381,-10.322347 17.782698,-10.343549 L 17.782698,-10.343549 z M 19.896279,-10.934832 L 20.710196,-13.054195 L 21.012342,-13.054195 L 21.879749,-10.934832 L 21.560254,-10.934832 L 21.313043,-11.576712 L 20.426843,-11.576712 L 20.194089,-10.934832 L 19.896279,-10.934832 z M 20.507801,-11.80513 L 21.226303,-11.80513 L 21.005114,-12.392075 C 20.937648,-12.570373 20.887531,-12.716869 20.854763,-12.831561 C 20.827777,-12.695665 20.789707,-12.560736 20.740555,-12.426771 L 20.507801,-11.80513 z M 22.07347,-10.934832 L 22.07347,-12.470141 L 22.307669,-12.470141 L 22.307669,-12.251844 C 22.420432,-12.420505 22.583311,-12.504836 22.796309,-12.504838 C 22.888831,-12.504836 22.973885,-12.488211 23.051471,-12.454962 C 23.129054,-12.42171 23.187122,-12.378098 23.225675,-12.324128 C 23.264225,-12.270155 23.291211,-12.206063 23.306633,-12.131853 C 23.316269,-12.083662 23.321088,-11.999331 23.32109,-11.878859 L 23.32109,-10.934832 L 23.060868,-10.934832 L 23.060868,-11.868739 C 23.060867,-11.974755 23.050747,-12.054026 23.030508,-12.106553 C 23.010268,-12.159078 22.974367,-12.201003 22.922805,-12.232327 C 22.871242,-12.263649 22.810764,-12.279311 22.741373,-12.279312 C 22.630537,-12.279311 22.534881,-12.244132 22.454406,-12.173777 C 22.373929,-12.10342 22.333691,-11.969936 22.333692,-11.773325 L 22.333692,-10.934832 L 22.07347,-10.934832 z M 24.717614,-10.934832 L 24.717614,-11.128552 C 24.620271,-10.976274 24.477149,-10.900135 24.288248,-10.900135 C 24.165847,-10.900135 24.053325,-10.933868 23.950682,-11.001333 C 23.848039,-11.068798 23.768527,-11.163008 23.712145,-11.283963 C 23.655764,-11.404917 23.627573,-11.543943 23.627573,-11.701041 C 23.627573,-11.854282 23.653114,-11.993308 23.704194,-12.118119 C 23.755275,-12.242928 23.831895,-12.338583 23.934057,-12.405086 C 24.036218,-12.471585 24.150426,-12.504836 24.276683,-12.504838 C 24.369205,-12.504836 24.451609,-12.485319 24.523893,-12.446288 C 24.596176,-12.407253 24.654967,-12.356413 24.700266,-12.293769 L 24.700266,-13.054195 L 24.959043,-13.054195 L 24.959043,-10.934832 L 24.717614,-10.934832 z M 23.895024,-11.701041 C 23.895023,-11.504428 23.936466,-11.357451 24.019352,-11.260109 C 24.102237,-11.162767 24.200061,-11.114096 24.312824,-11.114096 C 24.42655,-11.114096 24.52317,-11.160598 24.602683,-11.253604 C 24.682194,-11.346608 24.72195,-11.488526 24.721951,-11.679356 C 24.72195,-11.88946 24.681471,-12.043665 24.600514,-12.141973 C 24.519555,-12.240277 24.419804,-12.28943 24.301259,-12.289432 C 24.185604,-12.28943 24.088985,-12.242205 24.011401,-12.147755 C 23.933816,-12.053303 23.895023,-11.904398 23.895024,-11.701041 L 23.895024,-11.701041 z M 25.366724,-10.934832 L 25.366724,-12.470141 L 25.600923,-12.470141 L 25.600923,-12.237387 C 25.660678,-12.346293 25.715854,-12.418096 25.766454,-12.452793 C 25.817051,-12.487488 25.87271,-12.504836 25.933429,-12.504838 C 26.021133,-12.504836 26.110283,-12.476886 26.20088,-12.420988 L 26.111248,-12.17956 C 26.047637,-12.217146 25.984027,-12.23594 25.920418,-12.235941 C 25.863554,-12.23594 25.812474,-12.218833 25.767176,-12.18462 C 25.721878,-12.150404 25.689591,-12.102938 25.670316,-12.042221 C 25.641402,-11.949696 25.626945,-11.848499 25.626946,-11.738628 L 25.626946,-10.934832 L 25.366724,-10.934832 z M 27.409466,-11.429253 L 27.678362,-11.396003 C 27.635954,-11.238905 27.557406,-11.116987 27.442717,-11.030246 C 27.328025,-10.943506 27.18153,-10.900135 27.003231,-10.900135 C 26.778668,-10.900135 26.600609,-10.969287 26.469053,-11.10759 C 26.337496,-11.245893 26.271718,-11.439855 26.271718,-11.689475 C 26.271718,-11.947769 26.338219,-12.148236 26.471221,-12.290877 C 26.604223,-12.433516 26.776741,-12.504836 26.988774,-12.504838 C 27.194059,-12.504836 27.361758,-12.434962 27.49187,-12.295214 C 27.621979,-12.155464 27.687035,-11.958852 27.687036,-11.705378 C 27.687035,-11.689957 27.686553,-11.666826 27.685591,-11.635985 L 26.540614,-11.635985 C 26.550251,-11.467322 26.597959,-11.338175 26.683736,-11.248544 C 26.769512,-11.158911 26.876492,-11.114096 27.004677,-11.114096 C 27.10009,-11.114096 27.18153,-11.139154 27.248996,-11.189271 C 27.31646,-11.239387 27.36995,-11.319381 27.409466,-11.429253 L 27.409466,-11.429253 z M 26.555071,-11.849946 L 27.412358,-11.849946 C 27.400791,-11.979092 27.368022,-12.075952 27.314052,-12.140527 C 27.231165,-12.240759 27.123703,-12.290876 26.991665,-12.290877 C 26.872155,-12.290876 26.771681,-12.250879 26.690241,-12.170886 C 26.608801,-12.090891 26.563744,-11.983911 26.555071,-11.849946 L 26.555071,-11.849946 z M 28.289884,-10.934832 L 27.820039,-12.470141 L 28.088935,-12.470141 L 28.333254,-11.583941 L 28.424332,-11.254326 C 28.428186,-11.27071 28.454691,-11.376245 28.503844,-11.57093 L 28.748164,-12.470141 L 29.015614,-12.470141 L 29.245477,-11.579604 L 29.322098,-11.286131 L 29.410284,-11.582495 L 29.673398,-12.470141 L 29.926391,-12.470141 L 29.446426,-10.934832 L 29.176084,-10.934832 L 28.931765,-11.854283 L 28.872492,-12.11595 L 28.561671,-10.934832 L 28.289884,-10.934832 z M 31.014987,-10.934832 L 31.014987,-13.054195 L 32.444762,-13.054195 L 32.444762,-12.804093 L 31.295448,-12.804093 L 31.295448,-12.147755 L 32.290074,-12.147755 L 32.290074,-11.897653 L 31.295448,-11.897653 L 31.295448,-10.934832 L 31.014987,-10.934832 z M 32.778713,-12.75494 L 32.778713,-13.054195 L 33.038935,-13.054195 L 33.038935,-12.75494 L 32.778713,-12.75494 z M 32.778713,-10.934832 L 32.778713,-12.470141 L 33.038935,-12.470141 L 33.038935,-10.934832 L 32.778713,-10.934832 z M 34.004648,-11.167586 L 34.042236,-10.937723 C 33.968987,-10.922302 33.90345,-10.914592 33.845624,-10.914592 C 33.751172,-10.914592 33.677925,-10.929531 33.62588,-10.959408 C 33.573836,-10.989285 33.537212,-11.02856 33.516009,-11.077231 C 33.494805,-11.125902 33.484204,-11.228304 33.484204,-11.384437 L 33.484204,-12.267747 L 33.293375,-12.267747 L 33.293375,-12.470141 L 33.484204,-12.470141 L 33.484204,-12.850355 L 33.74298,-13.006488 L 33.74298,-12.470141 L 34.004648,-12.470141 L 34.004648,-12.267747 L 33.74298,-12.267747 L 33.74298,-11.369981 C 33.74298,-11.295769 33.747558,-11.248061 33.756714,-11.226859 C 33.76587,-11.205655 33.780809,-11.188789 33.80153,-11.17626 C 33.822251,-11.16373 33.851887,-11.157466 33.89044,-11.157466 C 33.919352,-11.157466 33.957422,-11.160839 34.004648,-11.167586 L 34.004648,-11.167586 z M 34.120302,-10.934832 L 34.120302,-11.145901 L 35.09758,-12.267747 C 34.986744,-12.261962 34.88892,-12.259071 34.804108,-12.259072 L 34.178129,-12.259072 L 34.178129,-12.470141 L 35.432978,-12.470141 L 35.432978,-12.298106 L 34.601713,-11.323719 L 34.441243,-11.145901 C 34.55786,-11.154574 34.66725,-11.158911 34.769412,-11.158912 L 35.479239,-11.158912 L 35.479239,-10.934832 L 34.120302,-10.934832 z M 35.633927,-11.393112 L 35.891258,-11.43359 C 35.905714,-11.330465 35.945952,-11.251435 36.011971,-11.196499 C 36.07799,-11.141563 36.170273,-11.114096 36.288819,-11.114096 C 36.408327,-11.114096 36.496996,-11.138431 36.554824,-11.187102 C 36.61265,-11.235773 36.641563,-11.292877 36.641564,-11.358415 C 36.641563,-11.417206 36.616023,-11.463467 36.564943,-11.4972 C 36.529282,-11.52033 36.440614,-11.549726 36.298939,-11.585387 C 36.108109,-11.633575 35.975829,-11.675259 35.9021,-11.710438 C 35.82837,-11.745615 35.772471,-11.794286 35.734401,-11.856451 C 35.696332,-11.918614 35.677297,-11.987284 35.677297,-12.06246 C 35.677297,-12.130888 35.692959,-12.194257 35.724282,-12.252567 C 35.755605,-12.310875 35.798252,-12.359305 35.852224,-12.397857 C 35.892703,-12.427733 35.947879,-12.453033 36.017754,-12.473756 C 36.087628,-12.494475 36.162563,-12.504836 36.242557,-12.504838 C 36.36303,-12.504836 36.468805,-12.487488 36.559884,-12.452793 C 36.65096,-12.418096 36.718184,-12.371111 36.761555,-12.31184 C 36.804925,-12.252566 36.834802,-12.173294 36.851188,-12.074026 L 36.596748,-12.039329 C 36.585182,-12.118359 36.55169,-12.180041 36.496274,-12.224376 C 36.440855,-12.268709 36.362548,-12.290876 36.261351,-12.290877 C 36.141841,-12.290876 36.056546,-12.271118 36.005466,-12.231604 C 35.954385,-12.192088 35.928845,-12.145826 35.928845,-12.092819 C 35.928845,-12.059086 35.939446,-12.028727 35.96065,-12.001742 C 35.981853,-11.973791 36.015103,-11.95066 36.060402,-11.932349 C 36.086423,-11.92271 36.163044,-11.900543 36.290265,-11.865848 C 36.474347,-11.816694 36.602771,-11.776456 36.675538,-11.745134 C 36.748302,-11.71381 36.805407,-11.668271 36.846851,-11.608518 C 36.888292,-11.548762 36.909013,-11.474551 36.909015,-11.385883 C 36.909013,-11.299142 36.883714,-11.217461 36.833116,-11.140841 C 36.782517,-11.06422 36.70951,-11.004947 36.614096,-10.963022 C 36.518681,-10.921098 36.410737,-10.900135 36.290265,-10.900135 C 36.09076,-10.900135 35.938724,-10.941578 35.834153,-11.024464 C 35.729582,-11.107349 35.66284,-11.230231 35.633927,-11.393112 L 35.633927,-11.393112 z M 37.219835,-12.75494 L 37.219835,-13.054195 L 37.480057,-13.054195 L 37.480057,-12.75494 L 37.219835,-12.75494 z M 37.219835,-10.934832 L 37.219835,-12.470141 L 37.480057,-12.470141 L 37.480057,-10.934832 L 37.219835,-10.934832 z M 37.877619,-10.934832 L 37.877619,-12.470141 L 38.110373,-12.470141 L 38.110373,-12.254735 C 38.158562,-12.329909 38.222653,-12.390387 38.302648,-12.436168 C 38.382641,-12.481946 38.473719,-12.504836 38.575881,-12.504838 C 38.689607,-12.504836 38.782853,-12.481223 38.85562,-12.433999 C 38.928384,-12.386773 38.979706,-12.320753 39.009585,-12.235941 C 39.13102,-12.415204 39.289081,-12.504836 39.483767,-12.504838 C 39.636043,-12.504836 39.753143,-12.46267 39.835066,-12.378341 C 39.916986,-12.294008 39.957947,-12.164138 39.957949,-11.988731 L 39.957949,-10.934832 L 39.699173,-10.934832 L 39.699173,-11.90199 C 39.699171,-12.006078 39.690738,-12.081012 39.673873,-12.126793 C 39.657005,-12.172571 39.626405,-12.209436 39.582073,-12.237387 C 39.537737,-12.265336 39.485693,-12.279311 39.42594,-12.279312 C 39.317994,-12.279311 39.228362,-12.243409 39.157044,-12.171609 C 39.085722,-12.099806 39.050062,-11.984874 39.050063,-11.826815 L 39.050063,-10.934832 L 38.789841,-10.934832 L 38.789841,-11.932349 C 38.78984,-12.048002 38.768637,-12.134743 38.726232,-12.192571 C 38.683824,-12.250397 38.614431,-12.279311 38.518054,-12.279312 C 38.444806,-12.279311 38.3771,-12.260035 38.314936,-12.221485 C 38.252771,-12.182932 38.207715,-12.126551 38.179765,-12.052341 C 38.151815,-11.978128 38.13784,-11.871148 38.137841,-11.7314 L 38.137841,-10.934832 L 37.877619,-10.934832 z M 40.249976,-11.702486 C 40.249976,-11.986802 40.329006,-12.197389 40.487067,-12.334248 C 40.619105,-12.447973 40.780057,-12.504836 40.969923,-12.504838 C 41.180991,-12.504836 41.353509,-12.435685 41.487476,-12.297383 C 41.621441,-12.159078 41.688424,-11.968008 41.688425,-11.724172 C 41.688424,-11.526595 41.658787,-11.371185 41.599516,-11.257941 C 41.540242,-11.144696 41.453983,-11.05675 41.34074,-10.994104 C 41.227494,-10.931458 41.103889,-10.900135 40.969923,-10.900135 C 40.754999,-10.900135 40.581277,-10.969046 40.448756,-11.106867 C 40.316236,-11.244688 40.249976,-11.443228 40.249976,-11.702486 L 40.249976,-11.702486 z M 40.517426,-11.702486 C 40.517426,-11.505874 40.560314,-11.358656 40.646092,-11.260832 C 40.731868,-11.163008 40.839812,-11.114096 40.969923,-11.114096 C 41.09907,-11.114096 41.206532,-11.163248 41.29231,-11.261555 C 41.378085,-11.35986 41.420974,-11.509729 41.420975,-11.71116 C 41.420974,-11.901025 41.377844,-12.04487 41.291587,-12.142695 C 41.205327,-12.240518 41.098106,-12.28943 40.969923,-12.289432 C 40.839812,-12.28943 40.731868,-12.240759 40.646092,-12.143418 C 40.560314,-12.046075 40.517426,-11.899098 40.517426,-11.702486 L 40.517426,-11.702486 z M 41.994909,-10.934832 L 41.994909,-12.470141 L 42.229109,-12.470141 L 42.229109,-12.251844 C 42.341871,-12.420505 42.504751,-12.504836 42.717748,-12.504838 C 42.81027,-12.504836 42.895324,-12.488211 42.97291,-12.454962 C 43.050493,-12.42171 43.108561,-12.378098 43.147114,-12.324128 C 43.185664,-12.270155 43.21265,-12.206063 43.228072,-12.131853 C 43.237708,-12.083662 43.242527,-11.999331 43.242529,-11.878859 L 43.242529,-10.934832 L 42.982307,-10.934832 L 42.982307,-11.868739 C 42.982306,-11.974755 42.972186,-12.054026 42.951948,-12.106553 C 42.931707,-12.159078 42.895806,-12.201003 42.844245,-12.232327 C 42.792681,-12.263649 42.732204,-12.279311 42.662812,-12.279312 C 42.551976,-12.279311 42.45632,-12.244132 42.375845,-12.173777 C 42.295368,-12.10342 42.25513,-11.969936 42.255131,-11.773325 L 42.255131,-10.934832 L 41.994909,-10.934832 z"
     id="text1235" />
</svg>
