<?xml version="1.0" encoding="UTF-8" standalone="no"?>
<!-- Generator: Adobe Illustrator 12.0.0, SVG Export Plug-In . SVG Version: 6.00 Build 51448)  -->
<svg
   xmlns:dc="http://purl.org/dc/elements/1.1/"
   xmlns:cc="http://web.resource.org/cc/"
   xmlns:rdf="http://www.w3.org/1999/02/22-rdf-syntax-ns#"
   xmlns:svg="http://www.w3.org/2000/svg"
   xmlns="http://www.w3.org/2000/svg"
   xmlns:sodipodi="http://sodipodi.sourceforge.net/DTD/sodipodi-0.dtd"
   xmlns:inkscape="http://www.inkscape.org/namespaces/inkscape"
   height="281.73834"
   id="Layer_1"
   inkscape:version="0.45.1"
   sodipodi:docbase="/Users/johnolsen/Desktop/openclipart-0.20-pre/recovered-zerobyte-files/animals/mammals"
   sodipodi:docname="cavallo_architetto_fran_15r.svg"
   sodipodi:version="0.32"
   space="preserve"
   style="overflow:visible;enable-background:new 0 0 418.753 281.739;"
   version="1.0"
   viewBox="0 0 418.753 281.739"
   width="418.75421"
   inkscape:output_extension="org.inkscape.output.svg.inkscape">
  <metadata
     id="metadata3">
    <rdf:RDF>
      <cc:Work
         rdf:about="">
        <dc:title>Cavallo</dc:title>
        <dc:description />
        <dc:subject>
          <rdf:Bag>
            <rdf:li>animal</rdf:li>
            <rdf:li>equine</rdf:li>
            <rdf:li>horse</rdf:li>
            <rdf:li>gallop</rdf:li>
            <rdf:li>mammal</rdf:li>
          </rdf:Bag>
        </dc:subject>
        <dc:publisher>
          <cc:Agent
             rdf:about="http://www.openclipart.org/">
            <dc:title>Open Clip Art Library</dc:title>
          </cc:Agent>
        </dc:publisher>
        <dc:creator>
          <cc:Agent>
            <dc:title>Architetto Francesco Rollandin</dc:title>
          </cc:Agent>
        </dc:creator>
        <dc:rights>
          <cc:Agent>
            <dc:title>Architetto Francesco Rollandin</dc:title>
          </cc:Agent>
        </dc:rights>
        <dc:date />
        <dc:format>image/svg+xml</dc:format>
        <dc:type
           rdf:resource="http://purl.org/dc/dcmitype/StillImage" />
        <cc:license
           rdf:resource="http://web.resource.org/cc/PublicDomain" />
        <dc:language>en</dc:language>
      </cc:Work>
      <cc:License
         rdf:about="http://web.resource.org/cc/PublicDomain">
        <cc:permits
           rdf:resource="http://web.resource.org/cc/Reproduction" />
        <cc:permits
           rdf:resource="http://web.resource.org/cc/Distribution" />
        <cc:permits
           rdf:resource="http://web.resource.org/cc/DerivativeWorks" />
      </cc:License>
    </rdf:RDF>
  </metadata>
  <defs
     id="defs454" />
  <sodipodi:namedview
     bordercolor="#666666"
     borderopacity="1.0"
     id="base"
     inkscape:current-layer="Layer_1"
     inkscape:cx="209.37650"
     inkscape:cy="140.86951"
     inkscape:pageopacity="0.0"
     inkscape:pageshadow="2"
     inkscape:window-height="510"
     inkscape:window-width="787"
     inkscape:window-x="44"
     inkscape:window-y="58"
     inkscape:zoom="1.2777783"
     pagecolor="#ffffff" />
  <path
     d="M 22.57435,85.28134 C 19.92435,84.26734 18.25835,82.03234 18.20935,79.18034 C 27.03535,79.18034 31.05635,79.42934 23.44835,87.02434 C 23.15635,86.44334 22.86535,85.86234 22.57435,85.28134"
     id="path3"
     style="fill-rule:evenodd" />
  <path
     d="M 22.57435,85.28134 C 19.92435,84.26734 18.25835,82.03234 18.20935,79.18034 C 27.03535,79.18034 31.05635,79.42934 23.44835,87.02434 C 23.15635,86.44334 22.86535,85.86234 22.57435,85.28134"
     id="path5"
     style="fill:none;stroke:#000000;stroke-width:1.49870002;stroke-linecap:square;stroke-miterlimit:10" />
  <path
     d="M 22.57435,85.28134 C 19.92435,84.26734 18.25835,82.03234 18.20935,79.18034 C 27.03535,79.18034 31.05635,79.42934 23.44835,87.02434 C 23.15635,86.44334 22.86535,85.86234 22.57435,85.28134"
     id="path7"
     style="fill:none;stroke:#000000;stroke-width:1.49870002;stroke-linecap:square;stroke-miterlimit:10" />
  <path
     d="M 315.03435,161.10134 C 310.35035,164.35334 307.27935,168.78234 302.81135,172.43034 C 299.24235,175.34434 293.29035,177.75034 290.58835,181.14334 C 286.36935,186.44134 288.23435,188.26834 280.11235,190.29434 C 275.30235,191.49434 267.59135,191.00634 264.39935,193.34534 C 263.99135,187.83334 266.14435,182.55834 266.14435,176.78634 C 266.14435,174.72734 264.48935,172.40034 264.39935,169.81534 C 264.27435,166.22634 266.14435,163.58334 266.14435,160.22834 C 266.14435,150.76934 280.93735,152.01334 287.40935,150.89034 C 294.23935,149.70434 301.06935,148.51934 307.89935,147.33334 C 310.49135,146.88434 313.92735,158.57434 315.03435,161.10134"
     id="path9"
     style="fill:#362007;fill-rule:evenodd" />
  <path
     d="M 315.03435,161.10134 C 310.35035,164.35334 307.27935,168.78234 302.81135,172.43034 C 299.24235,175.34434 293.29035,177.75034 290.58835,181.14334 C 286.36935,186.44134 288.23435,188.26834 280.11235,190.29434 C 275.30235,191.49434 267.59135,191.00634 264.39935,193.34534 C 263.95735,187.38434 266.85735,182.19134 266.14435,175.91434 C 265.35335,168.95934 264.77135,165.06934 267.01835,157.61434"
     id="path11"
     style="fill:none;stroke:#000000;stroke-width:1.49870002;stroke-linecap:square;stroke-miterlimit:10" />
  <path
     d="M 267.01935,157.61434 C 268.33335,150.33934 287.38935,150.89434 293.11835,149.90034 C 298.29935,149.00134 303.47735,148.10134 308.65935,147.20234 C 309.73835,147.01434 314.29635,159.41434 315.03435,161.10034"
     id="path13"
     style="fill:none;stroke:#000000;stroke-width:1.49870002;stroke-linecap:square;stroke-miterlimit:10" />
  <path
     d="M 315.03435,161.10134 C 310.35035,164.35334 307.27935,168.78234 302.81135,172.43034 C 299.24235,175.34434 293.29035,177.75034 290.58835,181.14334 C 286.36935,186.44134 288.23435,188.26834 280.11235,190.29434 C 275.30235,191.49434 267.59135,191.00634 264.39935,193.34534 C 263.99135,187.83334 266.14435,182.55834 266.14435,176.78634 C 266.14435,174.72734 264.48935,172.40034 264.39935,169.81534 C 264.27435,166.22634 266.14435,163.58334 266.14435,160.22834 C 266.14435,150.76934 280.93735,152.01334 287.40935,150.89034 C 294.23935,149.70434 301.06935,148.51934 307.89935,147.33334 C 310.49135,146.88434 313.92735,158.57434 315.03435,161.10134"
     id="path15"
     style="fill:none;stroke:#000000;stroke-width:1.49870002;stroke-linecap:square;stroke-miterlimit:10" />
  <path
     d="M 187.57435,156.74134 C 184.26335,161.99534 176.22535,168.24834 176.22535,175.04334 C 176.22535,181.12534 164.73035,177.56934 160.51135,176.78634 C 147.81235,174.43034 135.22235,171.36334 122.09835,170.68634 C 124.30735,165.71334 126.70835,157.92434 131.70135,155.87234 C 137.18635,153.61634 147.50735,155.24834 153.52635,154.12834 C 165.31035,151.93534 176.21135,151.31234 187.57435,156.74134"
     id="path17"
     style="fill:#402608;fill-rule:evenodd" />
  <path
     d="M 187.57435,156.74134 C 184.26335,161.99534 176.22535,168.24834 176.22535,175.04334 C 176.22535,181.12534 164.73035,177.56934 160.51135,176.78634 C 147.81235,174.43034 135.22235,171.36334 122.09835,170.68634 C 125.54335,162.93434 127.02235,154.87334 136.94035,155.87234"
     id="path19"
     style="fill:none;stroke:#000000;stroke-width:1.49870002;stroke-linecap:square;stroke-miterlimit:10" />
  <path
     d="M 136.94035,155.87234 C 155.20035,155.87234 169.71235,148.20734 187.57435,156.74134"
     id="path21"
     style="fill:none;stroke:#000000;stroke-width:1.49870002;stroke-linecap:square;stroke-miterlimit:10" />
  <path
     d="M 187.57435,156.74134 C 184.26335,161.99534 176.22535,168.24834 176.22535,175.04334 C 176.22535,181.12534 164.73035,177.56934 160.51135,176.78634 C 147.81235,174.43034 135.22235,171.36334 122.09835,170.68634 C 124.30735,165.71334 126.70835,157.92434 131.70135,155.87234 C 137.18635,153.61634 147.50735,155.24834 153.52635,154.12834 C 165.31035,151.93534 176.21135,151.31234 187.57435,156.74134"
     id="path23"
     style="fill:none;stroke:#000000;stroke-width:1.49870002;stroke-linecap:square;stroke-miterlimit:10" />
  <path
     d="M 74.08235,40.83634 C 65.03435,36.29034 63.49235,26.78734 64.47935,17.30634 C 63.96335,21.07834 66.60935,23.82434 67.97135,26.89234 C 72.03435,22.92034 75.61535,17.51834 80.19335,12.94934 C 77.17835,16.42034 78.44635,22.49034 78.44635,26.89234 C 79.18735,21.97134 88.40635,13.21834 94.16035,12.94934 C 91.28135,15.34834 90.17135,18.88634 90.66835,22.53534 C 93.23635,15.79434 101.57535,10.84834 108.12835,9.4633401 C 105.88435,13.09734 105.39135,19.83434 107.25535,23.40634 C 110.37335,13.92934 125.18735,14.96734 132.57235,11.20534 C 128.61935,13.31134 124.91935,15.75334 125.58835,20.79134 C 130.05235,13.25334 143.64635,10.95334 151.77935,12.07734 C 146.61035,12.84634 140.65235,18.47534 140.42935,24.27734 C 143.71135,15.40034 159.77535,18.19034 166.62035,15.56334 C 162.39735,16.58934 156.83935,20.95934 156.14335,25.14934 C 160.03135,20.05234 171.98035,20.82634 177.96835,22.53534 C 183.81435,24.20334 188.51735,31.25034 194.55635,31.25034 C 210.29035,31.25034 222.49835,22.30734 238.20635,23.40634 C 231.88135,24.36534 229.99935,29.99934 227.73335,33.86434 C 234.83535,28.72834 242.42135,28.16034 249.55935,32.99334 C 246.19735,33.77034 242.63235,39.09334 240.39135,39.09334 C 235.40235,39.09334 230.73935,43.82534 225.11535,43.45034 C 235.49335,42.65534 243.22735,43.57534 252.17835,48.67934 C 241.92935,51.72334 233.56535,58.64234 223.36735,61.75134 C 213.92035,64.63234 199.99235,66.50234 190.19335,66.10934 C 171.59235,65.36334 151.25035,57.76034 133.11735,53.78334 C 113.43935,49.46734 93.76035,45.15234 74.08235,40.83634"
     id="path25"
     style="fill:#4a2c0a;fill-rule:evenodd" />
  <path
     d="M 74.08235,40.83634 C 65.03435,36.29034 63.49235,26.78734 64.47935,17.30634 C 63.96335,21.07834 66.60935,23.82434 67.97135,26.89234 C 72.03435,22.92034 75.61535,17.51834 80.19335,12.94934 C 77.17835,16.42034 78.44635,22.49034 78.44635,26.89234 C 79.18735,21.97134 88.40635,13.21834 94.16035,12.94934 C 92.40735,14.51034 91.91235,16.25834 90.66835,18.17834"
     id="path27"
     style="fill:none;stroke:#000000;stroke-width:1.49870002;stroke-linecap:square;stroke-miterlimit:10" />
  <path
     d="M 90.66935,18.17834 C 90.54335,19.60434 90.66935,21.10334 90.66935,22.53534 C 93.23735,15.79434 101.57635,10.84834 108.12935,9.4633401 C 105.88535,13.09734 105.39235,19.83434 107.25635,23.40634 C 110.37435,13.92934 125.18835,14.96734 132.57335,11.20534 C 128.62035,13.31134 124.92035,15.75334 125.58935,20.79134 C 127.59935,17.39634 132.02635,14.18334 136.06535,13.82034"
     id="path29"
     style="fill:none;stroke:#000000;stroke-width:1.49870002;stroke-linecap:square;stroke-miterlimit:10" />
  <path
     d="M 136.06635,13.82134 C 140.04835,12.29434 147.56235,11.49434 151.78135,12.07834 C 146.61235,12.84734 140.65435,18.47634 140.43135,24.27834 C 143.71335,15.40134 159.77735,18.19134 166.62235,15.56434 C 162.39935,16.59034 156.84135,20.96034 156.14535,25.15034 C 159.36135,20.93434 165.74135,21.66434 170.98635,21.66434"
     id="path31"
     style="fill:none;stroke:#000000;stroke-width:1.49870002;stroke-linecap:square;stroke-miterlimit:10" />
  <path
     d="M 170.98635,21.66434 C 183.41635,22.61734 189.61435,31.25034 202.41535,31.25034 C 208.08335,31.25034 212.51835,27.28734 217.25635,26.02134 C 223.58535,24.33034 231.49035,22.93634 238.20835,23.40634 C 231.88135,24.36534 229.99935,29.99934 227.73335,33.86434 C 230.98035,31.51634 233.92735,29.02134 238.20935,29.50734"
     id="path33"
     style="fill:none;stroke:#000000;stroke-width:1.49870002;stroke-linecap:square;stroke-miterlimit:10" />
  <path
     d="M 238.20835,29.50734 C 242.17235,29.88834 246.30635,30.79034 249.55935,32.99334 C 246.19735,33.77034 242.63235,39.09334 240.39135,39.09334 C 235.40235,39.09334 230.73935,43.82534 225.11535,43.45034 C 235.49335,42.65534 243.22735,43.57534 252.17835,48.67934 C 243.40335,51.28534 233.93335,56.67334 225.98735,60.88034"
     id="path35"
     style="fill:none;stroke:#000000;stroke-width:1.49870002;stroke-linecap:square;stroke-miterlimit:10" />
  <path
     d="M 225.98735,60.88034 C 211.48435,67.56334 191.30735,66.54634 175.84935,63.15534 C 141.92735,55.71634 108.00535,48.27634 74.08235,40.83734"
     id="path37"
     style="fill:none;stroke:#000000;stroke-width:1.49870002;stroke-linecap:square;stroke-miterlimit:10" />
  <path
     d="M 74.08235,40.83634 C 65.03435,36.29034 63.49235,26.78734 64.47935,17.30634 C 63.96335,21.07834 66.60935,23.82434 67.97135,26.89234 C 72.03435,22.92034 75.61535,17.51834 80.19335,12.94934 C 77.17835,16.42034 78.44635,22.49034 78.44635,26.89234 C 79.18735,21.97134 88.40635,13.21834 94.16035,12.94934 C 91.28135,15.34834 90.17135,18.88634 90.66835,22.53534 C 93.23635,15.79434 101.57535,10.84834 108.12835,9.4633401 C 105.88435,13.09734 105.39135,19.83434 107.25535,23.40634 C 110.37335,13.92934 125.18735,14.96734 132.57235,11.20534 C 128.61935,13.31134 124.91935,15.75334 125.58835,20.79134 C 130.05235,13.25334 143.64635,10.95334 151.77935,12.07734 C 146.61035,12.84634 140.65235,18.47534 140.42935,24.27734 C 143.71135,15.40034 159.77535,18.19034 166.62035,15.56334 C 162.39735,16.58934 156.83935,20.95934 156.14335,25.14934 C 160.03135,20.05234 171.98035,20.82634 177.96835,22.53534 C 183.81435,24.20334 188.51735,31.25034 194.55635,31.25034 C 210.29035,31.25034 222.49835,22.30734 238.20635,23.40634 C 231.88135,24.36534 229.99935,29.99934 227.73335,33.86434 C 234.83535,28.72834 242.42135,28.16034 249.55935,32.99334 C 246.19735,33.77034 242.63235,39.09334 240.39135,39.09334 C 235.40235,39.09334 230.73935,43.82534 225.11535,43.45034 C 235.49335,42.65534 243.22735,43.57534 252.17835,48.67934 C 241.92935,51.72334 233.56535,58.64234 223.36735,61.75134 C 213.92035,64.63234 199.99235,66.50234 190.19335,66.10934 C 171.59235,65.36334 151.25035,57.76034 133.11735,53.78334 C 113.43935,49.46734 93.76035,45.15234 74.08235,40.83634"
     id="path39"
     style="fill:none;stroke:#000000;stroke-width:1.49870002;stroke-linecap:square;stroke-miterlimit:10" />
  <path
     d="M 68.84435,36.47834 C 70.57735,31.25534 72.71135,25.40234 75.82735,20.79134"
     id="path41"
     style="fill:none;stroke:#000000;stroke-width:1.49870002;stroke-linecap:square;stroke-miterlimit:10" />
  <path
     d="M 68.84435,36.47834 C 70.57735,31.25534 72.71135,25.40234 75.82735,20.79134"
     id="path43"
     style="fill:none;stroke:#000000;stroke-width:1.49870002;stroke-linecap:square;stroke-miterlimit:10" />
  <path
     d="M 75.82835,20.79234 C 71.71835,25.73434 75.59435,29.58934 78.44735,33.86434"
     id="path45"
     style="fill:none;stroke:#000000;stroke-width:1.49870002;stroke-linecap:square;stroke-miterlimit:10" />
  <path
     d="M 75.82835,20.79234 C 71.71835,25.73434 75.59435,29.58934 78.44735,33.86434"
     id="path47"
     style="fill:none;stroke:#000000;stroke-width:1.49870002;stroke-linecap:square;stroke-miterlimit:10" />
  <path
     d="M 78.44735,33.86434 C 81.83135,27.95534 85.90835,23.70334 88.92435,18.17734"
     id="path49"
     style="fill:none;stroke:#000000;stroke-width:1.49870002;stroke-linecap:square;stroke-miterlimit:10" />
  <path
     d="M 78.44735,33.86434 C 81.83135,27.95534 85.90835,23.70334 88.92435,18.17734"
     id="path51"
     style="fill:none;stroke:#000000;stroke-width:1.49870002;stroke-linecap:square;stroke-miterlimit:10" />
  <path
     d="M 88.92435,18.17834 C 85.62735,21.62134 85.14535,26.46934 89.79735,28.63634"
     id="path53"
     style="fill:none;stroke:#000000;stroke-width:1.49870002;stroke-linecap:square;stroke-miterlimit:10" />
  <path
     d="M 88.92435,18.17834 C 85.62735,21.62134 85.14535,26.46934 89.79735,28.63634"
     id="path55"
     style="fill:none;stroke:#000000;stroke-width:1.49870002;stroke-linecap:square;stroke-miterlimit:10" />
  <path
     d="M 89.79635,28.63634 C 92.98435,23.33334 97.20135,18.25234 102.89135,16.43534"
     id="path57"
     style="fill:none;stroke:#000000;stroke-width:1.49870002;stroke-linecap:square;stroke-miterlimit:10" />
  <path
     d="M 89.79635,28.63634 C 92.98435,23.33334 97.20135,18.25234 102.89135,16.43534"
     id="path59"
     style="fill:none;stroke:#000000;stroke-width:1.49870002;stroke-linecap:square;stroke-miterlimit:10" />
  <path
     d="M 102.89135,16.43534 C 99.16835,21.00434 103.52435,27.24734 106.38335,31.25034"
     id="path61"
     style="fill:none;stroke:#000000;stroke-width:1.49870002;stroke-linecap:square;stroke-miterlimit:10" />
  <path
     d="M 102.89135,16.43534 C 99.16835,21.00434 103.52435,27.24734 106.38335,31.25034"
     id="path63"
     style="fill:none;stroke:#000000;stroke-width:1.49870002;stroke-linecap:square;stroke-miterlimit:10" />
  <path
     d="M 106.38335,31.25034 C 109.18035,23.54534 115.90735,20.90734 121.22535,17.30734"
     id="path65"
     style="fill:none;stroke:#000000;stroke-width:1.49870002;stroke-linecap:square;stroke-miterlimit:10" />
  <path
     d="M 106.38335,31.25034 C 109.18035,23.54534 115.90735,20.90734 121.22535,17.30734"
     id="path67"
     style="fill:none;stroke:#000000;stroke-width:1.49870002;stroke-linecap:square;stroke-miterlimit:10" />
  <path
     d="M 121.22535,17.30734 C 116.13135,20.77534 118.09535,26.66134 120.35135,31.25034"
     id="path69"
     style="fill:none;stroke:#000000;stroke-width:1.49870002;stroke-linecap:square;stroke-miterlimit:10" />
  <path
     d="M 121.22535,17.30734 C 116.13135,20.77534 118.09535,26.66134 120.35135,31.25034"
     id="path71"
     style="fill:none;stroke:#000000;stroke-width:1.49870002;stroke-linecap:square;stroke-miterlimit:10" />
  <path
     d="M 120.35235,31.25034 C 123.03335,23.33234 133.90135,20.06034 140.43135,16.43534"
     id="path73"
     style="fill:none;stroke:#000000;stroke-width:1.49870002;stroke-linecap:square;stroke-miterlimit:10" />
  <path
     d="M 120.35235,31.25034 C 123.03335,23.33234 133.90135,20.06034 140.43135,16.43534"
     id="path75"
     style="fill:none;stroke:#000000;stroke-width:1.49870002;stroke-linecap:square;stroke-miterlimit:10" />
  <path
     d="M 140.43135,16.43534 C 131.98035,19.24934 138.40335,28.08834 139.55935,33.86434"
     id="path77"
     style="fill:none;stroke:#000000;stroke-width:1.49870002;stroke-linecap:square;stroke-miterlimit:10" />
  <path
     d="M 140.43135,16.43534 C 131.98035,19.24934 138.40335,28.08834 139.55935,33.86434"
     id="path79"
     style="fill:none;stroke:#000000;stroke-width:1.49870002;stroke-linecap:square;stroke-miterlimit:10" />
  <path
     d="M 139.55935,33.86434 C 140.79035,26.97134 149.60635,23.62034 155.27335,20.79234"
     id="path81"
     style="fill:none;stroke:#000000;stroke-width:1.49870002;stroke-linecap:square;stroke-miterlimit:10" />
  <path
     d="M 139.55935,33.86434 C 140.79035,26.97134 149.60635,23.62034 155.27335,20.79234"
     id="path83"
     style="fill:none;stroke:#000000;stroke-width:1.49870002;stroke-linecap:square;stroke-miterlimit:10" />
  <path
     d="M 155.27335,20.79234 C 148.97235,23.06734 156.82435,29.70734 154.40035,32.99334"
     id="path85"
     style="fill:none;stroke:#000000;stroke-width:1.49870002;stroke-linecap:square;stroke-miterlimit:10" />
  <path
     d="M 155.27335,20.79234 C 148.97235,23.06734 156.82435,29.70734 154.40035,32.99334"
     id="path87"
     style="fill:none;stroke:#000000;stroke-width:1.49870002;stroke-linecap:square;stroke-miterlimit:10" />
  <path
     d="M 154.40035,32.99334 C 161.39135,29.50334 167.40535,27.17234 175.35235,27.76434"
     id="path89"
     style="fill:none;stroke:#000000;stroke-width:1.49870002;stroke-linecap:square;stroke-miterlimit:10" />
  <path
     d="M 154.40035,32.99334 C 161.39135,29.50334 167.40535,27.17234 175.35235,27.76434"
     id="path91"
     style="fill:none;stroke:#000000;stroke-width:1.49870002;stroke-linecap:square;stroke-miterlimit:10" />
  <path
     d="M 175.35235,27.76434 C 182.02335,28.52634 183.71035,37.30434 190.19335,39.09334"
     id="path93"
     style="fill:none;stroke:#000000;stroke-width:1.49870002;stroke-linecap:square;stroke-miterlimit:10" />
  <path
     d="M 175.35235,27.76434 C 182.02335,28.52634 183.71035,37.30434 190.19335,39.09334"
     id="path95"
     style="fill:none;stroke:#000000;stroke-width:1.49870002;stroke-linecap:square;stroke-miterlimit:10" />
  <path
     d="M 190.19335,39.09334 C 195.54035,39.09334 202.65135,40.56634 206.78035,36.47834"
     id="path97"
     style="fill:none;stroke:#000000;stroke-width:1.49870002;stroke-linecap:square;stroke-miterlimit:10" />
  <path
     d="M 190.19335,39.09334 C 195.54035,39.09334 202.65135,40.56634 206.78035,36.47834"
     id="path99"
     style="fill:none;stroke:#000000;stroke-width:1.49870002;stroke-linecap:square;stroke-miterlimit:10" />
  <path
     d="M 206.78135,36.47834 C 211.89335,33.02634 219.73235,27.89934 225.98735,28.63534"
     id="path101"
     style="fill:none;stroke:#000000;stroke-width:1.49870002;stroke-linecap:square;stroke-miterlimit:10" />
  <path
     d="M 206.78135,36.47834 C 211.89335,33.02634 219.73235,27.89934 225.98735,28.63534"
     id="path103"
     style="fill:none;stroke:#000000;stroke-width:1.49870002;stroke-linecap:square;stroke-miterlimit:10" />
  <path
     d="M 225.98735,28.63634 C 222.67535,31.67534 216.39135,39.74034 215.51035,42.57934"
     id="path105"
     style="fill:none;stroke:#000000;stroke-width:1.49870002;stroke-linecap:square;stroke-miterlimit:10" />
  <path
     d="M 225.98735,28.63634 C 222.67535,31.67534 216.39135,39.74034 215.51035,42.57934"
     id="path107"
     style="fill:none;stroke:#000000;stroke-width:1.49870002;stroke-linecap:square;stroke-miterlimit:10" />
  <path
     d="M 215.51035,42.57934 C 217.58435,35.18134 232.46335,34.06434 238.20835,36.47834"
     id="path109"
     style="fill:none;stroke:#000000;stroke-width:1.49870002;stroke-linecap:square;stroke-miterlimit:10" />
  <path
     d="M 215.51035,42.57934 C 217.58435,35.18134 232.46335,34.06434 238.20835,36.47834"
     id="path111"
     style="fill:none;stroke:#000000;stroke-width:1.49870002;stroke-linecap:square;stroke-miterlimit:10" />
  <path
     d="M 238.20835,36.47834 C 232.24535,38.06134 227.56835,43.15334 221.62135,44.32234"
     id="path113"
     style="fill:none;stroke:#000000;stroke-width:1.49870002;stroke-linecap:square;stroke-miterlimit:10" />
  <path
     d="M 238.20835,36.47834 C 232.24535,38.06134 227.56835,43.15334 221.62135,44.32234"
     id="path115"
     style="fill:none;stroke:#000000;stroke-width:1.49870002;stroke-linecap:square;stroke-miterlimit:10" />
  <path
     d="M 221.62235,44.32234 C 219.08035,49.91834 232.49435,53.55734 236.46335,55.65134"
     id="path117"
     style="fill:none;stroke:#000000;stroke-width:1.49870002;stroke-linecap:square;stroke-miterlimit:10" />
  <path
     d="M 221.62235,44.32234 C 219.08035,49.91834 232.49435,53.55734 236.46335,55.65134"
     id="path119"
     style="fill:none;stroke:#000000;stroke-width:1.49870002;stroke-linecap:square;stroke-miterlimit:10" />
  <line
     id="line121"
     style="fill:none;stroke:#000000;stroke-width:1.49870002;stroke-linecap:square;stroke-miterlimit:10"
     x1="0.74935001"
     x2="0.74935001"
     y1="0.74934006"
     y2="0.74934006" />
  <path
     d="M 299.32135,154.12834 C 300.60635,156.81234 289.46135,155.56234 286.22435,157.17934 C 282.03835,159.26934 272.59935,159.06134 267.89135,159.35734 C 262.02335,159.72434 256.22435,160.40534 250.43135,160.22934 C 245.01635,160.06434 234.99635,154.15734 230.35235,159.35734 C 228.23535,161.72734 230.90935,165.61234 229.47835,168.07234 C 227.65835,171.20034 221.82535,172.88634 219.00235,175.04434 C 214.67435,178.35534 212.52335,182.95334 208.52635,186.37434 C 206.08935,188.45934 195.10335,195.96034 191.06635,195.96034 C 184.53735,195.96034 182.19035,207.47734 177.09735,208.16034 C 185.80535,207.47334 194.37135,209.27434 203.28835,208.16034 C 209.28735,207.41134 223.21335,207.95634 225.98635,202.06134 C 229.15035,204.75934 230.59235,208.40034 233.40735,211.21034 C 238.07335,215.87034 238.93735,207.71534 239.95535,206.41634 C 244.15835,201.05734 242.18735,200.64134 248.24935,204.67334 C 252.02035,207.18334 256.10335,207.95534 259.16235,211.64634 C 244.67335,210.57634 236.56635,222.11734 222.49535,220.36134 C 208.57135,218.62334 194.52835,220.42634 180.58935,221.23234 C 172.23835,221.71534 170.06435,219.46734 165.74835,212.51834 C 160.82535,204.58934 163.58035,202.13234 169.24135,195.95934 C 171.87835,193.08334 179.71835,187.34534 179.71835,182.88634 C 179.71835,177.15734 184.64735,169.25134 189.32035,165.45734 C 176.94535,159.69534 152.65335,158.75434 152.65335,141.49234 C 152.65335,137.44134 154.02135,133.52334 155.27335,129.72634 C 155.79935,128.13334 155.63035,126.09634 156.14535,124.49734 C 156.36735,123.80834 159.98135,123.08634 159.63735,121.01134 C 159.04235,117.41634 145.56335,111.38834 141.74135,110.11734 C 126.12835,104.92634 112.64335,90.65934 102.45535,80.48734 C 99.09035,77.12634 95.58635,73.95134 90.66935,73.95134 C 85.11335,73.95134 84.81435,76.60734 81.06635,80.05134 C 72.97635,87.48634 65.38235,84.16534 55.74835,82.66534 C 54.65235,82.49534 53.93235,81.54134 53.13035,80.92234 C 50.25535,85.78334 40.59635,82.86034 34.79635,84.40834 C 29.79435,85.74434 30.84535,85.32434 28.24935,90.50834 C 25.53235,95.93534 21.48035,91.07634 17.33735,89.63734 C 19.52535,87.12834 33.07135,79.17934 22.13835,79.17934 C 13.84935,79.17934 6.12935,85.38834 10.35235,73.07934 C 14.19135,61.89134 28.29435,58.86034 38.28935,54.77834 C 56.46135,47.35534 80.17335,39.68234 96.78135,26.02034 C 96.29835,29.75134 93.76335,35.90934 89.79735,37.34934 C 96.10535,39.94634 104.72535,38.67534 111.62235,39.96434 C 120.37135,41.59834 130.65635,42.81134 139.12235,45.62834 C 147.35835,48.36934 155.77735,49.32134 164.00435,51.29334 C 168.91235,52.46934 182.40035,51.38934 184.95635,54.77934 C 197.19235,49.56634 220.73935,52.16034 232.09835,57.82934 C 245.39035,64.46234 267.47035,63.49434 282.73535,63.49434 C 298.41435,63.49434 311.77035,60.00934 327.25735,60.00934 C 342.78335,60.00934 359.10935,70.89034 369.16135,80.92434 C 375.81335,87.56334 402.09435,112.52634 390.55035,124.06234 C 388.63135,125.97934 388.76035,129.33434 387.05935,131.03334 C 385.54735,132.54334 382.37435,134.89634 379.63735,136.26234 C 371.97335,140.08634 364.74935,145.72434 356.93935,149.76934 C 352.34535,152.14734 338.33235,154.67434 336.42435,158.48434 C 332.91135,165.49734 330.74035,173.30234 330.75035,181.14134 C 330.75835,188.84734 333.42835,197.97834 328.13035,204.67234 C 324.97135,208.66534 315.68135,212.37134 310.67135,215.13034 C 303.00735,219.34934 295.53735,224.09534 288.84535,229.07434 C 283.17235,233.29534 278.85435,242.21534 272.25735,243.88734 C 268.92735,244.73234 261.78135,240.06934 261.78135,246.50134 C 261.78135,248.66334 259.85035,250.56334 260.03535,252.60334 C 260.13635,253.72534 263.70435,255.01934 263.52635,256.08934 C 262.06335,264.83634 246.35835,261.26534 240.82935,263.93234 C 243.15335,251.92734 251.99335,243.66434 256.54135,232.55834 C 248.03435,242.38834 235.73835,248.64834 227.73335,256.95934 C 223.90135,252.48334 210.27335,256.21434 210.27335,261.31634 C 210.27335,266.59934 212.05335,272.64634 204.59835,272.64634 C 199.43935,272.64634 194.31235,271.61434 189.32035,270.90234 C 188.92235,262.52534 198.11335,264.68534 201.10635,258.70234 C 203.04235,254.83434 209.34335,250.04634 212.45635,246.93634 C 220.81035,238.59234 231.43035,234.10034 239.95535,225.58634 C 248.27335,217.27834 256.71135,212.19834 262.21835,201.18534 C 263.24335,199.13634 264.50435,197.00334 265.27335,195.08334 C 267.74335,188.91334 263.42135,191.53034 268.76435,188.98334 C 273.57535,186.69234 283.46135,185.94434 288.84535,186.36934 C 285.71235,190.69034 286.50935,197.13234 284.04335,202.05534 C 281.34535,207.44634 278.74335,213.18334 279.24135,219.48534 C 287.92735,209.89034 299.70835,204.35934 307.17835,194.21334 C 315.32335,183.15034 301.53435,166.55534 299.32135,154.12834"
     id="path123"
     style="fill:#5a3d1c;fill-rule:evenodd" />
  <path
     d="M 299.32135,154.12834 C 300.41835,156.41834 296.92635,155.31334 294.08335,155.87234 C 291.17835,156.44434 287.39435,157.61434 284.47935,157.61434 C 277.06135,157.61434 270.15935,159.35634 262.65335,159.35634 C 256.06735,159.35634 250.09035,160.58334 243.44735,159.35634 C 240.12735,158.74234 233.67135,155.63934 230.35235,159.35634 C 227.36635,162.70034 231.81635,167.27234 226.85935,169.81534"
     id="path125"
     style="fill:none;stroke:#000000;stroke-width:1.49870002;stroke-linecap:square;stroke-miterlimit:10" />
  <path
     d="M 226.85935,169.81534 C 217.50535,174.45334 211.94035,184.18734 203.28935,188.98734 C 198.80935,191.47134 193.21435,194.12134 189.32035,196.83134 C 184.91135,199.89734 181.23635,207.60434 177.09835,208.15934 C 184.27635,207.59334 191.80635,210.88834 198.92435,208.15934"
     id="path127"
     style="fill:none;stroke:#000000;stroke-width:1.49870002;stroke-linecap:square;stroke-miterlimit:10" />
  <path
     d="M 198.92335,208.15934 C 205.26335,208.65634 223.16135,208.06934 225.98735,202.06034 C 229.15135,204.75834 230.59335,208.39934 233.40835,211.20934 C 238.07435,215.86934 238.93835,207.71434 239.95635,206.41534 C 244.15935,201.05634 242.18835,200.64034 248.25035,204.67234 C 252.02135,207.18234 256.10435,207.95434 259.16335,211.64534 C 253.22735,211.20634 238.88535,213.92934 236.46335,219.48834"
     id="path129"
     style="fill:none;stroke:#000000;stroke-width:1.49870002;stroke-linecap:square;stroke-miterlimit:10" />
  <path
     d="M 236.46235,219.48834 C 228.79135,222.95134 221.50135,219.99434 213.76435,219.48834 C 204.32935,218.87234 195.20235,220.36034 185.82735,220.36034 C 175.60335,220.36034 172.71835,222.94934 166.62135,213.82534 C 158.63435,201.87134 168.23935,202.88634 170.98535,193.34534"
     id="path131"
     style="fill:none;stroke:#000000;stroke-width:1.49870002;stroke-linecap:square;stroke-miterlimit:10" />
  <path
     d="M 170.98635,193.34534 C 181.02935,186.24834 179.19135,173.68034 189.31935,165.45734 C 179.46235,160.86734 168.46435,158.53234 158.76435,153.69134 C 148.41535,148.52734 153.99235,134.71034 156.14435,126.24134"
     id="path133"
     style="fill:none;stroke:#000000;stroke-width:1.49870002;stroke-linecap:square;stroke-miterlimit:10" />
  <path
     d="M 156.14535,126.24134 C 161.55135,118.51334 156.00235,117.76634 148.28935,114.04034 C 141.18735,110.60934 133.99735,106.34934 127.33735,101.83934 C 120.68635,97.33634 115.04235,90.03934 108.13035,86.58934 C 100.84335,82.95034 98.55635,72.96634 87.17835,73.95334"
     id="path135"
     style="fill:none;stroke:#000000;stroke-width:1.49870002;stroke-linecap:square;stroke-miterlimit:10" />
  <path
     d="M 87.17735,73.95334 C 84.72635,74.96534 83.08035,78.20334 81.06635,80.05334 C 78.12835,82.75234 75.83235,83.53834 71.89935,84.84634 C 66.30635,86.70634 57.64335,84.40534 53.12935,80.92534 C 50.25435,85.78634 40.59535,82.86334 34.79535,84.41134 C 29.79335,85.74734 30.84435,85.32734 28.24835,90.51134 C 25.53135,95.93834 21.47935,91.07934 17.33635,89.64034 C 20.02335,86.55834 23.22635,84.33434 26.93935,82.66834"
     id="path137"
     style="fill:none;stroke:#000000;stroke-width:1.49870002;stroke-linecap:square;stroke-miterlimit:10" />
  <path
     d="M 26.93935,82.66734 C 23.87335,73.96734 0.059350011,88.49234 11.22535,71.77334 C 15.02235,66.08734 21.80235,58.26534 29.99535,58.26534 C 36.07735,58.26534 45.19435,51.68834 49.63835,49.55034 C 53.98535,47.46034 59.48435,47.16134 63.60635,45.19334 C 67.49435,43.33634 70.50035,39.52134 74.95635,39.09334"
     id="path139"
     style="fill:none;stroke:#000000;stroke-width:1.49870002;stroke-linecap:square;stroke-miterlimit:10" />
  <path
     d="M 74.95535,39.09334 C 81.09135,33.20734 90.30835,31.34634 96.78035,26.02134 C 96.29735,29.75234 93.76235,35.91034 89.79635,37.35034 C 98.00835,40.73134 109.64135,39.47034 118.60635,41.70834 C 123.78735,43.00134 131.17035,45.19334 136.50235,45.19334 C 142.65435,45.19334 147.90235,49.42134 154.39935,48.67934"
     id="path141"
     style="fill:none;stroke:#000000;stroke-width:1.49870002;stroke-linecap:square;stroke-miterlimit:10" />
  <path
     d="M 154.40035,48.67934 C 157.94535,49.82534 167.11435,50.04234 169.67835,52.60134 C 173.05335,55.97034 181.73735,50.51134 184.95535,54.78034 C 204.23235,46.56834 225.16435,58.91434 243.44735,60.00934"
     id="path143"
     style="fill:none;stroke:#000000;stroke-width:1.49870002;stroke-linecap:square;stroke-miterlimit:10" />
  <path
     d="M 243.44735,60.00934 C 257.78935,64.85234 275.22135,63.49434 290.59135,63.49434 C 303.35135,63.49434 320.03735,55.57034 332.49435,60.88034"
     id="path145"
     style="fill:none;stroke:#000000;stroke-width:1.49870002;stroke-linecap:square;stroke-miterlimit:10" />
  <path
     d="M 332.49435,60.88034 C 355.68635,66.66434 409.15535,102.83334 387.49435,130.59834"
     id="path147"
     style="fill:none;stroke:#000000;stroke-width:1.49870002;stroke-linecap:square;stroke-miterlimit:10" />
  <path
     d="M 387.49435,130.59834 C 375.27035,140.56434 358.43635,149.55034 342.97235,155.87234 C 338.28935,157.78734 337.90935,155.59534 335.11635,161.10134 C 333.06335,165.14634 332.42635,169.82034 331.62335,174.17334 C 329.95735,183.19634 332.38435,192.03234 329.87635,201.18934"
     id="path149"
     style="fill:none;stroke:#000000;stroke-width:1.49870002;stroke-linecap:square;stroke-miterlimit:10" />
  <path
     d="M 329.87435,201.18834 C 327.75035,207.34934 320.61535,209.29334 315.03435,212.08234 C 306.79335,216.19734 299.60035,221.93134 292.33535,227.33234 C 287.05435,231.25634 280.40735,240.15634 274.87535,243.01934 C 271.15135,244.94734 266.50935,241.28634 263.52535,243.01934 C 260.61335,244.71034 259.60335,252.29634 261.78035,254.34934"
     id="path151"
     style="fill:none;stroke:#000000;stroke-width:1.49870002;stroke-linecap:square;stroke-miterlimit:10" />
  <path
     d="M 261.78135,254.34934 C 270.65135,261.78434 242.70035,263.03234 240.82935,263.93534 C 243.15335,251.93034 251.99335,243.66734 256.54135,232.56134 C 248.03435,242.39134 235.73835,248.65134 227.73335,256.96234 C 227.15135,256.38134 226.56935,255.80134 225.98735,255.22034"
     id="path153"
     style="fill:none;stroke:#000000;stroke-width:1.49870002;stroke-linecap:square;stroke-miterlimit:10" />
  <path
     d="M 225.98735,255.22034 C 222.31135,252.20534 220.08535,254.97434 216.38335,256.96234 C 212.04535,259.29434 211.86335,257.11534 210.27335,262.19134 C 208.30235,268.47734 212.54135,271.98434 203.28935,272.65034 C 198.82035,272.97234 193.69635,271.53034 189.32035,270.90634 C 188.98235,263.78834 198.66235,261.19634 203.28935,256.96334 C 208.36035,252.32434 211.66935,247.07934 216.38435,242.14934"
     id="path155"
     style="fill:none;stroke:#000000;stroke-width:1.49870002;stroke-linecap:square;stroke-miterlimit:10" />
  <path
     d="M 216.38335,242.14734 C 222.18235,236.28034 230.92635,233.24334 237.33635,227.33234 C 243.33835,221.79634 249.55035,218.70934 254.79635,212.51834 C 260.41235,205.89234 265.27235,198.69634 265.27235,189.85934 C 265.27235,188.59934 288.04235,185.25534 287.97035,187.24534"
     id="path157"
     style="fill:none;stroke:#000000;stroke-width:1.49870002;stroke-linecap:square;stroke-miterlimit:10" />
  <path
     d="M 287.97035,187.24434 C 285.40335,196.92634 278.44535,209.42334 279.24135,219.48834 C 287.23035,210.66434 296.56935,205.50734 304.55735,196.83134 C 314.91735,185.57834 305.48635,176.16434 301.93935,161.97234"
     id="path159"
     style="fill:none;stroke:#000000;stroke-width:1.49870002;stroke-linecap:square;stroke-miterlimit:10" />
  <path
     d="M 301.93935,161.97234 C 300.48135,159.38934 299.81235,156.88534 299.32135,154.12834"
     id="path161"
     style="fill:none;stroke:#000000;stroke-width:1.49870002;stroke-linecap:square;stroke-miterlimit:10" />
  <path
     d="M 299.32135,154.12834 C 300.60635,156.81234 289.46135,155.56234 286.22435,157.17934 C 282.03835,159.26934 272.59935,159.06134 267.89135,159.35734 C 262.02335,159.72434 256.22435,160.40534 250.43135,160.22934 C 245.01635,160.06434 234.99635,154.15734 230.35235,159.35734 C 228.23535,161.72734 230.90935,165.61234 229.47835,168.07234 C 227.65835,171.20034 221.82535,172.88634 219.00235,175.04434 C 214.67435,178.35534 212.52335,182.95334 208.52635,186.37434 C 206.08935,188.45934 195.10335,195.96034 191.06635,195.96034 C 184.53735,195.96034 182.19035,207.47734 177.09735,208.16034 C 185.80535,207.47334 194.37135,209.27434 203.28835,208.16034 C 209.28735,207.41134 223.21335,207.95634 225.98635,202.06134 C 229.15035,204.75934 230.59235,208.40034 233.40735,211.21034 C 238.07335,215.87034 238.93735,207.71534 239.95535,206.41634 C 244.15835,201.05734 242.18735,200.64134 248.24935,204.67334 C 252.02035,207.18334 256.10335,207.95534 259.16235,211.64634 C 244.67335,210.57634 236.56635,222.11734 222.49535,220.36134 C 208.57135,218.62334 194.52835,220.42634 180.58935,221.23234 C 172.23835,221.71534 170.06435,219.46734 165.74835,212.51834 C 160.82535,204.58934 163.58035,202.13234 169.24135,195.95934 C 171.87835,193.08334 179.71835,187.34534 179.71835,182.88634 C 179.71835,177.15734 184.64735,169.25134 189.32035,165.45734 C 176.94535,159.69534 152.65335,158.75434 152.65335,141.49234 C 152.65335,137.44134 154.02135,133.52334 155.27335,129.72634 C 155.79935,128.13334 155.63035,126.09634 156.14535,124.49734 C 156.36735,123.80834 159.98135,123.08634 159.63735,121.01134 C 159.04235,117.41634 145.56335,111.38834 141.74135,110.11734 C 126.12835,104.92634 112.64335,90.65934 102.45535,80.48734 C 99.09035,77.12634 95.58635,73.95134 90.66935,73.95134 C 85.11335,73.95134 84.81435,76.60734 81.06635,80.05134 C 72.97635,87.48634 65.38235,84.16534 55.74835,82.66534 C 54.65235,82.49534 53.93235,81.54134 53.13035,80.92234 C 50.25535,85.78334 40.59635,82.86034 34.79635,84.40834 C 29.79435,85.74434 30.84535,85.32434 28.24935,90.50834 C 25.53235,95.93534 21.48035,91.07634 17.33735,89.63734 C 19.52535,87.12834 33.07135,79.17934 22.13835,79.17934 C 13.84935,79.17934 6.12935,85.38834 10.35235,73.07934 C 14.19135,61.89134 28.29435,58.86034 38.28935,54.77834 C 56.46135,47.35534 80.17335,39.68234 96.78135,26.02034 C 96.29835,29.75134 93.76335,35.90934 89.79735,37.34934 C 96.10535,39.94634 104.72535,38.67534 111.62235,39.96434 C 120.37135,41.59834 130.65635,42.81134 139.12235,45.62834 C 147.35835,48.36934 155.77735,49.32134 164.00435,51.29334 C 168.91235,52.46934 182.40035,51.38934 184.95635,54.77934 C 197.19235,49.56634 220.73935,52.16034 232.09835,57.82934 C 245.39035,64.46234 267.47035,63.49434 282.73535,63.49434 C 298.41435,63.49434 311.77035,60.00934 327.25735,60.00934 C 342.78335,60.00934 359.10935,70.89034 369.16135,80.92434 C 375.81335,87.56334 402.09435,112.52634 390.55035,124.06234 C 388.63135,125.97934 388.76035,129.33434 387.05935,131.03334 C 385.54735,132.54334 382.37435,134.89634 379.63735,136.26234 C 371.97335,140.08634 364.74935,145.72434 356.93935,149.76934 C 352.34535,152.14734 338.33235,154.67434 336.42435,158.48434 C 332.91135,165.49734 330.74035,173.30234 330.75035,181.14134 C 330.75835,188.84734 333.42835,197.97834 328.13035,204.67234 C 324.97135,208.66534 315.68135,212.37134 310.67135,215.13034 C 303.00735,219.34934 295.53735,224.09534 288.84535,229.07434 C 283.17235,233.29534 278.85435,242.21534 272.25735,243.88734 C 268.92735,244.73234 261.78135,240.06934 261.78135,246.50134 C 261.78135,248.66334 259.85035,250.56334 260.03535,252.60334 C 260.13635,253.72534 263.70435,255.01934 263.52635,256.08934 C 262.06335,264.83634 246.35835,261.26534 240.82935,263.93234 C 243.15335,251.92734 251.99335,243.66434 256.54135,232.55834 C 248.03435,242.38834 235.73835,248.64834 227.73335,256.95934 C 223.90135,252.48334 210.27335,256.21434 210.27335,261.31634 C 210.27335,266.59934 212.05335,272.64634 204.59835,272.64634 C 199.43935,272.64634 194.31235,271.61434 189.32035,270.90234 C 188.92235,262.52534 198.11335,264.68534 201.10635,258.70234 C 203.04235,254.83434 209.34335,250.04634 212.45635,246.93634 C 220.81035,238.59234 231.43035,234.10034 239.95535,225.58634 C 248.27335,217.27834 256.71135,212.19834 262.21835,201.18534 C 263.24335,199.13634 264.50435,197.00334 265.27335,195.08334 C 267.74335,188.91334 263.42135,191.53034 268.76435,188.98334 C 273.57535,186.69234 283.46135,185.94434 288.84535,186.36934 C 285.71235,190.69034 286.50935,197.13234 284.04335,202.05534 C 281.34535,207.44634 278.74335,213.18334 279.24135,219.48534 C 287.92735,209.89034 299.70835,204.35934 307.17835,194.21334 C 315.32335,183.15034 301.53435,166.55534 299.32135,154.12834"
     id="path163"
     style="fill:none;stroke:#000000;stroke-width:1.49870002;stroke-linecap:square;stroke-miterlimit:10" />
  <path
     d="M 91.54235,36.47834 C 89.99935,39.63234 87.34735,42.15634 83.68535,41.70734"
     id="path165"
     style="fill:none;stroke:#000000;stroke-width:1.49870002;stroke-linecap:square;stroke-miterlimit:10" />
  <path
     d="M 91.54235,36.47834 C 89.99935,39.63234 87.34735,42.15634 83.68535,41.70734"
     id="path167"
     style="fill:none;stroke:#000000;stroke-width:1.49870002;stroke-linecap:square;stroke-miterlimit:10" />
  <path
     d="M 83.68535,41.70834 C 80.68035,42.43834 78.13235,41.95834 74.95535,41.70834"
     id="path169"
     style="fill:none;stroke:#000000;stroke-width:1.49870002;stroke-linecap:square;stroke-miterlimit:10" />
  <path
     d="M 83.68535,41.70834 C 80.68035,42.43834 78.13235,41.95834 74.95535,41.70834"
     id="path171"
     style="fill:none;stroke:#000000;stroke-width:1.49870002;stroke-linecap:square;stroke-miterlimit:10" />
  <line
     id="line173"
     style="fill:none;stroke:#000000;stroke-width:1.49870002;stroke-linecap:square;stroke-miterlimit:10"
     x1="0.74935001"
     x2="0.74935001"
     y1="0.74934006"
     y2="0.74934006" />
  <path
     d="M 87.17735,46.06534 C 91.91135,53.22934 90.96435,65.80534 88.05035,73.08134"
     id="path175"
     style="fill:none;stroke:#000000;stroke-width:1.49870002;stroke-linecap:square;stroke-miterlimit:10" />
  <path
     d="M 87.17735,46.06534 C 91.91135,53.22934 90.96435,65.80534 88.05035,73.08134"
     id="path177"
     style="fill:none;stroke:#000000;stroke-width:1.49870002;stroke-linecap:square;stroke-miterlimit:10" />
  <path
     d="M 144.79635,63.49434 C 133.98535,64.84434 118.67635,68.01634 109.00335,61.75134"
     id="path179"
     style="fill:none;stroke:#000000;stroke-width:1.49870002;stroke-linecap:square;stroke-miterlimit:10" />
  <path
     d="M 144.79635,63.49434 C 133.98535,64.84434 118.67635,68.01634 109.00335,61.75134"
     id="path181"
     style="fill:none;stroke:#000000;stroke-width:1.49870002;stroke-linecap:square;stroke-miterlimit:10" />
  <path
     d="M 109.00235,61.75134 C 103.53935,61.45834 95.96135,58.21234 90.66935,56.52234"
     id="path183"
     style="fill:none;stroke:#000000;stroke-width:1.49870002;stroke-linecap:square;stroke-miterlimit:10" />
  <path
     d="M 109.00235,61.75134 C 103.53935,61.45834 95.96135,58.21234 90.66935,56.52234"
     id="path185"
     style="fill:none;stroke:#000000;stroke-width:1.49870002;stroke-linecap:square;stroke-miterlimit:10" />
  <line
     id="line187"
     style="fill:none;stroke:#000000;stroke-width:1.49870002;stroke-linecap:square;stroke-miterlimit:10"
     x1="0.74935001"
     x2="0.74935001"
     y1="0.74934006"
     y2="0.74934006" />
  <path
     d="M 89.79635,64.36634 C 103.60335,63.28234 108.93135,74.94034 118.60635,80.92534"
     id="path189"
     style="fill:none;stroke:#000000;stroke-width:1.49870002;stroke-linecap:square;stroke-miterlimit:10" />
  <path
     d="M 89.79635,64.36634 C 103.60335,63.28234 108.93135,74.94034 118.60635,80.92534"
     id="path191"
     style="fill:none;stroke:#000000;stroke-width:1.49870002;stroke-linecap:square;stroke-miterlimit:10" />
  <path
     d="M 118.60635,80.92434 C 120.79135,87.38234 131.86635,95.81234 136.93935,100.09734 C 142.08635,104.44534 149.25035,109.78934 156.14435,110.55434"
     id="path193"
     style="fill:none;stroke:#000000;stroke-width:1.49870002;stroke-linecap:square;stroke-miterlimit:10" />
  <path
     d="M 118.60635,80.92434 C 120.79135,87.38234 131.86635,95.81234 136.93935,100.09734 C 142.08635,104.44534 149.25035,109.78934 156.14435,110.55434"
     id="path195"
     style="fill:none;stroke:#000000;stroke-width:1.49870002;stroke-linecap:square;stroke-miterlimit:10" />
  <line
     id="line197"
     style="fill:none;stroke:#000000;stroke-width:1.49870002;stroke-linecap:square;stroke-miterlimit:10"
     x1="157.89235"
     x2="162.25635"
     y1="144.54234"
     y2="156.74135" />
  <line
     id="line199"
     style="fill:none;stroke:#000000;stroke-width:1.49870002;stroke-linecap:square;stroke-miterlimit:10"
     x1="157.89235"
     x2="162.25635"
     y1="144.54234"
     y2="156.74135" />
  <path
     d="M 157.89235,123.62634 C 161.11135,126.19134 160.85735,130.27534 160.51135,134.08434"
     id="path201"
     style="fill:none;stroke:#000000;stroke-width:1.49870002;stroke-linecap:square;stroke-miterlimit:10" />
  <path
     d="M 157.89235,123.62634 C 161.11135,126.19134 160.85735,130.27534 160.51135,134.08434"
     id="path203"
     style="fill:none;stroke:#000000;stroke-width:1.49870002;stroke-linecap:square;stroke-miterlimit:10" />
  <path
     d="M 160.51135,134.08434 C 160.08535,149.11234 174.98335,160.24634 190.19435,160.22834"
     id="path205"
     style="fill:none;stroke:#000000;stroke-width:1.49870002;stroke-linecap:square;stroke-miterlimit:10" />
  <path
     d="M 160.51135,134.08434 C 160.08535,149.11234 174.98335,160.24634 190.19435,160.22834"
     id="path207"
     style="fill:none;stroke:#000000;stroke-width:1.49870002;stroke-linecap:square;stroke-miterlimit:10" />
  <path
     d="M 173.60635,143.67034 C 177.93935,148.54334 182.20935,154.75234 188.44735,157.61434"
     id="path209"
     style="fill:none;stroke:#000000;stroke-width:1.49870002;stroke-linecap:square;stroke-miterlimit:10" />
  <path
     d="M 173.60635,143.67034 C 177.93935,148.54334 182.20935,154.75234 188.44735,157.61434"
     id="path211"
     style="fill:none;stroke:#000000;stroke-width:1.49870002;stroke-linecap:square;stroke-miterlimit:10" />
  <line
     id="line213"
     style="fill:none;stroke:#000000;stroke-width:1.49870002;stroke-linecap:square;stroke-miterlimit:10"
     x1="0.74935001"
     x2="0.74935001"
     y1="0.74934006"
     y2="0.74934006" />
  <path
     d="M 179.71735,134.08434 C 182.34935,142.85334 187.43835,150.03734 190.19335,158.48634"
     id="path215"
     style="fill:none;stroke:#000000;stroke-width:1.49870002;stroke-linecap:square;stroke-miterlimit:10" />
  <path
     d="M 179.71735,134.08434 C 182.34935,142.85334 187.43835,150.03734 190.19335,158.48634"
     id="path217"
     style="fill:none;stroke:#000000;stroke-width:1.49870002;stroke-linecap:square;stroke-miterlimit:10" />
  <line
     id="line219"
     style="fill:none;stroke:#000000;stroke-width:1.49870002;stroke-linecap:square;stroke-miterlimit:10"
     x1="0.74935001"
     x2="0.74935001"
     y1="0.74934006"
     y2="0.74934006" />
  <path
     d="M 134.32035,156.74134 C 124.35735,154.53834 102.53835,148.63734 104.63835,166.32934 C 105.26635,171.62934 110.28635,178.48334 112.93235,183.75934 C 116.58235,191.03934 119.20335,198.43534 122.09835,205.54434 C 123.79735,209.72034 125.93435,219.06134 129.08235,222.10334 C 131.91335,224.83934 136.56135,223.47034 139.55935,226.46134 C 142.76035,229.65534 145.96135,232.85234 149.16235,236.04634 C 150.64635,237.53034 151.34035,241.27734 153.96435,239.53334 C 156.54135,237.81834 156.14635,229.20834 156.14635,226.02434 C 156.14635,220.17034 156.24735,221.20334 150.90835,219.48834 C 148.81535,218.81634 143.53735,217.95534 140.43135,216.87434 C 141.85135,215.35434 141.98735,213.01034 143.05135,211.64534 C 134.98235,207.61734 129.42635,190.04934 125.59035,182.01434 C 123.68135,178.01734 121.26435,174.11434 123.84435,170.25034 C 126.69735,165.97934 130.10035,159.10134 134.32035,156.74134"
     id="path221"
     style="fill:#5b401c;fill-opacity:1;fill-rule:evenodd" />
  <path
     d="M 134.32035,156.74134 C 127.07435,155.13934 116.73735,150.71334 109.87635,155.00034 C 99.90335,161.23134 105.83735,169.59734 109.43935,176.78634 C 113.78935,185.46934 117.64035,194.74634 121.22535,202.93034 C 123.65235,208.47234 126.41835,223.15134 133.44835,223.84834"
     id="path223"
     style="fill:none;stroke:#000000;stroke-width:1.49870002;stroke-linecap:square;stroke-miterlimit:10" />
  <path
     d="M 133.44835,223.84834 C 141.32435,224.02734 150.65035,243.81134 155.27335,237.79034 C 157.10135,235.41034 157.06835,221.99334 155.27335,220.36034 C 152.91935,218.21934 150.97935,220.88334 149.16235,220.36034 C 146.22435,219.51334 143.24035,217.85234 140.43135,216.87434 C 141.85135,215.35434 141.98735,213.01034 143.05135,211.64534 C 137.25235,208.75034 130.47035,194.50034 129.08235,188.11634"
     id="path225"
     style="fill:none;stroke:#000000;stroke-width:1.49870002;stroke-linecap:square;stroke-miterlimit:10" />
  <path
     d="M 129.08235,188.11634 C 119.85435,178.42834 122.38735,163.41034 134.32035,156.74134"
     id="path227"
     style="fill:none;stroke:#000000;stroke-width:1.49870002;stroke-linecap:square;stroke-miterlimit:10" />
  <path
     d="M 134.32035,156.74134 C 124.35735,154.53834 102.53835,148.63734 104.63835,166.32934 C 105.26635,171.62934 110.28635,178.48334 112.93235,183.75934 C 116.58235,191.03934 119.20335,198.43534 122.09835,205.54434 C 123.79735,209.72034 125.93435,219.06134 129.08235,222.10334 C 131.91335,224.83934 136.56135,223.47034 139.55935,226.46134 C 142.76035,229.65534 145.96135,232.85234 149.16235,236.04634 C 150.64635,237.53034 151.34035,241.27734 153.96435,239.53334 C 156.54135,237.81834 156.14635,229.20834 156.14635,226.02434 C 156.14635,220.17034 156.24735,221.20334 150.90835,219.48834 C 148.81535,218.81634 143.53735,217.95534 140.43135,216.87434 C 141.85135,215.35434 141.98735,213.01034 143.05135,211.64534 C 134.98235,207.61734 129.42635,190.04934 125.59035,182.01434 C 123.68135,178.01734 121.26435,174.11434 123.84435,170.25034 C 126.69735,165.97934 130.10035,159.10134 134.32035,156.74134"
     id="path229"
     style="fill:none;stroke:#000000;stroke-width:1.49870002;stroke-linecap:square;stroke-miterlimit:10" />
  <path
     d="M 216.38335,166.32934 C 209.01235,173.68334 200.79035,184.90434 192.81135,188.98734"
     id="path231"
     style="fill:none;stroke:#000000;stroke-width:1.49870002;stroke-linecap:square;stroke-miterlimit:10" />
  <path
     d="M 216.38335,166.32934 C 209.01235,173.68334 200.79035,184.90434 192.81135,188.98734"
     id="path233"
     style="fill:none;stroke:#000000;stroke-width:1.49870002;stroke-linecap:square;stroke-miterlimit:10" />
  <line
     id="line235"
     style="fill:none;stroke:#000000;stroke-width:1.49870002;stroke-linecap:square;stroke-miterlimit:10"
     x1="0.74935001"
     x2="0.74935001"
     y1="0.74934006"
     y2="0.74934006" />
  <path
     d="M 204.16235,214.26034 C 197.03435,214.26034 190.33035,213.38934 183.20935,213.38934"
     id="path237"
     style="fill:none;stroke:#000000;stroke-width:1.49870002;stroke-linecap:square;stroke-miterlimit:10" />
  <path
     d="M 204.16235,214.26034 C 197.03435,214.26034 190.33035,213.38934 183.20935,213.38934"
     id="path239"
     style="fill:none;stroke:#000000;stroke-width:1.49870002;stroke-linecap:square;stroke-miterlimit:10" />
  <line
     id="line241"
     style="fill:none;stroke:#000000;stroke-width:1.49870002;stroke-linecap:square;stroke-miterlimit:10"
     x1="0.74935001"
     x2="0.74935001"
     y1="0.74934006"
     y2="0.74934006" />
  <path
     d="M 215.51035,165.45734 C 212.71935,162.04534 206.61135,157.27934 205.90735,153.25734"
     id="path243"
     style="fill:none;stroke:#000000;stroke-width:1.49870002;stroke-linecap:square;stroke-miterlimit:10" />
  <path
     d="M 215.51035,165.45734 C 212.71935,162.04534 206.61135,157.27934 205.90735,153.25734"
     id="path245"
     style="fill:none;stroke:#000000;stroke-width:1.49870002;stroke-linecap:square;stroke-miterlimit:10" />
  <path
     d="M 205.90735,153.25734 C 201.79435,152.74234 197.99335,154.39634 194.55835,155.87234"
     id="path247"
     style="fill:none;stroke:#000000;stroke-width:1.49870002;stroke-linecap:square;stroke-miterlimit:10" />
  <path
     d="M 205.90735,153.25734 C 201.79435,152.74234 197.99335,154.39634 194.55835,155.87234"
     id="path249"
     style="fill:none;stroke:#000000;stroke-width:1.49870002;stroke-linecap:square;stroke-miterlimit:10" />
  <path
     d="M 194.55935,155.87234 C 193.97735,154.12934 193.39535,152.38534 192.81235,150.64234"
     id="path251"
     style="fill:none;stroke:#000000;stroke-width:1.49870002;stroke-linecap:square;stroke-miterlimit:10" />
  <path
     d="M 194.55935,155.87234 C 193.97735,154.12934 193.39535,152.38534 192.81235,150.64234"
     id="path253"
     style="fill:none;stroke:#000000;stroke-width:1.49870002;stroke-linecap:square;stroke-miterlimit:10" />
  <line
     id="line255"
     style="fill:none;stroke:#000000;stroke-width:1.49870002;stroke-linecap:square;stroke-miterlimit:10"
     x1="0.74935001"
     x2="0.74935001"
     y1="0.74934006"
     y2="0.74934006" />
  <path
     d="M 235.59035,157.61434 C 230.87735,155.26434 226.17035,151.80834 221.62135,149.77034"
     id="path257"
     style="fill:none;stroke:#000000;stroke-width:1.49870002;stroke-linecap:square;stroke-miterlimit:10" />
  <path
     d="M 235.59035,157.61434 C 230.87735,155.26434 226.17035,151.80834 221.62135,149.77034"
     id="path259"
     style="fill:none;stroke:#000000;stroke-width:1.49870002;stroke-linecap:square;stroke-miterlimit:10" />
  <line
     id="line261"
     style="fill:none;stroke:#000000;stroke-width:1.49870002;stroke-linecap:square;stroke-miterlimit:10"
     x1="0.74935001"
     x2="0.74935001"
     y1="0.74934006"
     y2="0.74934006" />
  <path
     d="M 231.22435,124.49834 C 231.22435,135.59834 232.42635,148.02334 230.35235,158.48634"
     id="path263"
     style="fill:none;stroke:#000000;stroke-width:1.49870002;stroke-linecap:square;stroke-miterlimit:10" />
  <path
     d="M 231.22435,124.49834 C 231.22435,135.59834 232.42635,148.02334 230.35235,158.48634"
     id="path265"
     style="fill:none;stroke:#000000;stroke-width:1.49870002;stroke-linecap:square;stroke-miterlimit:10" />
  <line
     id="line267"
     style="fill:none;stroke:#000000;stroke-width:1.49870002;stroke-linecap:square;stroke-miterlimit:10"
     x1="0.74935001"
     x2="0.74935001"
     y1="0.74934006"
     y2="0.74934006" />
  <path
     d="M 211.14535,73.95334 C 217.07735,77.68034 225.50235,86.61934 227.73335,93.12534"
     id="path269"
     style="fill:none;stroke:#000000;stroke-width:1.49870002;stroke-linecap:square;stroke-miterlimit:10" />
  <path
     d="M 211.14535,73.95334 C 217.07735,77.68034 225.50235,86.61934 227.73335,93.12534"
     id="path271"
     style="fill:none;stroke:#000000;stroke-width:1.49870002;stroke-linecap:square;stroke-miterlimit:10" />
  <line
     id="line273"
     style="fill:none;stroke:#000000;stroke-width:1.49870002;stroke-linecap:square;stroke-miterlimit:10"
     x1="0.74935001"
     x2="0.74935001"
     y1="0.74934006"
     y2="0.74934006" />
  <path
     d="M 164.00335,123.62634 C 166.99535,118.60434 157.15135,112.80534 154.40035,110.55434"
     id="path275"
     style="fill:none;stroke:#000000;stroke-width:1.49870002;stroke-linecap:square;stroke-miterlimit:10" />
  <path
     d="M 164.00335,123.62634 C 166.99535,118.60434 157.15135,112.80534 154.40035,110.55434"
     id="path277"
     style="fill:none;stroke:#000000;stroke-width:1.49870002;stroke-linecap:square;stroke-miterlimit:10" />
  <line
     id="line279"
     style="fill:none;stroke:#000000;stroke-width:1.49870002;stroke-linecap:square;stroke-miterlimit:10"
     x1="0.74935001"
     x2="0.74935001"
     y1="0.74934006"
     y2="0.74934006" />
  <path
     d="M 333.36835,82.66734 C 317.47735,85.68534 314.77435,96.02634 305.43035,107.06834"
     id="path281"
     style="fill:none;stroke:#000000;stroke-width:1.49870002;stroke-linecap:square;stroke-miterlimit:10" />
  <path
     d="M 333.36835,82.66734 C 317.47735,85.68534 314.77435,96.02634 305.43035,107.06834"
     id="path283"
     style="fill:none;stroke:#000000;stroke-width:1.49870002;stroke-linecap:square;stroke-miterlimit:10" />
  <path
     d="M 305.43035,107.06834 C 301.57335,113.64634 296.88735,120.76634 292.33535,126.24134"
     id="path285"
     style="fill:none;stroke:#000000;stroke-width:1.49870002;stroke-linecap:square;stroke-miterlimit:10" />
  <path
     d="M 305.43035,107.06834 C 301.57335,113.64634 296.88735,120.76634 292.33535,126.24134"
     id="path287"
     style="fill:none;stroke:#000000;stroke-width:1.49870002;stroke-linecap:square;stroke-miterlimit:10" />
  <path
     d="M 292.33535,126.24134 C 289.81735,133.64334 292.06035,143.54034 296.70035,149.77034"
     id="path289"
     style="fill:none;stroke:#000000;stroke-width:1.49870002;stroke-linecap:square;stroke-miterlimit:10" />
  <path
     d="M 292.33535,126.24134 C 289.81735,133.64334 292.06035,143.54034 296.70035,149.77034"
     id="path291"
     style="fill:none;stroke:#000000;stroke-width:1.49870002;stroke-linecap:square;stroke-miterlimit:10" />
  <path
     d="M 296.70135,149.77034 C 298.89635,151.86934 300.45935,154.70334 301.06735,157.61434"
     id="path293"
     style="fill:none;stroke:#000000;stroke-width:1.49870002;stroke-linecap:square;stroke-miterlimit:10" />
  <path
     d="M 296.70135,149.77034 C 298.89635,151.86934 300.45935,154.70334 301.06735,157.61434"
     id="path295"
     style="fill:none;stroke:#000000;stroke-width:1.49870002;stroke-linecap:square;stroke-miterlimit:10" />
  <line
     id="line297"
     style="fill:none;stroke:#000000;stroke-width:1.49870002;stroke-linecap:square;stroke-miterlimit:10"
     x1="0.74935001"
     x2="0.74935001"
     y1="0.74934006"
     y2="0.74934006" />
  <path
     d="M 352.57535,133.21334 C 349.56035,142.21134 335.59535,147.66634 328.13035,149.77134"
     id="path299"
     style="fill:none;stroke:#000000;stroke-width:1.49870002;stroke-linecap:square;stroke-miterlimit:10" />
  <path
     d="M 352.57535,133.21334 C 349.56035,142.21134 335.59535,147.66634 328.13035,149.77134"
     id="path301"
     style="fill:none;stroke:#000000;stroke-width:1.49870002;stroke-linecap:square;stroke-miterlimit:10" />
  <path
     d="M 328.12935,149.77034 C 329.33235,157.63034 331.50235,164.52734 326.38335,171.55834"
     id="path303"
     style="fill:none;stroke:#000000;stroke-width:1.49870002;stroke-linecap:square;stroke-miterlimit:10" />
  <path
     d="M 328.12935,149.77034 C 329.33235,157.63034 331.50235,164.52734 326.38335,171.55834"
     id="path305"
     style="fill:none;stroke:#000000;stroke-width:1.49870002;stroke-linecap:square;stroke-miterlimit:10" />
  <path
     d="M 326.38335,171.55934 C 320.71335,173.93834 315.98535,183.39334 319.39935,188.98834"
     id="path307"
     style="fill:none;stroke:#000000;stroke-width:1.49870002;stroke-linecap:square;stroke-miterlimit:10" />
  <path
     d="M 326.38335,171.55934 C 320.71335,173.93834 315.98535,183.39334 319.39935,188.98834"
     id="path309"
     style="fill:none;stroke:#000000;stroke-width:1.49870002;stroke-linecap:square;stroke-miterlimit:10" />
  <path
     d="M 323.76535,197.70234 C 320.83335,201.64034 316.04735,200.53734 312.41435,202.93034"
     id="path311"
     style="fill:none;stroke:#000000;stroke-width:1.49870002;stroke-linecap:square;stroke-miterlimit:10" />
  <path
     d="M 323.76535,197.70234 C 320.83335,201.64034 316.04735,200.53734 312.41435,202.93034"
     id="path313"
     style="fill:none;stroke:#000000;stroke-width:1.49870002;stroke-linecap:square;stroke-miterlimit:10" />
  <path
     d="M 312.41535,202.93034 C 307.36535,208.42434 299.29335,212.66034 294.95535,217.74634"
     id="path315"
     style="fill:none;stroke:#000000;stroke-width:1.49870002;stroke-linecap:square;stroke-miterlimit:10" />
  <path
     d="M 312.41535,202.93034 C 307.36535,208.42434 299.29335,212.66034 294.95535,217.74634"
     id="path317"
     style="fill:none;stroke:#000000;stroke-width:1.49870002;stroke-linecap:square;stroke-miterlimit:10" />
  <line
     id="line319"
     style="fill:none;stroke:#000000;stroke-width:1.49870002;stroke-linecap:square;stroke-miterlimit:10"
     x1="0.74935001"
     x2="0.74935001"
     y1="0.74934006"
     y2="0.74934006" />
  <path
     d="M 371.78235,89.63934 C 377.60535,96.97834 379.31035,117.07434 373.52635,124.49834"
     id="path321"
     style="fill:none;stroke:#000000;stroke-width:1.49870002;stroke-linecap:square;stroke-miterlimit:10" />
  <path
     d="M 371.78235,89.63934 C 377.60535,96.97834 379.31035,117.07434 373.52635,124.49834"
     id="path323"
     style="fill:none;stroke:#000000;stroke-width:1.49870002;stroke-linecap:square;stroke-miterlimit:10" />
  <path
     d="M 373.52635,124.49834 C 371.55535,126.46434 369.77635,128.73634 367.41635,129.72734"
     id="path325"
     style="fill:none;stroke:#000000;stroke-width:1.49870002;stroke-linecap:square;stroke-miterlimit:10" />
  <path
     d="M 373.52635,124.49834 C 371.55535,126.46434 369.77635,128.73634 367.41635,129.72734"
     id="path327"
     style="fill:none;stroke:#000000;stroke-width:1.49870002;stroke-linecap:square;stroke-miterlimit:10" />
  <line
     id="line329"
     style="fill:none;stroke:#000000;stroke-width:1.49870002;stroke-linecap:square;stroke-miterlimit:10"
     x1="0.74935001"
     x2="0.74935001"
     y1="0.74934006"
     y2="0.74934006" />
  <path
     d="M 321.14535,134.08434 C 316.80635,136.88334 313.25735,140.38034 308.05135,141.05634"
     id="path331"
     style="fill:none;stroke:#000000;stroke-width:1.49870002;stroke-linecap:square;stroke-miterlimit:10" />
  <path
     d="M 321.14535,134.08434 C 316.80635,136.88334 313.25735,140.38034 308.05135,141.05634"
     id="path333"
     style="fill:none;stroke:#000000;stroke-width:1.49870002;stroke-linecap:square;stroke-miterlimit:10" />
  <line
     id="line335"
     style="fill:none;stroke:#000000;stroke-width:1.49870002;stroke-linecap:square;stroke-miterlimit:10"
     x1="0.74935001"
     x2="0.74935001"
     y1="0.74934006"
     y2="0.74934006" />
  <path
     d="M 279.24135,219.48834 C 273.38735,223.65734 263.17335,231.21934 256.54135,232.56034"
     id="path337"
     style="fill:none;stroke:#000000;stroke-width:1.49870002;stroke-linecap:square;stroke-miterlimit:10" />
  <path
     d="M 279.24135,219.48834 C 273.38735,223.65734 263.17335,231.21934 256.54135,232.56034"
     id="path339"
     style="fill:none;stroke:#000000;stroke-width:1.49870002;stroke-linecap:square;stroke-miterlimit:10" />
  <line
     id="line341"
     style="fill:none;stroke:#000000;stroke-width:1.49870002;stroke-linecap:square;stroke-miterlimit:10"
     x1="0.74935001"
     x2="0.74935001"
     y1="0.74934006"
     y2="0.74934006" />
  <path
     d="M 263.52635,243.01934 C 259.88235,242.28034 257.55035,238.79934 254.79735,236.91934"
     id="path343"
     style="fill:none;stroke:#000000;stroke-width:1.49870002;stroke-linecap:square;stroke-miterlimit:10" />
  <path
     d="M 263.52635,243.01934 C 259.88235,242.28034 257.55035,238.79934 254.79735,236.91934"
     id="path345"
     style="fill:none;stroke:#000000;stroke-width:1.49870002;stroke-linecap:square;stroke-miterlimit:10" />
  <line
     id="line347"
     style="fill:none;stroke:#000000;stroke-width:1.49870002;stroke-linecap:square;stroke-miterlimit:10"
     x1="0.74935001"
     x2="0.74935001"
     y1="0.74934006"
     y2="0.74934006" />
  <path
     d="M 222.49635,253.47834 C 218.19535,252.83634 216.01335,249.99834 212.01835,248.24934"
     id="path349"
     style="fill:none;stroke:#000000;stroke-width:1.49870002;stroke-linecap:square;stroke-miterlimit:10" />
  <path
     d="M 222.49635,253.47834 C 218.19535,252.83634 216.01335,249.99834 212.01835,248.24934"
     id="path351"
     style="fill:none;stroke:#000000;stroke-width:1.49870002;stroke-linecap:square;stroke-miterlimit:10" />
  <line
     id="line353"
     style="fill:none;stroke:#000000;stroke-width:1.49870002;stroke-linecap:square;stroke-miterlimit:10"
     x1="0.74935001"
     x2="0.74935001"
     y1="0.74934006"
     y2="0.74934006" />
  <path
     d="M 211.14535,267.42034 C 212.72235,282.30834 188.76135,282.95134 178.84435,278.75034 C 184.34335,276.13934 186.33135,269.31134 191.93935,267.42034 C 197.12535,265.67234 205.54235,267.42034 211.14535,267.42034"
     id="path355"
     style="fill:#331e07;fill-rule:evenodd" />
  <path
     d="M 211.14535,267.42034 C 212.72235,282.30834 188.76135,282.95134 178.84435,278.75034 C 184.34335,276.13934 186.33135,269.31134 191.93935,267.42034 C 197.12535,265.67234 205.54235,267.42034 211.14535,267.42034"
     id="path357"
     style="fill:none;stroke:#000000;stroke-width:1.49870002;stroke-linecap:square;stroke-miterlimit:10" />
  <path
     d="M 211.14535,267.42034 C 212.72235,282.30834 188.76135,282.95134 178.84435,278.75034 C 184.34335,276.13934 186.33135,269.31134 191.93935,267.42034 C 197.12535,265.67234 205.54235,267.42034 211.14535,267.42034"
     id="path359"
     style="fill:none;stroke:#000000;stroke-width:1.49870002;stroke-linecap:square;stroke-miterlimit:10" />
  <path
     d="M 262.65335,257.83334 C 274.12135,265.60534 237.54535,273.72334 233.84435,275.26434 C 235.86635,269.88834 237.31135,261.83834 241.70035,259.57634 C 246.47635,257.11534 257.18535,257.42034 262.65335,257.83334"
     id="path361"
     style="fill:#331e07;fill-rule:evenodd" />
  <path
     d="M 262.65335,257.83334 C 274.12135,265.60534 237.54535,273.72334 233.84435,275.26434 C 235.86635,269.88834 237.31135,261.83834 241.70035,259.57634 C 246.47635,257.11534 257.18535,257.42034 262.65335,257.83334"
     id="path363"
     style="fill:none;stroke:#000000;stroke-width:1.49870002;stroke-linecap:square;stroke-miterlimit:10" />
  <path
     d="M 262.65335,257.83334 C 274.12135,265.60534 237.54535,273.72334 233.84435,275.26434 C 235.86635,269.88834 237.31135,261.83834 241.70035,259.57634 C 246.47635,257.11534 257.18535,257.42034 262.65335,257.83334"
     id="path365"
     style="fill:none;stroke:#000000;stroke-width:1.49870002;stroke-linecap:square;stroke-miterlimit:10" />
  <path
     d="M 239.95635,204.67434 C 240.09635,189.89234 264.04435,201.02534 270.51135,207.28834 C 266.26135,213.35134 258.42335,211.49734 252.17935,213.38934 C 251.21335,210.36434 243.63835,206.01234 239.95635,204.67434"
     id="path367"
     style="fill:#331e07;fill-rule:evenodd" />
  <path
     d="M 239.95635,204.67434 C 240.09635,189.89234 264.04435,201.02534 270.51135,207.28834 C 266.26135,213.35134 258.42335,211.49734 252.17935,213.38934 C 251.21335,210.36434 243.63835,206.01234 239.95635,204.67434"
     id="path369"
     style="fill:none;stroke:#000000;stroke-width:1.49870002;stroke-linecap:square;stroke-miterlimit:10" />
  <path
     d="M 239.95635,204.67434 C 240.09635,189.89234 264.04435,201.02534 270.51135,207.28834 C 266.26135,213.35134 258.42335,211.49734 252.17935,213.38934 C 251.21335,210.36434 243.63835,206.01234 239.95635,204.67434"
     id="path371"
     style="fill:none;stroke:#000000;stroke-width:1.49870002;stroke-linecap:square;stroke-miterlimit:10" />
  <path
     d="M 232.97135,220.36034 C 234.23535,217.62934 234.10335,214.42134 232.97135,211.64534"
     id="path373"
     style="fill:none;stroke:#000000;stroke-width:1.49870002;stroke-linecap:square;stroke-miterlimit:10" />
  <path
     d="M 232.97135,220.36034 C 234.23535,217.62934 234.10335,214.42134 232.97135,211.64534"
     id="path375"
     style="fill:none;stroke:#000000;stroke-width:1.49870002;stroke-linecap:square;stroke-miterlimit:10" />
  <line
     id="line377"
     style="fill:none;stroke:#000000;stroke-width:1.49870002;stroke-linecap:square;stroke-miterlimit:10"
     x1="0.74935001"
     x2="0.74935001"
     y1="0.74934006"
     y2="0.74934006" />
  <path
     d="M 43.52635,65.23734 C 42.96435,70.18034 48.09735,78.57334 52.25735,80.92434"
     id="path379"
     style="fill:none;stroke:#000000;stroke-width:1.49870002;stroke-linecap:square;stroke-miterlimit:10" />
  <path
     d="M 43.52635,65.23734 C 42.96435,70.18034 48.09735,78.57334 52.25735,80.92434"
     id="path381"
     style="fill:none;stroke:#000000;stroke-width:1.49870002;stroke-linecap:square;stroke-miterlimit:10" />
  <path
     d="M 49.63735,79.18134 C 44.66035,80.62234 39.13235,80.05334 33.92335,80.05334"
     id="path383"
     style="fill:none;stroke:#000000;stroke-width:1.49870002;stroke-linecap:square;stroke-miterlimit:10" />
  <path
     d="M 49.63735,79.18134 C 44.66035,80.62234 39.13235,80.05334 33.92335,80.05334"
     id="path385"
     style="fill:none;stroke:#000000;stroke-width:1.49870002;stroke-linecap:square;stroke-miterlimit:10" />
  <line
     id="line387"
     style="fill:none;stroke:#000000;stroke-width:1.49870002;stroke-linecap:square;stroke-miterlimit:10"
     x1="0.74935001"
     x2="0.74935001"
     y1="0.74934006"
     y2="0.74934006" />
  <path
     d="M 46.14535,73.95334 C 41.74335,72.71934 37.72935,73.71134 33.05035,73.95334"
     id="path389"
     style="fill:none;stroke:#000000;stroke-width:1.49870002;stroke-linecap:square;stroke-miterlimit:10" />
  <path
     d="M 46.14535,73.95334 C 41.74335,72.71934 37.72935,73.71134 33.05035,73.95334"
     id="path391"
     style="fill:none;stroke:#000000;stroke-width:1.49870002;stroke-linecap:square;stroke-miterlimit:10" />
  <path
     d="M 74.08235,53.90934 C 67.25535,58.52334 59.05835,62.32434 51.38335,65.23834"
     id="path393"
     style="fill:none;stroke:#000000;stroke-width:1.49870002;stroke-linecap:square;stroke-miterlimit:10" />
  <path
     d="M 74.08235,53.90934 C 67.25535,58.52334 59.05835,62.32434 51.38335,65.23834"
     id="path395"
     style="fill:none;stroke:#000000;stroke-width:1.49870002;stroke-linecap:square;stroke-miterlimit:10" />
  <line
     id="line397"
     style="fill:none;stroke:#000000;stroke-width:1.49870002;stroke-linecap:square;stroke-miterlimit:10"
     x1="0.74935001"
     x2="0.74935001"
     y1="0.74934006"
     y2="0.74934006" />
  <path
     d="M 57.49535,47.80934 C 59.12335,48.34734 60.52235,49.74534 61.86035,50.42334 C 60.65535,52.98034 58.57535,53.76334 55.74835,53.03834 C 55.54335,51.03834 56.21535,49.26334 57.49535,47.80934"
     id="path399"
     style="fill-rule:evenodd" />
  <path
     d="M 57.49535,47.80934 C 59.12335,48.34734 60.52235,49.74534 61.86035,50.42334 C 60.65535,52.98034 58.57535,53.76334 55.74835,53.03834 C 55.54335,51.03834 56.21535,49.26334 57.49535,47.80934"
     id="path401"
     style="fill:none;stroke:#000000;stroke-width:1.49870002;stroke-linecap:square;stroke-miterlimit:10" />
  <path
     d="M 57.49535,47.80934 C 59.12335,48.34734 60.52235,49.74534 61.86035,50.42334 C 60.65535,52.98034 58.57535,53.76334 55.74835,53.03834 C 55.54335,51.03834 56.21535,49.26334 57.49535,47.80934"
     id="path403"
     style="fill:none;stroke:#000000;stroke-width:1.49870002;stroke-linecap:square;stroke-miterlimit:10" />
  <path
     d="M 73.20935,49.55134 C 69.89335,50.95534 66.23335,51.43234 62.73335,50.42334"
     id="path405"
     style="fill:none;stroke:#000000;stroke-width:1.49870002;stroke-linecap:square;stroke-miterlimit:10" />
  <path
     d="M 73.20935,49.55134 C 69.89335,50.95534 66.23335,51.43234 62.73335,50.42334"
     id="path407"
     style="fill:none;stroke:#000000;stroke-width:1.49870002;stroke-linecap:square;stroke-miterlimit:10" />
  <path
     d="M 62.73335,50.42234 C 60.87035,49.23134 58.69235,48.29234 56.62235,47.80834"
     id="path409"
     style="fill:none;stroke:#000000;stroke-width:1.49870002;stroke-linecap:square;stroke-miterlimit:10" />
  <path
     d="M 62.73335,50.42234 C 60.87035,49.23134 58.69235,48.29234 56.62235,47.80834"
     id="path411"
     style="fill:none;stroke:#000000;stroke-width:1.49870002;stroke-linecap:square;stroke-miterlimit:10" />
  <line
     id="line413"
     style="fill:none;stroke:#000000;stroke-width:1.49870002;stroke-linecap:square;stroke-miterlimit:10"
     x1="0.74935001"
     x2="0.74935001"
     y1="0.74934006"
     y2="0.74934006" />
  <path
     d="M 13.84435,66.10934 C 13.83335,66.09434 14.01035,70.03134 12.09835,72.20934 C 11.89435,69.84034 12.60035,67.89034 13.84435,66.10934"
     id="path415"
     style="fill:none;stroke:#000000;stroke-width:1.49870002;stroke-linecap:square;stroke-miterlimit:10" />
  <path
     d="M 13.84435,66.10934 C 13.83335,66.09434 14.01035,70.03134 12.09835,72.20934 C 11.89435,69.84034 12.60035,67.89034 13.84435,66.10934"
     id="path417"
     style="fill:none;stroke:#000000;stroke-width:1.49870002;stroke-linecap:square;stroke-miterlimit:10" />
  <path
     d="M 28.68535,83.53934 C 28.29035,84.89034 27.41735,85.76134 26.06635,86.15434"
     id="path419"
     style="fill:none;stroke:#000000;stroke-width:1.49870002;stroke-linecap:square;stroke-miterlimit:10" />
  <path
     d="M 28.68535,83.53934 C 28.29035,84.89034 27.41735,85.76134 26.06635,86.15434"
     id="path421"
     style="fill:none;stroke:#000000;stroke-width:1.49870002;stroke-linecap:square;stroke-miterlimit:10" />
  <line
     id="line423"
     style="fill:none;stroke:#000000;stroke-width:1.49870002;stroke-linecap:square;stroke-miterlimit:10"
     x1="0.74935001"
     x2="0.74935001"
     y1="0.74934006"
     y2="0.74934006" />
  <path
     d="M 60.11435,80.05334 C 58.15735,80.86834 56.11835,81.15734 54.00335,80.92534"
     id="path425"
     style="fill:none;stroke:#000000;stroke-width:1.49870002;stroke-linecap:square;stroke-miterlimit:10" />
  <path
     d="M 60.11435,80.05334 C 58.15735,80.86834 56.11835,81.15734 54.00335,80.92534"
     id="path427"
     style="fill:none;stroke:#000000;stroke-width:1.49870002;stroke-linecap:square;stroke-miterlimit:10" />
  <line
     id="line429"
     style="fill:none;stroke:#000000;stroke-width:1.49870002;stroke-linecap:square;stroke-miterlimit:10"
     x1="0.74935001"
     x2="0.74935001"
     y1="0.74934006"
     y2="0.74934006" />
  <path
     d="M 386.62235,99.22534 C 398.70335,102.05334 416.30535,111.04634 416.30535,125.37034 C 416.30535,132.96334 418.58935,140.36234 417.17735,148.02934 C 415.98535,154.50034 412.94835,158.84734 411.93935,164.58734 C 410.36035,173.57534 422.51035,206.30034 404.95635,202.93134 C 400.57835,202.09134 393.60535,196.66034 393.60535,192.47434 C 393.60535,179.06834 384.56835,192.44634 379.63935,194.21734 C 378.66735,194.56834 379.11135,195.40834 378.76435,195.96034 C 376.05635,194.30734 374.11335,182.34534 373.52735,177.65834 C 372.47035,169.21134 375.75135,162.29634 378.32935,154.56434 C 380.92435,146.78234 383.95035,140.56434 387.49535,133.21334 C 391.88135,124.11734 388.01835,110.72634 386.62235,99.22534"
     id="path431"
     style="fill:#4a2c0a;fill-rule:evenodd" />
  <path
     d="M 386.62235,99.22534 C 393.55735,100.84834 400.95535,103.08334 406.26435,108.37534 C 408.07635,110.18134 411.70235,112.72434 412.81335,114.91234 C 414.12735,117.50434 413.69735,121.89734 415.86835,124.06234 C 419.27435,127.45634 417.71935,141.09534 417.17835,145.41334 C 416.41135,151.54734 415.70835,157.91234 412.81435,161.97234"
     id="path433"
     style="fill:none;stroke:#000000;stroke-width:1.49870002;stroke-linecap:square;stroke-miterlimit:10" />
  <path
     d="M 412.81235,161.97234 C 409.38135,173.41634 417.88335,185.62934 414.55835,196.83134 C 411.02635,208.72834 398.52835,200.14434 393.60435,195.08734"
     id="path435"
     style="fill:none;stroke:#000000;stroke-width:1.49870002;stroke-linecap:square;stroke-miterlimit:10" />
  <path
     d="M 393.60435,195.08734 C 395.97435,180.28134 382.87535,189.40734 378.76335,195.95934 C 374.89135,193.59734 373.52635,177.66134 373.52635,171.55934 C 373.52635,160.53534 381.27035,149.93134 384.00435,140.18534"
     id="path437"
     style="fill:none;stroke:#000000;stroke-width:1.49870002;stroke-linecap:square;stroke-miterlimit:10" />
  <path
     d="M 384.00335,140.18534 C 385.27135,136.21434 389.57035,131.65534 390.11335,128.85534 C 391.77835,120.27634 387.67835,107.93134 386.62135,99.22534"
     id="path439"
     style="fill:none;stroke:#000000;stroke-width:1.49870002;stroke-linecap:square;stroke-miterlimit:10" />
  <path
     d="M 386.62235,99.22534 C 398.70335,102.05334 416.30535,111.04634 416.30535,125.37034 C 416.30535,132.96334 418.58935,140.36234 417.17735,148.02934 C 415.98535,154.50034 412.94835,158.84734 411.93935,164.58734 C 410.36035,173.57534 422.51035,206.30034 404.95635,202.93134 C 400.57835,202.09134 393.60535,196.66034 393.60535,192.47434 C 393.60535,179.06834 384.56835,192.44634 379.63935,194.21734 C 378.66735,194.56834 379.11135,195.40834 378.76435,195.96034 C 376.05635,194.30734 374.11335,182.34534 373.52735,177.65834 C 372.47035,169.21134 375.75135,162.29634 378.32935,154.56434 C 380.92435,146.78234 383.95035,140.56434 387.49535,133.21334 C 391.88135,124.11734 388.01835,110.72634 386.62235,99.22534"
     id="path441"
     style="fill:none;stroke:#000000;stroke-width:1.49870002;stroke-linecap:square;stroke-miterlimit:10" />
  <path
     d="M 154.40035,220.36034 C 164.58935,216.30434 165.74835,241.91434 165.74835,249.11834 C 164.62335,246.49234 155.64435,242.11434 151.78135,240.40434 C 154.87235,234.35034 154.40035,227.07034 154.40035,220.36034"
     id="path443"
     style="fill:#331e07;fill-rule:evenodd" />
  <path
     d="M 154.40035,220.36034 C 164.58935,216.30434 165.74835,241.91434 165.74835,249.11834 C 164.62335,246.49234 155.64435,242.11434 151.78135,240.40434 C 154.87235,234.35034 154.40035,227.07034 154.40035,220.36034"
     id="path445"
     style="fill:none;stroke:#000000;stroke-width:1.49870002;stroke-linecap:square;stroke-miterlimit:10" />
  <path
     d="M 154.40035,220.36034 C 164.58935,216.30434 165.74835,241.91434 165.74835,249.11834 C 164.62335,246.49234 155.64435,242.11434 151.78135,240.40434 C 154.87235,234.35034 154.40035,227.07034 154.40035,220.36034"
     id="path447"
     style="fill:none;stroke:#000000;stroke-width:1.49870002;stroke-linecap:square;stroke-miterlimit:10" />
  <path
     d="M 140.43135,216.87434 C 139.80535,219.69234 137.85435,221.86534 135.19335,222.97534"
     id="path449"
     style="fill:none;stroke:#000000;stroke-width:1.49870002;stroke-linecap:square;stroke-miterlimit:10" />
  <path
     d="M 140.43135,216.87434 C 139.80535,219.69234 137.85435,221.86534 135.19335,222.97534"
     id="path451"
     style="fill:none;stroke:#000000;stroke-width:1.49870002;stroke-linecap:square;stroke-miterlimit:10" />
</svg>
