<?xml version="1.0" encoding="UTF-8" standalone="no"?>
<!-- Created with Inkscape (http://www.inkscape.org/) -->
<svg
   xmlns:dc="http://purl.org/dc/elements/1.1/"
   xmlns:cc="http://creativecommons.org/ns#"
   xmlns:rdf="http://www.w3.org/1999/02/22-rdf-syntax-ns#"
   xmlns:svg="http://www.w3.org/2000/svg"
   xmlns="http://www.w3.org/2000/svg"
   xmlns:sodipodi="http://sodipodi.sourceforge.net/DTD/sodipodi-0.dtd"
   xmlns:inkscape="http://www.inkscape.org/namespaces/inkscape"
   width="131.9493"
   height="194.82674"
   id="svg2"
   sodipodi:version="0.32"
   inkscape:version="0.46"
   sodipodi:docbase="C:\Documents and Settings\SRutledge\My Documents\My Pictures"
   sodipodi:docname="ecloud_sideways_finger.svg"
   inkscape:output_extension="org.inkscape.output.svg.inkscape"
   version="1.0">
  <defs
     id="defs4">
    <inkscape:perspective
       sodipodi:type="inkscape:persp3d"
       inkscape:vp_x="0 : 526.18109 : 1"
       inkscape:vp_y="0 : 1000 : 0"
       inkscape:vp_z="744.09448 : 526.18109 : 1"
       inkscape:persp3d-origin="372.04724 : 350.78739 : 1"
       id="perspective9" />
  </defs>
  <sodipodi:namedview
     id="base"
     pagecolor="#ffffff"
     bordercolor="#666666"
     borderopacity="1.0"
     gridtolerance="10000"
     guidetolerance="10"
     objecttolerance="10"
     inkscape:pageopacity="0.0"
     inkscape:pageshadow="2"
     inkscape:zoom="1.4"
     inkscape:cx="278.12076"
     inkscape:cy="694.42893"
     inkscape:document-units="px"
     inkscape:current-layer="layer1"
     inkscape:window-width="905"
     inkscape:window-height="791"
     inkscape:window-x="190"
     inkscape:window-y="84"
     showgrid="false" />
  <metadata
     id="metadata7">
    <rdf:RDF>
      <cc:Work
         rdf:about="">
        <dc:format>image/svg+xml</dc:format>
        <dc:type
           rdf:resource="http://purl.org/dc/dcmitype/StillImage" />
      </cc:Work>
    </rdf:RDF>
  </metadata>
  <g
     inkscape:label="Layer 1"
     inkscape:groupmode="layer"
     id="layer1"
     transform="translate(-182.62946,-286.16655)">
    <path
       style="fill:#eddfc3;fill-opacity:1;fill-rule:evenodd;stroke:#000000;stroke-width:1px;stroke-linecap:butt;stroke-linejoin:miter;stroke-opacity:1"
       d="M 313.59544,353.03205 C 319.29393,357.58725 272.81773,375.52881 267.98629,370.92763 C 258.13939,390.57798 257.25466,394.57484 238.396,407.88486 C 227.52888,436.30801 241.33038,469.08637 208.43805,480.49329 C 193.06713,480.49329 191.85506,476.94903 183.84776,468.49401 C 186.1787,463.83212 186.93129,442.01779 187.88837,438.18944 C 190.01717,429.67425 194.07686,419.51196 191.92898,409.90516 C 188.46398,394.40726 198.50577,376.65007 202.7448,368.17202 C 212.70292,348.35869 216.18429,325.65328 235.41631,317.31776 C 255.14132,308.76858 274.06633,298.99758 303.04576,286.66655"
       id="path2160"
       sodipodi:nodetypes="cccccsscsc" />
    <path
       style="fill:#f3d4be;fill-opacity:1;fill-rule:evenodd;stroke:#000000;stroke-width:1px;stroke-linecap:butt;stroke-linejoin:miter;stroke-opacity:1"
       d="M 191.03571,424.65179 C 190.67806,426.54116 190.21029,428.40728 189.72321,430.24554 L 185.75446,453.27679 C 185.13919,460.17974 184.37045,467.45106 183.12946,469.93304 C 183.30084,470.11401 183.43285,470.25656 183.59821,470.43304 C 186.42785,471.06056 190.68406,469.17137 192.84821,468.08929 C 195.63674,466.69503 195.72321,460.82774 195.72321,458.08929 C 195.72322,454.1834 196.44196,452.22873 196.44196,448.08929 C 196.44197,444.27132 197.84821,442.13918 197.84821,438.08929 C 197.8482,433.59472 197.23115,431.05821 195.00446,428.08929 C 193.46702,426.03938 192.76189,425.52645 191.03571,424.65179 z"
       id="path2164" />
  </g>
</svg>
