<?xml version="1.0" encoding="UTF-8" standalone="no"?>
<!-- Created with Inkscape (http://www.inkscape.org/) -->
<svg
   xmlns:dc="http://purl.org/dc/elements/1.1/"
   xmlns:cc="http://creativecommons.org/ns#"
   xmlns:rdf="http://www.w3.org/1999/02/22-rdf-syntax-ns#"
   xmlns:svg="http://www.w3.org/2000/svg"
   xmlns="http://www.w3.org/2000/svg"
   xmlns:xlink="http://www.w3.org/1999/xlink"
   xmlns:sodipodi="http://sodipodi.sourceforge.net/DTD/sodipodi-0.dtd"
   xmlns:inkscape="http://www.inkscape.org/namespaces/inkscape"
   width="714.82306"
   height="349.72937"
   id="svg3469"
   sodipodi:version="0.32"
   inkscape:version="0.46"
   version="1.0"
   sodipodi:docname="key_gold.svg"
   inkscape:output_extension="org.inkscape.output.svg.inkscape">
  <defs
     id="defs3471">
    <linearGradient
       inkscape:collect="always"
       id="linearGradient3455">
      <stop
         style="stop-color:#fffa17;stop-opacity:1"
         offset="0"
         id="stop3457" />
      <stop
         style="stop-color:#9c9c00;stop-opacity:1"
         offset="1"
         id="stop3459" />
    </linearGradient>
    <linearGradient
       inkscape:collect="always"
       xlink:href="#linearGradient3455"
       id="linearGradient3461"
       x1="-370.58118"
       y1="162.93835"
       x2="69.4188"
       y2="76.645088"
       gradientUnits="userSpaceOnUse" />
    <inkscape:perspective
       sodipodi:type="inkscape:persp3d"
       inkscape:vp_x="0 : 526.18109 : 1"
       inkscape:vp_y="0 : 1000 : 0"
       inkscape:vp_z="744.09448 : 526.18109 : 1"
       inkscape:persp3d-origin="372.04724 : 350.78739 : 1"
       id="perspective3477" />
  </defs>
  <sodipodi:namedview
     id="base"
     pagecolor="#ffffff"
     bordercolor="#666666"
     borderopacity="1.0"
     gridtolerance="10000"
     guidetolerance="10"
     objecttolerance="10"
     inkscape:pageopacity="0.0"
     inkscape:pageshadow="2"
     inkscape:zoom="0.35"
     inkscape:cx="375"
     inkscape:cy="520"
     inkscape:document-units="px"
     inkscape:current-layer="layer1"
     showgrid="false"
     inkscape:window-width="640"
     inkscape:window-height="701"
     inkscape:window-x="88"
     inkscape:window-y="74" />
  <metadata
     id="metadata3474">
    <rdf:RDF>
      <cc:Work
         rdf:about="">
        <dc:format>image/svg+xml</dc:format>
        <dc:type
           rdf:resource="http://purl.org/dc/dcmitype/StillImage" />
      </cc:Work>
    </rdf:RDF>
  </metadata>
  <g
     inkscape:label="Layer 1"
     inkscape:groupmode="layer"
     id="layer1"
     transform="translate(-16.874185,-231.78323)">
    <g
       transform="translate(567.45538,330.00282)"
       id="g3463">
      <path
         style="fill:url(#linearGradient3461);fill-opacity:1;stroke:#000000;stroke-width:8.38560963;stroke-miterlimit:10;stroke-dasharray:none;stroke-opacity:1"
         d="M -374.29464,-94.02679 C -469.28724,-94.02679 -546.38841,-17.54331 -546.38839,76.66071 C -546.38839,170.86474 -469.28722,247.31696 -374.29464,247.31696 C -290.40196,247.31696 -220.49377,187.67278 -205.29464,108.84821 L -202.32589,108.81696 L -174.01339,83.59821 L -122.45094,107.53571 L -99.35714,82.34821 L -66.04464,109.12946 C -50.30964,102.93612 -27.83824,113.26032 -18.23214,107.06696 L 1.11166,81.53571 L 47.20536,104.91071 L 108.95536,103.94196 L 142.73666,60.16071 L 160.04906,-8.71429 L -223.82589,-6.18304 C -253.22196,-58.56277 -309.606,-94.02678 -374.29464,-94.02679 z M -471.70089,31.78571 C -449.62089,31.78574 -431.70089,48.4391 -431.70089,68.94196 C -431.70089,89.44482 -449.62089,106.06696 -471.70089,106.06696 C -493.78089,106.06693 -511.70089,89.44482 -511.70089,68.94196 C -511.70089,48.4391 -493.78089,31.78571 -471.70089,31.78571 z"
         id="path3439" />
      <rect
         y="12.466797"
         x="-196.54993"
         height="20.041887"
         width="325.61429"
         id="rect3441"
         style="fill:#333333;fill-opacity:1;stroke:#000000;stroke-width:7.62753201;stroke-miterlimit:10;stroke-dasharray:none;stroke-opacity:1" />
      <path
         style="opacity:0.49751246;fill:#ffffff;fill-opacity:1;stroke:none;stroke-width:8.35200024;stroke-miterlimit:10;stroke-dasharray:none;stroke-opacity:1"
         d="M -373.45619,-91.62584 C -464.93046,-91.62584 -539.17494,-16.77482 -539.17494,75.43666 C -539.17494,81.25984 -538.84646,86.98527 -538.26869,92.65541 C -529.69725,8.53749 -459.15385,-57.15709 -373.45619,-57.15709 C -287.75852,-57.157091 -217.18386,8.53749 -208.61244,92.65541 C -208.03467,86.98527 -207.73744,81.25984 -207.73744,75.43666 C -207.73744,51.46088 -212.76406,28.64707 -221.79994,8.03041 L 150.82506,8.03041 L 150.82506,-2.18834 L -226.70619,-2.18834 C -254.44864,-55.341216 -309.77418,-91.62584 -373.45619,-91.62584 z"
         id="path3443" />
      <path
         style="fill:#808000;fill-opacity:1;stroke:none;stroke-width:8.35200024;stroke-miterlimit:10;stroke-dasharray:none;stroke-opacity:1"
         d="M -448.76,43.78747 C -443.17435,48.91344 -439.72337,55.88094 -439.72337,63.57756 C -439.72337,79.29368 -454.08334,92.06538 -471.75387,92.06538 C -489.42438,92.06538 -503.75341,79.29367 -503.75341,63.57756 C -503.75341,57.45326 -501.92518,51.28584 -498.22127,46.64037 C -504.36269,52.45198 -507.77656,60.75885 -507.77656,69.3577 C -507.77656,87.28388 -491.41413,101.83658 -471.25871,101.83657 C -451.10327,101.83657 -434.74084,87.28388 -434.74085,69.3577 C -434.74085,58.98323 -440.23704,49.73412 -448.76,43.78747 z"
         id="path3445"
         sodipodi:nodetypes="cssscsssc" />
    </g>
  </g>
</svg>
