<?xml version="1.0" encoding="UTF-8" standalone="no"?>
<!-- Created with Inkscape (http://www.inkscape.org/) -->

<svg
   xmlns:dc="http://purl.org/dc/elements/1.1/"
   xmlns:cc="http://creativecommons.org/ns#"
   xmlns:rdf="http://www.w3.org/1999/02/22-rdf-syntax-ns#"
   xmlns:svg="http://www.w3.org/2000/svg"
   xmlns="http://www.w3.org/2000/svg"
   xmlns:xlink="http://www.w3.org/1999/xlink"
   xmlns:sodipodi="http://sodipodi.sourceforge.net/DTD/sodipodi-0.dtd"
   xmlns:inkscape="http://www.inkscape.org/namespaces/inkscape"
   width="200"
   height="200"
   id="svg5259"
   version="1.1"
   inkscape:version="0.47 r22583"
   sodipodi:docname="New document 21">
  <defs
     id="defs5261">
    <inkscape:perspective
       sodipodi:type="inkscape:persp3d"
       inkscape:vp_x="0 : 526.18109 : 1"
       inkscape:vp_y="0 : 1000 : 0"
       inkscape:vp_z="744.09448 : 526.18109 : 1"
       inkscape:persp3d-origin="372.04724 : 350.78739 : 1"
       id="perspective5267" />
    <inkscape:perspective
       id="perspective5277"
       inkscape:persp3d-origin="0.5 : 0.33333333 : 1"
       inkscape:vp_z="1 : 0.5 : 1"
       inkscape:vp_y="0 : 1000 : 0"
       inkscape:vp_x="0 : 0.5 : 1"
       sodipodi:type="inkscape:persp3d" />
    <linearGradient
       gradientTransform="translate(1876.1781,82.572546)"
       inkscape:collect="always"
       xlink:href="#linearGradient5167"
       id="linearGradient5173"
       x1="-1460"
       y1="362.36218"
       x2="-1450"
       y2="352.36218"
       gradientUnits="userSpaceOnUse" />
    <linearGradient
       id="linearGradient5167">
      <stop
         style="stop-color:#3b4e3a;stop-opacity:1;"
         offset="0"
         id="stop5169" />
      <stop
         style="stop-color:#000000;stop-opacity:1;"
         offset="1"
         id="stop5171" />
    </linearGradient>
    <linearGradient
       gradientTransform="translate(1876.1781,82.572546)"
       inkscape:collect="always"
       xlink:href="#linearGradient5151"
       id="linearGradient5165"
       x1="-1490"
       y1="407.36218"
       x2="-1475"
       y2="417.36218"
       gradientUnits="userSpaceOnUse"
       spreadMethod="reflect" />
    <linearGradient
       id="linearGradient5151">
      <stop
         style="stop-color:#053c00;stop-opacity:1;"
         offset="0"
         id="stop5153" />
      <stop
         style="stop-color:#000000;stop-opacity:1;"
         offset="1"
         id="stop5155" />
    </linearGradient>
    <radialGradient
       inkscape:collect="always"
       xlink:href="#linearGradient5151"
       id="radialGradient5157"
       cx="-1470.75"
       cy="378.21191"
       fx="-1470.75"
       fy="378.21191"
       r="17.774101"
       gradientTransform="matrix(1,0,0,1.0194244,0,-7.3465573)"
       gradientUnits="userSpaceOnUse" />
    <linearGradient
       id="linearGradient5290">
      <stop
         style="stop-color:#053c00;stop-opacity:1;"
         offset="0"
         id="stop5292" />
      <stop
         style="stop-color:#000000;stop-opacity:1;"
         offset="1"
         id="stop5294" />
    </linearGradient>
    <radialGradient
       r="17.774101"
       fy="378.21191"
       fx="-1470.75"
       cy="378.21191"
       cx="-1470.75"
       gradientTransform="matrix(1,0,0,1.0194244,1876.1781,75.225996)"
       gradientUnits="userSpaceOnUse"
       id="radialGradient5331"
       xlink:href="#linearGradient5151"
       inkscape:collect="always" />
  </defs>
  <sodipodi:namedview
     id="base"
     pagecolor="#ffffff"
     bordercolor="#666666"
     borderopacity="1.0"
     inkscape:pageopacity="0.0"
     inkscape:pageshadow="2"
     inkscape:zoom="2.4806749"
     inkscape:cx="111.70043"
     inkscape:cy="97.979076"
     inkscape:document-units="px"
     inkscape:current-layer="layer1"
     showgrid="false"
     showborder="true"
     inkscape:showpageshadow="false"
     inkscape:window-width="807"
     inkscape:window-height="855"
     inkscape:window-x="0"
     inkscape:window-y="47"
     inkscape:window-maximized="0" />
  <metadata
     id="metadata5264">
    <rdf:RDF>
      <cc:Work
         rdf:about="">
        <dc:format>image/svg+xml</dc:format>
        <dc:type
           rdf:resource="http://purl.org/dc/dcmitype/StillImage" />
        <dc:title></dc:title>
      </cc:Work>
    </rdf:RDF>
  </metadata>
  <g
     inkscape:label="Layer 1"
     inkscape:groupmode="layer"
     id="layer1"
     transform="translate(-287.19731,-378.07517)">
    <path
       style="fill:url(#radialGradient5331);fill-opacity:1;stroke:#000000;stroke-width:0.6616978;stroke-linecap:round;stroke-linejoin:round;stroke-miterlimit:4;stroke-opacity:1;stroke-dasharray:none"
       d="m 411.91407,445.70884 c -1.74,1.18589 -2.9608,-1.4136 -4.6271,-1.64123 -2.0747,-0.94988 -4.5362,-1.57286 -6.7026,-0.53157 -3.1136,1.25107 -4.6734,4.46492 -6.8266,6.8241 -2.1566,2.43678 -4.1321,5.11444 -5.3574,8.1446 -1.0762,3.9182 0.016,8.20082 2.3839,11.43901 3.5,3.15132 7.5351,5.66736 11.8654,7.50598 1.6777,1.16123 3.713,1.38699 5.6627,0.83887 1.849,-0.26502 3.5285,-1.08432 4.7617,-2.49413 1.9031,-1.73076 3.3194,-3.89395 4.418,-6.20393 1.1096,-2.0498 1.9594,-4.24194 3.4011,-6.09525 0.8687,-1.38557 1.9078,-2.8736 1.9783,-4.54235 -0.4884,-2.49969 -2.0541,-4.58151 -3.48,-6.62441 -1.7056,-0.0431 -2.8384,-1.64619 -2.7251,-3.10793 -1.2253,-1.57681 -2.9484,-2.70051 -4.7523,-3.51176 z"
       id="path4083-8-0-7" />
    <path
       style="fill:url(#linearGradient5165);fill-opacity:1;stroke:#000000;stroke-width:0.6616978;stroke-linecap:round;stroke-linejoin:round;stroke-miterlimit:4;stroke-opacity:1;stroke-dasharray:none"
       d="m 367.60137,514.31954 c -3.7448,-6.51335 -3.3936,-14.26375 -3.7247,-21.51488 1.7451,-9.15605 7.0037,-18.26182 15.7089,-22.31296 3.3743,-1.63904 7.7629,-2.36244 10.9727,0.0371 4.8304,2.79276 9.4862,6.1161 13.0487,10.44707 2.0871,3.58076 1.3073,7.96712 0.4301,11.78997 -1.5511,4.87134 -4.54,9.22968 -8.11,12.84222 -5.5666,5.02974 -13.0946,6.75817 -20.2147,8.32204 -2.6307,0.60281 -5.4654,1.2153 -8.111,0.38949 z"
       id="path4085-5-6-3" />
    <path
       style="fill:#3b4e3a;fill-opacity:1;stroke:#000000;stroke-width:0.6616978;stroke-linecap:round;stroke-linejoin:round;stroke-miterlimit:4;stroke-opacity:1;stroke-dasharray:none"
       d="m 383.78317,539.21777 c 7.301,1.12893 2.8181,-9.79253 3.7202,-14.0293 0.1017,-7.47182 6.2209,-12.25119 11.0444,-17.03491 2.0244,-1.59589 6.9208,-9.6055 3.1514,-9.24369 -0.7854,5.08283 -4.6537,8.33414 -8.0173,11.90757 -4.609,4.52664 -8.882,10.51049 -7.7359,17.34979 -0.1079,3.43423 1.771,9.17116 -2.1628,11.05054 z"
       id="path4087-7-3-2" />
    <path
       style="fill:#3b4e3a;fill-opacity:1;stroke:#000000;stroke-width:0.6616978;stroke-linecap:round;stroke-linejoin:round;stroke-miterlimit:4;stroke-opacity:1;stroke-dasharray:none"
       d="m 418.34307,469.12981 c 2.8664,-0.0591 5.8086,0.17556 8.5853,-0.69488 3.8804,-2.60262 7.9793,-4.93111 11.4692,-8.06871 3.8197,-1.16676 7.8609,-0.41455 11.7642,-0.95683 1.7334,-0.0996 3.469,-0.2662 5.1672,-0.63975 -1.0788,-1.65988 -2.1576,-3.31976 -3.2364,-4.97964 0.5599,1.35909 1.8154,3.7474 -0.1488,4.53996 -1.9184,0.55278 -3.8758,-0.24482 -5.8227,-0.14019 -3.513,-0.2187 -7.403,-0.38141 -10.3897,1.812 -2.3347,1.62948 -4.4482,3.58734 -7.0185,4.8625 -1.5618,0.94675 -3.4758,2.00827 -5.3135,1.14628 -1.1311,-1.3492 -3.4572,-1.59279 -4.0533,0.43632 -0.1613,0.97008 -0.6434,1.77569 -1.003,2.68294 z"
       id="path4089-3-6-2" />
    <path
       style="fill:#3b4e3a;fill-opacity:1;stroke:#000000;stroke-width:0.6616978;stroke-linecap:round;stroke-linejoin:round;stroke-miterlimit:4;stroke-opacity:1;stroke-dasharray:none"
       d="m 418.34307,469.12981 c 3.0177,9.83356 4.9427,20.02287 5.3429,30.30895 0.8466,4.71703 5.1096,7.99918 5.9416,12.69897 4e-4,2.0533 -2.6813,1.45762 -1.5644,-0.47423 -0.63,-3.24661 -3.4021,-5.58174 -4.2042,-8.80635 -2.3726,-6.62421 -1.6198,-13.82098 -3.4073,-20.58082 -0.7275,-3.90715 -2.2248,-7.80943 -3.2713,-11.497 0.3875,-0.54984 0.7751,-1.09968 1.1627,-1.64952 z"
       id="path4091-3-1-1" />
    <path
       style="fill:#3b4e3a;fill-opacity:1;stroke:#000000;stroke-width:0.6616978;stroke-linecap:round;stroke-linejoin:round;stroke-miterlimit:4;stroke-opacity:1;stroke-dasharray:none"
       d="m 338.89277,507.57666 c -1.7505,-0.93014 -1.7741,-3.43254 0.1742,-4.17953 3.4202,-1.96496 7.4699,-2.29365 11.0637,-3.84687 3.6033,-1.38157 7.1338,-3.72175 8.703,-7.38769 2.9212,-4.94427 4.277,-11.00731 8.8116,-14.85443 0.9245,-0.7715 2.9949,-2.46952 3.6666,-0.74298 -1.2536,1.62099 -3.6665,2.0541 -4.6642,3.93622 -0.8226,1.92183 -2.1021,3.68985 -2.9895,5.61465 -2.4997,4.82691 -4.9745,9.9249 -9.2833,13.42298 -4.3837,2.15892 -9.3166,2.86188 -13.7086,5.00104 -2.2718,-0.0253 -0.4907,2.1292 -1.7735,3.03661 z"
       id="path4087-7-5-0-5" />
    <path
       style="fill:#3b4e3a;fill-opacity:1;stroke:#000000;stroke-width:0.6616978;stroke-linecap:round;stroke-linejoin:round;stroke-miterlimit:4;stroke-opacity:1;stroke-dasharray:none"
       d="m 392.56257,450.95842 c -0.9131,-2.71772 -2.119,-5.41161 -2.2316,-8.31925 1.1538,-4.45775 1.8943,-9.05254 3.6954,-13.31598 0.4179,-1.59431 -0.5265,-3.08668 -0.8659,-4.60371 -0.9407,-3.1754 -2.0058,-6.32087 -2.8366,-9.5247 0.062,-0.87675 -1.1596,-3.1194 0.4609,-2.33784 1.625,0.38643 3.25,0.77286 4.875,1.1593 -1.3828,0.15485 -4.3271,-0.58605 -4.4456,1.30905 0.4719,1.82607 1.3229,3.53558 2.053,5.27228 1.188,2.73635 2.4599,5.57986 2.4757,8.61501 -0.2685,3.48468 -2.3283,6.56825 -2.4572,10.07406 -0.2498,1.70209 -1.1725,3.65426 0.04,5.20385 0.7676,1.14785 1.842,2.0596 3.0994,2.59954 -0.1017,0.59007 -0.8986,0.91132 -1.2839,1.41657 -0.857,0.81628 -1.7337,1.64048 -2.5783,2.45182 z"
       id="path4089-3-5-5-3" />
    <path
       style="fill:#3b4e3a;fill-opacity:1;stroke:#000000;stroke-width:0.6616978;stroke-linecap:round;stroke-linejoin:round;stroke-miterlimit:4;stroke-opacity:1;stroke-dasharray:none"
       d="m 392.56257,450.95842 c -10.2536,0.46941 -20.4818,2.05624 -30.28,5.14753 -4.7471,0.82037 -9.2929,-2.11528 -14.0184,-1.31741 -1.934,0.68986 -0.4715,3.01536 0.9725,1.31398 3.2695,-0.49805 6.4006,1.32769 9.7072,0.99896 7.0363,0.008 13.5612,-3.12048 20.5285,-3.7095 3.9431,-0.8474 8.5495,-0.13458 12.1372,-1.08144 0.3177,-0.45071 0.6353,-0.90143 0.953,-1.35212 z"
       id="path4091-3-3-7-3" />
    <path
       style="fill:#9cfffb;fill-opacity:0.78326996;stroke:none"
       d="m 415.40097,472.76657 c -0.8805,10.91243 -7.7788,20.80513 -17.2228,26.16816 -3.5765,5.70745 2.3324,12.65249 3.6389,18.58429 4.0442,9.08339 8.7079,18.32777 15.9557,25.25271 6.144,2.50927 9.1212,-5.30968 9.3706,-10.10596 2.7615,-15.14431 -2.8159,-29.99684 -3.2866,-45.08539 -0.5834,-7.11154 -1.6166,-14.26985 -3.3525,-21.14607 -1.6134,0.24426 -2.5855,3.31126 -3.9423,4.68509 -0.387,0.54906 -0.774,1.09811 -1.161,1.64717 z"
       id="path4043-0-3-9-6" />
    <path
       style="fill:none;stroke:#2fd7d8;stroke-width:0.6616978;stroke-linecap:round;stroke-linejoin:miter;stroke-miterlimit:4;stroke-opacity:1;stroke-dasharray:none"
       d="m 407.07457,492.06025 c -3.2084,1.97193 0.5395,7.06401 3.4929,5.27705 m 3.354,31.28119 c 5.3915,1.21064 5.0672,10.5119 9.8123,10.96396 m -18.5166,-29.2425 c 4.1399,4.02864 2.6601,15.1978 9.8369,14.73089 l 0.5075,-0.69337 m 7.6293,18.2202 c 0.2832,-7.83724 -0.4621,-15.69528 0.3098,-23.50369 -0.6233,-11.81077 -7.2854,-22.87003 -5.2806,-34.8868 0.3102,-4.89422 1.2444,-10.09259 -0.3119,-14.8439 m 0.6354,-0.90141 c 3.1636,7.09515 0.5255,15.16652 3.0505,22.43836 1.165,7.20433 2.6553,14.40316 5.3003,21.22676 m -9.6216,-41.8623 c 1.2844,7.52625 -2.7931,14.99159 -0.2665,22.53137 0.8212,11.99623 1.1265,24.61595 -3.2424,35.98997 -0.9198,1.69521 -2.0933,3.24956 -3.4499,4.61912 m -10.0769,-19.82886 c 6.9861,-1.81819 7.1219,-10.41287 10.4562,-15.5966 2.8606,-6.37194 2.5474,-13.42935 3.9348,-20.13437 m 0.7386,-4.87639 c -0.8805,10.91243 -7.7788,20.80513 -17.2228,26.16816 -3.5765,5.70745 2.3324,12.65249 3.6389,18.58429 4.0442,9.08339 8.7079,18.32777 15.9557,25.25271 6.144,2.50927 9.1212,-5.30968 9.3706,-10.10596 2.7615,-15.14431 -2.8159,-29.99684 -3.2866,-45.08539 -0.5834,-7.11154 -1.6166,-14.26985 -3.3525,-21.14607 -1.6134,0.24426 -2.5855,3.31126 -3.9423,4.68509 -0.387,0.54906 -0.774,1.09811 -1.161,1.64717 z"
       id="path4043-0-3-9" />
    <path
       style="fill:#9cfffb;fill-opacity:0.78326996;stroke:none"
       d="m 390.24417,454.36511 c -6.9664,3.06353 -12.3904,9.06004 -16.066,15.56962 -1.0939,5.32047 -2.6692,13.38703 -9.8952,12.2982 -13.5165,0.58287 -27.3331,-0.85677 -39.9516,-5.96533 -5.2915,-3.78916 -0.1984,-10.83015 4.5294,-12.35352 14.3053,-8.30116 31.3646,-8.0201 46.7732,-13.04852 6.0076,-1.74113 12.2112,-2.71286 18.4252,-3.3459 0.7049,3.07566 -3.0656,4.2704 -3.815,6.84545 z"
       id="path4043-0-8-1-9-0" />
    <path
       style="fill:none;stroke:#2fd7d8;stroke-width:0.6616978;stroke-linecap:round;stroke-linejoin:miter;stroke-miterlimit:4;stroke-opacity:1;stroke-dasharray:none"
       d="m 374.82877,468.79201 c -0.6707,3.64577 -7.0242,1.86599 -6.1448,-1.51569 m -30.5882,7.35693 c -2.969,-4.64031 -11.5879,-1.26832 -13.6247,-5.55548 m 33.7654,7.60858 c -5.1748,-2.57531 -15.1816,2.64435 -17.1526,-4.30022 l 0.4546,-0.7232 m -19.7246,-1.06023 c 6.5616,-2.78961 13.682,-4.08948 19.9828,-7.50306 8.9613,-3.25607 18.6538,-2.50958 27.8869,-4.16624 7.8862,-1.87348 14.7079,-7.27948 22.8783,-7.97464 m 0.6354,-0.90142 c -7.5896,-0.54425 -14.1817,4.43957 -21.6957,4.60621 -7.3282,1.36995 -14.7686,2.30018 -22.2355,2.20787 m 42.6605,-5.01121 c -6.7002,0.66206 -11.3183,7.00472 -18.3741,7.02601 -12.3958,3.65268 -25.6735,7.09195 -35.4752,15.96965 -1.3308,1.41149 -2.4702,3.01582 -3.2772,4.784 m 22.0624,2.82466 c -0.9432,-6.46506 6.2995,-9.50028 9.787,-13.7241 4.8104,-5.35547 11.6418,-7.58942 17.6482,-11.10641 l 0.6836,-0.37726 0.6949,-0.35738 m 4.3443,-2.33493 c -6.9664,3.06353 -12.3904,9.06004 -16.066,15.56962 -1.0939,5.32047 -2.6692,13.38703 -9.8952,12.2982 -13.5165,0.58287 -27.3331,-0.85677 -39.9516,-5.96533 -5.2915,-3.78916 -0.1984,-10.83015 4.5294,-12.35352 14.3053,-8.30116 31.3646,-8.0201 46.7732,-13.04852 6.0076,-1.74113 12.2112,-2.71286 18.4252,-3.3459 0.7049,3.07566 -3.0656,4.2704 -3.815,6.84545 z"
       id="path4043-0-8-1-9" />
    <path
       style="fill:url(#linearGradient5173);fill-opacity:1;stroke:#000000;stroke-width:0.6616978;stroke-linecap:round;stroke-linejoin:round;stroke-miterlimit:4;stroke-opacity:1;stroke-dasharray:none"
       d="m 403.00647,439.96991 c 0.5416,1.42726 2.12,2.01578 3.3664,2.69077 2.0652,0.98553 4.1865,1.84622 6.2831,2.76146 1.6719,1.47959 3.8042,2.3605 5.3242,4.03109 2.1256,2.01756 3.8761,4.44234 6.2387,6.20056 1.1218,0.97969 2.2589,-0.43085 2.7197,-1.38838 0.8377,-1.6218 1.2795,-3.61503 0.5433,-5.35516 -0.5661,-2.33719 -1.6931,-4.56972 -3.4331,-6.25188 -0.8725,-1.05894 0.1348,-2.70825 -0.9731,-3.66114 -1.3469,-1.47261 -3.124,-2.49957 -4.9675,-3.22459 -1.0245,0.17737 -2.0491,0.35473 -3.0736,0.5321 -3.3647,-1.38687 -7.3344,-0.7392 -10.3635,1.16502 -0.8855,0.57359 -1.4041,1.50071 -1.6646,2.50015 z"
       id="path4067-3-1-4" />
    <path
       style="fill:none;stroke:#000000;stroke-width:0.6616978;stroke-linecap:round;stroke-linejoin:round;stroke-miterlimit:4;stroke-opacity:1;stroke-dasharray:none"
       d="m 415.03457,436.30474 c 0.3787,-2.16054 -1.1491,-3.14712 -2.3349,-4.34429"
       id="path4069-6-5-2"
       sodipodi:nodetypes="cc" />
    <path
       style="fill:none;stroke:#000000;stroke-width:0.6616978;stroke-linecap:round;stroke-linejoin:round;stroke-miterlimit:4;stroke-opacity:1;stroke-dasharray:none"
       d="m 416.57137,436.03869 c -0.4167,-2.86627 -1.4504,-4.49126 -2.601,-5.88106"
       id="path4071-4-8-0"
       sodipodi:nodetypes="cc" />
    <path
       style="fill:none;stroke:#000000;stroke-width:0.6616978;stroke-linecap:round;stroke-linejoin:round;stroke-miterlimit:4;stroke-opacity:1;stroke-dasharray:none"
       d="m 424.04877,442.65837 c 2.5129,-0.44188 5.1807,-0.30687 7.9499,0.20653"
       id="path4073-0-1-2"
       sodipodi:nodetypes="cc" />
    <path
       style="fill:#3b4e3a;fill-opacity:1;stroke:#000000;stroke-width:0.6616978;stroke-linecap:round;stroke-linejoin:round;stroke-miterlimit:4;stroke-opacity:1;stroke-dasharray:none"
       d="m 423.51667,439.58482 c 1.8504,-1.82677 4.4928,-2.43393 6.9842,-2.77984 0.4994,-0.0894 1.8702,-0.28625 1.7982,-0.34815 -1.7799,0.0526 -3.5597,0.10514 -5.3396,0.1577 0.6538,-0.47573 0.1366,-1.86923 -0.7025,-1.39408 -0.9032,0.61371 -0.8983,1.88024 -1.5902,2.65878 -0.7515,0.71298 -1.9754,0.22896 -2.7265,0.54668 0.4006,0.49725 1.1144,0.70342 1.5764,1.15891 z"
       id="path4075-3-3-9" />
    <path
       style="fill:#3b4e3a;fill-opacity:1;stroke:#000000;stroke-width:0.6616978;stroke-linecap:round;stroke-linejoin:round;stroke-miterlimit:4;stroke-opacity:1;stroke-dasharray:none"
       d="m 419.91097,437.04336 c 0.4825,-0.78708 0.3385,-1.83462 0.5935,-2.57314 0.5724,-0.63516 1.6379,-0.61533 2.097,-1.32757 0.3085,-0.74249 -0.4834,-1.65488 -1.2547,-1.31004 -1.0017,0.6406 -0.9869,-0.78656 -1.1279,-1.45788 -0.166,-1.20123 -0.01,-2.42099 0.2434,-3.59879 -0.8177,1.513 -0.8879,3.32668 -0.6838,5.00312 0.096,0.74827 0.4237,1.54454 -0.056,2.23552 -0.3511,0.64785 -0.9119,1.14442 -1.467,1.61425 0.1918,0.71353 1.1796,0.89168 1.6555,1.41453 z"
       id="path4077-5-3-5" />
    <path
       style="fill:none;stroke:#000000;stroke-width:0.6616978;stroke-linecap:round;stroke-linejoin:round;stroke-miterlimit:4;stroke-opacity:1;stroke-dasharray:none"
       d="m 415.03457,436.30474 c 1.6552,3.31511 -0.5911,5.93784 -3.28,8.48203"
       id="path4079-8-9-7"
       sodipodi:nodetypes="cc" />
    <path
       style="fill:none;stroke:#000000;stroke-width:0.6616978;stroke-linecap:round;stroke-linejoin:round;stroke-miterlimit:4;stroke-opacity:1;stroke-dasharray:none"
       d="m 424.95017,443.29374 c -2.344,-0.015 -4.5923,0.57488 -5.9843,6.57594"
       id="path4081-5-7-4"
       sodipodi:nodetypes="cc" />
    <path
       style="fill:none;stroke:#000000;stroke-width:0.2;stroke-linecap:butt;stroke-linejoin:miter;stroke-miterlimit:4;stroke-opacity:1;stroke-dasharray:none"
       d="m 409.17817,442.93473 c 2.0668,-1.8021 4.0591,-3.88295 3,-6"
       id="path4964"
       sodipodi:nodetypes="cc" />
    <path
       style="fill:none;stroke:#000000;stroke-width:0.2;stroke-linecap:butt;stroke-linejoin:miter;stroke-miterlimit:4;stroke-opacity:1;stroke-dasharray:none"
       d="m 407.17817,441.93473 c 2.6726,-1.6144 3.5327,-3.28544 3,-5"
       id="path4966"
       sodipodi:nodetypes="cc" />
    <path
       style="fill:none;stroke:#000000;stroke-width:0.2;stroke-linecap:butt;stroke-linejoin:miter;stroke-miterlimit:4;stroke-opacity:1;stroke-dasharray:none"
       d="m 405.17817,440.93473 c 1.5504,-1.25077 3.3753,-2.46038 3,-4"
       id="path4968"
       sodipodi:nodetypes="cc" />
    <path
       style="fill:none;stroke:#000000;stroke-width:0.2;stroke-linecap:butt;stroke-linejoin:miter;stroke-miterlimit:4;stroke-opacity:1;stroke-dasharray:none"
       d="m 407.17817,436.93473 c 1.5513,0.74687 1.8008,1.62727 7,2"
       id="path4970"
       sodipodi:nodetypes="cc" />
    <path
       style="fill:none;stroke:#000000;stroke-width:0.2;stroke-linecap:butt;stroke-linejoin:miter;stroke-miterlimit:4;stroke-opacity:1;stroke-dasharray:none"
       d="m 406.17817,437.93473 c 1.6622,0.69649 1.9333,1.78918 7,2"
       id="path4970-2"
       sodipodi:nodetypes="cc" />
    <path
       style="fill:none;stroke:#000000;stroke-width:0.2;stroke-linecap:butt;stroke-linejoin:miter;stroke-miterlimit:4;stroke-opacity:1;stroke-dasharray:none"
       d="m 405.17817,438.93473 c 1.9967,0.96101 2.7283,2.29419 7,3"
       id="path4970-6"
       sodipodi:nodetypes="cc" />
    <path
       style="fill:none;stroke:#000000;stroke-width:0.2;stroke-linecap:butt;stroke-linejoin:miter;stroke-miterlimit:4;stroke-opacity:1;stroke-dasharray:none"
       d="m 406.17817,440.93473 c 1.9385,1.31892 3.8649,2.17685 6,2"
       id="path4970-9"
       sodipodi:nodetypes="cc" />
    <g
       id="g5142"
       transform="matrix(-0.37611049,-0.92657482,-0.92657482,0.37611049,219.46297,-1006.4749)">
      <path
         sodipodi:nodetypes="cc"
         id="path4964-4"
         d="m -1426,361.36218 c 2.0668,-1.8021 4.0591,-3.88295 3,-6"
         style="fill:none;stroke:#000000;stroke-width:0.2;stroke-linecap:butt;stroke-linejoin:miter;stroke-miterlimit:4;stroke-opacity:1;stroke-dasharray:none" />
      <path
         sodipodi:nodetypes="cc"
         id="path4966-1"
         d="m -1428,360.36218 c 2.6726,-1.6144 3.5327,-3.28544 3,-5"
         style="fill:none;stroke:#000000;stroke-width:0.2;stroke-linecap:butt;stroke-linejoin:miter;stroke-miterlimit:4;stroke-opacity:1;stroke-dasharray:none" />
      <path
         sodipodi:nodetypes="cc"
         id="path4968-9"
         d="m -1430,359.36218 c 1.5504,-1.25077 3.3753,-2.46038 3,-4"
         style="fill:none;stroke:#000000;stroke-width:0.2;stroke-linecap:butt;stroke-linejoin:miter;stroke-miterlimit:4;stroke-opacity:1;stroke-dasharray:none" />
      <path
         sodipodi:nodetypes="cc"
         id="path4970-8"
         d="m -1428,355.36218 c 1.5513,0.74687 1.8008,1.62727 7,2"
         style="fill:none;stroke:#000000;stroke-width:0.2;stroke-linecap:butt;stroke-linejoin:miter;stroke-miterlimit:4;stroke-opacity:1;stroke-dasharray:none" />
      <path
         sodipodi:nodetypes="cc"
         id="path4970-2-0"
         d="m -1429,356.36218 c 1.6622,0.69649 1.9333,1.78918 7,2"
         style="fill:none;stroke:#000000;stroke-width:0.2;stroke-linecap:butt;stroke-linejoin:miter;stroke-miterlimit:4;stroke-opacity:1;stroke-dasharray:none" />
      <path
         sodipodi:nodetypes="cc"
         id="path4970-6-4"
         d="m -1430,357.36218 c 1.9967,0.96101 2.7283,2.29419 7,3"
         style="fill:none;stroke:#000000;stroke-width:0.2;stroke-linecap:butt;stroke-linejoin:miter;stroke-miterlimit:4;stroke-opacity:1;stroke-dasharray:none" />
      <path
         sodipodi:nodetypes="cc"
         id="path4970-9-9"
         d="m -1429,359.36218 c 1.9385,1.31892 3.8649,2.17685 6,2"
         style="fill:none;stroke:#000000;stroke-width:0.2;stroke-linecap:butt;stroke-linejoin:miter;stroke-miterlimit:4;stroke-opacity:1;stroke-dasharray:none" />
    </g>
  </g>
</svg>
