<?xml version="1.0" encoding="UTF-8" standalone="no"?>
<!-- Created with Inkscape (http://www.inkscape.org/) -->
<svg
   xmlns:dc="http://purl.org/dc/elements/1.1/"
   xmlns:cc="http://web.resource.org/cc/"
   xmlns:rdf="http://www.w3.org/1999/02/22-rdf-syntax-ns#"
   xmlns:svg="http://www.w3.org/2000/svg"
   xmlns="http://www.w3.org/2000/svg"
   xmlns:sodipodi="http://sodipodi.sourceforge.net/DTD/sodipodi-0.dtd"
   xmlns:inkscape="http://www.inkscape.org/namespaces/inkscape"
   width="500"
   height="200"
   id="svg16317"
   sodipodi:version="0.32"
   inkscape:version="0.44.1"
   version="1.0"
   sodipodi:docbase="C:\Documents and Settings\Henry SALOME\Mes documents\Mes images\Blasons\Inkscape\Pièces &amp; meubles"
   sodipodi:docname="Héraldique_meuble_Crocodile.svg">
  <defs
     id="defs16319" />
  <sodipodi:namedview
     id="base"
     pagecolor="#ffffff"
     bordercolor="#666666"
     borderopacity="1.0"
     inkscape:pageopacity="0.0"
     inkscape:pageshadow="2"
     inkscape:zoom="1.5079998"
     inkscape:cx="286.79999"
     inkscape:cy="51.969666"
     inkscape:document-units="px"
     inkscape:current-layer="layer2"
     width="500px"
     height="200px"
     inkscape:window-width="1024"
     inkscape:window-height="708"
     inkscape:window-x="-4"
     inkscape:window-y="-4" />
  <metadata
     id="metadata16322">
    <rdf:RDF>
      <cc:Work
         rdf:about="">
        <dc:format>image/svg+xml</dc:format>
        <dc:type
           rdf:resource="http://purl.org/dc/dcmitype/StillImage" />
      </cc:Work>
    </rdf:RDF>
  </metadata>
  <g
     inkscape:groupmode="layer"
     id="layer2"
     inkscape:label="Calque"
     style="opacity:1"
     transform="translate(86.58524,-122.8843)"
     sodipodi:insensitive="true">
    <path
       sodipodi:type="arc"
       style="fill:none;stroke-width:3;stroke-miterlimit:4;stroke-dasharray:none"
       id="path2766"
       sodipodi:cx="203.97313"
       sodipodi:cy="154.59691"
       sodipodi:rx="0.9378075"
       sodipodi:ry="0.11722594"
       d="M 204.91094 154.59691 A 0.9378075 0.11722594 0 1 1  203.03532,154.59691 A 0.9378075 0.11722594 0 1 1  204.91094 154.59691 z"
       transform="matrix(-0.766043,-0.642788,0.642788,-0.766043,164.3647,463.656)" />
    <g
       id="g6993"
       transform="matrix(-1,0,0,1,278.0449,21.34455)">
      <path
         sodipodi:nodetypes="ccccccccccccccccccccc"
         id="path1875"
         d="M 276.18431,206.528 C 275.61707,208.71622 275.36439,210.90443 276.65322,213.09265 C 282.73282,213.37414 281.17484,221.94849 291.89259,220.82956 C 294.38886,223.70899 295.22943,222.17325 295.87827,220.12621 C 297.28498,224.05558 298.69169,223.83973 300.0984,221.53292 C 301.11436,224.02726 302.13032,225.46072 303.14628,221.76737 C 305.45131,229.95052 306.30647,225.20827 307.13196,224.34634 C 306.64304,229.30533 307.70237,230.00665 309.71093,228.09757 C 310.63236,231.79497 311.63985,235.0908 314.39997,230.20764 C 316.33164,233.6768 316.50538,231.28624 317.21339,230.67654 C 318.67262,231.79943 320.343,234.29476 320.96462,229.97319 C 322.60578,233.98485 324.24695,230.46126 325.88811,227.15976 C 326.58242,229.94993 325.50159,235.84661 329.40489,233.02106 C 329.96998,238.46156 331.50621,238.07516 333.39057,235.60003 C 334.35613,237.28941 333.62366,242.85999 337.37625,238.179 C 337.85575,239.35479 338.33119,241.08184 337.91383,241.95868 L 329.74142,244.79439 L 314.32364,241.31296 L 230.10613,238.66044 L 227.61939,201.85672 L 276.18431,206.528 z "
         style="fill:#e20909;fill-rule:evenodd;stroke:black;stroke-width:3;stroke-linecap:butt;stroke-linejoin:miter;stroke-miterlimit:4;stroke-dasharray:none;stroke-opacity:1" />
      <g
         id="g6930">
        <path
           style="fill:#5ab532;fill-rule:evenodd;stroke:black;stroke-width:3;stroke-linecap:butt;stroke-linejoin:miter;stroke-miterlimit:4;stroke-dasharray:none;stroke-opacity:1"
           d="M 342.40955,190.66397 C 340.94223,191.99023 339.49729,191.79255 339.91103,194.4083 C 338.21663,192.42025 337.48613,193.18907 337.33474,194.70549 C 336.79078,193.58372 334.34174,192.31576 333.36018,196.36437 C 331.97316,192.78296 330.05811,195.09242 327.81379,192.99469 C 325.94927,193.97352 326.48501,197.37797 325.65435,200.12263 C 323.64232,192.55109 321.42796,198.13357 317.82661,194.0934 C 311.43167,191.49677 316.52487,196.87923 313.88116,202.56009 C 313.07303,197.2117 312.0447,195.38663 310.61264,200.02134 C 309.20212,193.91006 307.37498,197.36852 305.34092,203.53122 C 303.74102,195.46746 303.94236,199.18249 301.40927,206.19064 C 301.40927,206.19064 299.44962,198.4662 296.56925,203.44658 C 294.068,198.71962 292.23708,200.26527 291.99787,203.13586 C 290.85473,199.57904 289.71158,199.873 288.56844,203.49099 C 288.26185,200.05789 287.12118,200.63176 284.08053,206.57219 C 283.71698,200.17993 281.98755,204.56192 279.32485,209.38561 C 279.34488,201.56998 274.3854,210.46112 258.14372,208.95003 C 254.76817,207.77375 243.1049,203.9886 236.19164,210.86825 C 242.30315,210.28297 254.50407,207.75386 260.19541,223.30393 C 267.86279,227.99788 276.42945,230.69566 287.59041,231.43671 L 287.54328,228.04061 C 288.21546,229.17331 289.55329,229.65794 290.83049,232.09984 L 294.09413,229.44732 C 292.41174,232.64476 300.94611,236.81275 306.31895,235.02704 L 308.14744,231.43671 C 308.37064,232.32088 307.86384,234.53132 310.79996,236.07862 C 312.68805,235.95187 314.11077,235.83219 315.24764,233.2652 C 315.57611,237.26592 316.89627,233.6223 318.40929,230.29087 C 319.25331,234.80152 318.10178,240.64279 324.02923,236.5073 C 323.13527,239.81292 323.72443,243.62011 326.36685,239.31382 C 326.62152,243.58607 327.81378,243.12248 329.28714,239.39427 C 331.01756,242.16297 329.93457,240.42443 331.66499,239.81605 C 332.15938,242.8073 333.35981,244.64025 336.07245,241.34343 C 338.05119,237.43705 340.74334,244.83876 331.95347,246.47376 C 325.07133,248.25754 320.39475,242.33994 310.41513,244.56142 C 303.49672,246.30311 290.47821,247.09618 279.07778,246.28644 L 238.77966,241.66405 L 206.89657,256.89652 L 124.00532,262.86469 L 104.11142,261.53843 L 63.660484,252.25461 L 2.6525202,239.65514 C -101.35736,244.23033 -141.53842,185.16589 -90.185686,126.2599 C -90.138641,127.41597 -91.503792,131.16957 -93.422015,133.91627 C -93.039754,136.49011 -92.291207,139.05321 -96.047984,141.09514 C -95.905067,145.72605 -97.080672,146.09864 -99.015348,147.51792 C -98.162087,151.18169 -97.992667,153.35762 -101.17966,156.70113 C -99.987315,159.96779 -99.284538,163.08297 -101.93214,166.04939 C -99.92375,170.32282 -101.43699,173.67043 -100.54757,177.09326 C -98.382641,180.55677 -95.561679,183.62357 -95.769518,188.11077 C -91.930342,190.37448 -89.350835,194.29737 -88.175965,196.90506 C -84.855821,197.50382 -80.358188,197.49107 -78.58407,203.51959 C -75.712697,203.3032 -72.47774,203.47018 -68.256183,208.02522 C -65.495473,207.17136 -62.289448,207.57859 -58.35486,210.8037 C -54.630099,209.45181 -51.150089,209.7853 -48.08847,212.55463 C -43.765207,210.47598 -39.815706,210.83612 -36.471865,213.45389 C -32.019837,210.54498 -28.556904,211.73699 -25.201277,213.41054 C -21.477226,210.45409 -17.707751,210.48352 -13.915149,212.56798 C -9.9315394,210.36691 -7.2321445,208.36679 -2.3432278,211.02148 C 0.78533867,208.4435 4.1976309,207.15951 8.1981265,208.77777 C 10.680232,206.80068 13.02309,206.57834 18.899206,207.8249 C 22.729584,204.91034 24.321988,204.62191 29.575302,205.98876 C 31.739371,204.28207 36.420629,202.70829 40.499028,204.08878 C 43.388825,202.33868 46.666483,201.5042 51.703741,202.68819 C 55.654639,199.79397 58.26841,199.39175 62.665789,201.1936 C 66.518494,198.79794 69.377862,197.09037 73.245993,199.51307 C 76.348802,196.1867 80.105855,195.64205 83.890203,197.92217 C 89.031828,194.95023 90.739712,193.87629 95.490727,196.55169 C 98.485676,193.10043 102.80686,192.72728 105.7934,193.80658 C 107.76487,190.40118 112.7139,190.35887 114.99817,191.68896 C 118.75033,187.07947 122.47729,185.60891 126.16216,189.13301 C 128.81427,184.14757 132.48923,184.03203 136.81216,187.16662 C 140.11213,182.23883 143.09712,181.52154 147.7984,185.61968 C 151.3576,180.71946 155.09065,180.7282 160.46874,184.46797 C 165.40286,180.18122 168.69316,180.80501 173.07824,184.0711 C 178.75764,180.49161 182.15574,181.51698 185.70497,184.60596 C 190.7057,181.14508 193.38748,181.76223 197.61023,185.95919 C 204.07086,184.53425 204.67633,184.44451 210.21222,189.25726 L 236.0743,193.23604 L 258.62762,188.74813 C 272.24007,184.94248 271.96868,184.5876 278.08594,189.30439 C 280.71976,188.39956 282.7907,187.21329 287.79844,187.49542 C 300.28762,188.59036 306.8086,188.17553 315.69584,186.02896 C 327.82734,184.7486 346.85887,173.8163 342.40955,190.66397 z "
           id="path2067"
           sodipodi:nodetypes="cccccccccccccccccccccccccccccccccccccccccccccccccccccccccccccccccccccccccccccccccccc"
           transform="translate(0.165783,0)" />
        <g
           id="g6920">
          <path
             sodipodi:nodetypes="ccc"
             id="path1877"
             d="M 265.51675,192.57811 C 263.28946,190.46804 256.49036,192.46089 255.3181,195.27431 C 259.34503,197.7366 262.59573,196.23981 265.51675,192.57811 z "
             style="fill:none;fill-rule:evenodd;stroke:black;stroke-width:3;stroke-linecap:butt;stroke-linejoin:miter;stroke-miterlimit:4;stroke-dasharray:none;stroke-opacity:1" />
          <path
             transform="matrix(1.218878,0,0,0.942545,-69.93047,8.745217)"
             d="M 335.66641 186.83405 A 2.1586235 1.875615 0 1 1  331.34916,186.83405 A 2.1586235 1.875615 0 1 1  335.66641 186.83405 z"
             sodipodi:ry="1.875615"
             sodipodi:rx="2.1586235"
             sodipodi:cy="186.83405"
             sodipodi:cx="333.50778"
             id="path1878"
             style="fill:none;fill-rule:evenodd;stroke:black;stroke-width:2.79891753;stroke-linecap:butt;stroke-linejoin:miter;stroke-miterlimit:4;stroke-dasharray:none;stroke-opacity:1"
             sodipodi:type="arc" />
          <path
             sodipodi:nodetypes="cccccccccccc"
             id="path2069"
             d="M 221.88649,240.89966 C 215.64954,241.3219 200.50854,243.64402 197.98214,246.40472 C 210.9642,246.27502 225.01005,245.2678 236.70543,251.7085 C 228.95094,252.85201 225.98843,252.89934 223.53954,253.76232 C 227.78928,255.41462 229.31139,256.87643 233.04836,260.29582 C 226.70563,259.56879 222.73616,259.46819 218.22727,258.77806 C 220.89877,263.46321 223.48305,264.69934 225.68614,268.72316 C 217.76156,264.74283 217.00072,263.88759 212.13544,263.024 C 213.69908,266.58236 214.26216,267.95666 215.66886,274.08166 C 207.18808,267.11726 200.46174,259.2781 182.61169,257.60297 C 162.33347,258.9738 163.21851,251.97668 171.76921,239.12396 C 179.48149,222.99798 196.22119,217.50106 218.35069,222.29167"
             style="fill:#5ab532;fill-opacity:1;fill-rule:evenodd;stroke:black;stroke-width:3;stroke-linecap:butt;stroke-linejoin:miter;stroke-miterlimit:4;stroke-dasharray:none;stroke-opacity:1" />
          <path
             sodipodi:nodetypes="ccccccccccccc"
             id="path3714"
             d="M 94.949739,240.22989 C 92.953202,240.36506 86.621319,244.00724 83.458915,244.52792 C 78.06132,245.41663 69.990463,249.5873 68.610112,251.09565 C 79.858888,253.79676 83.45181,256.48099 98.27471,257.84166 C 98.120226,258.83249 88.657032,259.53656 86.535108,260.28441 C 90.217444,261.71613 91.53634,262.98272 94.774385,265.94559 C 89.278475,265.31561 85.838988,265.22843 81.932096,264.63045 C 82.920654,266.03749 88.475546,268.10333 90.384494,271.58986 C 83.517951,268.14103 80.869303,269.05777 76.653614,268.30949 C 78.008486,271.39276 82.143598,271.25726 85.683445,276.89607 C 75.019318,273.51411 64.217563,268.71096 51.071695,263.61225 C 33.500909,264.80008 34.267778,258.73717 41.676842,247.60046 C 50.90213,238.87712 55.343208,236.27973 65.674531,231.49494"
             style="opacity:1;fill:#5ab532;fill-opacity:1;fill-rule:evenodd;stroke:black;stroke-width:3;stroke-linecap:butt;stroke-linejoin:miter;stroke-miterlimit:4;stroke-dasharray:none;stroke-opacity:1" />
          <path
             sodipodi:nodetypes="cc"
             id="path4614"
             d="M 231.00867,202.16401 C 223.5664,209.31669 226.10018,213.75686 227.23434,218.79081"
             style="opacity:1;fill:none;fill-rule:evenodd;stroke:black;stroke-width:3;stroke-linecap:round;stroke-linejoin:round;stroke-miterlimit:4;stroke-dasharray:none;stroke-opacity:1" />
          <path
             sodipodi:nodetypes="cc"
             id="path4616"
             d="M 85.272089,243.80509 C 114.56114,247.36374 138.46181,237.43514 166.77721,233.02384"
             style="fill:none;fill-rule:evenodd;stroke:black;stroke-width:3;stroke-linecap:round;stroke-linejoin:round;stroke-miterlimit:4;stroke-dasharray:none;stroke-opacity:1" />
          <path
             sodipodi:nodetypes="cc"
             id="path3721"
             d="M 221.817,200.1989 C 211.65438,209.96608 220.09374,214.67534 218.16979,222.74532"
             style="fill:none;fill-rule:evenodd;stroke:black;stroke-width:3;stroke-linecap:round;stroke-linejoin:round;stroke-miterlimit:4;stroke-dasharray:none;stroke-opacity:1" />
          <path
             sodipodi:nodetypes="cc"
             id="path4610"
             d="M 211.7779,197.21482 C 204.33563,204.3675 206.86941,208.80767 208.00357,213.84162"
             style="fill:none;fill-rule:evenodd;stroke:black;stroke-width:3;stroke-linecap:round;stroke-linejoin:round;stroke-miterlimit:4;stroke-dasharray:none;stroke-opacity:1" />
        </g>
        <g
           id="g6868">
          <path
             transform="matrix(0.423307,-7.464056e-2,6.545689e-2,0.371225,40.96654,179.3759)"
             sodipodi:nodetypes="ccccc"
             id="path6678"
             d="M 210.6234,82.838422 L 201.35259,95.684746 L 181.98933,96.096953 L 189.40109,82.889875 L 210.6234,82.838422 z "
             style="opacity:1;fill:none;fill-opacity:1;stroke:black;stroke-width:7.45289183;stroke-linejoin:round;stroke-miterlimit:4;stroke-opacity:1" />
          <g
             id="g6818">
            <path
               style="fill:none;fill-opacity:1;stroke:black;stroke-width:7.45289183;stroke-linejoin:round;stroke-miterlimit:4;stroke-opacity:1"
               d="M 207.44547,85.481148 L 188.6767,105.01348 L 165.43554,102.26928 L 181.6774,82.251904 L 207.44547,85.481148 z "
               id="path3670"
               sodipodi:nodetypes="ccccc"
               transform="matrix(0.428202,3.746278e-2,-3.28535e-2,0.375517,114.0124,155.4992)" />
            <g
               id="g6770">
              <path
                 transform="matrix(0.423307,-7.464056e-2,6.545689e-2,0.371225,55.95929,177.4667)"
                 sodipodi:nodetypes="ccccc"
                 id="rect3663"
                 d="M 210.6234,82.838422 L 198.91982,97.090287 L 179.75035,95.200188 L 188.55364,81.641335 L 210.6234,82.838422 z "
                 style="fill:none;fill-opacity:1;stroke:black;stroke-width:7.45289183;stroke-linejoin:round;stroke-miterlimit:4;stroke-opacity:1" />
              <path
                 transform="matrix(0.428202,-3.746289e-2,3.285342e-2,0.375517,74.48056,168.529)"
                 sodipodi:nodetypes="ccccc"
                 id="path3666"
                 d="M 208.21444,82.177093 L 194.09884,97.644747 L 175.24509,97.237084 L 187.29861,82.159123 L 208.21444,82.177093 z "
                 style="fill:none;fill-opacity:1;stroke:black;stroke-width:7.45289183;stroke-linejoin:round;stroke-miterlimit:4;stroke-opacity:1" />
              <path
                 transform="matrix(0.429838,-6.903716e-8,-6.023119e-8,0.376951,95.74643,161.3167)"
                 sodipodi:nodetypes="ccccc"
                 id="path3668"
                 d="M 202.20167,81.485189 L 185.34304,99.738962 L 166.82095,98.701603 L 181.87014,80.531656 L 202.20167,81.485189 z "
                 style="fill:none;fill-opacity:1;stroke:black;stroke-width:7.45289183;stroke-linejoin:round;stroke-miterlimit:4;stroke-opacity:1" />
              <path
                 transform="matrix(0.428202,3.746278e-2,-3.28535e-2,0.375517,98.40161,168.4516)"
                 sodipodi:nodetypes="ccccc"
                 id="path3672"
                 d="M 212.02823,79.253366 L 194.16681,98.070829 L 176.52348,95.90974 L 192.0849,76.250238 L 212.02823,79.253366 z "
                 style="fill:none;fill-opacity:1;stroke:black;stroke-width:7.45289183;stroke-linejoin:round;stroke-miterlimit:4;stroke-opacity:1" />
              <path
                 transform="matrix(0.429838,-6.903716e-8,-6.023119e-8,0.376951,79.4996,174.4759)"
                 sodipodi:nodetypes="ccccc"
                 id="path3674"
                 d="M 214.77758,77.966803 L 201.02382,92.853101 L 184.33659,91.664831 L 197.00549,76.3913 L 214.77758,77.966803 z "
                 style="fill:none;fill-opacity:1;stroke:black;stroke-width:7.45289183;stroke-linejoin:round;stroke-miterlimit:4;stroke-opacity:1" />
              <path
                 transform="matrix(0.428202,3.746278e-2,-3.28535e-2,0.375517,83.4527,180.8451)"
                 sodipodi:nodetypes="ccccc"
                 id="path3680"
                 d="M 216.91745,74.063954 L 201.10659,91.062427 L 186.16724,89.180179 L 200.36672,71.088104 L 216.91745,74.063954 z "
                 style="fill:none;fill-opacity:1;stroke:black;stroke-width:7.45289183;stroke-linejoin:round;stroke-miterlimit:4;stroke-opacity:1" />
              <path
                 transform="matrix(0.429838,-6.903716e-8,-6.023119e-8,0.376951,65.73965,189.8841)"
                 sodipodi:nodetypes="ccccc"
                 id="path3690"
                 d="M 222.51871,64.817048 L 207.26096,80.827627 L 194.11108,78.6843 L 206.96713,63.16609 L 222.51871,64.817048 z "
                 style="fill:none;fill-opacity:1;stroke:black;stroke-width:7.45289183;stroke-linejoin:round;stroke-miterlimit:4;stroke-opacity:1" />
              <path
                 transform="matrix(0.428202,-3.746289e-2,3.285342e-2,0.375517,65.76489,179.0278)"
                 sodipodi:nodetypes="ccccc"
                 id="path3694"
                 d="M 209.11025,84.161681 L 194.90404,98.973765 L 180.20762,97.290686 L 191.12057,83.164758 L 209.11025,84.161681 z "
                 style="fill:none;fill-opacity:1;stroke:black;stroke-width:7.45289183;stroke-linejoin:round;stroke-miterlimit:4;stroke-opacity:1" />
              <path
                 transform="matrix(0.429838,-6.903716e-8,-6.023119e-8,0.376951,51.93825,190.1249)"
                 sodipodi:nodetypes="ccccc"
                 id="path4591"
                 d="M 224.15503,62.147002 L 212.71539,76.580558 L 202.10555,75.498999 L 210.5593,62.361951 L 224.15503,62.147002 z "
                 style="fill:none;fill-opacity:1;stroke:black;stroke-width:7.45289183;stroke-linejoin:round;stroke-miterlimit:4;stroke-opacity:1" />
              <path
                 transform="matrix(0.423307,-7.464056e-2,6.545689e-2,0.371225,26.54775,181.3688)"
                 sodipodi:nodetypes="ccccc"
                 id="path6680"
                 d="M 210.43397,84.06346 L 202.77463,97.233795 L 183.35281,98.766551 L 190.03926,86.360982 L 210.43397,84.06346 z "
                 style="opacity:1;fill:none;fill-opacity:1;stroke:black;stroke-width:7.45289183;stroke-linejoin:round;stroke-miterlimit:4;stroke-opacity:1" />
              <path
                 transform="matrix(0.423307,-7.464056e-2,6.545689e-2,0.371225,12.7737,184.5925)"
                 sodipodi:nodetypes="ccccc"
                 id="path6682"
                 d="M 208.90164,85.018488 L 202.77463,97.233795 L 183.35281,98.766551 L 190.01837,86.803363 L 208.90164,85.018488 z "
                 style="opacity:1;fill:none;fill-opacity:1;stroke:black;stroke-width:7.45289183;stroke-linejoin:round;stroke-miterlimit:4;stroke-opacity:1" />
              <path
                 transform="matrix(0.423307,-7.464056e-2,6.545689e-2,0.371225,-0.765893,186.8784)"
                 sodipodi:nodetypes="ccccc"
                 id="path6684"
                 d="M 207.98563,87.360559 L 201.19495,98.495083 L 183.35281,98.766551 L 190.11841,87.640021 L 207.98563,87.360559 z "
                 style="opacity:1;fill:none;fill-opacity:1;stroke:black;stroke-width:7.45289183;stroke-linejoin:round;stroke-miterlimit:4;stroke-opacity:1" />
              <path
                 transform="matrix(0.423307,-7.464056e-2,6.545689e-2,0.371225,-14.36411,189.2816)"
                 sodipodi:nodetypes="ccccc"
                 id="path6686"
                 d="M 207.98563,87.360559 L 201.28967,97.882564 L 183.54224,97.541513 L 190.11841,87.640021 L 207.98563,87.360559 z "
                 style="opacity:1;fill:none;fill-opacity:1;stroke:black;stroke-width:7.45289183;stroke-linejoin:round;stroke-miterlimit:4;stroke-opacity:1" />
              <path
                 transform="matrix(0.423307,-7.464056e-2,6.545689e-2,0.371225,-27.58026,191.4323)"
                 sodipodi:nodetypes="ccccc"
                 id="path6688"
                 d="M 207.98563,87.360559 L 200.97681,97.373077 L 181.50916,98.025895 L 190.11841,87.640021 L 207.98563,87.360559 z "
                 style="opacity:1;fill:none;fill-opacity:1;stroke:black;stroke-width:7.45289183;stroke-linejoin:round;stroke-miterlimit:4;stroke-opacity:1" />
              <path
                 transform="matrix(0.423307,-7.464056e-2,6.545689e-2,0.371225,-41.42311,193.5875)"
                 sodipodi:nodetypes="ccccc"
                 id="path6702"
                 d="M 207.98563,87.360559 L 200.97681,97.373077 L 183.29636,96.598911 L 190.11841,87.640021 L 207.98563,87.360559 z "
                 style="opacity:1;fill:none;fill-opacity:1;stroke:black;stroke-width:7.45289183;stroke-linejoin:round;stroke-miterlimit:4;stroke-opacity:1" />
              <path
                 transform="matrix(0.423307,-7.464056e-2,6.545689e-2,0.371225,-54.51993,195.4111)"
                 sodipodi:nodetypes="ccccc"
                 id="path6704"
                 d="M 207.98563,87.360559 L 200.97681,97.373077 L 183.29636,96.598911 L 190.11841,87.640021 L 207.98563,87.360559 z "
                 style="opacity:1;fill:none;fill-opacity:1;stroke:black;stroke-width:7.45289183;stroke-linejoin:round;stroke-miterlimit:4;stroke-opacity:1" />
              <path
                 transform="matrix(0.423307,-7.464056e-2,6.545689e-2,0.371225,-67.78253,197.2347)"
                 sodipodi:nodetypes="ccccc"
                 id="path6706"
                 d="M 207.98563,87.360559 L 200.97681,97.373077 L 183.29636,96.598911 L 190.11841,87.640021 L 207.98563,87.360559 z "
                 style="opacity:1;fill:none;fill-opacity:1;stroke:black;stroke-width:7.45289183;stroke-linejoin:round;stroke-miterlimit:4;stroke-opacity:1" />
              <path
                 transform="matrix(0.423307,-7.464056e-2,6.545689e-2,0.371225,-80.87935,198.7268)"
                 sodipodi:nodetypes="ccccc"
                 id="path6708"
                 d="M 207.98563,87.360559 L 200.97681,97.373077 L 183.29636,96.598911 L 190.11841,87.640021 L 207.98563,87.360559 z "
                 style="opacity:1;fill:none;fill-opacity:1;stroke:black;stroke-width:7.45289183;stroke-linejoin:round;stroke-miterlimit:4;stroke-opacity:1" />
              <path
                 transform="matrix(0.423307,-7.464056e-2,6.545689e-2,0.371225,-94.14195,200.0531)"
                 sodipodi:nodetypes="ccccc"
                 id="path6710"
                 d="M 207.98563,87.360559 L 200.97681,97.373077 L 183.29636,96.598911 L 190.11841,87.640021 L 207.98563,87.360559 z "
                 style="opacity:1;fill:none;fill-opacity:1;stroke:black;stroke-width:7.45289183;stroke-linejoin:round;stroke-miterlimit:4;stroke-opacity:1" />
              <path
                 transform="matrix(0.423307,-7.464056e-2,6.545689e-2,0.371225,-107.5704,201.545)"
                 sodipodi:nodetypes="ccccc"
                 id="path6712"
                 d="M 207.98563,87.360559 L 200.97681,97.373077 L 183.29636,96.598911 L 189.87253,86.697418 L 207.98563,87.360559 z "
                 style="opacity:1;fill:none;fill-opacity:1;stroke:black;stroke-width:7.45289183;stroke-linejoin:round;stroke-miterlimit:4;stroke-opacity:1" />
              <path
                 transform="matrix(0.423307,-7.464056e-2,6.545689e-2,0.371225,-120.1698,202.8713)"
                 sodipodi:nodetypes="ccccc"
                 id="path6714"
                 d="M 207.98563,87.360559 L 200.97681,97.373077 L 183.63123,94.43333 L 190.45328,85.47444 L 207.98563,87.360559 z "
                 style="opacity:1;fill:none;fill-opacity:1;stroke:black;stroke-width:7.45289183;stroke-linejoin:round;stroke-miterlimit:4;stroke-opacity:1" />
              <path
                 transform="matrix(0.423307,-7.464056e-2,6.545689e-2,0.371225,-132.6035,202.6226)"
                 sodipodi:nodetypes="ccccc"
                 id="path6716"
                 d="M 207.98563,87.360559 L 200.97681,97.373077 L 183.9661,92.267749 L 190.78815,83.308859 L 207.98563,87.360559 z "
                 style="opacity:1;fill:none;fill-opacity:1;stroke:black;stroke-width:7.45289183;stroke-linejoin:round;stroke-miterlimit:4;stroke-opacity:1" />
              <path
                 transform="matrix(0.423307,-7.464056e-2,6.545689e-2,0.371225,-144.8714,201.1767)"
                 sodipodi:nodetypes="ccccc"
                 id="path6718"
                 d="M 207.98563,87.360559 L 200.97681,97.373077 L 185.44045,90.331279 L 191.63679,80.353416 L 207.98563,87.360559 z "
                 style="opacity:1;fill:none;fill-opacity:1;stroke:black;stroke-width:7.45289183;stroke-linejoin:round;stroke-miterlimit:4;stroke-opacity:1" />
              <path
                 transform="matrix(0.423307,-7.464056e-2,6.545689e-2,0.371225,-156.4762,198.0269)"
                 sodipodi:nodetypes="ccccc"
                 id="path6720"
                 d="M 207.98563,87.360559 L 200.97681,97.373077 L 186.28909,87.375836 L 191.45789,78.977697 L 207.98563,87.360559 z "
                 style="opacity:1;fill:none;fill-opacity:1;stroke:black;stroke-width:7.45289183;stroke-linejoin:round;stroke-miterlimit:4;stroke-opacity:1" />
              <path
                 transform="matrix(0.423307,-7.464056e-2,6.545689e-2,0.371225,-167.5836,193.7166)"
                 sodipodi:nodetypes="ccccc"
                 id="path6722"
                 d="M 207.58379,89.959256 L 200.97681,97.373077 L 187.42858,87.604946 L 192.21754,79.130437 L 207.58379,89.959256 z "
                 style="opacity:1;fill:none;fill-opacity:1;stroke:black;stroke-width:7.45289183;stroke-linejoin:round;stroke-miterlimit:4;stroke-opacity:1" />
              <path
                 transform="matrix(0.423307,-7.464056e-2,6.545689e-2,0.371225,-178.3594,189.0746)"
                 sodipodi:nodetypes="ccccc"
                 id="path6724"
                 d="M 207.65076,89.52614 L 201.98234,98.46842 L 191.025,82.075911 L 196.19379,73.677772 L 207.65076,89.52614 z "
                 style="opacity:1;fill:none;fill-opacity:1;stroke:black;stroke-width:7.45289183;stroke-linejoin:round;stroke-miterlimit:4;stroke-opacity:1" />
              <path
                 transform="matrix(0.423307,-7.464056e-2,6.545689e-2,0.371225,-187.4775,180.6197)"
                 sodipodi:nodetypes="ccccc"
                 id="path6726"
                 d="M 207.65076,89.52614 L 201.71445,100.20088 L 192.83422,77.97386 L 198.69569,70.161577 L 207.65076,89.52614 z "
                 style="opacity:1;fill:none;fill-opacity:1;stroke:black;stroke-width:7.45289183;stroke-linejoin:round;stroke-miterlimit:4;stroke-opacity:1" />
              <path
                 transform="matrix(0.423307,-7.464056e-2,6.545689e-2,0.371225,-195.3522,169.2636)"
                 sodipodi:nodetypes="ccccc"
                 id="path6728"
                 d="M 208.27647,90.545113 L 201.06672,101.85698 L 197.34719,76.648351 L 205.06283,66.975968 L 208.27647,90.545113 z "
                 style="opacity:1;fill:none;fill-opacity:1;stroke:black;stroke-width:7.45289183;stroke-linejoin:round;stroke-miterlimit:4;stroke-opacity:1" />
              <path
                 transform="matrix(0.428202,-3.746289e-2,3.285342e-2,0.375517,51.59704,179.4892)"
                 sodipodi:nodetypes="ccccc"
                 id="path6730"
                 d="M 209.87869,84.238343 L 198.77984,98.91895 L 184.75102,98.626907 L 192.52299,85.07058 L 209.87869,84.238343 z "
                 style="opacity:1;fill:none;fill-opacity:1;stroke:black;stroke-width:7.45289183;stroke-linejoin:round;stroke-miterlimit:4;stroke-opacity:1" />
              <path
                 transform="matrix(0.428202,-3.746289e-2,3.285342e-2,0.375517,39.49491,180.3022)"
                 sodipodi:nodetypes="ccccc"
                 id="path6734"
                 d="M 207.89037,84.922937 L 200.41756,97.7579 L 183.94897,98.98837 L 189.28116,86.954555 L 207.89037,84.922937 z "
                 style="opacity:1;fill:none;fill-opacity:1;stroke:black;stroke-width:7.45289183;stroke-linejoin:round;stroke-miterlimit:4;stroke-opacity:1" />
              <path
                 transform="matrix(0.428202,-3.746289e-2,3.285342e-2,0.375517,26.14942,183.6178)"
                 sodipodi:nodetypes="ccccc"
                 id="path6736"
                 d="M 206.90579,82.617321 L 201.80552,94.806021 L 183.69921,97.197541 L 188.64718,85.125395 L 206.90579,82.617321 z "
                 style="opacity:1;fill:none;fill-opacity:1;stroke:black;stroke-width:7.45289183;stroke-linejoin:round;stroke-miterlimit:4;stroke-opacity:1" />
              <path
                 transform="matrix(0.428202,-3.746289e-2,3.285342e-2,0.375517,12.22369,187.0164)"
                 sodipodi:nodetypes="ccccc"
                 id="path6738"
                 d="M 208.50989,81.894396 L 203.47685,93.206847 L 184.21788,95.483374 L 188.64718,85.125395 L 208.50989,81.894396 z "
                 style="opacity:1;fill:none;fill-opacity:1;stroke:black;stroke-width:7.45289183;stroke-linejoin:round;stroke-miterlimit:4;stroke-opacity:1" />
              <path
                 transform="matrix(0.428202,-3.746289e-2,3.285342e-2,0.375517,-1.370474,190.1662)"
                 sodipodi:nodetypes="ccccc"
                 id="path6742"
                 d="M 207.07386,80.426698 L 202.91009,90.501438 L 184.10258,91.940046 L 188.11404,81.981861 L 207.07386,80.426698 z "
                 style="opacity:1;fill:none;fill-opacity:1;stroke:black;stroke-width:7.45289183;stroke-linejoin:round;stroke-miterlimit:4;stroke-opacity:1" />
              <path
                 transform="matrix(0.428202,-3.746289e-2,3.285342e-2,0.375517,-15.29621,192.5701)"
                 sodipodi:nodetypes="ccccc"
                 id="path6744"
                 d="M 207.07386,80.426698 L 202.91009,90.501438 L 182.98354,91.386928 L 188.11404,81.981861 L 207.07386,80.426698 z "
                 style="opacity:1;fill:none;fill-opacity:1;stroke:black;stroke-width:7.45289183;stroke-linejoin:round;stroke-miterlimit:4;stroke-opacity:1" />
              <path
                 transform="matrix(0.428202,-3.746289e-2,3.285342e-2,0.375517,-29.30483,194.9739)"
                 sodipodi:nodetypes="ccccc"
                 id="path6746"
                 d="M 207.07386,80.426698 L 202.17527,89.986651 L 182.98354,91.386928 L 188.11404,81.981861 L 207.07386,80.426698 z "
                 style="opacity:1;fill:none;fill-opacity:1;stroke:black;stroke-width:7.45289183;stroke-linejoin:round;stroke-miterlimit:4;stroke-opacity:1" />
              <path
                 transform="matrix(0.428202,-3.746289e-2,3.285342e-2,0.375517,-42.89899,197.2948)"
                 sodipodi:nodetypes="ccccc"
                 id="path6748"
                 d="M 207.07386,80.426698 L 201.44044,89.471865 L 183.85282,90.149216 L 189.71814,81.258936 L 207.07386,80.426698 z "
                 style="opacity:1;fill:none;fill-opacity:1;stroke:black;stroke-width:7.45289183;stroke-linejoin:round;stroke-miterlimit:4;stroke-opacity:1" />
              <path
                 transform="matrix(0.428202,-3.746289e-2,3.285342e-2,0.375517,-56.32738,198.704)"
                 sodipodi:nodetypes="ccccc"
                 id="path6750"
                 d="M 207.07386,80.426698 L 201.44044,89.471865 L 183.85282,90.149216 L 189.71814,81.258936 L 207.07386,80.426698 z "
                 style="opacity:1;fill:none;fill-opacity:1;stroke:black;stroke-width:7.45289183;stroke-linejoin:round;stroke-miterlimit:4;stroke-opacity:1" />
              <path
                 transform="matrix(0.428202,-3.746289e-2,3.285342e-2,0.375517,-69.4242,200.5276)"
                 sodipodi:nodetypes="ccccc"
                 id="path6752"
                 d="M 207.07386,80.426698 L 201.44044,89.471865 L 183.85282,90.149216 L 189.71814,81.258936 L 207.07386,80.426698 z "
                 style="opacity:1;fill:none;fill-opacity:1;stroke:black;stroke-width:7.45289183;stroke-linejoin:round;stroke-miterlimit:4;stroke-opacity:1" />
              <path
                 transform="matrix(0.428202,-3.746289e-2,3.285342e-2,0.375517,-82.85258,202.0197)"
                 sodipodi:nodetypes="ccccc"
                 id="path6754"
                 d="M 207.07386,80.426698 L 201.44044,89.471865 L 183.85282,90.149216 L 189.71814,81.258936 L 207.07386,80.426698 z "
                 style="opacity:1;fill:none;fill-opacity:1;stroke:black;stroke-width:7.45289183;stroke-linejoin:round;stroke-miterlimit:4;stroke-opacity:1" />
              <path
                 transform="matrix(0.428202,-3.746289e-2,3.285342e-2,0.375517,-96.28097,203.3459)"
                 sodipodi:nodetypes="ccccc"
                 id="path6756"
                 d="M 207.07386,80.426698 L 201.44044,89.471865 L 183.85282,90.149216 L 189.71814,81.258936 L 207.07386,80.426698 z "
                 style="opacity:1;fill:none;fill-opacity:1;stroke:black;stroke-width:7.45289183;stroke-linejoin:round;stroke-miterlimit:4;stroke-opacity:1" />
              <path
                 transform="matrix(0.428202,-3.746289e-2,3.285342e-2,0.375517,-109.8751,204.6722)"
                 sodipodi:nodetypes="ccccc"
                 id="path6758"
                 d="M 207.07386,80.426698 L 201.44044,89.471865 L 183.85282,90.149216 L 189.71814,81.258936 L 207.07386,80.426698 z "
                 style="opacity:1;fill:none;fill-opacity:1;stroke:black;stroke-width:7.45289183;stroke-linejoin:round;stroke-miterlimit:4;stroke-opacity:1" />
              <path
                 transform="matrix(0.429838,-6.903716e-8,-6.023119e-8,0.376951,39.2738,190.6684)"
                 sodipodi:nodetypes="ccccc"
                 id="path6760"
                 d="M 228.78326,60.387809 L 220.04343,73.06217 L 207.89084,75.059201 L 214.41616,61.482355 L 228.78326,60.387809 z "
                 style="opacity:1;fill:none;fill-opacity:1;stroke:black;stroke-width:7.45289183;stroke-linejoin:round;stroke-miterlimit:4;stroke-opacity:1" />
              <path
                 transform="matrix(0.429838,-6.903716e-8,-6.023119e-8,0.376951,30.65311,191)"
                 sodipodi:nodetypes="ccccc"
                 id="path6762"
                 d="M 222.2266,61.267404 L 216.57226,73.501968 L 202.87692,76.378596 L 207.47381,64.121145 L 222.2266,61.267404 z "
                 style="opacity:1;fill:none;fill-opacity:1;stroke:black;stroke-width:7.45289183;stroke-linejoin:round;stroke-miterlimit:4;stroke-opacity:1" />
              <path
                 transform="matrix(0.429838,-6.903716e-8,-6.023119e-8,0.376951,18.88256,193.2381)"
                 sodipodi:nodetypes="ccccc"
                 id="path6764"
                 d="M 222.2266,61.267404 L 218.115,73.06217 L 200.94849,77.258192 L 204.38832,65.000742 L 222.2266,61.267404 z "
                 style="opacity:1;fill:none;fill-opacity:1;stroke:black;stroke-width:7.45289183;stroke-linejoin:round;stroke-miterlimit:4;stroke-opacity:1" />
              <path
                 transform="matrix(0.429838,-6.903716e-8,-6.023119e-8,0.376951,5.951516,195.8906)"
                 sodipodi:nodetypes="ccccc"
                 id="path6766"
                 d="M 221.45523,61.267404 L 218.115,72.182573 L 200.56281,75.059199 L 203.61694,65.000742 L 221.45523,61.267404 z "
                 style="opacity:1;fill:none;fill-opacity:1;stroke:black;stroke-width:7.45289183;stroke-linejoin:round;stroke-miterlimit:4;stroke-opacity:1" />
              <path
                 transform="matrix(0.429838,-6.903716e-8,-6.023119e-8,0.376951,-7.311086,197.5484)"
                 sodipodi:nodetypes="ccccc"
                 id="path6768"
                 d="M 221.45523,61.267404 L 218.115,72.182573 L 200.17712,75.059199 L 203.61694,65.000742 L 221.45523,61.267404 z "
                 style="opacity:1;fill:none;fill-opacity:1;stroke:black;stroke-width:7.45289183;stroke-linejoin:round;stroke-miterlimit:4;stroke-opacity:1" />
            </g>
          </g>
        </g>
      </g>
    </g>
  </g>
</svg>
