<?xml version="1.0" encoding="UTF-8" standalone="no"?>
<!-- Created with Inkscape (http://www.inkscape.org/) -->

<svg
   xmlns:dc="http://purl.org/dc/elements/1.1/"
   xmlns:cc="http://creativecommons.org/ns#"
   xmlns:rdf="http://www.w3.org/1999/02/22-rdf-syntax-ns#"
   xmlns:svg="http://www.w3.org/2000/svg"
   xmlns="http://www.w3.org/2000/svg"
   xmlns:xlink="http://www.w3.org/1999/xlink"
   xmlns:sodipodi="http://sodipodi.sourceforge.net/DTD/sodipodi-0.dtd"
   xmlns:inkscape="http://www.inkscape.org/namespaces/inkscape"
   width="29.842154"
   height="25.03125"
   id="svg1306"
   sodipodi:version="0.32"
   inkscape:version="0.48.1 r9760"
   sodipodi:docname="internet.svg"
   inkscape:output_extension="org.inkscape.output.svg.inkscape"
   version="1.1">
  <defs
     id="defs1308">
    <linearGradient
       id="linearGradient3423">
      <stop
         style="stop-color:#c4c5c2;stop-opacity:1;"
         offset="0"
         id="stop3425" />
      <stop
         style="stop-color:#ffffff;stop-opacity:1;"
         offset="1"
         id="stop3427" />
    </linearGradient>
    <inkscape:perspective
       sodipodi:type="inkscape:persp3d"
       inkscape:vp_x="0 : 24 : 1"
       inkscape:vp_y="0 : 1000 : 0"
       inkscape:vp_z="48 : 24 : 1"
       inkscape:persp3d-origin="24 : 16 : 1"
       id="perspective108" />
    <linearGradient
       inkscape:collect="always"
       xlink:href="#linearGradient6538"
       id="linearGradient6724"
       gradientUnits="userSpaceOnUse"
       x1="284.80219"
       y1="-441.23294"
       x2="288.89954"
       y2="-436.83109" />
    <linearGradient
       inkscape:collect="always"
       xlink:href="#linearGradient6549"
       id="linearGradient6722"
       gradientUnits="userSpaceOnUse"
       x1="286.66589"
       y1="-439.48358"
       x2="289.76562"
       y2="-436.70703" />
    <linearGradient
       inkscape:collect="always"
       xlink:href="#linearGradient6527"
       id="linearGradient6720"
       gradientUnits="userSpaceOnUse"
       x1="275.94193"
       y1="-437.10501"
       x2="279.97546"
       y2="-431.91833" />
    <linearGradient
       inkscape:collect="always"
       xlink:href="#linearGradient6538"
       id="linearGradient6718"
       gradientUnits="userSpaceOnUse"
       x1="285.94086"
       y1="-439.939"
       x2="289.39124"
       y2="-436.4429" />
    <linearGradient
       inkscape:collect="always"
       xlink:href="#linearGradient6513"
       id="linearGradient6716"
       gradientUnits="userSpaceOnUse"
       x1="286.51172"
       y1="-441.29074"
       x2="289.85379"
       y2="-436.14453" />
    <linearGradient
       inkscape:collect="always"
       xlink:href="#linearGradient6497"
       id="linearGradient6714"
       gradientUnits="userSpaceOnUse"
       x1="287.5173"
       y1="-439.75281"
       x2="289.67633"
       y2="-436.32199" />
    <linearGradient
       inkscape:collect="always"
       xlink:href="#linearGradient6470"
       id="linearGradient6712"
       gradientUnits="userSpaceOnUse"
       x1="271.0217"
       y1="-441.05182"
       x2="285.02859"
       y2="-431.96991" />
    <linearGradient
       inkscape:collect="always"
       id="linearGradient6549">
      <stop
         style="stop-color: rgb(255, 255, 255); stop-opacity: 1;"
         offset="0"
         id="stop6551" />
      <stop
         style="stop-color: rgb(255, 255, 255); stop-opacity: 0;"
         offset="1"
         id="stop6553" />
    </linearGradient>
    <linearGradient
       inkscape:collect="always"
       id="linearGradient6527">
      <stop
         style="stop-color: rgb(255, 255, 255); stop-opacity: 1;"
         offset="0"
         id="stop6530" />
      <stop
         style="stop-color: rgb(255, 255, 255); stop-opacity: 0;"
         offset="1"
         id="stop6532" />
    </linearGradient>
    <linearGradient
       inkscape:collect="always"
       id="linearGradient6538">
      <stop
         style="stop-color: rgb(255, 255, 255); stop-opacity: 1;"
         offset="0"
         id="stop6540" />
      <stop
         style="stop-color: rgb(255, 255, 255); stop-opacity: 0;"
         offset="1"
         id="stop6542" />
    </linearGradient>
    <linearGradient
       inkscape:collect="always"
       id="linearGradient6513">
      <stop
         style="stop-color: rgb(255, 255, 255); stop-opacity: 1;"
         offset="0"
         id="stop6515" />
      <stop
         style="stop-color: rgb(255, 255, 255); stop-opacity: 0;"
         offset="1"
         id="stop6517" />
    </linearGradient>
    <linearGradient
       inkscape:collect="always"
       id="linearGradient6497">
      <stop
         style="stop-color: rgb(255, 255, 255); stop-opacity: 1;"
         offset="0"
         id="stop6499" />
      <stop
         style="stop-color: rgb(255, 255, 255); stop-opacity: 0;"
         offset="1"
         id="stop6501" />
    </linearGradient>
    <linearGradient
       inkscape:collect="always"
       id="linearGradient6470">
      <stop
         style="stop-color: rgb(255, 255, 255); stop-opacity: 1;"
         offset="0"
         id="stop6472" />
      <stop
         style="stop-color: rgb(255, 255, 255); stop-opacity: 0;"
         offset="1"
         id="stop6474" />
    </linearGradient>
    <linearGradient
       id="linearGradient4083">
      <stop
         id="stop4085"
         offset="0"
         style="stop-color: rgb(255, 255, 255); stop-opacity: 0;" />
      <stop
         style="stop-color: rgb(255, 255, 255); stop-opacity: 0;"
         offset="0.75"
         id="stop4089" />
      <stop
         id="stop4087"
         offset="1"
         style="stop-color: rgb(255, 255, 255); stop-opacity: 1;" />
    </linearGradient>
    <linearGradient
       id="linearGradient4032">
      <stop
         id="stop4034"
         offset="0"
         style="stop-color: rgb(255, 247, 194); stop-opacity: 0.638298;" />
      <stop
         style="stop-color: rgb(252, 175, 62); stop-opacity: 0.183486;"
         offset="0.59394139"
         id="stop4036" />
      <stop
         id="stop4038"
         offset="0.83850551"
         style="stop-color: rgb(252, 175, 62); stop-opacity: 0.504587;" />
      <stop
         id="stop4040"
         offset="1"
         style="stop-color: rgb(252, 175, 62); stop-opacity: 1;" />
    </linearGradient>
    <linearGradient
       id="linearGradient4026">
      <stop
         id="stop4028"
         offset="0"
         style="stop-color: rgb(255, 249, 198); stop-opacity: 1;" />
      <stop
         style="stop-color: rgb(255, 242, 140); stop-opacity: 1;"
         offset="0.54166669"
         id="stop4042" />
      <stop
         id="stop4030"
         offset="1"
         style="stop-color: rgb(255, 234, 133); stop-opacity: 1;" />
    </linearGradient>
    <linearGradient
       inkscape:collect="always"
       xlink:href="#linearGradient3423"
       id="linearGradient3429"
       x1="288.74301"
       y1="-426.69427"
       x2="268.49991"
       y2="-442.10974"
       gradientUnits="userSpaceOnUse" />
    <linearGradient
       inkscape:collect="always"
       xlink:href="#linearGradient6527"
       id="linearGradient3437"
       gradientUnits="userSpaceOnUse"
       x1="275.94193"
       y1="-437.10501"
       x2="279.97546"
       y2="-431.91833"
       gradientTransform="translate(-0.1422968,-0.569187)" />
    <linearGradient
       inkscape:collect="always"
       xlink:href="#linearGradient6513"
       id="linearGradient3445"
       gradientUnits="userSpaceOnUse"
       x1="286.51172"
       y1="-441.29074"
       x2="289.85379"
       y2="-436.14453" />
    <linearGradient
       inkscape:collect="always"
       xlink:href="#linearGradient6538"
       id="linearGradient3453"
       gradientUnits="userSpaceOnUse"
       x1="284.80219"
       y1="-441.23294"
       x2="288.89954"
       y2="-436.83109" />
    <linearGradient
       inkscape:collect="always"
       xlink:href="#linearGradient6513"
       id="linearGradient3461"
       gradientUnits="userSpaceOnUse"
       x1="286.51172"
       y1="-441.29074"
       x2="289.85379"
       y2="-436.14453" />
    <linearGradient
       inkscape:collect="always"
       xlink:href="#linearGradient6538"
       id="linearGradient3469"
       gradientUnits="userSpaceOnUse"
       x1="285.94086"
       y1="-439.939"
       x2="289.39124"
       y2="-436.4429" />
    <linearGradient
       inkscape:collect="always"
       xlink:href="#linearGradient6527"
       id="linearGradient3477"
       gradientUnits="userSpaceOnUse"
       gradientTransform="translate(-0.1422968,-0.569187)"
       x1="275.94193"
       y1="-437.10501"
       x2="279.97546"
       y2="-431.91833" />
    <linearGradient
       inkscape:collect="always"
       xlink:href="#linearGradient6527"
       id="linearGradient3485"
       gradientUnits="userSpaceOnUse"
       gradientTransform="translate(-0.1422968,-0.569187)"
       x1="275.94193"
       y1="-437.10501"
       x2="279.97546"
       y2="-431.91833" />
    <linearGradient
       inkscape:collect="always"
       xlink:href="#linearGradient6497"
       id="linearGradient3493"
       gradientUnits="userSpaceOnUse"
       x1="287.5173"
       y1="-439.75281"
       x2="289.67633"
       y2="-436.32199" />
    <linearGradient
       inkscape:collect="always"
       xlink:href="#linearGradient6538"
       id="linearGradient3501"
       gradientUnits="userSpaceOnUse"
       x1="284.80219"
       y1="-441.23294"
       x2="288.89954"
       y2="-436.83109" />
    <linearGradient
       inkscape:collect="always"
       xlink:href="#linearGradient6538"
       id="linearGradient3509"
       gradientUnits="userSpaceOnUse"
       x1="284.80219"
       y1="-441.23294"
       x2="288.89954"
       y2="-436.83109" />
  </defs>
  <sodipodi:namedview
     id="base"
     pagecolor="#ffffff"
     bordercolor="#666666"
     borderopacity="1.0"
     inkscape:pageopacity="0.0"
     inkscape:pageshadow="2"
     inkscape:zoom="14.90772"
     inkscape:cx="27.060727"
     inkscape:cy="7.948842"
     inkscape:current-layer="g6668"
     showgrid="true"
     inkscape:grid-bbox="true"
     inkscape:document-units="px"
     inkscape:window-width="1440"
     inkscape:window-height="823"
     inkscape:window-x="0"
     inkscape:window-y="24"
     inkscape:showpageshadow="false"
     fit-margin-top="0"
     fit-margin-left="0"
     fit-margin-right="0"
     fit-margin-bottom="0"
     inkscape:window-maximized="1" />
  <metadata
     id="metadata1311">
    <rdf:RDF>
      <cc:Work
         rdf:about="">
        <dc:format>image/svg+xml</dc:format>
        <dc:type
           rdf:resource="http://purl.org/dc/dcmitype/StillImage" />
        <dc:title></dc:title>
        <dc:date>January 2006</dc:date>
        <dc:creator>
          <cc:Agent>
            <dc:title>Ryan Collier (pseudo)</dc:title>
          </cc:Agent>
        </dc:creator>
        <dc:publisher>
          <cc:Agent>
            <dc:title>http://www.tango-project.org</dc:title>
          </cc:Agent>
        </dc:publisher>
        <dc:source>http://www.pseudocode.org</dc:source>
        <dc:subject>
          <rdf:Bag>
            <rdf:li>weather</rdf:li>
            <rdf:li>applet</rdf:li>
            <rdf:li>notification</rdf:li>
          </rdf:Bag>
        </dc:subject>
        <cc:license
           rdf:resource="http://creativecommons.org/licenses/by-sa/2.0/" />
        <dc:contributor>
          <cc:Agent>
            <dc:title>Garrett LeSage</dc:title>
          </cc:Agent>
        </dc:contributor>
      </cc:Work>
      <cc:License
         rdf:about="http://creativecommons.org/licenses/by-sa/2.0/">
        <cc:permits
           rdf:resource="http://web.resource.org/cc/Reproduction" />
        <cc:permits
           rdf:resource="http://web.resource.org/cc/Distribution" />
        <cc:requires
           rdf:resource="http://web.resource.org/cc/Notice" />
        <cc:requires
           rdf:resource="http://web.resource.org/cc/Attribution" />
        <cc:permits
           rdf:resource="http://web.resource.org/cc/DerivativeWorks" />
        <cc:requires
           rdf:resource="http://web.resource.org/cc/ShareAlike" />
      </cc:License>
    </rdf:RDF>
  </metadata>
  <g
     id="layer1"
     inkscape:label="Layer 1"
     inkscape:groupmode="layer"
     transform="translate(-0.45478595,-0.90579)">
    <g
       id="g3936" />
    <g
       id="g2481"
       transform="translate(-265.14056,447.46829)">
      <path
         style="fill:#c4c5c2;fill-opacity:1;stroke:#888a85;stroke-width:1.89999998;stroke-linecap:butt;stroke-linejoin:miter;stroke-miterlimit:2;stroke-opacity:1;stroke-dasharray:none;stroke-dashoffset:0"
         d="m 280.49281,-445.60876 c -2.27083,0 -4.10991,1.55028 -4.71875,3.625 -0.69323,-0.36383 -1.44451,-0.625 -2.28125,-0.625 -2.76,0 -5.00001,2.23999 -5,5 0,0.57893 0.16252,1.1077 0.34375,1.625 -5.4635,4.95793 -0.4573,12.46846 5.46875,9.875 0.60884,2.07472 2.44792,3.625 4.71875,3.625 2.27083,0 4.10991,-1.55028 4.71875,-3.625 0.69323,0.36383 1.44451,0.625 2.28125,0.625 1.70049,0 3.22157,-0.82665 4.125,-2.125 2.41037,-0.0839 4.34375,-2.06928 4.34375,-4.5 0,-1.686 -0.97028,-3.10426 -2.34375,-3.875 0.18124,-0.51729 0.34375,-1.04608 0.34375,-1.625 0,-2.76 -2.24,-4.99999 -5,-5 -0.83674,0 -1.58802,0.26117 -2.28125,0.625 -0.60884,-2.07472 -2.44792,-3.625 -4.71875,-3.625 z"
         id="path2483"
         sodipodi:nodetypes="ccssccscscscsscc"
         inkscape:connector-curvature="0" />
      <path
         style="fill:url(#linearGradient3429);fill-opacity:1;stroke:none"
         d="m 280.49281,-445.60876 c -2.27083,0 -4.10991,1.55028 -4.71875,3.625 -0.69323,-0.36383 -1.44451,-0.625 -2.28125,-0.625 -2.76,0 -5.00001,2.23999 -5,5 0,0.57893 0.16252,1.1077 0.34375,1.625 -4.66713,4.84309 -1.53424,10.48884 3.26566,10.45657 0.70818,-0.005 1.59058,0.10781 2.34539,-0.24954 0.60884,2.07472 2.68508,3.10324 4.95591,3.10324 2.27083,0 3.73045,-1.36055 4.33929,-3.43527 0.69323,0.36383 1.44451,0.625 2.28125,0.625 1.70049,0 3.22158,-0.82665 4.125,-2.125 2.41037,-0.0839 4.34375,-2.06928 4.34375,-4.5 0,-1.686 -0.97028,-3.10426 -2.34375,-3.875 0.18124,-0.51729 0.34375,-1.04608 0.34375,-1.625 0,-2.76 -2.24,-4.99999 -5,-5 -0.83674,0 -1.58802,0.26117 -2.28125,0.625 -0.60884,-2.07472 -2.44792,-3.625 -4.71875,-3.625 z"
         id="path3421"
         sodipodi:nodetypes="ccsscscscscscsscc"
         inkscape:connector-curvature="0" />
    </g>
    <g
       transform="matrix(0.8431087,0,0,0.8431087,-228.68007,383.12709)"
       id="g3471">
      <path
         style="fill:#c4c5c2;fill-opacity:1;stroke:none"
         d="m 280.34208,-441.55218 c -3.57938,0 -6.46875,2.92063 -6.46875,6.5 0.56489,7.86549 12.10561,7.59199 12.96875,-0.0312 0,-3.57938 -2.92063,-6.46875 -6.5,-6.46875 z"
         id="path3473"
         sodipodi:nodetypes="cccc"
         inkscape:connector-curvature="0" />
      <path
         style="fill:url(#linearGradient3477);fill-opacity:1;stroke:none"
         d="m 280.3577,-441.56919 c -3.588,0 -6.5,2.91201 -6.5,6.5 0.53456,7.89285 12.138,7.64545 13,0 0,-3.588 -2.912,-6.49999 -6.5,-6.5 z"
         id="path3475"
         sodipodi:nodetypes="cccc"
         inkscape:connector-curvature="0" />
    </g>
    <g
       id="g6668"
       transform="translate(-272.80099,442.94177)">
      <g
         id="g3439"
         transform="translate(8.006368,3.8993882)">
        <path
           sodipodi:type="arc"
           style="fill:#c4c5c2;fill-opacity:1;stroke:none"
           id="path3441"
           sodipodi:cx="288.375"
           sodipodi:cy="-437.59375"
           sodipodi:rx="3.3125"
           sodipodi:ry="3.3125"
           d="m 291.6875,-437.59375 c 0,1.82944 -1.48306,3.3125 -3.3125,3.3125 -1.82944,0 -3.3125,-1.48306 -3.3125,-3.3125 0,-1.82944 1.48306,-3.3125 3.3125,-3.3125 1.82944,0 3.3125,1.48306 3.3125,3.3125 z"
           transform="matrix(1.0566,0,0,1.0566,-17.1981,24.8632)" />
        <path
           sodipodi:type="arc"
           style="fill:url(#linearGradient3445);fill-opacity:1;stroke:none"
           id="path3443"
           sodipodi:cx="288.375"
           sodipodi:cy="-437.59375"
           sodipodi:rx="3.3125"
           sodipodi:ry="3.3125"
           d="m 291.6875,-437.59375 c 0,1.82944 -1.48306,3.3125 -3.3125,3.3125 -1.82944,0 -3.3125,-1.48306 -3.3125,-3.3125 0,-1.82944 1.48306,-3.3125 3.3125,-3.3125 1.82944,0 3.3125,1.48306 3.3125,3.3125 z"
           transform="matrix(1.0566,0,0,1.0566,-17.1982,24.8633)" />
      </g>
      <g
         transform="matrix(1.14286,0,0,1.14286,-16.48064,93.910907)"
         id="g3447" />
      <g
         id="g3455"
         transform="matrix(1.3252462,0,0,1.2778145,-94.229102,135.80671)">
        <path
           sodipodi:type="arc"
           style="fill:#c4c5c2;fill-opacity:1;stroke:none"
           id="path3457"
           sodipodi:cx="288.375"
           sodipodi:cy="-437.59375"
           sodipodi:rx="3.3125"
           sodipodi:ry="3.3125"
           d="m 291.6875,-437.59375 c 0,1.82944 -1.48306,3.3125 -3.3125,3.3125 -1.82944,0 -3.3125,-1.48306 -3.3125,-3.3125 0,-1.82944 1.48306,-3.3125 3.3125,-3.3125 1.82944,0 3.3125,1.48306 3.3125,3.3125 z"
           transform="matrix(1.0566,0,0,1.0566,-17.1981,24.8632)" />
        <path
           sodipodi:type="arc"
           style="fill:url(#linearGradient3461);fill-opacity:1;stroke:none"
           id="path3459"
           sodipodi:cx="288.375"
           sodipodi:cy="-437.59375"
           sodipodi:rx="3.3125"
           sodipodi:ry="3.3125"
           d="m 291.6875,-437.59375 c 0,1.82944 -1.48306,3.3125 -3.3125,3.3125 -1.82944,0 -3.3125,-1.48306 -3.3125,-3.3125 0,-1.82944 1.48306,-3.3125 3.3125,-3.3125 1.82944,0 3.3125,1.48306 3.3125,3.3125 z"
           transform="matrix(1.0566,0,0,1.0566,-17.1982,24.8633)" />
      </g>
      <g
         id="g3463"
         transform="translate(7.065258,3.9467712)">
        <path
           sodipodi:type="arc"
           style="fill:#c4c5c2;fill-opacity:1;stroke:none"
           id="path3465"
           sodipodi:cx="288.375"
           sodipodi:cy="-437.59375"
           sodipodi:rx="3.3125"
           sodipodi:ry="3.3125"
           d="m 291.6875,-437.59375 c 0,1.82944 -1.48306,3.3125 -3.3125,3.3125 -1.82944,0 -3.3125,-1.48306 -3.3125,-3.3125 0,-1.82944 1.48306,-3.3125 3.3125,-3.3125 1.82944,0 3.3125,1.48306 3.3125,3.3125 z"
           transform="matrix(1.0566,0,0,1.0566,-31.1982,24.8633)" />
        <path
           sodipodi:type="arc"
           style="fill:url(#linearGradient3469);fill-opacity:1;stroke:none"
           id="path3467"
           sodipodi:cx="288.375"
           sodipodi:cy="-437.59375"
           sodipodi:rx="3.3125"
           sodipodi:ry="3.3125"
           d="m 291.6875,-437.59375 c 0,1.82944 -1.48306,3.3125 -3.3125,3.3125 -1.82944,0 -3.3125,-1.48306 -3.3125,-3.3125 0,-1.82944 1.48306,-3.3125 3.3125,-3.3125 1.82944,0 3.3125,1.48306 3.3125,3.3125 z"
           transform="matrix(1.0566,0,0,1.0566,-31.1982,24.8633)" />
      </g>
      <g
         id="g3487"
         transform="translate(7.512122,3.3893522)">
        <path
           sodipodi:type="arc"
           style="fill:#c4c5c2;fill-opacity:1;stroke:none"
           id="path3489"
           sodipodi:cx="288.375"
           sodipodi:cy="-437.59375"
           sodipodi:rx="3.3125"
           sodipodi:ry="3.3125"
           d="m 291.6875,-437.59375 c 0,1.82944 -1.48306,3.3125 -3.3125,3.3125 -1.82944,0 -3.3125,-1.48306 -3.3125,-3.3125 0,-1.82944 1.48306,-3.3125 3.3125,-3.3125 1.82944,0 3.3125,1.48306 3.3125,3.3125 z"
           transform="matrix(1.0566,0,0,1.0566,-24.1982,21.8633)" />
        <path
           sodipodi:type="arc"
           style="fill:url(#linearGradient3493);fill-opacity:1;stroke:none"
           id="path3491"
           sodipodi:cx="288.375"
           sodipodi:cy="-437.59375"
           sodipodi:rx="3.3125"
           sodipodi:ry="3.3125"
           d="m 291.6875,-437.59375 c 0,1.82944 -1.48306,3.3125 -3.3125,3.3125 -1.82944,0 -3.3125,-1.48306 -3.3125,-3.3125 0,-1.82944 1.48306,-3.3125 3.3125,-3.3125 1.82944,0 3.3125,1.48306 3.3125,3.3125 z"
           transform="matrix(1.0566,0,0,1.0566,-24.1982,21.8633)" />
      </g>
    </g>
    <g
       id="g2539"
       transform="matrix(-1,0,0,-1,313.18084,-392.62661)" />
    <g
       transform="matrix(1.0923463,0,0,1.0923463,-292.27097,488.08705)"
       id="g3479">
      <path
         style="fill:#c4c5c2;fill-opacity:1;stroke:none"
         d="m 280.34208,-441.55218 c -3.57938,0 -6.46875,2.92063 -6.46875,6.5 0.56489,7.86549 12.10561,7.59199 12.96875,-0.0312 0,-3.57938 -2.92063,-6.46875 -6.5,-6.46875 z"
         id="path3481"
         sodipodi:nodetypes="cccc"
         inkscape:connector-curvature="0" />
      <path
         style="fill:url(#linearGradient3485);fill-opacity:1;stroke:none"
         d="m 280.3577,-441.56919 c -3.588,0 -6.5,2.91201 -6.5,6.5 0.53456,7.89285 12.138,7.64545 13,0 0,-3.588 -2.912,-6.49999 -6.5,-6.5 z"
         id="path3483"
         sodipodi:nodetypes="cccc"
         inkscape:connector-curvature="0" />
    </g>
    <g
       transform="translate(-260.59425,450.50904)"
       id="g3431">
      <path
         style="fill:#c4c5c2;fill-opacity:1;stroke:none"
         d="m 280.34208,-441.55218 c -3.57938,0 -6.46875,2.92063 -6.46875,6.5 0.56489,7.86549 12.10561,7.59199 12.96875,-0.0312 0,-3.57938 -2.92063,-6.46875 -6.5,-6.46875 z"
         id="path3433"
         sodipodi:nodetypes="cccc"
         inkscape:connector-curvature="0" />
      <path
         style="fill:url(#linearGradient3437);fill-opacity:1;stroke:none"
         d="m 280.3577,-441.56919 c -3.588,0 -6.5,2.91201 -6.5,6.5 0.53456,7.89285 12.138,7.64545 13,0 0,-3.588 -2.912,-6.49999 -6.5,-6.5 z"
         id="path3435"
         sodipodi:nodetypes="cccc"
         inkscape:connector-curvature="0" />
    </g>
  </g>
</svg>
