<?xml version="1.0" encoding="utf-8"?>
<!-- Generator: Adobe Illustrator 12.0.1, SVG Export Plug-In . SVG Version: 6.00 Build 51448)  -->
<!DOCTYPE svg PUBLIC "-//W3C//DTD SVG 1.1//EN" "http://www.w3.org/Graphics/SVG/1.1/DTD/svg11.dtd" [
	<!ENTITY ns_svg "http://www.w3.org/2000/svg">
	<!ENTITY ns_xlink "http://www.w3.org/1999/xlink">
]>
<svg  version="1.1" id="Layer_1" xmlns="&ns_svg;" xmlns:xlink="&ns_xlink;" width="262.014" height="339.611"
	 viewBox="0 0 262.014 339.611" overflow="visible" enable-background="new 0 0 262.014 339.611" xml:space="preserve">
<g>
	<path fill-rule="evenodd" clip-rule="evenodd" d="M140.182,13.866c-3.007-1.815-6.336-3.784-11.143-3.343
		c-5.84,0.536-16.285,7.081-20.429,11.143c-6.14,6.017-2.554,18.049,2.229,24.886c-5.598-4.207-7.452-12.18-7.058-18.943
		C104.567,14.144,131.541,0.474,140.182,13.866z"/>
	<path fill-rule="evenodd" clip-rule="evenodd" fill="#FFFFFF" d="M182.524,19.066c-7.925,12.404,13.64,25.229,19.686,13
		c7.347,4.563,9.622,16.997-1.857,17.457c-10.898,0.437-26.92-12.36-28.229-21.543C171.261,21.922,175.695,17.446,182.524,19.066z"
		/>
	<path fill-rule="evenodd" clip-rule="evenodd" fill="#FFFFFF" d="M143.524,25.752c-0.545,1.926-2.59,3.12-2.972,5.2
		c-2.159,11.773,14.021,19.1,19.314,8.542c4.228,9.901-2.069,18.492-9.286,20.058c-11.184,2.427-24.969-6.576-24.143-18.943
		c0.391-5.849,3.2-8.835,6.314-12.629C135.91,26.966,139.593,24.787,143.524,25.752z"/>
	<path fill-rule="evenodd" clip-rule="evenodd" d="M67.381,35.038c-2.358,7.023-10.113,6.307-11.886,13.743
		c-0.401,1.681-0.564,4.024-0.743,5.571c-1.859,16.116,10.764,27.296,18.2,37.514c-1.536,0.436-3.195-1.693-4.457-2.971
		c-8.721-8.839-18.924-19.703-15.971-37.886c1.501-9.244,8.122-10.492,13.743-16.343C66.867,34.562,66.907,35.017,67.381,35.038z"/>
	<path fill-rule="evenodd" clip-rule="evenodd" fill="#CBB777" d="M240.839,74.409c4.148,1.705,11.779,8.544,14.856,14.486
		c2.041,3.938,3.448,12.22,4.457,16.714c0.765,3.4-1.281,6.941-1.113,10.4c-2.2,1.498-1.459,6.57-4.086,7.057
		c-1.567,0.291-4.135-3.37-6.314-4.086c-4.451-1.462-10.246-0.227-11.515-4.829c0.537-8.441-4.747-12.974-3.714-19.686
		c0.512-3.327,4.283-4.602,3.714-9.286C240.22,83.489,241.714,78.916,240.839,74.409z"/>
	<path fill-rule="evenodd" clip-rule="evenodd" d="M141.667,91.124c-7.931,6.485-12.391,16.24-12.628,28.971
		c-0.05,2.626-0.94,5.399-0.743,7.8c0.857,10.421,6.881,17.185,13,23.4c-11.656-5.074-16.777-18.348-14.486-36.4
		c1.32-10.4,7.343-19.351,13.372-24.143c0.315-0.068,0.351,0.145,0.371,0.372C140.924,91.124,141.296,91.124,141.667,91.124z"/>
	<path fill-rule="evenodd" clip-rule="evenodd" d="M159.867,104.124c0.361,0.01,0.288,0.455,0.371,0.743
		c-1.695,2.486-5.076,1.551-7.057,1.857c-11.431,1.769-17.284,11.206-17.457,25.257c-2.095-2.308-1.833-8.998-1.114-11.886
		c2.324-9.343,12.101-15.793,23.771-14.857C158.875,104.865,159.764,104.886,159.867,104.124z"/>
	<path fill-rule="evenodd" clip-rule="evenodd" fill="#805722" d="M98.21,138.295c2.199,5.213,7.424,7.993,10.771,12.257
		c1.882,2.397,2.646,6.067,6.314,7.057c4.148,8.355,12.53,12.479,19.314,18.2c-1.066,3.466-4.264,8.363-1.486,12.257
		c-10.379-7.202-21.97-13.192-30.457-22.286C100.124,156.249,95.12,149.996,98.21,138.295z"/>
	<path fill-rule="evenodd" clip-rule="evenodd" fill="#805722" d="M185.867,176.181c3.738,6.698-9.14,12.212-11.515,17.085
		c-9.536-0.001-14.981,1.898-23.028,1.114c0.637-4.14,5.323-8.778,4.086-14.857C166.537,178.322,176.199,178.733,185.867,176.181z"
		/>
	<path fill-rule="evenodd" clip-rule="evenodd" fill="#CBB777" d="M70.353,264.209c3.447,6.835,2.384,21.801,1.114,31.199
		c-3.569-3.569-10.254-6.003-15.972-5.199c-0.735-1.412,1.472-1.918,2.229-2.601C63.625,282.285,68.001,273.784,70.353,264.209z"/>
	<path fill-rule="evenodd" clip-rule="evenodd" fill="#CBB777" d="M117.896,5.695c-13.336,5.45-31.187,14.821-28.229,34.171
		c1.579-0.56,0.206-1.999,0.372-2.971c1.87-3.454,2.227-8.421,4.085-11.886c9.864-9.665,24.834-22.838,43.457-16.714
		c-1.439-2.325-4.729-2.973-6.686-3.343c-4.228-0.799-7.31,0.16-12.257,0.743c4.109-0.627,9.655-3.557,14.114-2.971
		c2.347,0.308,3.496,2.992,5.942,2.6c1.353-1.376-1.467-1.733-1.485-2.971c6.115,0.512,11.181-0.304,17.086,1.486
		c-1.083,1.393-3.319,1.633-3.715,3.714c3.069,1.102,7.36-2.413,11.886-1.486c2.25,0.46,3.276,3.283,5.572,1.857
		c-3.489,2.332-10.937,2.682-9.286,8.915c3.749-5.621,10.175-6.736,17.828-5.2c0.71,1.395,1.426,2.784,1.857,4.457
		c-3.588-0.25-3.46-4.216-7.429-4.085c-0.084,3.056,3.741,2.202,3.715,5.2c-2.706,0.208-4.101-3.717-7.429-4.085
		c0.053,3.414,4.176,2.757,4.457,5.943c-2.059,2.151-4.628-2.141-6.686-1.114c0.165,2.311,3.211,1.742,4.085,3.343
		c-0.312,0.431-0.489,0.996-0.371,1.857c-1.744,1.042-5.028-0.349-5.571,1.114c0.62,1.945,3.41,0.256,4.829,1.857
		c-0.001,0.619,0,1.238,0,1.857c0.226,1.712-3.192-0.22-2.601,1.857c1.202,0.784,1.975-0.246,3.343,0.371
		c0.198,1.288,0.994,1.978,1.114,3.343c-0.983,0.626-2.359,0.859-3.343,1.485c0.343,1.391,2.982,0.484,4.457,0.743
		c0.908,1.691,2.063,3.137,2.972,4.829c-0.682,2.537-4.15,2.288-5.571,4.085c1.973,1.657,5.539-1.007,7.429-1.857
		c1.369,0.364,1.84,1.626,2.971,2.229c-0.605,2.242-3.089,2.605-2.971,5.571c2.018,0.563,3.353-2.522,5.2-3.343
		c0.944,0.417,1.811,0.912,2.6,1.486c-0.507,2.712-2.474,3.964-2.972,6.686c2.907-0.56,2.93-4.004,5.2-5.2
		c1.456,0.03,2.316,0.655,3.343,1.114c0.021,2.927-1.357,6.239-1.114,8.172c2.835-0.88,2.002-5.427,4.086-7.058
		c0.431,0.312,0.995,0.49,1.857,0.372c0.816,2.155,0.16,5.783,0.371,8.543c2.371-0.972,1.182-5.504,2.229-7.8
		c1.361,0,2.724,0,4.086,0c0.389,2.335,0.584,4.863,1.856,6.314c1.605-0.995,0.171-5.029,1.114-6.686
		c0.662-0.206,1.543-0.191,1.857-0.743c2.645,1.318,2.794,5.13,5.571,6.314c-0.222-1.825-1.506-5.626-1.856-8.543
		c2.305,0.419,2.721,2.727,4.828,3.343c-0.224-3.119-2.601-4.085-3.343-6.686c4.863,1.823,5.579,7.793,8.171,11.886
		c0.327,1.73-1.224-0.25-1.114,0.743c1.926,2.903,4.828,4.829,7.801,6.686c-8.457,0.571-21.976,3.573-20.801,13.372
		c0.892,7.431,9.772,8.539,17.458,10.028c5.45,6.2,10.341,16.296,7.8,27.114c-0.278,1.145,1.28,0.453,0.742,1.857
		c-10.478,2.974-21.895,8.068-33.428,14.114c-12.473,6.538-27.701,14.656-43.458,8.542c-1.591-1.751-3.297-3.389-4.457-5.571
		c-0.36-4.447,1.016-7.157,2.229-10.028c-4.978,1.114-5.285,10.907-2.6,15.6c3.532,6.173,18.595,11.073,29.343,9.657
		c8.604-1.133,14.518-4.889,23.4-8.543c6.398-2.632,13.382-4.736,18.942-7.428c8.583-4.155,17.974-9.49,28.229-5.943
		c-0.522,2.325-2.315,3.379-4.457,4.085c-11.852,15.51-28.253,26.471-44.942,37.143c-5.812,0.583-11.497,3.773-17.829,4.829
		c-2.541,0.424-5.431,0.173-8.171,0.372c-11.663,0.843-24.983,2.667-36.4-1.486c-9.31-3.386-13.986-12.436-21.914-17.458
		c-1.08-2.139-2.952-3.486-4.829-4.828c-2.872-5.775-8.183-10.02-10.399-16.343c-1.925-5.489-2.75-11.388-6.686-15.971
		c2.318-0.281,6.079,0.879,6.313-1.486c-7.215,1.033-11.834-5.547-18.942-5.943c-1.341-0.075-2.763,0.542-4.086,0.372
		c-2.745-0.353-6.065-2.369-7.8-3.714c-7.124-5.526-10.102-15.14-13.743-23.4c-2.517-10.46-9.293-21.073-12.257-31.943
		c-1.186-4.347-2.571-11.741,0.372-16.343c1.651-2.583,7.199-6.016,10.771-7.057c3.453-1.006,8.018,0.096,10.771-0.372
		c5.341-0.907,9.667-4.746,14.486-7.057C92.081,16.262,104.75,8.309,117.896,5.695z M103.781,27.609
		c-0.395,6.763,1.46,14.736,7.058,18.943c-4.782-6.837-8.368-18.869-2.229-24.886c4.144-4.062,14.589-10.607,20.429-11.143
		c4.807-0.441,8.136,1.527,11.143,3.343C131.541,0.474,104.567,14.144,103.781,27.609z M143.152,22.409
		c-2.99-0.974-4.08-5.821-7.428-5.2c1.072,1.404,2.042,2.91,2.229,5.2c-1.197,0.165-2.013,0.711-3.343,0.743
		c-2.751-1.583-3.84-4.827-6.687-6.314c0.988,2.85,2.52,5.157,3.715,7.8c-1.135,0.351-1.164,1.807-2.6,1.857
		c-2.234-0.861-4.083-2.107-6.687-2.6c0.798,2.422,3.799,2.639,4.457,5.2c-0.859,0.625-0.91,2.061-1.856,2.6
		c-3.129-1.205-5.688-2.978-9.286-3.714c2.069,3.131,6.395,4.006,8.172,7.429c-0.518,0.473-0.162,1.819-1.114,1.857
		c-2.382,0.343-5.375,0.074-6.686,1.486c1.846,1.002,4.857,0.837,6.686,1.857c0,1.114,0,2.229,0,3.343
		c-2.811,0.532-6.324,0.361-7.801,2.229c2.725,0,5.448,0,8.172,0c0.673,0.937,1.273,1.945,1.114,3.714
		c-2.684,2.169-8.772,2.833-9.286,5.943c3.129-1.577,7.257-2.153,10.771-3.343c0.759,0.851,1.815,1.404,1.857,2.972
		c-1.109,2.4-4.216,4.64-4.457,6.686c2.296-1.666,4.895-3.029,7.429-4.457c1.291,0.938,2.444,2.013,3.714,2.972
		c-1.328,3.129-3.861,5.053-4.457,8.914c2.647-2.429,4.857-5.295,7.8-7.429c1.278,0.332,2.315,0.904,3.343,1.486
		c-0.367,3.452-1.531,5.99-1.485,8.915c2.317-2.264,3.462-5.7,5.2-8.543c0.866,0,1.733,0,2.6,0c1.321,2.393,0.908,6.521,3.343,7.8
		c-0.706-2.25,0.681-4.423,0.372-8.171c1.045-0.316,1.523-1.2,2.971-1.114c0.944,2.522,2.211,4.723,4.086,6.314
		c0.918-2.49-1.745-4.382-1.857-7.057c1.744-1.847,3.509-3.673,5.572-5.2c2.951,0.254,6.589,3.413,9.285,1.486
		c-3.545-1.39-9.612-4.112-6.314-8.915c1.564-0.08,5.15,1.368,5.943-0.371c-2.464-1.87-7.326-1.341-5.943-7.057
		c1.712-1.012,3.993-1.455,4.086-4.086c-1.591,0.39-2.698,1.263-4.828,1.114c-2.244-3.057,0.763-5.402,0.371-8.171
		c-1.526,0.331-1.287,2.427-2.972,2.6c-0.924-1.868-2.278-1.681-2.6-3.714c-0.452-2.858,3.158-6.669,0.743-8.171
		c-0.956,2.263-1.631,4.808-3.715,5.943c-1.051-0.93-2.529-1.433-3.343-2.6c0.744-2.352,1.365-4.825,1.857-7.429
		c-2.786,1.176-3.275,4.648-5.571,6.314c-3.784-0.054-1.759-5.917-4.457-7.057C144.292,18.844,143.921,20.825,143.152,22.409z
		 M66.267,34.667c-5.621,5.851-12.242,7.099-13.743,16.343c-2.953,18.183,7.25,29.047,15.971,37.886
		c1.262,1.278,2.921,3.407,4.457,2.971c-7.436-10.218-20.059-21.398-18.2-37.514c0.178-1.547,0.342-3.89,0.743-5.571
		c1.773-7.437,9.527-6.72,11.886-13.743C66.907,35.017,66.867,34.562,66.267,34.667z M140.553,91.124
		c-0.021-0.227-0.056-0.44-0.371-0.372c-6.029,4.792-12.052,13.743-13.372,24.143c-2.291,18.052,2.83,31.326,14.486,36.4
		c-6.119-6.215-12.143-12.979-13-23.4c-0.197-2.401,0.693-5.174,0.743-7.8c0.237-12.731,4.697-22.486,12.628-28.971
		C141.296,91.124,140.924,91.124,140.553,91.124z M158.382,105.238c-11.671-0.937-21.447,5.514-23.771,14.857
		c-0.719,2.888-0.98,9.578,1.114,11.886c0.173-14.051,6.026-23.488,17.457-25.257c1.98-0.307,5.361,0.628,7.057-1.857
		c-0.083-0.288-0.01-0.732-0.371-0.743C159.764,104.886,158.875,104.865,158.382,105.238z"/>
	<path fill-rule="evenodd" clip-rule="evenodd" d="M189.21,175.438c0.79,7.18-6.347,10.664-9.657,15.971
		c5.262,9.919,10.13,19.136,11.886,30.457c1.453,9.368-0.668,18.649-0.743,28.229c-0.039,5.088,1.11,10.154,2.601,14.856
		c1.979,6.249,5.211,10.724,5.571,18.571c10.588,3.956,24.327-0.756,30.828,8.172c1.132,1.554,2.394,4.202,3.715,6.686
		c1.908,3.588,5.582,8.33,5.942,13.372c0.479,6.702-5.13,15.713-12.257,17.085c-2.138,0.412-4.323-0.305-6.314,0
		c-1.761,0.27-3.214,1.499-4.828,1.857c-4.036,0.896-7.211-0.236-10.771-1.485c-8.192,4.436-20.375,6.055-31.2,3.714
		c-1.697-0.367-3.415-1.506-5.2-1.857c-5.603-1.103-11.464,0.264-17.457-0.742c-1.801,2.141-3.967,5.347-7.429,5.942
		c-1.771,0.305-4.352-0.949-6.686-0.743c-3.235,0.286-6.365,2.509-10.028,2.972c-4.59,0.581-9.431-1.708-14.857-1.485
		c-2.196,0.09-3.771,1.453-5.571,1.857c-2.272,0.51-5.309,0.691-7.429,0.742c-2.396,0.058-4.57-1.26-7.057-1.485
		c-4.874-0.442-8.424,0.895-12.258-1.114c-2.278-1.194-3.659-3.938-4.828-5.943c-4.075,3.142-9.372,0.688-14.486,0.743
		c-3.701,0.041-7.292,2.229-11.143,1.857c-2.315-0.224-5.996-2.278-9.657-3.715c-6.586-2.583-13.316-5.827-20.428-7.8
		c-4.987-1.383-11.823-1.769-13-7.429c-0.634-3.049,0.983-5.984,0.371-8.543c-9.79,0.419-7.702-14.904-2.229-19.686
		c3.47-3.031,9.432-2.88,10.4-6.686c1.678-24.691,15.391-46.9,27.114-64.628c5.952-9,11.656-18.2,18.943-24.514
		c9.875-8.558,20.781-16.288,30.828-24.886c-1.314-3.43,1.816-6.419,2.601-10.029c1.71-7.874,0.309-17.166,2.229-24.143
		c-2.236-7.298-6.943-12.124-11.886-16.714c-14.897,0.139-23.145-7.683-28.229-19.314c-3.291-7.53-5.132-15.942-8.542-23.4
		c-3.504-7.66-6.899-16.007-8.172-23.771c-1.375-8.393,2.393-13.417,7.429-17.086c2.139-1.558,4.846-3.454,7.057-4.085
		c3.658-1.046,8.331-0.142,12.628-1.114c4.911-1.111,9.958-4.695,15.229-7.429c4.938-2.561,10.091-5.425,15.228-7.8
		c18.236-8.432,44.003-15.577,67.229-7.057c2.44,0.895,4.736,3.429,7.801,4.829c6.301,2.877,12.441,4.313,15.6,10.028
		c1.403,0.454,2.098,1.617,4.086,1.486c5.411,6.35,12.668,10.856,17.086,18.2c4.459,7.179,8.347,14.929,12.257,22.657
		c7.177,7.365,19.746,9.469,27.485,17.086c1.497,1.473,2.588,3.477,4.086,5.571c2.86,3.998,4.803,6.207,6.314,12.257
		c0.334,1.336,0.061,2.652,0.371,4.085c0.657,3.035,2.319,5.733,2.229,8.171c-0.143,3.839-2.264,10.037-4.086,13.372
		c-0.98,1.795-2.507,3.452-4.457,4.086c0.726,0.834,0.324,2.793,0,3.714c-2.871,1.586-3.921,4.993-7.8,5.572
		c-9.379,12.822-22.962,22.73-37.143,31.571c-3.63,2.263-7.527,5.14-10.771,6.314c-1.089,0.394-2.759,0.314-4.086,0.743
		C192.009,174.117,190.623,174.82,189.21,175.438z M79.267,22.409c-4.818,2.312-9.145,6.15-14.486,7.057
		c-2.754,0.467-7.319-0.635-10.771,0.372c-3.572,1.041-9.12,4.475-10.771,7.057c-2.943,4.602-1.557,11.996-0.372,16.343
		c2.964,10.87,9.74,21.482,12.257,31.943c3.642,8.26,6.619,17.874,13.743,23.4c1.735,1.346,5.055,3.362,7.8,3.714
		c1.323,0.17,2.745-0.446,4.086-0.372c7.108,0.396,11.728,6.976,18.942,5.943c-0.234,2.365-3.995,1.205-6.313,1.486
		c3.936,4.583,4.761,10.482,6.686,15.971c2.217,6.323,7.527,10.568,10.399,16.343c1.877,1.342,3.749,2.689,4.829,4.828
		c7.928,5.021,12.604,14.071,21.914,17.458c11.417,4.152,24.737,2.329,36.4,1.486c2.74-0.199,5.63,0.052,8.171-0.372
		c6.332-1.056,12.017-4.246,17.829-4.829c16.689-10.672,33.091-21.633,44.942-37.143c2.142-0.706,3.935-1.76,4.457-4.085
		c-10.255-3.547-19.646,1.788-28.229,5.943c-5.561,2.692-12.544,4.796-18.942,7.428c-8.883,3.654-14.796,7.41-23.4,8.543
		c-10.748,1.416-25.811-3.484-29.343-9.657c-2.686-4.692-2.378-14.485,2.6-15.6c-1.213,2.872-2.589,5.582-2.229,10.028
		c1.16,2.183,2.866,3.82,4.457,5.571c15.757,6.114,30.985-2.005,43.458-8.542c11.533-6.046,22.95-11.141,33.428-14.114
		c0.538-1.405-1.021-0.713-0.742-1.857c2.541-10.818-2.35-20.915-7.8-27.114c-7.686-1.489-16.566-2.597-17.458-10.028
		c-1.175-9.799,12.344-12.8,20.801-13.372c-2.973-1.857-5.875-3.783-7.801-6.686c-0.109-0.994,1.441,0.987,1.114-0.743
		c-2.592-4.093-3.308-10.063-8.171-11.886c0.742,2.601,3.119,3.567,3.343,6.686c-2.107-0.616-2.523-2.924-4.828-3.343
		c0.351,2.917,1.635,6.718,1.856,8.543c-2.777-1.184-2.927-4.997-5.571-6.314c-0.314,0.552-1.195,0.538-1.857,0.743
		c-0.943,1.656,0.491,5.69-1.114,6.686c-1.272-1.451-1.468-3.979-1.856-6.314c-1.362,0-2.725,0-4.086,0
		c-1.047,2.296,0.143,6.828-2.229,7.8c-0.211-2.76,0.445-6.388-0.371-8.543c-0.862,0.119-1.427-0.06-1.857-0.372
		c-2.084,1.631-1.251,6.178-4.086,7.058c-0.243-1.933,1.135-5.245,1.114-8.172c-1.026-0.459-1.887-1.084-3.343-1.114
		c-2.271,1.196-2.293,4.641-5.2,5.2c0.498-2.721,2.465-3.974,2.972-6.686c-0.789-0.574-1.655-1.069-2.6-1.486
		c-1.848,0.821-3.183,3.906-5.2,3.343c-0.118-2.966,2.365-3.33,2.971-5.571c-1.131-0.602-1.602-1.865-2.971-2.229
		c-1.89,0.85-5.456,3.514-7.429,1.857c1.421-1.798,4.89-1.548,5.571-4.085c-0.908-1.692-2.063-3.137-2.972-4.829
		c-1.475-0.259-4.114,0.647-4.457-0.743c0.983-0.626,2.359-0.859,3.343-1.485c-0.12-1.365-0.916-2.055-1.114-3.343
		c-1.368-0.617-2.141,0.413-3.343-0.371c-0.592-2.078,2.826-0.146,2.601-1.857c0-0.619-0.001-1.238,0-1.857
		c-1.419-1.602-4.209,0.088-4.829-1.857c0.543-1.463,3.827-0.072,5.571-1.114c-0.118-0.861,0.06-1.426,0.371-1.857
		c-0.874-1.601-3.92-1.032-4.085-3.343c2.058-1.027,4.627,3.266,6.686,1.114c-0.281-3.186-4.404-2.529-4.457-5.943
		c3.328,0.368,4.723,4.293,7.429,4.085c0.026-2.998-3.799-2.144-3.715-5.2c3.969-0.13,3.841,3.835,7.429,4.085
		c-0.432-1.673-1.147-3.062-1.857-4.457c-7.653-1.536-14.079-0.42-17.828,5.2c-1.65-6.233,5.797-6.583,9.286-8.915
		c-2.296,1.426-3.322-1.396-5.572-1.857c-4.525-0.927-8.816,2.587-11.886,1.486c0.396-2.082,2.632-2.321,3.715-3.714
		c-5.905-1.79-10.971-0.974-17.086-1.486c0.019,1.238,2.838,1.595,1.485,2.971c-2.446,0.392-3.596-2.292-5.942-2.6
		c-4.459-0.586-10.005,2.344-14.114,2.971c4.947-0.583,8.029-1.542,12.257-0.743c1.957,0.37,5.246,1.018,6.686,3.343
		c-18.623-6.124-33.593,7.049-43.457,16.714c-1.858,3.465-2.215,8.432-4.085,11.886c-0.166,0.973,1.207,2.411-0.372,2.971
		c-2.958-19.35,14.893-28.722,28.229-34.171C104.75,8.309,92.081,16.262,79.267,22.409z M172.124,27.98
		c1.309,9.183,17.33,21.98,28.229,21.543c11.479-0.46,9.204-12.894,1.857-17.457c-6.046,12.229-27.61-0.596-19.686-13
		C175.695,17.446,171.261,21.922,172.124,27.98z M237.867,73.295c-1.516-2.051-7.968-4.541-13-4.829
		c-3.811-0.218-10.137,0.999-11.515,2.6c-2.079,2.417,0.52,7.681,3.343,9.286c4.93,2.802,12.478,0.923,19.314,0
		C238.371,78.349,239.925,76.079,237.867,73.295z M237.124,85.181c0.569,4.684-3.202,5.959-3.714,9.286
		c-1.033,6.711,4.251,11.245,3.714,19.686c1.269,4.602,7.063,3.366,11.515,4.829c2.18,0.716,4.747,4.376,6.314,4.086
		c2.627-0.487,1.886-5.559,4.086-7.057c-0.168-3.459,1.878-7,1.113-10.4c-1.009-4.494-2.416-12.776-4.457-16.714
		c-3.077-5.941-10.708-12.781-14.856-14.486C241.714,78.916,240.22,83.489,237.124,85.181z M102.667,165.781
		c8.487,9.094,20.078,15.084,30.457,22.286c-2.777-3.895,0.42-8.791,1.486-12.257c-6.784-5.721-15.166-9.844-19.314-18.2
		c-3.668-0.99-4.433-4.66-6.314-7.057c-3.348-4.264-8.572-7.044-10.771-12.257C95.12,149.996,100.124,156.249,102.667,165.781z
		 M145.382,196.609c-3.322-2.657-8.364-3.015-12.258-5.572c-2.495-1.639-4.608-4.665-7.429-6.686
		c-2.562-1.836-5.781-2.377-8.171-4.086c-1.086-0.776-1.6-2.166-2.601-2.971c-5.36-4.313-14.316-5.983-14.485-14.486
		c-1.921-0.555-2.163-2.79-3.714-3.714c-0.372,0-0.743,0-1.114,0c-1.999,1.957-1.206,5.592-1.486,8.543
		c-1.007,0.783-0.924-0.843-2.229,0c-3.208,6.037-9.917,7.964-14.857,11.886c-3.173,2.519-5.819,5.974-8.915,8.543
		c-6.402,5.314-11.268,9.911-15.971,16.714c-6.787,9.817-13.391,19.147-20.057,29.343c-4.033,10.123-9.159,20.166-12.257,31.2
		c-0.982,3.499-3.835,7.63-1.857,11.514c-0.119-6.348,8.567-9.687,11.886-5.571c6.167,7.647-0.393,25.366-8.543,26.372
		c3.413-2.882,9.07-10.619,8.543-18.943c-0.236-3.721-2.945-9.263-7.057-6.314c-2.282,2.897-2.673,7.5-6.314,10.771
		c-2.905,2.61-7.426,2.301-10.028,4.457c-3.069,2.544-6.371,11.853-2.972,15.229c1.405,1.396,3.604,1.139,5.943,2.229
		c-0.248,2.659-1.466,6.122-0.743,8.915c1.325,5.111,7.289,4.88,12.257,6.313c3.1,0.896,6.6,2.147,9.657,3.344
		c7.92,3.097,17.791,9.532,26.743,7.428c8.709-10.231,2.469-23.896-3.714-31.199c-0.969-0.889-4.24,0.525-4.086-1.486
		c1.672-1.772,4.449,0.39,6.314,0.743c2.857,7.305,9.063,12.502,7.8,21.171c-0.388,2.667-3.022,6.047-1.485,8.543
		c2.816,2.901,9.167,3.023,12.628,0.743c-6.5-6.643-6.08-21.34-3.714-31.2c-3.011-3.163-7.035-5.059-11.886-5.571
		c-11.243-1.188-22.046,5.845-29.343,0.743c1.346-1.778,3.499-0.407,5.571-0.372c5.073,0.086,10.914-2.082,15.972-2.229
		c2.812-2.979,6.758-5.191,9.286-8.914c2.799-4.123,6.959-13.265,7.428-18.571c0.572-6.467-2.902-12.824-3.343-18.943
		c-0.298-4.147,1.598-6.915,3.343-10.399c-2.849-4.707-8.2-8.064-14.485-7.8c-6.154,0.259-11.173,5.35-15.229,6.314
		c5.717-9.91,26.855-11.461,31.571,0.372c3.345-2.883,4.646-7.674,5.2-11.515c2.503,0.993,1.527,4.51,1.114,5.943
		c-1.433,4.966-8.671,8.823-9.657,13.742c-1.232,6.149,3.003,12.785,4.829,18.943c1.396,4.71,2.875,10.058,3.343,14.485
		c1.673,15.83-5.315,31.234-3.343,42.715c0.619,3.605,3.174,8.346,5.2,12.257c2.262,4.368,7.519,7.841,13.743,6.686
		c0.362-2.141,2.377-3.046,2.972-4.828c2.357-7.074-2.613-14.935-3.343-19.686c6.015,5.807,7.946,16.697,2.6,23.771
		c5.771,4.109,15.671,0.313,20.8-0.742c2.059-2.949,4.845-5.747,4.829-10.771c-0.015-4.485-3.183-9.417-4.829-12.629
		c1.098,2.142-1.906-2.611-0.371-2.972c2.236-0.523,5.948,9.06,6.686,12.258c1.663,7.215-2.302,9.725-4.086,14.114
		c1.79,1.821,3.497-0.408,5.571,0c1.216,0.239,1.994,1.649,3.343,1.857c3.756,0.577,7.308-1.965,11.515-2.972
		c0.928-2.704,2.875-4.522,3.714-7.429c1.926-6.667-2.442-15.065-3.714-20.058c2.376,0.622,3.771,4.297,4.457,7.058
		c1.963,7.889,1.561,14.101-1.857,19.686c3.383,0.932,6.369,0.834,8.915-0.743c0.45-3.026,3.662-4.9,4.085-8.542
		c0.54-4.645-2.692-15.202-5.199-19.687c-4.651-8.318-15.364-5.531-27.114-5.199c-0.404-0.945,1.739-1.44,0-1.486
		c-2.16-0.201-5.276,1.837-6.687,0c2.11-1.232,5.357-1.328,8.172-1.857c-3.462-5.785-2.048-12.866-2.972-19.686
		c-0.838-6.188-3.517-12.448-4.086-18.942c-0.371-4.242,0.716-7.923,0.743-12.258c0.69-0.3,1.501-0.479,1.857-1.113
		c0.278-3.985,0.566-7.225-0.371-10.4c-1.152-3.9-5.462-6.869-4.086-10.771c2.978,4.693,7.881,11.122,6.686,18.942
		c-0.249,1.632-1.809,2.9-2.229,4.458c-0.66,2.444,0.382,5.097-1.857,6.313c0.93-0.046,1.163-0.709,1.486,0.372
		c-1.159,8.248,3.361,16.444,4.085,25.257c0.523,6.379-0.137,13.55,2.601,17.828c2.911-0.802,6.592-0.836,10.028-1.114
		c0.404,0.945-1.739,1.44,0,1.486c6.719-0.813,10.562,1.966,14.485,5.571c5.045-13.241,5.672-28.062,3.715-43.086
		c-3.917,5.395-5.483,12.621-13,13.743c-5.617,0.838-7.854,1.611-11.144,3.343c2.122-6.008,9.279-3.554,13.743-5.943
		c1.94-1.038,4.302-5.012,5.943-7.428c3.568-5.256,7.408-10.128,7.8-17.829c-2.309,0.539-0.76,4.937-3.343,5.2
		c1.484-2.106,0.377-6.804,3.714-7.058c3.554,2.877,0.331,7.319-0.371,9.657c-2.867,9.55,1.406,24.123-0.743,35.286
		c-1.113,5.783-5.579,12.167-5.2,16.714c0.247,2.956,2.896,6.133,3.715,9.286c1.479,5.694,1.939,10.075,0,15.229
		c14.95-1.328,26.573,4.522,40.856,2.972c5.288-0.574,7.862-4.271,13.743-4.457c4.11-4.243,3.679-15.62,0.372-20.429
		c-2.305-1.905-5.454-2.966-6.687-5.943c10.275,1.848,15.179,18.435,7.8,27.114c6.602,3.046,15.729-0.651,18.572-6.314
		c4.045-8.057-1.627-16.709-2.229-24.514c5.628,7.457,7.67,23.01,0,29.714c3.088-1.316,5.922-0.999,8.171-2.6
		c3.093-2.201,5.511-8.612,5.2-12.257c-0.56-6.562-8.332-12.277-8.543-17.829c-4.144-5.922-11.016-6.057-20.429-6.686
		c-3.725-0.249-7.789-1.565-10.771-1.485c-5.58,0.148-10.685,3.78-15.229,3.343c3.646-2.917,9.681-3.443,14.857-4.829
		c-1.185-9.589-7.376-17.481-8.543-28.229c-0.971-8.94,1.642-18.357,1.114-27.485c-0.81-14.013-5.445-25.25-13-34.172
		c-4.635,4.404-10.645,9.412-17.086,10.771c3.502-3.927,9.667-5.19,12.258-10.028C162.191,196.951,155.348,195.725,145.382,196.609z
		 M134.981,189.923c4.83,2.072,6.667,3.992,13.743,4.086c2.274-4.411,5.124-8.247,5.199-14.857
		c-5.923-0.15-11.276-1.203-17.085-2.971C134.741,179.934,134.38,184.153,134.981,189.923z M155.41,179.523
		c1.237,6.079-3.449,10.717-4.086,14.857c8.047,0.784,13.492-1.115,23.028-1.114c2.375-4.874,15.253-10.387,11.515-17.085
		C176.199,178.733,166.537,178.322,155.41,179.523z M57.724,287.609c-0.756,0.683-2.963,1.188-2.229,2.601
		c5.718-0.804,12.402,1.63,15.972,5.199c1.27-9.398,2.333-24.364-1.114-31.199C68.001,273.784,63.625,282.285,57.724,287.609z"/>
	<path fill-rule="evenodd" clip-rule="evenodd" d="M144.268,16.466c2.698,1.14,0.673,7.003,4.457,7.057
		c2.296-1.666,2.785-5.138,5.571-6.314c-0.492,2.604-1.113,5.077-1.857,7.429c0.813,1.167,2.292,1.67,3.343,2.6
		c2.084-1.135,2.759-3.68,3.715-5.943c2.415,1.502-1.195,5.313-0.743,8.171c0.321,2.033,1.676,1.846,2.6,3.714
		c1.685-0.173,1.445-2.269,2.972-2.6c0.392,2.77-2.615,5.115-0.371,8.171c2.13,0.149,3.237-0.725,4.828-1.114
		c-0.093,2.631-2.374,3.074-4.086,4.086c-1.383,5.716,3.479,5.187,5.943,7.057c-0.793,1.739-4.379,0.292-5.943,0.371
		c-3.298,4.802,2.77,7.525,6.314,8.915c-2.696,1.927-6.334-1.232-9.285-1.486c-2.063,1.527-3.828,3.353-5.572,5.2
		c0.112,2.675,2.775,4.567,1.857,7.057c-1.875-1.592-3.142-3.792-4.086-6.314c-1.447-0.085-1.926,0.798-2.971,1.114
		c0.309,3.749-1.078,5.921-0.372,8.171c-2.435-1.279-2.021-5.407-3.343-7.8c-0.866,0-1.733,0-2.6,0
		c-1.738,2.843-2.883,6.279-5.2,8.543c-0.046-2.925,1.118-5.462,1.485-8.915c-1.027-0.582-2.064-1.154-3.343-1.486
		c-2.942,2.133-5.152,5-7.8,7.429c0.596-3.861,3.129-5.785,4.457-8.914c-1.27-0.959-2.423-2.034-3.714-2.972
		c-2.534,1.428-5.133,2.791-7.429,4.457c0.241-2.045,3.348-4.286,4.457-6.686c-0.042-1.567-1.099-2.121-1.857-2.972
		c-3.515,1.19-7.643,1.767-10.771,3.343c0.514-3.11,6.603-3.773,9.286-5.943c0.159-1.769-0.441-2.777-1.114-3.714
		c-2.724,0-5.447,0-8.172,0c1.477-1.867,4.99-1.696,7.801-2.229c0-1.114,0-2.229,0-3.343c-1.828-1.021-4.84-0.855-6.686-1.857
		c1.311-1.412,4.304-1.143,6.686-1.486c0.952-0.038,0.597-1.384,1.114-1.857c-1.777-3.422-6.103-4.297-8.172-7.429
		c3.598,0.736,6.157,2.509,9.286,3.714c0.946-0.54,0.997-1.975,1.856-2.6c-0.658-2.561-3.659-2.778-4.457-5.2
		c2.604,0.492,4.452,1.738,6.687,2.6c1.436-0.05,1.465-1.506,2.6-1.857c-1.195-2.643-2.727-4.95-3.715-7.8
		c2.847,1.487,3.936,4.731,6.687,6.314c1.33-0.031,2.146-0.578,3.343-0.743c-0.187-2.29-1.156-3.796-2.229-5.2
		c3.348-0.621,4.438,4.226,7.428,5.2C143.921,20.825,144.292,18.844,144.268,16.466z M132.753,27.98
		c-3.114,3.794-5.924,6.78-6.314,12.629c-0.826,12.367,12.959,21.37,24.143,18.943c7.217-1.566,13.514-10.156,9.286-20.058
		c-5.293,10.558-21.474,3.23-19.314-8.542c0.382-2.081,2.427-3.274,2.972-5.2C139.593,24.787,135.91,26.966,132.753,27.98z"/>
	<path fill-rule="evenodd" clip-rule="evenodd" fill="#FFFFFF" d="M236.01,80.352c-6.837,0.923-14.385,2.802-19.314,0
		c-2.823-1.605-5.422-6.868-3.343-9.286c1.378-1.601,7.704-2.818,11.515-2.6c5.032,0.288,11.484,2.778,13,4.829
		C239.925,76.079,238.371,78.349,236.01,80.352z"/>
	<path fill-rule="evenodd" clip-rule="evenodd" fill="#805722" d="M136.839,176.181c5.809,1.768,11.162,2.821,17.085,2.971
		c-0.075,6.61-2.925,10.446-5.199,14.857c-7.076-0.094-8.913-2.014-13.743-4.086C134.38,184.153,134.741,179.934,136.839,176.181z"
		/>
	<path fill-rule="evenodd" clip-rule="evenodd" fill="#CBB777" d="M172.496,195.124c-2.591,4.838-8.756,6.102-12.258,10.028
		c6.441-1.359,12.451-6.367,17.086-10.771c7.555,8.921,12.19,20.159,13,34.172c0.527,9.128-2.085,18.545-1.114,27.485
		c1.167,10.747,7.358,18.64,8.543,28.229c-5.177,1.386-11.212,1.912-14.857,4.829c4.544,0.438,9.648-3.194,15.229-3.343
		c2.982-0.08,7.047,1.236,10.771,1.485c9.413,0.629,16.285,0.764,20.429,6.686c0.211,5.552,7.983,11.268,8.543,17.829
		c0.311,3.645-2.107,10.056-5.2,12.257c-2.249,1.601-5.083,1.283-8.171,2.6c7.67-6.704,5.628-22.257,0-29.714
		c0.602,7.805,6.273,16.457,2.229,24.514c-2.843,5.663-11.971,9.36-18.572,6.314c7.379-8.68,2.476-25.267-7.8-27.114
		c1.232,2.978,4.382,4.038,6.687,5.943c3.307,4.809,3.738,16.186-0.372,20.429c-5.881,0.187-8.455,3.883-13.743,4.457
		c-14.283,1.551-25.906-4.3-40.856-2.972c1.939-5.153,1.479-9.534,0-15.229c-0.819-3.153-3.468-6.33-3.715-9.286
		c-0.379-4.547,4.087-10.931,5.2-16.714c2.149-11.163-2.124-25.736,0.743-35.286c0.702-2.338,3.925-6.78,0.371-9.657
		c-3.337,0.254-2.229,4.951-3.714,7.058c2.583-0.264,1.034-4.661,3.343-5.2c-0.392,7.701-4.231,12.573-7.8,17.829
		c-1.642,2.416-4.003,6.39-5.943,7.428c-4.464,2.39-11.621-0.064-13.743,5.943c3.29-1.731,5.526-2.505,11.144-3.343
		c7.517-1.122,9.083-8.349,13-13.743c1.957,15.023,1.33,29.845-3.715,43.086c-3.923-3.605-7.767-6.385-14.485-5.571
		c-1.739-0.046,0.404-0.541,0-1.486c-3.437,0.278-7.117,0.312-10.028,1.114c-2.737-4.278-2.077-11.449-2.601-17.828
		c-0.724-8.812-5.244-17.009-4.085-25.257c-0.323-1.081-0.557-0.418-1.486-0.372c2.239-1.217,1.197-3.869,1.857-6.313
		c0.42-1.558,1.979-2.826,2.229-4.458c1.195-7.821-3.708-14.25-6.686-18.942c-1.376,3.902,2.934,6.872,4.086,10.771
		c0.938,3.176,0.649,6.415,0.371,10.4c-0.356,0.634-1.167,0.813-1.857,1.113c-0.027,4.335-1.114,8.016-0.743,12.258
		c0.569,6.494,3.248,12.755,4.086,18.942c0.924,6.819-0.49,13.9,2.972,19.686c-2.814,0.529-6.062,0.625-8.172,1.857
		c1.41,1.837,4.526-0.201,6.687,0c1.739,0.046-0.404,0.541,0,1.486c11.75-0.332,22.463-3.119,27.114,5.199
		c2.507,4.484,5.739,15.042,5.199,19.687c-0.423,3.642-3.635,5.516-4.085,8.542c-2.546,1.577-5.532,1.675-8.915,0.743
		c3.418-5.585,3.82-11.797,1.857-19.686c-0.687-2.761-2.081-6.436-4.457-7.058c1.271,4.992,5.64,13.391,3.714,20.058
		c-0.839,2.906-2.786,4.725-3.714,7.429c-4.207,1.007-7.759,3.549-11.515,2.972c-1.349-0.208-2.127-1.618-3.343-1.857
		c-2.074-0.408-3.781,1.821-5.571,0c1.784-4.39,5.749-6.899,4.086-14.114c-0.737-3.198-4.449-12.781-6.686-12.258
		c-1.535,0.36,1.469,5.113,0.371,2.972c1.646,3.212,4.814,8.144,4.829,12.629c0.016,5.024-2.771,7.822-4.829,10.771
		c-5.129,1.056-15.029,4.852-20.8,0.742c5.347-7.073,3.415-17.964-2.6-23.771c0.729,4.751,5.7,12.611,3.343,19.686
		c-0.595,1.782-2.609,2.688-2.972,4.828c-6.224,1.155-11.481-2.317-13.743-6.686c-2.025-3.911-4.581-8.651-5.2-12.257
		c-1.973-11.48,5.016-26.885,3.343-42.715c-0.468-4.428-1.947-9.775-3.343-14.485c-1.825-6.158-6.061-12.794-4.829-18.943
		c0.986-4.919,8.225-8.776,9.657-13.742c0.413-1.434,1.389-4.95-1.114-5.943c-0.554,3.84-1.855,8.631-5.2,11.515
		c-4.716-11.833-25.854-10.281-31.571-0.372c4.056-0.964,9.074-6.056,15.229-6.314c6.286-0.264,11.636,3.094,14.485,7.8
		c-1.745,3.484-3.641,6.252-3.343,10.399c0.44,6.119,3.915,12.477,3.343,18.943c-0.469,5.307-4.629,14.448-7.428,18.571
		c-2.528,3.723-6.473,5.936-9.286,8.914c-5.058,0.146-10.899,2.314-15.972,2.229c-2.072-0.035-4.226-1.406-5.571,0.372
		c7.296,5.102,18.1-1.932,29.343-0.743c4.851,0.513,8.875,2.408,11.886,5.571c-2.365,9.86-2.786,24.558,3.714,31.2
		c-3.461,2.28-9.812,2.158-12.628-0.743c-1.537-2.496,1.097-5.876,1.485-8.543c1.263-8.669-4.942-13.866-7.8-21.171
		c-1.866-0.354-4.643-2.516-6.314-0.743c-0.154,2.012,3.117,0.598,4.086,1.486c6.184,7.303,12.424,20.968,3.714,31.199
		c-8.952,2.104-18.823-4.331-26.743-7.428c-3.058-1.196-6.558-2.448-9.657-3.344c-4.968-1.434-10.932-1.202-12.257-6.313
		c-0.724-2.793,0.495-6.256,0.743-8.915c-2.338-1.09-4.538-0.833-5.943-2.229c-3.399-3.376-0.097-12.685,2.972-15.229
		c2.602-2.156,7.124-1.847,10.028-4.457c3.641-3.271,4.033-7.874,6.314-10.771c4.112-2.948,6.821,2.594,7.057,6.314
		c0.527,8.324-5.13,16.062-8.543,18.943c8.15-1.006,14.71-18.725,8.543-26.372c-3.319-4.115-12.005-0.776-11.886,5.571
		c-1.978-3.884,0.875-8.015,1.857-11.514c3.099-11.034,8.224-21.077,12.257-31.2c6.666-10.196,13.27-19.526,20.057-29.343
		c4.704-6.803,9.569-11.4,15.971-16.714c3.096-2.569,5.741-6.024,8.915-8.543c4.94-3.921,11.649-5.849,14.857-11.886
		c1.305-0.843,1.222,0.783,2.229,0c0.28-2.951-0.513-6.586,1.486-8.543c0.371,0,0.742,0,1.114,0c1.551,0.925,1.793,3.16,3.714,3.714
		c0.169,8.502,9.125,10.173,14.485,14.486c1.001,0.805,1.515,2.195,2.601,2.971c2.39,1.708,5.609,2.25,8.171,4.086
		c2.82,2.021,4.934,5.047,7.429,6.686c3.894,2.557,8.936,2.915,12.258,5.572C155.348,195.725,162.191,196.951,172.496,195.124z"/>
</g>
</svg>
