<?xml version="1.0" encoding="utf-8"?>
<!-- Generator: Adobe Illustrator 13.0.2, SVG Export Plug-In . SVG Version: 6.00 Build 14948)  -->
<!DOCTYPE svg PUBLIC "-//W3C//DTD SVG 1.1//EN" "http://www.w3.org/Graphics/SVG/1.1/DTD/svg11.dtd">
<svg version="1.1" id="Layer_1" xmlns="http://www.w3.org/2000/svg" xmlns:xlink="http://www.w3.org/1999/xlink" x="0px" y="0px"
	 width="50.422px" height="254.793px" viewBox="0 0 50.422 254.793" enable-background="new 0 0 50.422 254.793"
	 xml:space="preserve">
<g>
	<g>
		<path fill="none" d="M34.099,11.882l-11.465-0.504l-9.762,0.879c0,0-2.022,12.998,10.843,12.758
			C36.579,24.775,34.099,11.882,34.099,11.882z"/>
		
			<linearGradient id="SVGID_1_" gradientUnits="userSpaceOnUse" x1="7.8853" y1="159.75" x2="38.5034" y2="159.75" gradientTransform="matrix(1 0 0 -1 0 253.793)">
			<stop  offset="0" style="stop-color:#6C5837"/>
			<stop  offset="0.1115" style="stop-color:#735D3A"/>
			<stop  offset="0.4515" style="stop-color:#876B43"/>
			<stop  offset="0.758" style="stop-color:#927146"/>
			<stop  offset="1" style="stop-color:#957348"/>
		</linearGradient>
		<path fill="url(#SVGID_1_)" stroke="#010101" stroke-width="0.545" d="M29.767,185.047L28.543,48.378
			c14.261-6.607,9.02-45.955,9.02-45.955S30.61-0.104,22.167,0.32C13.723,0.745,8.063,3.599,8.063,3.599s-2.548,38.25,11.64,44.772
			l1.221,136.754c0.013,1.506,2.005,2.707,4.445,2.688C27.812,187.789,29.78,186.552,29.767,185.047z M12.872,12.257l9.762-0.879
			l11.465,0.504c0,0,2.479,12.893-10.384,13.133C10.85,25.255,12.872,12.257,12.872,12.257z"/>
	</g>
	
		<linearGradient id="SVGID_2_" gradientUnits="userSpaceOnUse" x1="69.3491" y1="-161.043" x2="118.4483" y2="-152.2857" gradientTransform="matrix(0.9845 0.1756 0.1756 -0.9845 -39.7226 14.0486)">
		<stop  offset="0" style="stop-color:#464646"/>
		<stop  offset="1" style="stop-color:#FFFFFF"/>
	</linearGradient>
	<path fill="url(#SVGID_2_)" stroke="#010101" stroke-width="0.545" d="M20.047,121.267c0,0,3.418-6.432,4.519-6.234
		c1.101,0.196,5.08,5.902,5.08,5.902l0.207,49.774c0,0,0.071,3.421,1.313,4.098c1.242,0.676,4.662,0.604,4.662,0.604l14.299,0.053
		l0.021,78.812L0.597,254.52l-0.323-78.412l14.118-0.207l4.575-1.455c0,0,0.558-0.584,0.879-6.202
		C20.166,162.623,20.047,121.267,20.047,121.267z"/>
	<path fill="#7F8082" d="M36.852,176.98c0,0-1.78,11.203-4.234,15.218c-2.453,4.014-7.199,9.901-7.199,9.901l-0.594-0.324
		l0.689-85.48l3.438,3.873l0.137,52.821c0,0,0.642,2.504,2.326,2.806C33.099,176.092,36.852,176.98,36.852,176.98z"/>
	
		<linearGradient id="SVGID_3_" gradientUnits="userSpaceOnUse" x1="86.6089" y1="-122.3281" x2="90.187" y2="-122.3281" gradientTransform="matrix(0.9845 0.1756 0.1756 -0.9845 -39.7226 14.0486)">
		<stop  offset="0" style="stop-color:#464646"/>
		<stop  offset="1" style="stop-color:#FFFFFF"/>
	</linearGradient>
	<circle fill="url(#SVGID_3_)" stroke="#010101" stroke-width="0.545" cx="25.825" cy="150.004" r="1.789"/>
	
		<linearGradient id="SVGID_4_" gradientUnits="userSpaceOnUse" x1="89.9624" y1="-141.5576" x2="93.5405" y2="-141.5576" gradientTransform="matrix(0.9845 0.1756 0.1756 -0.9845 -39.7226 14.0486)">
		<stop  offset="0" style="stop-color:#464646"/>
		<stop  offset="1" style="stop-color:#FFFFFF"/>
	</linearGradient>
	<circle fill="url(#SVGID_4_)" stroke="#010101" stroke-width="0.545" cx="25.749" cy="169.524" r="1.788"/>
	
		<linearGradient id="SVGID_5_" gradientUnits="userSpaceOnUse" x1="80.7944" y1="-93.9346" x2="84.3706" y2="-93.9346" gradientTransform="matrix(0.9845 0.1756 0.1756 -0.9845 -39.7226 14.0486)">
		<stop  offset="0" style="stop-color:#464646"/>
		<stop  offset="1" style="stop-color:#FFFFFF"/>
	</linearGradient>
	<circle fill="url(#SVGID_5_)" stroke="#010101" stroke-width="0.545" cx="25.086" cy="121.029" r="1.788"/>
</g>
</svg>
