<?xml version="1.0" encoding="utf-8"?>
<!-- Generator: Adobe Illustrator 12.0.1, SVG Export Plug-In . SVG Version: 6.00 Build 51448)  -->
<!DOCTYPE svg PUBLIC "-//W3C//DTD SVG 1.1//EN" "http://www.w3.org/Graphics/SVG/1.1/DTD/svg11.dtd" [
	<!ENTITY ns_svg "http://www.w3.org/2000/svg">
	<!ENTITY ns_xlink "http://www.w3.org/1999/xlink">
]>
<svg  version="1.1" id="Layer_1" xmlns="&ns_svg;" xmlns:xlink="&ns_xlink;" width="240.116" height="224.151"
	 viewBox="0 0 240.116 224.151" overflow="visible" enable-background="new 0 0 240.116 224.151" xml:space="preserve">
<polyline fill-rule="evenodd" clip-rule="evenodd" fill="#26BCD6" points="50.972,17.809 25.178,47.9 8.595,74.309 3.683,99.486 
	2.456,126.512 12.896,157.218 33.162,184.85 57.726,206.345 96.415,218.629 127.737,221.082 167.649,211.873 203.883,190.376 
	224.763,164.584 234.589,128.966 234.589,92.118 227.223,63.253 208.801,39.304 187.305,22.107 166.425,12.897 146.159,6.754 
	120.981,3.071 103.784,2.457 79.221,7.37 50.972,17.809 "/>
<polyline fill-rule="evenodd" clip-rule="evenodd" fill="#CCEAEE" points="160.282,23.952 146.159,18.424 129.576,15.353 
	114.225,16.583 104.399,23.952 105.628,35.619 119.137,46.059 139.403,56.499 159.054,72.466 176.865,90.889 186.076,109.312 
	189.149,123.438 188.53,138.79 186.691,145.543 193.447,148.002 200.205,138.79 204.502,124.053 204.502,109.927 201.429,87.205 
	189.149,56.499 173.177,35.003 160.282,23.952 "/>
<polyline fill-rule="evenodd" clip-rule="evenodd" fill="#26BCD6" points="53.427,20.266 48.515,28.249 49.129,39.917 
	58.954,51.586 85.36,63.253 109.927,71.237 126.509,81.677 140.631,98.259 148.619,113.612 154.146,129.58 158.443,152.299 
	158.443,178.707 154.146,196.519 146.159,209.412 131.417,218.629 110.542,219.854 76.764,213.712 49.129,201.427 28.249,182.396 
	11.667,155.987 2.456,117.295 6.754,85.363 15.353,57.726 30.705,37.46 53.427,20.266 "/>
<polyline fill-rule="evenodd" clip-rule="evenodd" fill="#EDEDED" points="196.517,30.706 200.205,49.13 194.678,60.182 
	204.502,68.781 220.465,89.046 219.856,100.102 235.817,109.312 229.062,71.852 215.557,46.673 196.517,30.706 "/>
<polyline fill-rule="evenodd" clip-rule="evenodd" fill="#54B948" points="9.825,156.598 27.02,135.108 27.635,159.057 
	36.845,161.516 37.459,189.762 19.65,173.795 9.825,156.598 "/>
<polyline fill-rule="evenodd" clip-rule="evenodd" fill="#54B948" points="214.938,175.024 215.557,159.671 209.41,148.002 
	198.975,136.947 201.429,108.085 218.011,101.943 233.365,102.558 234.589,126.512 228.451,154.144 214.938,175.024 "/>
<polyline fill-rule="evenodd" clip-rule="evenodd" fill="#CCEAEE" points="94.573,217.4 114.225,209.412 134.49,207.573 
	161.513,203.885 157.824,214.326 133.265,219.854 111.153,221.697 94.573,217.4 "/>
<polyline fill-rule="evenodd" clip-rule="evenodd" fill="#54B948" points="10.439,74.309 19.65,81.677 15.353,101.943 
	2.456,110.541 10.439,74.309 "/>
<polyline fill-rule="evenodd" clip-rule="evenodd" fill="#54B948" points="120.981,200.203 116.066,177.478 117.296,163.354 
	98.872,149.841 101.942,136.337 105.014,124.662 124.049,115.457 146.159,108.085 160.282,109.312 178.704,116.682 179.323,132.648 
	175.637,160.896 162.741,165.193 156.601,165.193 143.092,172.57 137.564,184.234 135.104,193.445 122.82,204.5 120.981,200.203 "/>
<polyline fill-rule="evenodd" clip-rule="evenodd" fill="#54B948" points="67.551,97.03 76.15,106.856 81.062,111.768 
	108.085,124.053 117.296,119.755 113.609,116.682 115.454,104.399 107.47,100.102 99.487,108.7 90.888,103.785 93.344,93.347 
	67.551,97.03 "/>
<polyline fill-rule="evenodd" clip-rule="evenodd" fill="#54B948" points="87.205,13.512 106.241,11.667 113.609,13.512 
	109.927,20.88 98.257,17.809 90.888,17.809 87.205,13.512 "/>
<polyline fill-rule="evenodd" clip-rule="evenodd" fill="#49A942" points="88.432,24.563 71.851,31.32 67.551,41.146 50.972,60.182 
	52.198,71.237 50.972,84.134 56.499,99.486 63.868,112.383 66.324,97.645 76.15,108.7 92.117,95.803 108.085,86.59 117.91,84.134 
	123.44,98.872 128.963,84.134 135.719,80.45 145.545,69.395 161.513,53.428 157.824,44.829 135.104,60.182 143.092,45.444 
	158.443,31.936 144.931,22.722 132.646,27.02 120.981,40.531 120.981,55.27 116.066,56.499 111.769,47.9 99.487,47.9 98.257,41.146 
	100.714,29.476 98.257,25.793 88.432,24.563 "/>
<polyline fill-rule="evenodd" clip-rule="evenodd" points="120.366,1.842 102.557,0 84.133,3.071 66.939,7.984 55.884,13.512 
	44.829,20.88 33.776,30.091 22.107,44.829 15.353,54.657 8.595,68.166 3.683,80.45 0.615,97.03 0,112.383 1.841,131.42 
	6.754,148.002 12.896,164.584 20.88,177.478 31.32,189.762 42.987,200.203 57.726,209.412 73.078,215.555 90.275,220.468 
	108.697,223.536 125.895,224.151 143.7,222.307 164.582,216.779 178.095,211.873 194.678,200.817 209.41,188.533 217.396,178.093 
	227.223,161.516 230.911,148.002 231.52,139.405 228.451,133.878 227.223,143.09 224.763,152.914 218.011,163.354 217.396,155.987 
	213.099,157.218 213.707,163.969 214.328,171.341 204.502,180.547 198.355,188.533 187.305,195.899 176.25,202.656 167.649,208.184 
	150.458,212.481 132.036,214.94 114.839,215.555 97.645,214.326 84.133,209.412 65.095,203.276 52.813,195.29 42.372,186.074 
	27.635,173.795 18.423,159.057 12.896,147.387 8.595,133.878 6.754,122.209 6.139,112.383 7.983,98.872 10.439,85.975 
	15.967,70.622 25.178,52.813 34.389,41.146 43.602,30.091 56.499,19.651 71.851,12.897 85.36,7.984 104.399,4.913 120.366,1.842 "/>
<polyline fill-rule="evenodd" clip-rule="evenodd" points="138.792,3.686 159.668,9.211 174.406,14.739 189.149,21.495 
	202.044,30.706 219.856,48.516 229.062,64.483 234.589,76.765 238.277,90.276 240.116,104.399 238.886,120.365 235.208,137.562 
	233.365,127.121 230.29,116.066 230.911,104.399 229.681,86.59 225.992,74.923 220.465,63.253 214.328,52.813 206.341,44.829 
	190.374,30.091 176.865,21.495 162.121,15.967 145.545,9.211 138.792,3.686 "/>
<polyline fill-rule="evenodd" clip-rule="evenodd" points="12.896,68.781 25.178,57.726 33.162,53.428 45.444,46.673 60.181,39.304 
	66.939,38.075 66.939,40.531 55.884,46.059 41.145,54.043 27.02,63.868 9.825,74.923 12.896,68.781 "/>
<polyline fill-rule="evenodd" clip-rule="evenodd" points="4.912,111.156 8.595,105.629 14.123,103.785 18.423,102.558 
	19.036,99.486 20.265,90.276 22.722,82.292 22.107,78.606 11.052,73.079 8.595,79.221 15.353,81.063 15.353,86.59 13.511,92.732 
	12.282,98.872 9.21,101.943 3.683,103.172 4.912,111.156 "/>
<polyline fill-rule="evenodd" clip-rule="evenodd" points="4.912,130.189 14.738,119.755 27.02,108.085 39.917,98.872 
	52.198,92.118 65.095,86.59 79.221,82.292 42.372,104.399 31.32,112.383 23.336,117.911 14.123,126.512 5.527,135.108 
	4.912,130.189 "/>
<polyline fill-rule="evenodd" clip-rule="evenodd" points="11.667,154.144 19.036,140.636 27.02,132.648 31.32,135.108 
	29.476,157.826 35.618,157.826 39.302,160.896 40.532,167.652 41.145,177.478 50.972,167.043 62.026,159.057 74.308,152.914 
	87.205,146.163 104.399,139.405 120.366,137.562 131.417,137.562 127.118,141.244 105.628,146.163 91.502,151.07 79.835,157.218 
	67.551,163.354 55.884,171.341 43.602,182.396 42.372,191.602 35.618,185.464 35.618,167.652 35.003,164.584 30.705,162.125 
	26.405,162.125 24.563,159.057 25.178,142.475 21.492,148.002 19.65,152.914 15.353,159.671 11.667,154.144 "/>
<polyline fill-rule="evenodd" clip-rule="evenodd" points="43.602,66.325 40.532,74.309 38.689,86.59 37.459,101.943 
	39.302,116.682 41.145,130.189 43.602,142.475 47.899,153.529 53.427,168.882 60.181,179.937 68.166,189.762 79.835,200.817 
	100.101,218.629 116.066,220.468 108.697,213.101 116.682,210.643 130.807,208.799 135.104,210.643 141.246,210.643 146.77,208.184 
	156.601,206.954 156.601,213.101 166.425,206.345 178.704,196.519 189.149,186.074 196.517,178.093 202.044,167.043 
	197.131,167.652 194.058,171.95 187.92,178.707 183.003,186.693 170.109,197.129 160.897,203.276 150.458,203.276 143.092,204.5 
	138.173,205.73 141.246,200.203 145.545,189.762 141.861,192.222 136.944,199.588 133.875,203.885 119.752,206.954 112.382,208.799 
	105.014,208.799 97.645,205.73 90.275,200.817 81.062,192.222 73.078,183.62 65.095,173.795 58.954,164.584 53.427,152.914 
	49.741,141.864 46.672,132.034 44.829,119.755 43.602,105.014 42.372,89.046 44.217,77.994 44.829,71.237 43.602,66.325 "/>
<polyline fill-rule="evenodd" clip-rule="evenodd" points="86.59,4.298 75.535,12.282 68.166,19.039 55.884,33.776 49.741,48.516 
	56.499,44.217 62.638,34.392 70.623,24.563 77.379,17.194 84.748,11.055 93.344,4.913 86.59,4.298 "/>
<polyline fill-rule="evenodd" clip-rule="evenodd" points="108.085,6.143 117.91,11.667 125.279,17.194 131.417,22.722 
	138.173,31.936 145.545,46.059 149.843,59.57 155.37,74.309 158.443,93.347 158.443,118.525 157.824,138.176 155.985,149.231 
	154.146,161.516 149.843,174.409 145.545,186.074 150.458,182.396 155.985,170.111 160.897,152.914 163.352,132.648 
	164.582,118.525 162.741,97.645 161.513,79.221 157.824,65.71 153.526,52.813 146.159,35.619 140.631,25.179 132.036,15.967 
	123.44,10.44 117.91,5.527 108.085,6.143 "/>
<polyline fill-rule="evenodd" clip-rule="evenodd" points="96.415,76.149 114.225,71.237 132.036,68.781 145.545,68.166 
	159.668,66.939 177.476,69.395 190.988,72.466 214.938,80.45 223.534,85.975 236.433,97.03 234.589,111.156 227.838,107.471 
	225.384,102.558 227.838,99.486 224.153,94.574 213.707,86.59 203.883,82.907 189.759,77.994 175.021,74.923 162.741,73.693 
	148.619,72.466 133.875,73.079 119.137,75.535 108.697,77.38 93.959,81.063 96.415,76.149 "/>
<polyline fill-rule="evenodd" clip-rule="evenodd" points="121.591,115.457 132.646,111.156 141.861,107.471 155.985,106.856 
	154.146,111.156 144.315,111.156 135.104,114.228 122.82,120.365 121.591,115.457 "/>
<polyline fill-rule="evenodd" clip-rule="evenodd" points="145.545,139.405 159.668,137.562 177.476,138.79 187.92,141.864 
	197.131,146.163 208.18,157.218 211.255,163.354 213.707,178.707 197.746,192.222 202.658,181.166 204.502,171.95 203.883,162.125 
	199.585,154.759 192.828,150.46 184.231,146.771 175.637,144.933 165.195,142.475 152.297,142.475 145.545,143.09 145.545,139.405 
	"/>
<polyline fill-rule="evenodd" clip-rule="evenodd" points="169.499,108.7 172.567,112.383 180.549,112.383 183.622,116.682 
	183.003,128.351 180.549,142.475 179.323,154.759 177.476,162.125 170.109,165.813 155.37,165.813 155.985,162.125 162.741,163.354 
	170.109,160.286 174.406,155.368 175.637,143.09 178.095,126.512 177.476,117.911 173.177,116.682 168.879,114.837 169.499,108.7 
	"/>
<polyline fill-rule="evenodd" clip-rule="evenodd" points="119.137,193.445 119.752,202.656 122.82,204.5 129.576,199.588 
	138.173,194.061 141.861,188.533 141.246,183.006 144.315,177.478 149.228,171.341 146.159,167.043 141.861,172.57 138.173,176.868 
	135.719,182.396 135.104,188.533 133.265,192.222 128.348,195.899 124.664,198.973 122.21,191.602 119.137,193.445 "/>
<polyline fill-rule="evenodd" clip-rule="evenodd" points="198.355,35.003 203.273,46.059 209.41,55.27 214.938,65.098 
	217.396,71.237 227.838,69.395 228.451,73.693 219.856,76.149 221.08,87.819 222.31,103.785 221.08,118.525 219.235,128.351 
	213.707,143.703 213.707,137.562 216.782,118.525 217.396,103.172 217.396,91.503 214.328,78.606 211.868,68.781 207.571,60.182 
	202.044,52.813 197.131,59.57 202.044,65.098 206.956,68.166 206.341,71.237 201.429,70.622 194.058,65.098 190.374,60.182 
	194.058,54.657 198.355,48.516 195.286,40.531 190.988,36.233 180.549,30.706 163.971,26.408 138.173,25.179 112.997,25.179 
	96.415,28.249 89.661,30.091 86.59,27.635 95.8,25.179 116.682,21.495 133.265,19.651 156.601,20.88 174.406,24.563 193.447,27.635 
	198.355,35.003 "/>
<polyline fill-rule="evenodd" clip-rule="evenodd" points="79.835,112.998 98.257,119.755 105.014,122.209 100.714,132.034 
	95.8,145.543 94.573,151.07 98.872,154.759 108.697,160.286 114.839,163.354 114.839,179.937 117.91,187.304 119.137,181.166 
	118.521,171.95 120.366,166.423 119.137,160.286 112.382,157.218 106.855,152.914 100.101,149.231 103.784,133.878 109.927,126.512 
	108.085,120.365 98.872,114.837 89.045,111.156 84.133,108.7 79.835,112.998 "/>
<polyline fill-rule="evenodd" clip-rule="evenodd" points="76.764,106.856 75.535,101.943 72.463,95.803 68.781,92.732 
	62.026,94.574 59.569,101.328 57.726,98.872 54.042,99.486 54.042,101.943 59.569,109.312 63.868,114.228 68.166,112.998 
	66.939,108.7 65.095,103.172 64.482,98.872 67.551,97.645 70.008,102.558 73.693,108.085 76.764,109.927 76.764,106.856 "/>
<polyline fill-rule="evenodd" clip-rule="evenodd" points="75.535,37.46 68.166,46.059 60.796,51.586 54.042,62.026 56.499,65.098 
	56.499,70.622 54.654,76.149 53.427,83.519 54.042,95.189 49.741,90.276 47.286,81.063 49.741,71.852 50.356,66.939 48.515,63.253 
	50.356,57.726 55.884,50.972 65.095,42.988 74.923,34.392 75.535,37.46 "/>
<polyline fill-rule="evenodd" clip-rule="evenodd" points="69.396,30.091 77.379,25.793 85.36,22.722 90.888,23.337 87.817,25.793 
	80.448,28.864 74.308,30.091 69.396,35.003 69.396,30.091 "/>
<polyline fill-rule="evenodd" clip-rule="evenodd" points="98.257,30.091 98.872,33.776 97.03,38.075 96.415,42.988 97.645,47.289 
	100.714,50.356 106.241,50.972 110.542,50.356 112.382,56.499 117.91,58.955 122.21,56.499 124.049,50.972 124.664,41.761 
	130.807,34.392 130.191,27.635 125.895,30.091 123.44,35.003 117.91,41.146 119.137,47.289 118.521,53.428 116.066,51.586 
	114.839,46.059 109.927,42.988 106.241,46.059 102.557,44.217 101.942,38.69 105.628,30.091 102.557,28.249 98.257,30.091 "/>
<polyline fill-rule="evenodd" clip-rule="evenodd" points="147.999,23.337 155.985,28.249 162.741,30.091 162.121,34.392 
	152.297,41.761 139.403,54.043 158.443,42.988 162.121,45.444 163.971,55.884 159.668,58.955 154.755,60.182 147.389,68.781 
	141.861,76.765 138.173,82.292 132.646,85.975 128.348,86.59 128.963,92.118 127.118,98.872 122.82,100.102 120.366,97.645 
	118.521,93.347 117.91,89.046 114.225,86.59 107.47,89.046 100.714,93.347 99.487,89.046 108.697,83.519 116.682,81.063 
	121.591,82.292 121.591,87.819 123.44,94.574 124.664,89.046 126.509,83.519 133.875,81.063 141.246,74.309 145.545,66.939 
	154.146,57.726 155.985,52.813 155.37,48.516 149.228,52.813 140.631,58.34 135.104,62.641 131.417,58.34 139.403,48.516 
	146.159,41.146 155.37,34.392 149.228,29.476 143.7,23.337 147.999,23.337 "/>
<polyline fill-rule="evenodd" clip-rule="evenodd" points="219.856,97.03 198.355,106.856 199.585,116.682 197.746,127.121 
	196.517,133.878 195.286,139.405 201.429,143.703 210.64,150.46 214.328,149.841 211.868,146.163 206.956,140.636 201.429,137.562 
	203.273,125.282 205.728,114.228 206.956,109.312 214.328,104.399 219.856,103.172 219.856,97.03 "/>
<polyline fill-rule="evenodd" clip-rule="evenodd" points="93.959,91.503 90.275,97.645 90.275,104.399 95.188,108.7 
	101.327,111.156 105.628,107.471 107.47,103.785 112.382,106.856 108.085,109.312 107.47,113.612 109.927,116.682 117.296,120.984 
	118.521,117.295 115.454,114.837 114.839,112.383 117.296,109.312 117.91,106.241 115.454,101.328 111.153,98.259 106.241,98.872 
	102.557,103.785 99.487,105.629 94.573,103.172 95.188,98.872 97.645,94.574 93.959,91.503 "/>
<polyline fill-rule="evenodd" clip-rule="evenodd" points="87.205,12.282 101.327,10.44 108.697,9.211 114.839,12.282 
	110.542,24.563 106.241,20.88 97.645,19.651 90.275,17.809 95.188,15.967 103.169,16.583 107.47,17.809 110.542,14.124 
	103.784,13.512 97.645,13.512 86.59,15.967 87.205,12.282 "/>
<polyline fill-rule="evenodd" clip-rule="evenodd" fill="#7ED0E0" points="50.972,17.809 25.178,47.9 8.595,74.309 3.683,99.486 
	2.456,126.512 12.896,157.218 33.162,184.85 57.726,206.345 96.415,218.629 127.737,221.082 167.649,211.873 203.883,190.376 
	224.763,164.584 234.589,128.966 234.589,92.118 227.223,63.253 208.801,39.304 187.305,22.107 166.425,12.897 146.159,6.754 
	120.981,3.071 103.784,2.457 79.221,7.37 50.972,17.809 "/>
<polyline fill-rule="evenodd" clip-rule="evenodd" fill="#CCEAEE" points="160.282,23.952 146.159,18.424 129.576,15.353 
	114.225,16.583 104.399,23.952 105.628,35.619 119.137,46.059 139.403,56.499 159.054,72.466 176.865,90.889 186.076,109.312 
	189.149,123.438 188.53,138.79 186.691,145.543 193.447,148.002 200.205,138.79 204.502,124.053 204.502,109.927 201.429,87.205 
	189.149,56.499 173.177,35.003 160.282,23.952 "/>
<polyline fill-rule="evenodd" clip-rule="evenodd" fill="#26BCD6" points="53.427,20.266 48.515,28.249 49.129,39.917 
	58.954,51.586 85.36,63.253 109.927,71.237 126.509,81.677 140.631,98.259 148.619,113.612 154.146,129.58 158.443,152.299 
	158.443,178.707 154.146,196.519 146.159,209.412 131.417,218.629 110.542,219.854 76.764,213.712 49.129,201.427 28.249,182.396 
	11.667,155.987 2.456,117.295 6.754,85.363 15.353,57.726 30.705,37.46 53.427,20.266 "/>
<polyline fill-rule="evenodd" clip-rule="evenodd" fill="#73C167" points="196.517,30.706 200.205,49.13 194.678,60.182 
	204.502,68.781 220.465,89.046 219.856,100.102 235.817,109.312 229.062,71.852 215.557,46.673 196.517,30.706 "/>
<polyline fill-rule="evenodd" clip-rule="evenodd" fill="#54B948" points="9.825,156.598 27.02,135.108 27.635,159.057 
	36.845,161.516 37.459,189.762 19.65,173.795 9.825,156.598 "/>
<polyline fill-rule="evenodd" clip-rule="evenodd" fill="#54B948" points="214.938,175.024 215.557,159.671 209.41,148.002 
	198.975,136.947 201.429,108.085 218.011,101.943 233.365,102.558 234.589,126.512 228.451,154.144 214.938,175.024 "/>
<polyline fill-rule="evenodd" clip-rule="evenodd" fill="#FFFFFF" points="94.573,217.4 114.225,209.412 134.49,207.573 
	161.513,203.885 157.824,214.326 133.265,219.854 111.153,221.697 94.573,217.4 "/>
<polyline fill-rule="evenodd" clip-rule="evenodd" fill="#54B948" points="10.439,74.309 19.65,81.677 15.353,101.943 
	2.456,110.541 10.439,74.309 "/>
<polyline fill-rule="evenodd" clip-rule="evenodd" fill="#54B948" points="120.981,200.203 116.066,177.478 117.296,163.354 
	98.872,149.841 101.942,136.337 105.014,124.662 124.049,115.457 146.159,108.085 160.282,109.312 178.704,116.682 179.323,132.648 
	175.637,160.896 162.741,165.193 156.601,165.193 143.092,172.57 137.564,184.234 135.104,193.445 122.82,204.5 120.981,200.203 "/>
<polyline fill-rule="evenodd" clip-rule="evenodd" fill="#54B948" points="67.551,97.03 76.15,106.856 81.062,111.768 
	108.085,124.053 117.296,119.755 113.609,116.682 115.454,104.399 107.47,100.102 99.487,108.7 90.888,103.785 93.344,93.347 
	67.551,97.03 "/>
<polyline fill-rule="evenodd" clip-rule="evenodd" fill="#54B948" points="87.205,13.512 106.241,11.667 113.609,13.512 
	109.927,20.88 98.257,17.809 90.888,17.809 87.205,13.512 "/>
<polyline fill-rule="evenodd" clip-rule="evenodd" fill="#49A942" points="88.432,24.563 71.851,31.32 67.551,41.146 50.972,60.182 
	52.198,71.237 50.972,84.134 56.499,99.486 63.868,112.383 66.324,97.645 76.15,108.7 92.117,95.803 108.085,86.59 117.91,84.134 
	123.44,98.872 128.963,84.134 135.719,80.45 145.545,69.395 161.513,53.428 157.824,44.829 135.104,60.182 143.092,45.444 
	158.443,31.936 144.931,22.722 132.646,27.02 120.981,40.531 120.981,55.27 116.066,56.499 111.769,47.9 99.487,47.9 98.257,41.146 
	100.714,29.476 98.257,25.793 88.432,24.563 "/>
<polyline fill-rule="evenodd" clip-rule="evenodd" points="120.366,1.842 102.557,0 84.133,3.071 66.939,7.984 55.884,13.512 
	44.829,20.88 33.776,30.091 22.107,44.829 15.353,54.657 8.595,68.166 3.683,80.45 0.615,97.03 0,112.383 1.841,131.42 
	6.754,148.002 12.896,164.584 20.88,177.478 31.32,189.762 42.987,200.203 57.726,209.412 73.078,215.555 90.275,220.468 
	108.697,223.536 125.895,224.151 143.7,222.307 164.582,216.779 178.095,211.873 194.678,200.817 209.41,188.533 217.396,178.093 
	227.223,161.516 230.911,148.002 231.52,139.405 228.451,133.878 227.223,143.09 224.763,152.914 218.011,163.354 217.396,155.987 
	213.099,157.218 213.707,163.969 214.328,171.341 204.502,180.547 198.355,188.533 187.305,195.899 176.25,202.656 167.649,208.184 
	150.458,212.481 132.036,214.94 114.839,215.555 97.645,214.326 84.133,209.412 65.095,203.276 52.813,195.29 42.372,186.074 
	27.635,173.795 18.423,159.057 12.896,147.387 8.595,133.878 6.754,122.209 6.139,112.383 7.983,98.872 10.439,85.975 
	15.967,70.622 25.178,52.813 34.389,41.146 43.602,30.091 56.499,19.651 71.851,12.897 85.36,7.984 104.399,4.913 120.366,1.842 "/>
<polyline fill-rule="evenodd" clip-rule="evenodd" points="138.792,3.686 159.668,9.211 174.406,14.739 189.149,21.495 
	202.044,30.706 219.856,48.516 229.062,64.483 234.589,76.765 238.277,90.276 240.116,104.399 238.886,120.365 235.208,137.562 
	233.365,127.121 230.29,116.066 230.911,104.399 229.681,86.59 225.992,74.923 220.465,63.253 214.328,52.813 206.341,44.829 
	190.374,30.091 176.865,21.495 162.121,15.967 145.545,9.211 138.792,3.686 "/>
<polyline fill-rule="evenodd" clip-rule="evenodd" points="12.896,68.781 25.178,57.726 33.162,53.428 45.444,46.673 60.181,39.304 
	66.939,38.075 66.939,40.531 55.884,46.059 41.145,54.043 27.02,63.868 9.825,74.923 12.896,68.781 "/>
<polyline fill-rule="evenodd" clip-rule="evenodd" points="4.912,111.156 8.595,105.629 14.123,103.785 18.423,102.558 
	19.036,99.486 20.265,90.276 22.722,82.292 22.107,78.606 11.052,73.079 8.595,79.221 15.353,81.063 15.353,86.59 13.511,92.732 
	12.282,98.872 9.21,101.943 3.683,103.172 4.912,111.156 "/>
<polyline fill-rule="evenodd" clip-rule="evenodd" points="4.912,130.189 14.738,119.755 27.02,108.085 39.917,98.872 
	52.198,92.118 65.095,86.59 79.221,82.292 42.372,104.399 31.32,112.383 23.336,117.911 14.123,126.512 5.527,135.108 
	4.912,130.189 "/>
<polyline fill-rule="evenodd" clip-rule="evenodd" points="11.667,154.144 19.036,140.636 27.02,132.648 31.32,135.108 
	29.476,157.826 35.618,157.826 39.302,160.896 40.532,167.652 41.145,177.478 50.972,167.043 62.026,159.057 74.308,152.914 
	87.205,146.163 104.399,139.405 120.366,137.562 131.417,137.562 127.118,141.244 105.628,146.163 91.502,151.07 79.835,157.218 
	67.551,163.354 55.884,171.341 43.602,182.396 42.372,191.602 35.618,185.464 35.618,167.652 35.003,164.584 30.705,162.125 
	26.405,162.125 24.563,159.057 25.178,142.475 21.492,148.002 19.65,152.914 15.353,159.671 11.667,154.144 "/>
<polyline fill-rule="evenodd" clip-rule="evenodd" points="43.602,66.325 40.532,74.309 38.689,86.59 37.459,101.943 
	39.302,116.682 41.145,130.189 43.602,142.475 47.899,153.529 53.427,168.882 60.181,179.937 68.166,189.762 79.835,200.817 
	100.101,218.629 116.066,220.468 108.697,213.101 116.682,210.643 130.807,208.799 135.104,210.643 141.246,210.643 146.77,208.184 
	156.601,206.954 156.601,213.101 166.425,206.345 178.704,196.519 189.149,186.074 196.517,178.093 202.044,167.043 
	197.131,167.652 194.058,171.95 187.92,178.707 183.003,186.693 170.109,197.129 160.897,203.276 150.458,203.276 143.092,204.5 
	138.173,205.73 141.246,200.203 145.545,189.762 141.861,192.222 136.944,199.588 133.875,203.885 119.752,206.954 112.382,208.799 
	105.014,208.799 97.645,205.73 90.275,200.817 81.062,192.222 73.078,183.62 65.095,173.795 58.954,164.584 53.427,152.914 
	49.741,141.864 46.672,132.034 44.829,119.755 43.602,105.014 42.372,89.046 44.217,77.994 44.829,71.237 43.602,66.325 "/>
<polyline fill-rule="evenodd" clip-rule="evenodd" points="86.59,4.298 75.535,12.282 68.166,19.039 55.884,33.776 49.741,48.516 
	56.499,44.217 62.638,34.392 70.623,24.563 77.379,17.194 84.748,11.055 93.344,4.913 86.59,4.298 "/>
<polyline fill-rule="evenodd" clip-rule="evenodd" points="108.085,6.143 117.91,11.667 125.279,17.194 131.417,22.722 
	138.173,31.936 145.545,46.059 149.843,59.57 155.37,74.309 158.443,93.347 158.443,118.525 157.824,138.176 155.985,149.231 
	154.146,161.516 149.843,174.409 145.545,186.074 150.458,182.396 155.985,170.111 160.897,152.914 163.352,132.648 
	164.582,118.525 162.741,97.645 161.513,79.221 157.824,65.71 153.526,52.813 146.159,35.619 140.631,25.179 132.036,15.967 
	123.44,10.44 117.91,5.527 108.085,6.143 "/>
<polyline fill-rule="evenodd" clip-rule="evenodd" points="96.415,76.149 114.225,71.237 132.036,68.781 145.545,68.166 
	159.668,66.939 177.476,69.395 190.988,72.466 214.938,80.45 223.534,85.975 236.433,97.03 234.589,111.156 227.838,107.471 
	225.384,102.558 227.838,99.486 224.153,94.574 213.707,86.59 203.883,82.907 189.759,77.994 175.021,74.923 162.741,73.693 
	148.619,72.466 133.875,73.079 119.137,75.535 108.697,77.38 93.959,81.063 96.415,76.149 "/>
<polyline fill-rule="evenodd" clip-rule="evenodd" points="121.591,115.457 132.646,111.156 141.861,107.471 155.985,106.856 
	154.146,111.156 144.315,111.156 135.104,114.228 122.82,120.365 121.591,115.457 "/>
<polyline fill-rule="evenodd" clip-rule="evenodd" points="145.545,139.405 159.668,137.562 177.476,138.79 187.92,141.864 
	197.131,146.163 208.18,157.218 211.255,163.354 213.707,178.707 197.746,192.222 202.658,181.166 204.502,171.95 203.883,162.125 
	199.585,154.759 192.828,150.46 184.231,146.771 175.637,144.933 165.195,142.475 152.297,142.475 145.545,143.09 145.545,139.405 
	"/>
<polyline fill-rule="evenodd" clip-rule="evenodd" points="169.499,108.7 172.567,112.383 180.549,112.383 183.622,116.682 
	183.003,128.351 180.549,142.475 179.323,154.759 177.476,162.125 170.109,165.813 155.37,165.813 155.985,162.125 162.741,163.354 
	170.109,160.286 174.406,155.368 175.637,143.09 178.095,126.512 177.476,117.911 173.177,116.682 168.879,114.837 169.499,108.7 
	"/>
<polyline fill-rule="evenodd" clip-rule="evenodd" points="119.137,193.445 119.752,202.656 122.82,204.5 129.576,199.588 
	138.173,194.061 141.861,188.533 141.246,183.006 144.315,177.478 149.228,171.341 146.159,167.043 141.861,172.57 138.173,176.868 
	135.719,182.396 135.104,188.533 133.265,192.222 128.348,195.899 124.664,198.973 122.21,191.602 119.137,193.445 "/>
<polyline fill-rule="evenodd" clip-rule="evenodd" points="198.355,35.003 203.273,46.059 209.41,55.27 214.938,65.098 
	217.396,71.237 227.838,69.395 228.451,73.693 219.856,76.149 221.08,87.819 222.31,103.785 221.08,118.525 219.235,128.351 
	213.707,143.703 213.707,137.562 216.782,118.525 217.396,103.172 217.396,91.503 214.328,78.606 211.868,68.781 207.571,60.182 
	202.044,52.813 197.131,59.57 202.044,65.098 206.956,68.166 206.341,71.237 201.429,70.622 194.058,65.098 190.374,60.182 
	194.058,54.657 198.355,48.516 195.286,40.531 190.988,36.233 180.549,30.706 163.971,26.408 138.173,25.179 112.997,25.179 
	96.415,28.249 89.661,30.091 86.59,27.635 95.8,25.179 116.682,21.495 133.265,19.651 156.601,20.88 174.406,24.563 193.447,27.635 
	198.355,35.003 "/>
<polyline fill-rule="evenodd" clip-rule="evenodd" points="79.835,112.998 98.257,119.755 105.014,122.209 100.714,132.034 
	95.8,145.543 94.573,151.07 98.872,154.759 108.697,160.286 114.839,163.354 114.839,179.937 117.91,187.304 119.137,181.166 
	118.521,171.95 120.366,166.423 119.137,160.286 112.382,157.218 106.855,152.914 100.101,149.231 103.784,133.878 109.927,126.512 
	108.085,120.365 98.872,114.837 89.045,111.156 84.133,108.7 79.835,112.998 "/>
<polyline fill-rule="evenodd" clip-rule="evenodd" points="76.764,106.856 75.535,101.943 72.463,95.803 68.781,92.732 
	62.026,94.574 59.569,101.328 57.726,98.872 54.042,99.486 54.042,101.943 59.569,109.312 63.868,114.228 68.166,112.998 
	66.939,108.7 65.095,103.172 64.482,98.872 67.551,97.645 70.008,102.558 73.693,108.085 76.764,109.927 76.764,106.856 "/>
<polyline fill-rule="evenodd" clip-rule="evenodd" points="75.535,37.46 68.166,46.059 60.796,51.586 54.042,62.026 56.499,65.098 
	56.499,70.622 54.654,76.149 53.427,83.519 54.042,95.189 49.741,90.276 47.286,81.063 49.741,71.852 50.356,66.939 48.515,63.253 
	50.356,57.726 55.884,50.972 65.095,42.988 74.923,34.392 75.535,37.46 "/>
<polyline fill-rule="evenodd" clip-rule="evenodd" points="69.396,30.091 77.379,25.793 85.36,22.722 90.888,23.337 87.817,25.793 
	80.448,28.864 74.308,30.091 69.396,35.003 69.396,30.091 "/>
<polyline fill-rule="evenodd" clip-rule="evenodd" points="98.257,30.091 98.872,33.776 97.03,38.075 96.415,42.988 97.645,47.289 
	100.714,50.356 106.241,50.972 110.542,50.356 112.382,56.499 117.91,58.955 122.21,56.499 124.049,50.972 124.664,41.761 
	130.807,34.392 130.191,27.635 125.895,30.091 123.44,35.003 117.91,41.146 119.137,47.289 118.521,53.428 116.066,51.586 
	114.839,46.059 109.927,42.988 106.241,46.059 102.557,44.217 101.942,38.69 105.628,30.091 102.557,28.249 98.257,30.091 "/>
<polyline fill-rule="evenodd" clip-rule="evenodd" points="147.999,23.337 155.985,28.249 162.741,30.091 162.121,34.392 
	152.297,41.761 139.403,54.043 158.443,42.988 162.121,45.444 163.971,55.884 159.668,58.955 154.755,60.182 147.389,68.781 
	141.861,76.765 138.173,82.292 132.646,85.975 128.348,86.59 128.963,92.118 127.118,98.872 122.82,100.102 120.366,97.645 
	118.521,93.347 117.91,89.046 114.225,86.59 107.47,89.046 100.714,93.347 99.487,89.046 108.697,83.519 116.682,81.063 
	121.591,82.292 121.591,87.819 123.44,94.574 124.664,89.046 126.509,83.519 133.875,81.063 141.246,74.309 145.545,66.939 
	154.146,57.726 155.985,52.813 155.37,48.516 149.228,52.813 140.631,58.34 135.104,62.641 131.417,58.34 139.403,48.516 
	146.159,41.146 155.37,34.392 149.228,29.476 143.7,23.337 147.999,23.337 "/>
<polyline fill-rule="evenodd" clip-rule="evenodd" points="219.856,97.03 198.355,106.856 199.585,116.682 197.746,127.121 
	196.517,133.878 195.286,139.405 201.429,143.703 210.64,150.46 214.328,149.841 211.868,146.163 206.956,140.636 201.429,137.562 
	203.273,125.282 205.728,114.228 206.956,109.312 214.328,104.399 219.856,103.172 219.856,97.03 "/>
<polyline fill-rule="evenodd" clip-rule="evenodd" points="93.959,91.503 90.275,97.645 90.275,104.399 95.188,108.7 
	101.327,111.156 105.628,107.471 107.47,103.785 112.382,106.856 108.085,109.312 107.47,113.612 109.927,116.682 117.296,120.984 
	118.521,117.295 115.454,114.837 114.839,112.383 117.296,109.312 117.91,106.241 115.454,101.328 111.153,98.259 106.241,98.872 
	102.557,103.785 99.487,105.629 94.573,103.172 95.188,98.872 97.645,94.574 93.959,91.503 "/>
<polyline fill-rule="evenodd" clip-rule="evenodd" points="87.205,12.282 101.327,10.44 108.697,9.211 114.839,12.282 
	110.542,24.563 106.241,20.88 97.645,19.651 90.275,17.809 95.188,15.967 103.169,16.583 107.47,17.809 110.542,14.124 
	103.784,13.512 97.645,13.512 86.59,15.967 87.205,12.282 "/>
</svg>
