<?xml version="1.0" encoding="UTF-8" standalone="no"?>
<!-- Created with Inkscape (http://www.inkscape.org/) -->
<svg
   xmlns:i="http://ns.adobe.com/AdobeIllustrator/10.0/"
   xmlns:dc="http://purl.org/dc/elements/1.1/"
   xmlns:cc="http://creativecommons.org/ns#"
   xmlns:rdf="http://www.w3.org/1999/02/22-rdf-syntax-ns#"
   xmlns:svg="http://www.w3.org/2000/svg"
   xmlns="http://www.w3.org/2000/svg"
   xmlns:xlink="http://www.w3.org/1999/xlink"
   xmlns:sodipodi="http://sodipodi.sourceforge.net/DTD/sodipodi-0.dtd"
   xmlns:inkscape="http://www.inkscape.org/namespaces/inkscape"
   width="600"
   height="500"
   id="svg2"
   sodipodi:version="0.32"
   inkscape:version="0.46dev+devel"
   sodipodi:docbase="C:\Documents and Settings\Usuario\Desktop"
   sodipodi:docname="organico.svg"
   version="1.0"
   inkscape:output_extension="org.inkscape.output.svg.inkscape">
  <defs
     id="defs4">
    <linearGradient
       id="linearGradient11719">
      <stop
         style="stop-color:black;stop-opacity:0;"
         offset="0"
         id="stop11721" />
      <stop
         style="stop-color:black;stop-opacity:0;"
         offset="0.60000002"
         id="stop11723" />
      <stop
         style="stop-color:black;stop-opacity:1;"
         offset="1"
         id="stop11725" />
    </linearGradient>
    <linearGradient
       id="linearGradient1400">
      <stop
         id="stop1401"
         offset="0.0000000"
         style="stop-color:#000000;stop-opacity:0.67843139;" />
      <stop
         id="stop1403"
         offset="0.56999999"
         style="stop-color:#000000;stop-opacity:0.32941177;" />
      <stop
         id="stop1402"
         offset="1.0000000"
         style="stop-color:#000000;stop-opacity:0.00000000;" />
    </linearGradient>
    <linearGradient
       inkscape:collect="always"
       xlink:href="#linearGradient1400"
       id="linearGradient2586"
       gradientUnits="userSpaceOnUse"
       x1="386.26981"
       y1="720.02228"
       x2="381.7471"
       y2="818.47198" />
    <linearGradient
       inkscape:collect="always"
       xlink:href="#linearGradient1400"
       id="linearGradient2588"
       gradientUnits="userSpaceOnUse"
       x1="381.7471"
       y1="931.66998"
       x2="381.7471"
       y2="873.25592" />
    <radialGradient
       inkscape:collect="always"
       xlink:href="#linearGradient11719"
       id="radialGradient2590"
       gradientUnits="userSpaceOnUse"
       gradientTransform="matrix(1.667995,0,0,2.538234,-250.5159,-1289.581)"
       cx="375.02682"
       cy="838.35126"
       fx="375.02682"
       fy="838.35126"
       r="39.191914" />
    <radialGradient
       inkscape:collect="always"
       xlink:href="#linearGradient11719"
       id="radialGradient2592"
       gradientUnits="userSpaceOnUse"
       gradientTransform="matrix(1.284023,0.166448,-0.232241,1.791566,64.71471,-709.8458)"
       cx="427.41147"
       cy="803.98468"
       fx="427.41147"
       fy="803.98468"
       r="30.906742" />
    <radialGradient
       inkscape:collect="always"
       xlink:href="#linearGradient11719"
       id="radialGradient2594"
       gradientUnits="userSpaceOnUse"
       gradientTransform="matrix(2.013462,0,0,0.909506,-438.411,63.77279)"
       cx="432.58795"
       cy="792.12152"
       fx="432.58795"
       fy="792.12152"
       r="26.967224" />
    <radialGradient
       inkscape:collect="always"
       xlink:href="#linearGradient11719"
       id="radialGradient2596"
       gradientUnits="userSpaceOnUse"
       gradientTransform="matrix(1.284023,0.166448,-0.232241,1.791566,64.71471,-709.8458)"
       cx="427.41147"
       cy="803.98468"
       fx="427.41147"
       fy="803.98468"
       r="30.906742" />
    <radialGradient
       inkscape:collect="always"
       xlink:href="#linearGradient11719"
       id="radialGradient2598"
       gradientUnits="userSpaceOnUse"
       gradientTransform="matrix(2.013462,0,0,0.909506,-438.411,63.77279)"
       cx="432.58795"
       cy="792.12152"
       fx="432.58795"
       fy="792.12152"
       r="26.967224" />
  </defs>
  <sodipodi:namedview
     id="base"
     pagecolor="#ffffff"
     bordercolor="#666666"
     borderopacity="1.0"
     inkscape:pageopacity="0.0"
     inkscape:pageshadow="2"
     inkscape:zoom="0.50000001"
     inkscape:cx="507.88077"
     inkscape:cy="264.02483"
     inkscape:document-units="px"
     inkscape:current-layer="layer1"
     inkscape:window-width="1024"
     inkscape:window-height="749"
     inkscape:window-x="220"
     inkscape:window-y="220"
     showguides="true"
     inkscape:guide-bbox="true"
     width="600px"
     height="500px"
     units="cm" />
  <metadata
     id="metadata7">
    <rdf:RDF>
      <cc:Work
         rdf:about="">
        <dc:format>image/svg+xml</dc:format>
        <dc:type
           rdf:resource="http://purl.org/dc/dcmitype/StillImage" />
      </cc:Work>
    </rdf:RDF>
  </metadata>
  <g
     inkscape:label="Layer 1"
     inkscape:groupmode="layer"
     id="layer1">
    <g
       id="g2515"
       transform="matrix(0.9321422,0,0,0.9321422,-52.602196,-73.279209)">
      <g
         id="g4084"
         transform="matrix(-0.134786,-0.603324,0.712838,0,115.9323,861.1654)" />
      <g
         id="g8602"
         transform="matrix(-0.134786,-0.603324,0.712838,0,-474.53226,-459.553)" />
      <g
         inkscape:export-ydpi="599"
         inkscape:export-xdpi="599"
         inkscape:transform-center-y="0.0003282629"
         inkscape:transform-center-x="72.888469"
         transform="matrix(2.972288,-0.7964228,0.7964228,2.972288,-1455.9422,-1264.3317)"
         id="g18256">
        <g
           id="g15219"
           transform="matrix(-0.965926,-0.258819,0.258819,-0.965926,652.7459,1408.54)">
          <path
             transform="matrix(1,0,0,0.976855,0,16.27771)"
             d="M 465.3125,599.59375 C 452.69594,599.33997 440.90291,606.44788 431.53125,616.4375 C 423.47757,625.02222 417.28287,635.85871 413.6875,646.84375 C 394.87921,634.09994 361.05162,641.32102 342.03125,676.375 C 341.23935,677.87532 341.57088,679.72213 342.83517,680.85334 C 344.09946,681.98455 345.97163,682.10946 347.375,681.15625 C 363.98255,669.70616 376.12186,668.91682 386.5625,671.25 C 396.46975,673.46398 404.78387,678.8899 413.3125,681.875 C 413.73633,682.24368 414.23864,682.51087 414.78125,682.65625 C 415.06449,683.11212 415.33437,683.61081 415.625,684.03125 C 416.2917,684.99445 417.37565,685.58444 418.54649,685.62141 C 419.71734,685.65839 420.83635,685.13796 421.5625,684.21875 C 421.6993,684.04415 421.7799,683.88954 421.90625,683.71875 C 422.37185,683.69002 422.8278,683.57338 423.25,683.375 C 423.26048,683.36465 423.2709,683.35423 423.28125,683.34375 C 433.20066,683.16727 444.50844,680.52904 455.75,681.34375 C 467.5713,682.20047 479.05783,686.40539 489.3125,701.6875 C 490.22306,703.02614 491.89903,703.6161 493.44734,703.14301 C 494.99565,702.66991 496.05565,701.24396 496.0625,699.625 C 495.98199,677.43125 485.76297,662.16996 472.28125,654.78125 C 462.07953,649.19016 450.14847,647.98327 439.4375,651 C 448.19877,634.13627 459.54524,617.35983 480.21875,610.78125 C 481.611,610.33488 482.60911,609.10954 482.76462,607.65578 C 482.92014,606.20202 482.20382,604.79328 480.9375,604.0625 C 475.87417,601.13664 470.54916,599.69908 465.3125,599.59375 z"
             id="path15217"
             style="fill:#000000;fill-opacity:1;fill-rule:evenodd;stroke:none;stroke-width:1.00000024px;stroke-linecap:butt;stroke-linejoin:miter;stroke-opacity:1"
             inkscape:original="M 465.25 603.28125 C 442.94829 602.83265 421.39541 628.95802 415.5625 653.09375 C 400.40687 637.882 365.09261 641.61324 345.28125 678.125 C 379.80968 654.31933 399.50625 673.73262 415.8125 678.875 C 415.79085 678.94882 415.77128 679.01962 415.75 679.09375 C 416.1869 679.1994 416.6371 679.29698 417.09375 679.375 C 417.55141 680.26379 418.08991 681.11821 418.65625 681.9375 C 419.16438 681.28897 419.62988 680.59498 420.125 679.875 C 420.6478 679.94551 421.16949 680.00542 421.6875 680.03125 C 421.71124 679.93637 421.72704 679.84458 421.75 679.75 C 440.60829 679.9478 470.73414 667.37451 492.375 699.625 C 492.22195 657.43711 454.49897 644.63298 431.46875 658.375 C 440.91904 638.75628 453.14131 615.50841 479.09375 607.25 C 474.54014 604.61868 469.87419 603.37426 465.25 603.28125 z "
             inkscape:radius="3.6945434"
             sodipodi:type="inkscape:offset" />
          <path
             sodipodi:nodetypes="ccc"
             id="path14331"
             d="M 492.37976,699.62824 C 492.17865,644.19354 427.10178,639.50773 415.74008,679.09271 C 433.59045,683.40937 468.26258,663.6874 492.37976,699.62824 z"
             style="fill:#6b8e23;fill-opacity:1;fill-rule:evenodd;stroke:none;stroke-width:1.00000024px;stroke-linecap:butt;stroke-linejoin:miter;stroke-opacity:1" />
          <path
             style="fill:#556b2f;fill-opacity:1;fill-rule:evenodd;stroke:none;stroke-width:1.00000012px;stroke-linecap:butt;stroke-linejoin:miter;stroke-opacity:1"
             d="M 345.28406,678.12772 C 373.13146,626.8058 431.63819,640.24111 421.68301,680.03232 C 404.12152,679.15653 384.04166,651.40625 345.28406,678.12772 z"
             id="path14333"
             sodipodi:nodetypes="ccc" />
          <path
             style="fill:#9acd32;fill-opacity:1;fill-rule:evenodd;stroke:none;stroke-width:1.00000107px;stroke-linecap:butt;stroke-linejoin:miter;stroke-opacity:1"
             d="M 479.07994,607.255 C 442.65105,586.20448 399.68474,654.52051 418.6443,681.94814 C 432.41513,664.37224 440.75556,619.45032 479.07994,607.255 z"
             id="path14335"
             sodipodi:nodetypes="ccc" />
        </g>
        <g
           id="g15290"
           transform="matrix(0.536601,-0.143782,0.143782,0.536601,86.91474,249.9241)">
          <path
             sodipodi:nodetypes="csccsccssc"
             id="path15279"
             d="M 390.49617,758.56169 C 388.92274,757.80249 387.30338,757.37557 385.90402,757.06335 C 385.20808,756.91178 384.48043,757.04532 383.88367,757.43415 C 376.79107,762.03587 375.13882,770.97277 373.05168,778.6586 C 372.73275,779.8638 373.29269,781.12895 374.39921,781.70327 C 375.50573,782.27759 376.86261,782.00731 377.66462,781.05285 C 382.72662,774.84268 386.30637,768.72848 393.6571,766.26663 C 394.47384,765.9955 395.1092,765.34639 395.36277,764.52403 C 395.61635,763.70166 395.45688,762.80746 394.93465,762.12346 C 393.62619,760.41939 392.06961,759.32089 390.49617,758.56169 z"
             style="fill:#000000;fill-opacity:1;fill-rule:evenodd;stroke:none;stroke-width:4.99999905;stroke-linecap:butt;stroke-linejoin:round;stroke-miterlimit:4;stroke-dasharray:none;stroke-opacity:1" />
          <path
             transform="translate(-0.857321,0)"
             d="M 384.25,760.1875 C 384.19979,760.17657 384.14307,760.15678 384,760.25 C 378.27025,763.96747 376.71242,771.59586 374.71875,778.9375 C 374.67862,779.08916 374.78464,779.26441 374.9375,779.34375 C 375.08599,779.42082 375.24937,779.39951 375.375,779.25 C 380.00461,773.57032 383.59784,767.30248 391.3125,764.71875 C 391.45521,764.67138 391.57219,764.56994 391.59375,764.5 C 391.6224,764.40708 391.58912,764.23204 391.53125,764.15625 C 390.53839,762.8632 389.34818,762.04278 388.09375,761.4375 C 386.85183,760.83827 385.50249,760.46696 384.25,760.1875 z"
             id="path15288"
             style="fill:#8b4513;fill-opacity:1;fill-rule:evenodd;stroke:none;stroke-width:4.99999905;stroke-linecap:butt;stroke-linejoin:round;stroke-miterlimit:4;stroke-dasharray:none;stroke-opacity:1"
             inkscape:original="M 384.71875 758.09375 C 384.06531 757.95146 383.40407 758.10366 382.84375 758.46875 C 376.18425 762.78945 374.61594 771.15851 372.65625 778.375 C 372.35679 779.50662 372.89855 780.71075 373.9375 781.25 C 374.97646 781.78925 376.24696 781.52118 377 780.625 C 381.7529 774.79407 385.09814 769.06151 392 766.75 C 392.76688 766.49544 393.38691 765.89714 393.625 765.125 C 393.86309 764.35285 393.70909 763.48598 393.21875 762.84375 C 391.99018 761.24372 390.50861 760.21284 389.03125 759.5 C 387.55389 758.78717 386.03266 758.38691 384.71875 758.09375 z "
             inkscape:radius="-2.1398737"
             sodipodi:type="inkscape:offset" />
          <path
             sodipodi:nodetypes="cssssssssssssssssssssssssssssssscsssssssssscssssssssccsccsssscsscsscsssssssssssssssssssssssssssssssssssssssssssssssssscssssscsssssssssssssssssssssssssssssssssssssssssssssssssssssssc"
             id="path15240"
             d="M 380.37481,775.75664 C 379.19979,775.74083 378.01108,775.75417 376.85697,775.78792 C 375.9286,775.81504 375.02468,775.89057 374.14853,775.94427 C 373.41382,775.98932 372.71827,776.04432 372.06272,776.10063 C 371.50151,776.14889 370.92513,776.18868 370.28824,776.25699 C 369.55543,776.33542 368.8354,776.4057 368.07791,776.50717 C 367.93972,776.52566 367.84308,776.56777 367.82886,776.56972 C 366.96655,776.68766 366.09395,776.79584 365.21382,776.94497 C 365.11262,776.96208 365.00107,776.97955 364.84024,777.00752 C 363.89912,777.17171 362.98754,777.36599 362.16294,777.53915 C 361.4019,777.69896 360.60493,777.86523 359.76583,778.07077 C 358.92621,778.27629 358.23558,778.50115 357.64889,778.66494 C 357.53831,778.69583 357.223,778.74335 356.74607,778.88385 C 354.94303,779.41439 353.20046,779.9957 351.54713,780.66634 C 351.21942,780.79937 351.14053,780.87504 351.26695,780.82271 C 350.41242,781.17659 349.57552,781.5408 348.80757,781.91723 C 348.43326,782.10077 348.19734,782.23613 348.02928,782.32376 C 347.70877,782.49078 347.33064,782.70877 346.90856,782.94921 C 346.40577,783.23606 345.81438,783.5393 345.19633,783.94991 C 344.75916,784.23941 344.73259,784.27155 345.0718,784.04372 C 345.07176,784.05415 345.07176,784.06457 345.0718,784.07499 C 344.52902,784.44109 344.0178,784.79379 343.54636,785.16952 C 343.82211,784.94949 343.71052,785.02259 343.26618,785.38842 C 342.63379,785.9084 342.59163,785.94154 343.14165,785.48224 C 343.00614,785.59561 342.76956,785.79021 342.42563,786.10767 C 342.15681,786.35601 342.07471,786.4532 342.20772,786.32659 C 341.99604,786.52832 341.8138,786.71519 341.64734,786.88948 C 341.36965,787.18037 341.17032,787.40487 341.02472,787.57746 C 341.43117,787.09551 341.38668,787.12239 340.93133,787.67128 C 340.80899,787.81872 340.69513,787.97053 340.58888,788.10908 C 340.32386,788.45456 340.11306,788.80762 339.90399,789.14106 C 339.69814,789.46936 339.47346,789.81363 339.28136,790.20431 C 339.20417,790.36129 339.10436,790.62151 339.00117,790.86102 C 338.76252,791.07603 338.44996,791.17644 338.25402,791.45519 C 337.91122,791.9429 337.75058,792.32593 337.63139,792.64353 C 337.57719,792.78797 337.51797,792.96819 337.47574,793.1126 C 337.42422,793.29173 337.38603,793.48248 337.35121,793.64423 C 337.35113,793.64459 337.29489,793.86981 337.22668,794.36349 C 337.21625,794.37385 337.20588,794.38427 337.19556,794.39476 C 337.07582,795.33126 337.10174,795.38942 337.19556,794.55112 C 337.12431,795.12963 337.11422,795.63166 337.13329,796.05218 C 337.14973,796.41446 337.15497,796.7325 337.38235,797.45942 C 337.49603,797.82288 337.61352,798.34959 338.34742,799.11684 C 338.9284,799.72421 340.28717,800.12409 341.49169,800.11754 C 342.66206,801.88549 343.81057,803.76397 344.72936,806.37194 C 345.79203,809.38832 346.72952,810.96306 346.81516,811.25038 C 346.9008,811.53768 347.02458,811.48969 346.09914,813.97104 C 345.52006,815.52372 343.93731,817.11549 341.8964,818.84947 C 339.85549,820.58345 336.91686,822.34959 336.35501,826.47985 C 336.21641,827.49882 335.99991,829.32743 337.72479,830.92046 C 337.29374,830.52244 337.26507,830.60193 338.00497,831.17065 C 338.01535,831.17069 338.02572,831.17069 338.0361,831.17065 C 338.4201,831.46275 338.82387,831.63952 339.06344,831.73354 L 339.06344,831.76481 C 339.07431,831.76905 339.11593,831.76112 339.1257,831.76481 C 339.14576,831.77239 339.20409,831.82213 339.2191,831.82736 L 339.2191,831.79609 C 340.04055,832.07133 340.8062,832.08178 340.93133,832.07753 C 340.95208,832.0777 340.97284,832.0777 340.99359,832.07753 C 340.62121,832.09444 340.68795,832.07678 341.11812,832.04626 C 341.26895,832.03558 341.60578,831.96126 341.86527,831.92117 C 342.075,831.9069 342.28322,831.87552 342.4879,831.82736 C 344.02319,831.39391 344.01436,831.37711 342.58129,831.79609 C 342.59167,831.79613 342.60204,831.79613 342.61242,831.79609 C 343.57244,831.51148 343.73245,831.45713 343.91994,831.38955 C 343.9657,831.49683 343.92481,831.38473 343.9822,831.57718 C 345.70764,837.36341 345.34491,846.14255 344.51143,854.06176 C 344.34476,855.64544 344.08294,856.21255 344.01333,856.37589 C 343.59265,856.52962 342.84408,856.85403 341.95866,857.87694 C 340.79544,859.22079 340.45944,860.90231 340.40209,862.56775 C 340.37492,863.35718 340.46543,864.0554 340.55774,864.60042 C 340.65731,865.18838 340.81869,865.74375 340.99359,866.22657 C 341.14088,866.6332 341.31064,867.05444 341.55395,867.50872 C 341.44152,867.29879 341.46567,867.3284 341.61622,867.60254 C 342.63574,869.46001 343.54138,870.34229 343.82654,870.8861 C 344.11171,871.4299 344.33563,871.67645 343.91994,873.48167 C 343.90793,873.53379 343.14204,874.42224 341.08698,875.45181 C 339.03193,876.48137 336.36521,877.29984 333.92676,879.39209 C 333.16807,880.04307 332.41705,880.89651 331.90322,881.98766 C 332.03002,881.71838 331.90978,881.86267 331.6853,882.45675 C 331.6401,882.57555 331.55653,882.79012 331.46738,883.14472 C 331.46734,883.15515 331.46734,883.16557 331.46738,883.17599 C 331.41685,883.37994 331.45698,883.33163 331.43624,883.48871 C 331.35928,883.8752 331.34667,884.07477 331.34285,884.11416 C 331.37959,883.74526 331.28334,883.96254 331.28059,884.7396 C 331.28007,885.01836 331.31185,885.37733 331.37398,885.77158 C 331.41247,886.01624 331.4372,886.12017 331.43624,886.11557 C 331.46321,886.24494 331.53176,886.55143 331.65416,886.92864 C 331.89948,887.68905 332.0114,887.84192 331.90322,887.58535 C 331.91501,887.61394 331.92177,887.61874 331.93435,887.64789 C 331.96244,887.71341 332.0516,887.92903 332.21453,888.24206 C 332.41,888.61933 332.55865,888.84715 332.65037,888.99259 C 332.74333,889.14001 332.80718,889.22952 332.83716,889.27404 C 332.83796,889.27557 332.83715,889.30529 332.83716,889.30531 C 333.21814,889.86821 333.61719,890.35119 334.02015,890.80637 C 334.35242,891.18083 334.35962,891.18344 334.05129,890.83764 C 334.44134,891.27553 334.91053,891.77375 335.48333,892.30742 C 344.10086,900.3363 357.32281,903.42693 370.16371,902.84609 C 383.00462,902.26525 395.76449,898.0283 403.2564,889.24276 C 403.67564,888.75114 404.00083,888.32961 404.31486,887.92934 C 404.55106,887.62946 404.75954,887.35138 404.99975,887.02245 C 405.00763,887.0117 405.07701,886.90745 405.21768,886.70973 C 405.40217,886.45038 405.57465,886.23622 405.71578,886.02175 C 405.75314,885.96505 405.86039,885.82175 406.02708,885.55267 C 406.09725,885.43983 406.19527,885.27105 406.3384,885.02105 C 406.38921,884.93263 406.514,884.75037 406.68085,884.42688 C 406.88803,884.02536 406.94343,883.85972 406.86764,884.02034 C 406.90997,883.93161 407.01619,883.74571 407.17895,883.33236 C 407.15765,883.38687 407.18898,883.28333 407.27235,883.05091 C 407.42079,882.64368 407.5017,882.34928 407.55253,882.14402 C 407.75645,881.30422 407.64886,880.72982 407.64592,880.70551 C 407.64298,880.6812 407.76918,881.19897 407.58366,882.01893 C 407.64244,881.76757 407.68063,881.50823 407.70818,881.29968 C 407.62676,881.94593 407.66765,881.88439 407.73932,880.95568 C 407.78561,880.39467 407.77582,880.37241 407.73932,880.89314 C 407.78446,880.25282 407.69862,879.73485 407.67706,879.57971 C 407.3713,877.38072 405.70321,875.73383 404.47052,875.01401 C 403.23783,874.29417 402.2279,873.98857 401.48191,873.70057 C 401.06812,873.54084 401.06356,873.5431 400.89041,873.4504 C 401.12485,871.70773 401.60424,870.92921 402.54037,869.69776 C 403.58957,868.31758 405.44886,866.18892 406.15161,862.81792 C 406.77335,859.83559 406.4122,857.30682 405.71578,855.62535 C 404.54652,853.07167 404.8133,854.36795 404.84409,853.09233 C 404.8573,851.94712 404.4433,850.31874 403.5677,848.93315 C 402.79402,847.70881 401.57769,847.05976 400.64135,846.71284 C 400.9054,846.37151 401.34473,845.89592 402.01113,845.05541 C 403.52233,843.14944 405.26039,839.83926 405.52899,834.76693 C 405.81428,829.37924 403.94251,825.43913 402.78942,822.38321 C 401.63633,819.32729 400.94219,817.14037 402.01113,812.84525 C 402.32898,811.56813 402.84934,810.98276 403.84789,810.24967 C 404.84643,809.51659 406.34208,808.82375 408.08177,808.12317 C 409.82145,807.4226 411.79347,806.75349 413.68541,805.27742 C 415.57736,803.80135 417.22919,800.99074 417.141,797.99104 C 417.13382,797.74684 417.10486,797.51039 417.07874,797.24051 C 417.07878,797.23009 417.07878,797.21967 417.07874,797.20924 C 417.06268,797.05522 417.04071,796.79149 416.98535,796.45872 C 416.97705,796.40711 416.9632,796.44459 416.95421,796.39617 C 416.95308,796.3897 416.95536,796.37153 416.95421,796.3649 C 416.90593,796.0863 416.81608,795.64098 416.67403,795.11402 C 416.70946,795.24546 416.71002,795.19629 416.64289,794.95766 C 416.58925,794.76418 416.54235,794.66125 416.51838,794.58239 C 416.51842,794.57196 416.51842,794.56155 416.51838,794.55112 C 416.43295,794.27573 416.30001,793.85132 416.11367,793.36279 C 416.22958,793.66795 416.2254,793.58743 416.0514,793.14388 C 415.83765,792.60251 415.6249,792.15459 415.42878,791.73664 C 415.18721,791.22188 414.95606,790.81018 414.77501,790.48576 C 414.68693,790.32758 414.54254,790.03534 414.27691,789.61014 C 414.26133,789.58522 414.17359,789.47369 414.059,789.29742 C 413.89585,789.04633 413.72689,788.81164 413.56089,788.57817 C 413.47627,788.45909 413.40179,788.30207 413.28071,788.14036 C 413.11984,787.92539 412.95993,787.7527 412.84487,787.60874 C 412.62295,787.33136 412.48123,787.16164 412.40902,787.07711 C 412.23645,786.87497 412.11658,786.75774 412.06658,786.70184 C 411.93368,786.55331 411.71526,786.25868 411.35056,785.88877 C 411.30848,785.84605 411.26482,785.83393 411.25716,785.82623 C 410.99439,785.56222 410.73848,785.31745 410.51001,785.10697 C 409.92467,784.56845 409.85733,784.53162 410.35435,784.98189 C 410.1109,784.76102 409.84207,784.52677 409.48267,784.23136 C 408.90556,783.75716 408.268,783.24774 407.55253,782.76157 C 407.26026,782.5628 407.16672,782.50394 407.27235,782.57394 C 406.65076,782.1625 406.02951,781.79783 405.46672,781.47942 C 404.89606,781.15656 404.27272,780.83641 403.59884,780.50999 C 403.30998,780.37004 403.20419,780.31424 403.28752,780.35362 C 402.51034,779.98648 401.72925,779.6775 400.9838,779.38419 C 400.24415,779.09344 399.46039,778.78273 398.61782,778.50858 C 398.37012,778.42788 398.28389,778.40759 398.3065,778.41476 C 397.62012,778.19751 396.9033,778.01084 396.18957,777.8206 C 396.16837,777.81495 396.17914,777.82586 396.15843,777.8206 C 395.50687,777.64737 394.79464,777.4309 394.01037,777.25769 C 393.77849,777.20648 393.65889,777.19322 393.66792,777.19516 C 393.86647,777.23773 393.76325,777.21121 393.38774,777.13261 C 392.74283,776.99775 392.20119,776.90269 391.73777,776.81989 C 391.72465,776.81755 391.48253,776.76662 391.05288,776.6948 C 390.56781,776.6136 390.10049,776.54873 389.58971,776.4759 C 389.98582,776.53223 389.90872,776.51529 389.40292,776.44463 C 388.50045,776.31839 387.70258,776.2377 386.97467,776.16318 C 386.88328,776.15382 386.59369,776.11089 386.13412,776.06936 C 386.04097,776.06096 385.94035,776.05075 385.79168,776.03809 C 385.36975,776.00216 385.13147,776.00632 385.13791,776.00682 C 384.45972,775.95505 383.79067,775.91581 383.08324,775.88173 C 382.22412,775.84022 381.32414,775.76941 380.37481,775.75664 z"
             style="fill:#000000;fill-opacity:1;fill-rule:evenodd;stroke:none;stroke-width:1px;stroke-linecap:butt;stroke-linejoin:miter;stroke-opacity:1" />
          <path
             sodipodi:nodetypes="cssssssssssssssssss"
             id="path15225"
             d="M 342.9375,792.4375 C 341.17021,800.35727 341.39844,790.17969 342.9375,793.09375 C 344.47656,796.00781 347.21094,798.77344 349.09375,804.09375 C 350.97656,809.41406 352.52344,808.89063 350.46875,814.375 C 348.41406,819.85938 341.39063,822.25781 340.875,826.03125 C 340.35938,829.80469 346.35156,822.60938 348.40625,829.46875 C 350.46094,836.32813 349.94531,845.41406 349.09375,853.46875 C 348.24219,861.52344 345.17188,856.71875 345,861.6875 C 344.82813,866.65625 349.95312,866.65625 348.40625,873.34375 C 346.85937,880.03125 328.87128,879.217 338.8125,888.4375 C 353.82144,902.35831 388.32072,900.74463 401.21875,885.6875 C 411.15179,874.09169 397.29688,878.82812 397.8125,872.65625 C 398.32813,866.48437 402.27344,865.8125 403.28125,861 C 402.47744,856.0879 402.89563,853.31887 401.21875,850.03125 C 400.07812,848.23437 396.9375,850.30469 397.28125,846.1875 C 397.625,842.07031 402.125,842.375 402.59375,833.5625 C 403.0625,824.75 396.58594,821.21875 399.15625,810.9375 C 401.72656,800.65625 419.18395,805.82115 412.875,792.4375 C 402.53129,770.4946 346.11345,778.20508 342.9375,792.4375 z"
             style="fill:#fafad2;fill-opacity:1;fill-rule:evenodd;stroke:none;stroke-width:1px;stroke-linecap:butt;stroke-linejoin:miter;stroke-opacity:1" />
          <path
             style="fill:url(#linearGradient2586);fill-opacity:1;fill-rule:evenodd;stroke:none;stroke-width:1px;stroke-linecap:butt;stroke-linejoin:miter;stroke-opacity:1"
             d="M 342.9375,792.4375 C 341.17021,800.35727 341.39844,790.17969 342.9375,793.09375 C 344.47656,796.00781 347.21094,798.77344 349.09375,804.09375 C 350.97656,809.41406 352.52344,808.89063 350.46875,814.375 C 348.41406,819.85938 341.39063,822.25781 340.875,826.03125 C 340.35938,829.80469 346.35156,822.60938 348.40625,829.46875 C 350.46094,836.32813 349.94531,845.41406 349.09375,853.46875 C 348.24219,861.52344 345.17188,856.71875 345,861.6875 C 344.82813,866.65625 349.95312,866.65625 348.40625,873.34375 C 346.85937,880.03125 328.87128,879.217 338.8125,888.4375 C 353.82144,902.35831 388.32072,900.74463 401.21875,885.6875 C 411.15179,874.09169 397.29688,878.82812 397.8125,872.65625 C 398.32813,866.48437 402.27344,865.8125 403.28125,861 C 402.47744,856.0879 402.89563,853.31887 401.21875,850.03125 C 400.07812,848.23437 396.9375,850.30469 397.28125,846.1875 C 397.625,842.07031 402.125,842.375 402.59375,833.5625 C 403.0625,824.75 396.58594,821.21875 399.15625,810.9375 C 401.72656,800.65625 419.18395,805.82115 412.875,792.4375 C 402.53129,770.4946 346.11345,778.20508 342.9375,792.4375 z"
             id="path15243"
             sodipodi:nodetypes="cssssssssssssssssss" />
          <path
             sodipodi:nodetypes="cssssssssssssssssss"
             id="path15255"
             d="M 342.9375,792.4375 C 341.17021,800.35727 341.39844,790.17969 342.9375,793.09375 C 344.47656,796.00781 347.21094,798.77344 349.09375,804.09375 C 350.97656,809.41406 352.52344,808.89063 350.46875,814.375 C 348.41406,819.85938 341.39063,822.25781 340.875,826.03125 C 340.35938,829.80469 346.35156,822.60938 348.40625,829.46875 C 350.46094,836.32813 349.94531,845.41406 349.09375,853.46875 C 348.24219,861.52344 345.17188,856.71875 345,861.6875 C 344.82813,866.65625 349.95312,866.65625 348.40625,873.34375 C 346.85937,880.03125 328.87128,879.217 338.8125,888.4375 C 353.82144,902.35831 388.32072,900.74463 401.21875,885.6875 C 411.15179,874.09169 397.29688,878.82812 397.8125,872.65625 C 398.32813,866.48437 402.27344,865.8125 403.28125,861 C 402.47744,856.0879 402.89563,853.31887 401.21875,850.03125 C 400.07812,848.23437 396.9375,850.30469 397.28125,846.1875 C 397.625,842.07031 402.125,842.375 402.59375,833.5625 C 403.0625,824.75 396.58594,821.21875 399.15625,810.9375 C 401.72656,800.65625 419.18395,805.82115 412.875,792.4375 C 402.53129,770.4946 346.11345,778.20508 342.9375,792.4375 z"
             style="fill:url(#linearGradient2588);fill-opacity:1;fill-rule:evenodd;stroke:none;stroke-width:1px;stroke-linecap:butt;stroke-linejoin:miter;stroke-opacity:1" />
          <path
             id="path15232"
             d="M 381.15625,778.71875 C 363.35376,778.48042 344.72397,784.43176 342.9375,792.4375 C 342.89433,792.63094 342.85329,792.7652 342.8125,792.9375 C 342.84968,792.99489 342.89864,793.02017 342.9375,793.09375 C 343.06358,793.33248 343.20275,793.57428 343.34375,793.8125 C 356.88424,785.83015 399.94036,784.11687 414.21875,797.15625 C 414.18152,795.89573 413.78481,794.36755 412.875,792.4375 C 408.34963,782.83748 395.00263,778.90412 381.15625,778.71875 z M 342.8125,792.9375 C 342.04633,791.75485 341.66926,793.82015 341.71875,794.90625 C 341.94667,794.72708 342.18168,794.51764 342.4375,794.34375 C 342.54765,793.98234 342.67647,793.51205 342.8125,792.9375 z M 341.625,827 C 341.42162,827.00047 341.23315,827.04361 341.03125,827.0625 C 341.25965,827.27249 341.69257,827.21779 342.21875,827.0625 C 342.02532,827.0408 341.81995,826.99955 341.625,827 z M 345.09375,862.9375 C 345.20939,863.6172 345.43086,864.19661 345.71875,864.71875 C 345.63496,864.03863 345.40322,863.44694 345.09375,862.9375 z M 404.78125,879.09375 C 404.5506,879.30353 404.38426,879.49484 404.125,879.71875 C 390.42301,891.55266 354.81054,892.17217 337.125,881.34375 C 335.29213,882.90932 335.05037,884.94812 338.8125,888.4375 C 353.82144,902.35831 388.32072,900.74463 401.21875,885.6875 C 404.08566,882.34068 404.96012,880.37446 404.78125,879.09375 z"
             style="fill:#ff0000;fill-opacity:1;fill-rule:evenodd;stroke:none;stroke-width:1px;stroke-linecap:butt;stroke-linejoin:miter;stroke-opacity:1" />
          <path
             style="fill:url(#radialGradient2590);fill-opacity:1;fill-rule:evenodd;stroke:none;stroke-width:1px;stroke-linecap:butt;stroke-linejoin:miter;stroke-opacity:1"
             d="M 381.15625,778.71875 C 363.35376,778.48042 344.72397,784.43176 342.9375,792.4375 C 342.89433,792.63094 342.85329,792.7652 342.8125,792.9375 C 342.84968,792.99489 342.89864,793.02017 342.9375,793.09375 C 343.06358,793.33248 343.20275,793.57428 343.34375,793.8125 C 356.88424,785.83015 399.94036,784.11687 414.21875,797.15625 C 414.18152,795.89573 413.78481,794.36755 412.875,792.4375 C 408.34963,782.83748 395.00263,778.90412 381.15625,778.71875 z M 342.8125,792.9375 C 342.04633,791.75485 341.66926,793.82015 341.71875,794.90625 C 341.94667,794.72708 342.18168,794.51764 342.4375,794.34375 C 342.54765,793.98234 342.67647,793.51205 342.8125,792.9375 z M 341.625,827 C 341.42162,827.00047 341.23315,827.04361 341.03125,827.0625 C 341.25965,827.27249 341.69257,827.21779 342.21875,827.0625 C 342.02532,827.0408 341.81995,826.99955 341.625,827 z M 345.09375,862.9375 C 345.20939,863.6172 345.43086,864.19661 345.71875,864.71875 C 345.63496,864.03863 345.40322,863.44694 345.09375,862.9375 z M 404.78125,879.09375 C 404.5506,879.30353 404.38426,879.49484 404.125,879.71875 C 390.42301,891.55266 354.81054,892.17217 337.125,881.34375 C 335.29213,882.90932 335.05037,884.94812 338.8125,888.4375 C 353.82144,902.35831 388.32072,900.74463 401.21875,885.6875 C 404.08566,882.34068 404.96012,880.37446 404.78125,879.09375 z"
             id="path15259" />
        </g>
        <g
           transform="matrix(0.500001,0.866026,-0.866026,0.500001,822.085,-43.96105)"
           id="g15306">
          <path
             sodipodi:type="inkscape:offset"
             inkscape:radius="3.6945434"
             inkscape:original="M 465.25 603.28125 C 442.94829 602.83265 421.39541 628.95802 415.5625 653.09375 C 400.40687 637.882 365.09261 641.61324 345.28125 678.125 C 379.80968 654.31933 399.50625 673.73262 415.8125 678.875 C 415.79085 678.94882 415.77128 679.01962 415.75 679.09375 C 416.1869 679.1994 416.6371 679.29698 417.09375 679.375 C 417.55141 680.26379 418.08991 681.11821 418.65625 681.9375 C 419.16438 681.28897 419.62988 680.59498 420.125 679.875 C 420.6478 679.94551 421.16949 680.00542 421.6875 680.03125 C 421.71124 679.93637 421.72704 679.84458 421.75 679.75 C 440.60829 679.9478 470.73414 667.37451 492.375 699.625 C 492.22195 657.43711 454.49897 644.63298 431.46875 658.375 C 440.91904 638.75628 453.14131 615.50841 479.09375 607.25 C 474.54014 604.61868 469.87419 603.37426 465.25 603.28125 z "
             style="fill:#000000;fill-opacity:1;fill-rule:evenodd;stroke:none;stroke-width:1.00000024px;stroke-linecap:butt;stroke-linejoin:miter;stroke-opacity:1"
             id="path15308"
             d="M 465.3125,599.59375 C 452.69594,599.33997 440.90291,606.44788 431.53125,616.4375 C 423.47757,625.02222 417.28287,635.85871 413.6875,646.84375 C 394.87921,634.09994 361.05162,641.32102 342.03125,676.375 C 341.23935,677.87532 341.57088,679.72213 342.83517,680.85334 C 344.09946,681.98455 345.97163,682.10946 347.375,681.15625 C 363.98255,669.70616 376.12186,668.91682 386.5625,671.25 C 396.46975,673.46398 404.78387,678.8899 413.3125,681.875 C 413.73633,682.24368 414.23864,682.51087 414.78125,682.65625 C 415.06449,683.11212 415.33437,683.61081 415.625,684.03125 C 416.2917,684.99445 417.37565,685.58444 418.54649,685.62141 C 419.71734,685.65839 420.83635,685.13796 421.5625,684.21875 C 421.6993,684.04415 421.7799,683.88954 421.90625,683.71875 C 422.37185,683.69002 422.8278,683.57338 423.25,683.375 C 423.26048,683.36465 423.2709,683.35423 423.28125,683.34375 C 433.20066,683.16727 444.50844,680.52904 455.75,681.34375 C 467.5713,682.20047 479.05783,686.40539 489.3125,701.6875 C 490.22306,703.02614 491.89903,703.6161 493.44734,703.14301 C 494.99565,702.66991 496.05565,701.24396 496.0625,699.625 C 495.98199,677.43125 485.76297,662.16996 472.28125,654.78125 C 462.07953,649.19016 450.14847,647.98327 439.4375,651 C 448.19877,634.13627 459.54524,617.35983 480.21875,610.78125 C 481.611,610.33488 482.60911,609.10954 482.76462,607.65578 C 482.92014,606.20202 482.20382,604.79328 480.9375,604.0625 C 475.87417,601.13664 470.54916,599.69908 465.3125,599.59375 z"
             transform="matrix(1,0,0,0.976855,0,16.27771)" />
          <path
             style="fill:#eee8aa;fill-opacity:1;fill-rule:evenodd;stroke:none;stroke-width:1.00000024px;stroke-linecap:butt;stroke-linejoin:miter;stroke-opacity:1"
             d="M 492.37976,699.62824 C 492.17865,644.19354 427.10178,639.50773 415.74008,679.09271 C 433.59045,683.40937 468.26258,663.6874 492.37976,699.62824 z"
             id="path15310"
             sodipodi:nodetypes="ccc" />
          <path
             sodipodi:nodetypes="ccc"
             id="path15312"
             d="M 345.28406,678.12772 C 373.13146,626.8058 431.63819,640.24111 421.68301,680.03232 C 404.12152,679.15653 384.04166,651.40625 345.28406,678.12772 z"
             style="fill:#fafad2;fill-opacity:1;fill-rule:evenodd;stroke:none;stroke-width:1.00000012px;stroke-linecap:butt;stroke-linejoin:miter;stroke-opacity:1" />
          <path
             sodipodi:nodetypes="ccc"
             id="path15314"
             d="M 479.07994,607.255 C 442.65105,586.20448 399.68474,654.52051 418.6443,681.94814 C 432.41513,664.37224 440.75556,619.45032 479.07994,607.255 z"
             style="fill:#f0e68c;fill-opacity:1;fill-rule:evenodd;stroke:none;stroke-width:1.00000107px;stroke-linecap:butt;stroke-linejoin:miter;stroke-opacity:1" />
        </g>
        <g
           id="g16717"
           transform="matrix(0.262045,-0.453874,0.453874,0.262045,-25.23694,655.6393)">
          <path
             transform="matrix(0.980151,0,0,1.019271,6.785643,-12.74019)"
             d="M 413.625,714.46875 C 413.39438,714.46808 413.16421,714.489 412.9375,714.53125 C 406.45567,715.88747 400.95845,718.16038 396.4375,721.53125 C 396.43746,721.54167 396.43746,721.55208 396.4375,721.5625 C 391.65061,725.16147 389.09027,729.99529 386.6875,734.125 C 384.30363,738.26449 382.33749,741.69128 380.6875,748.40625 C 379.27208,754.20524 374.95045,763.89776 376.90625,774.5625 C 376.90621,774.57292 376.90621,774.58333 376.90625,774.59375 C 378.78628,784.54785 383.63682,794.92942 391.5,806.40625 C 391.59578,806.538 391.70018,806.66328 391.8125,806.78125 C 397.80241,813.51319 405.13296,817.92174 413.75,819.96875 C 422.3783,821.96009 431.94523,821.57736 442.6875,819 C 443.64132,818.76911 444.46405,818.16815 444.97413,817.32976 C 445.4842,816.49136 445.63968,815.48445 445.40625,814.53125 C 445.1066,813.31623 444.81612,812.06319 444.5,810.78125 L 443.4375,806.4375 L 443.4375,806.375 C 443.41892,806.30146 443.39807,806.22851 443.375,806.15625 C 443.37518,806.13542 443.37518,806.11458 443.375,806.09375 L 436.75,779.375 L 423.75,726.53125 C 423.70267,726.33903 423.63997,726.15092 423.5625,725.96875 C 423.54246,725.92669 423.52162,725.88502 423.5,725.84375 C 423.3902,725.39756 423.29773,724.94747 423.1875,724.5 C 423.05138,723.96015 422.79499,723.45806 422.4375,723.03125 L 416.53125,715.8125 C 415.81706,714.94618 414.74763,714.4517 413.625,714.46875 z"
             id="path16715"
             style="fill:#000000;fill-rule:evenodd"
             inkscape:original="M 413.6875 718.15625 C 407.60212 719.42952 402.6718 721.50596 398.65625 724.5 C 394.66029 727.50432 392.30863 731.786 389.875 735.96875 C 387.48374 740.12107 385.84857 742.90273 384.28125 749.28125 C 382.71939 755.68021 378.83192 764.64 380.53125 773.90625 C 382.2814 783.17266 386.88549 793.1074 394.5625 804.3125 C 400.10649 810.54327 406.65989 814.49028 414.59375 816.375 C 422.53923 818.20875 431.46896 817.88794 441.8125 815.40625 C 441.5046 814.15776 441.21413 812.90477 440.90625 811.65625 L 439.78125 807.03125 C 439.78435 807.01117 439.77844 806.98901 439.78125 806.96875 L 433.15625 780.25 L 420.15625 727.40625 L 420.09375 727.40625 C 419.92692 726.72905 419.76058 726.0522 419.59375 725.375 L 413.6875 718.15625 z "
             inkscape:radius="3.6934512"
             sodipodi:type="inkscape:offset" />
          <g
             transform="matrix(7.598021e-2,0.283562,-0.234191,-8.446617e-4,417.6798,718.1731)"
             id="g16494">
            <path
               clip-rule="evenodd"
               d="M 25.344,0 L 0,17.1 C 4.572,44.568 11.952,67.968 22.572,88.56 C 33.228,109.08 48.384,124.092 63.18,139.284 C 77.868,154.26 87.732,164.448 110.268,178.452 C 132.876,192.456 164.556,219.311 197.244,222.66 C 229.932,225.792 264.96,217.44 304.416,197.46 C 326.34,180.9 340.164,157.428 346.716,125.676 C 353.088,93.816 351.828,55.332 342.936,8.28 C 237.096,5.544 131.22,2.772 25.344,0 z"
               i:knockout="Off"
               id="path16496"
               style="fill:#abd148;fill-rule:evenodd" />
            <path
               clip-rule="evenodd"
               d="M 188.567,218.484 C 178.091,214.992 145.367,199.511 126.215,188.028 C 107.099,176.328 91.943,166.895 74.771,149.616 C 57.491,132.192 33.155,102.132 23.291,85.14 C 13.464,68.184 9.9,42.768 16.056,48.888 C 22.176,55.224 50.976,109.98 59.544,122.076 C 67.932,133.847 60.444,115.632 66.78,119.916 C 73.188,124.2 87.696,141.012 97.236,147.456 C 106.596,153.684 115.092,150.912 122.58,157.608 C 129.888,164.339 130.536,178.631 141.444,187.307 C 152.388,195.803 179.784,203.039 187.812,208.331 C 195.696,213.516 198.72,221.76 188.567,218.484 z"
               i:knockout="Off"
               id="path16498"
               style="fill:#9ed231;fill-rule:evenodd" />
            <path
               clip-rule="evenodd"
               d="M 32.688,35.568 L 32.508,0 L 329.724,7.74 C 334.476,15.228 337.321,26.892 338.544,43.56 C 339.66,60.192 339.768,85.068 336.78,106.812 C 333.647,128.376 331.74,155.664 320.364,172.584 C 308.771,189.36 288.179,201.384 268.307,207.288 C 248.219,212.976 226.043,216.216 201.635,207.288 C 177.119,198.108 146.915,172.187 123.083,153.395 C 99.251,134.387 75.239,114.767 60.083,94.932 C 44.928,75.06 35.928,55.728 32.688,35.568 z"
               i:knockout="Off"
               id="path16500"
               style="fill:#e7f2d6;fill-rule:evenodd" />
            <path
               clip-rule="evenodd"
               d="M 200.7,8.172 C 207.504,7.884 236.988,24.948 254.592,31.032 C 272.124,37.008 293.868,37.656 304.812,43.812 C 315.468,49.86 315.972,58.464 318.529,67.536 C 320.869,76.644 320.94,88.776 319.428,97.668 C 317.952,106.344 316.692,119.808 309.384,119.592 C 301.752,119.124 286.02,106.308 274.68,95.868 C 263.268,85.284 251.892,68.148 241.812,57.492 C 231.624,46.944 221.329,41.04 214.416,32.832 C 207.432,24.372 193.968,8.604 200.7,8.172 z"
               i:knockout="Off"
               id="path16502"
               style="fill:#abd148;fill-rule:evenodd" />
            <path
               clip-rule="evenodd"
               d="M 165.096,14.58 C 149.256,11.376 132.228,9.252 113.04,8.172 C 93.816,7.128 65.988,-2.556 50.94,8.172 C 35.856,18.9 49.248,38.052 52.776,51.12 C 56.304,64.152 60.768,71.532 71.928,85.824 C 83.196,100.116 108,129.781 119.448,136.044 C 130.752,142.092 133.056,134.892 139.536,122.328 C 145.98,109.656 153.468,79.308 157.788,61.164 C 162.072,43.056 164.448,27.792 165.096,14.58 z"
               i:knockout="Off"
               id="path16504"
               style="fill:#abd148;fill-rule:evenodd" />
            <path
               clip-rule="evenodd"
               d="M 171.504,50.184 C 168.696,61.308 164.34,78.12 160.524,94.932 C 156.636,111.744 148.464,136.872 148.644,149.76 C 148.86,162.396 152.352,163.512 161.46,170.748 C 170.496,177.984 189.468,189.324 202.536,192.672 C 215.603,195.84 232.92,194.004 239.076,189.936 C 244.979,185.724 244.223,185.077 238.176,168.012 C 231.984,150.66 211.212,111.276 202.536,87.624 C 193.752,63.936 190.368,37.224 186.12,27.36 C 181.8,17.568 179.351,25.308 176.975,29.196 C 174.492,32.976 174.24,39.132 171.504,50.184 z"
               i:knockout="Off"
               id="path16506"
               style="fill:#abd148;fill-rule:evenodd" />
            <path
               clip-rule="evenodd"
               d="M 198.899,37.404 C 201.815,48.312 205.128,64.116 212.58,83.988 C 219.888,103.824 233.028,139.14 242.712,155.232 C 252.324,171.109 260.532,180.361 270.108,178.957 C 279.684,177.337 295.957,155.089 299.34,146.089 C 302.436,137.017 298.116,136.405 289.296,125.101 C 280.26,113.654 255.312,89.281 246.384,78.518 C 237.456,67.862 243,68.978 236.34,61.166 C 229.572,53.03 213.048,38.126 206.208,31.034 C 199.224,23.87 196.488,18.11 195.228,19.154 C 193.932,20.232 195.983,26.496 198.899,37.404 z"
               i:knockout="Off"
               id="path16508"
               style="fill:#abd148;fill-rule:evenodd" />
            <path
               clip-rule="evenodd"
               d="M 221.724,77.58 C 219.996,77.688 227.161,98.388 232.668,109.548 C 238.176,120.564 252.756,143.172 254.592,143.352 C 256.176,143.172 248.148,120.564 242.712,109.548 C 237.06,98.388 223.452,77.688 221.724,77.58 z"
               i:knockout="Off"
               id="path16510"
               style="fill:#e7f2d6;fill-rule:evenodd" />
            <path
               clip-rule="evenodd"
               d="M 250.956,99.504 C 252.828,99.144 275.472,128.52 278.352,135.144 C 280.98,141.48 271.945,143.821 267.373,137.88 C 262.691,131.832 249.12,99.972 250.956,99.504 z"
               i:knockout="Off"
               id="path16512"
               style="fill:#e7f2d6;fill-rule:evenodd" />
            <path
               clip-rule="evenodd"
               d="M 233.604,36.504 C 232.56,36.396 242.749,42.768 248.22,48.384 C 253.657,53.892 264.348,69.12 265.573,69.372 C 266.545,69.408 259.921,54.756 254.593,49.284 C 249.048,43.668 234.792,36.684 233.604,36.504 z"
               i:knockout="Off"
               id="path16514"
               style="fill:#e7f2d6;fill-rule:evenodd" />
            <path
               clip-rule="evenodd"
               d="M 260.063,41.076 C 262.799,41.436 293.939,55.188 297.54,57.492 C 300.888,59.76 287.352,57.42 281.088,54.756 C 274.644,51.912 257.399,40.644 260.063,41.076 z"
               i:knockout="Off"
               id="path16516"
               style="fill:#e7f2d6;fill-rule:evenodd" />
            <path
               clip-rule="evenodd"
               d="M 62.82,16.416 C 65.916,15.84 112.608,18.72 119.448,20.052 C 125.964,21.24 111.528,24.264 102.096,23.724 C 92.448,23.04 60.012,16.992 62.82,16.416 z"
               i:knockout="Off"
               id="path16518"
               style="fill:#e7f2d6;fill-rule:evenodd" />
            <path
               clip-rule="evenodd"
               d="M 126.756,28.26 C 126.612,27.072 111.312,33.912 102.096,37.404 C 92.844,40.824 71.964,46.98 71.928,48.384 C 71.964,49.464 92.844,48.06 102.096,44.712 C 111.312,41.256 126.612,29.52 126.756,28.26 z"
               i:knockout="Off"
               id="path16520"
               style="fill:#e7f2d6;fill-rule:evenodd" />
            <path
               clip-rule="evenodd"
               d="M 150.48,38.304 C 151.416,40.716 146.844,79.344 144.108,91.296 C 141.264,103.068 135.18,110.844 134.064,108.648 C 132.876,106.164 134.964,89.424 137.7,77.58 C 140.436,65.7 149.328,36.036 150.48,38.304 z"
               i:knockout="Off"
               id="path16522"
               style="fill:#e7f2d6;fill-rule:evenodd" />
            <path
               clip-rule="evenodd"
               d="M 174.24,93.132 C 173.412,94.608 167.364,136.153 166.932,143.352 C 166.536,150.193 170.136,143.569 171.504,135.144 C 172.656,126.576 174.996,91.836 174.24,93.132 z"
               i:knockout="Off"
               id="path16524"
               style="fill:#e7f2d6;fill-rule:evenodd" />
            <path
               clip-rule="evenodd"
               d="M 184.284,75.78 C 183.563,77.22 186.66,101.916 190.656,113.22 C 194.651,124.452 207.288,143.64 208.008,142.452 C 208.548,140.832 198.288,116.208 194.328,104.976 C 190.296,93.708 184.86,74.484 184.284,75.78 z"
               i:knockout="Off"
               id="path16526"
               style="fill:#e7f2d6;fill-rule:evenodd" />
            <path
               clip-rule="evenodd"
               d="M 13.68,23.436 C 11.088,22.428 5.256,26.208 4.536,27.396 C 3.852,28.404 8.676,28.296 9.972,29.988 C 11.196,31.716 10.368,36.864 11.916,37.512 C 13.356,38.052 18.54,35.46 18.864,33.192 C 19.044,30.78 16.02,24.336 13.68,23.436 z"
               i:knockout="Off"
               id="path16528"
               style="fill:#d1eca9;fill-rule:evenodd" />
            <path
               clip-rule="evenodd"
               d="M 16.2,21.564 C 13.608,20.556 7.776,24.336 7.056,25.524 C 6.372,26.496 11.196,26.496 12.492,28.152 C 13.716,29.808 12.888,35.028 14.436,35.64 C 15.876,36.144 21.06,33.696 21.384,31.356 C 21.564,28.944 18.54,22.536 16.2,21.564 z"
               i:knockout="Off"
               id="path16530"
               style="fill:#86a338;fill-rule:evenodd" />
            <path
               clip-rule="evenodd"
               d="M 104.112,168.12 C 103.14,169.416 112.104,179.351 115.056,180.143 C 117.864,180.755 122.94,174.311 121.14,172.331 C 119.16,170.208 105.192,166.86 104.112,168.12 z"
               i:knockout="Off"
               id="path16532"
               style="fill:#d1eca9;fill-rule:evenodd" />
            <path
               clip-rule="evenodd"
               d="M 106.884,166.68 C 105.912,167.976 114.876,177.912 117.828,178.704 C 120.636,179.316 125.712,172.872 123.912,170.891 C 121.932,168.768 107.964,165.42 106.884,166.68 z"
               i:knockout="Off"
               id="path16534"
               style="fill:#86a338;fill-rule:evenodd" />
            <path
               clip-rule="evenodd"
               d="M 40.536,101.952 C 39.888,102.852 40.356,104.328 41.58,105.192 C 42.84,106.092 44.352,106.056 45.036,105.156 C 45.684,104.22 45.216,102.78 43.956,101.88 C 42.732,100.98 41.22,101.016 40.536,101.952 z"
               i:knockout="Off"
               id="path16536"
               style="fill:#d1eca9;fill-rule:evenodd" />
            <path
               clip-rule="evenodd"
               d="M 40.932,101.052 C 40.284,101.952 40.752,103.428 41.976,104.328 C 43.2,105.192 44.748,105.192 45.396,104.256 C 46.044,103.356 45.576,101.88 44.352,100.98 C 43.128,100.116 41.58,100.152 40.932,101.052 z"
               i:knockout="Off"
               id="path16538"
               style="fill:#86a338;fill-rule:evenodd" />
            <path
               clip-rule="evenodd"
               d="M 166.248,203.112 C 165.6,204.011 166.068,205.488 167.292,206.351 C 168.516,207.251 170.064,207.215 170.712,206.316 C 171.36,205.379 170.892,203.94 169.668,203.04 C 168.444,202.176 166.896,202.176 166.248,203.112 z"
               i:knockout="Off"
               id="path16540"
               style="fill:#d1eca9;fill-rule:evenodd" />
            <path
               clip-rule="evenodd"
               d="M 166.608,202.212 C 165.96,203.112 166.428,204.588 167.652,205.488 C 168.912,206.351 170.424,206.351 171.072,205.416 C 171.756,204.516 171.288,203.04 170.028,202.176 C 168.804,201.276 167.292,201.312 166.608,202.212 z"
               i:knockout="Off"
               id="path16542"
               style="fill:#86a338;fill-rule:evenodd" />
            <path
               clip-rule="evenodd"
               d="M 21.42,61.416 C 20.268,63 21.096,65.592 23.256,67.14 C 25.452,68.724 28.152,68.688 29.304,67.068 C 30.456,65.448 29.664,62.856 27.468,61.308 C 25.308,59.724 22.572,59.796 21.42,61.416 z"
               i:knockout="Off"
               id="path16544"
               style="fill:#d1eca9;fill-rule:evenodd" />
            <path
               clip-rule="evenodd"
               d="M 22.104,59.832 C 20.952,61.452 21.744,64.044 23.94,65.592 C 26.1,67.176 28.8,67.104 29.988,65.484 C 31.14,63.864 30.312,61.308 28.116,59.724 C 25.956,58.176 23.256,58.212 22.104,59.832 z"
               i:knockout="Off"
               id="path16546"
               style="fill:#86a338;fill-rule:evenodd" />
            <path
               clip-rule="evenodd"
               d="M 78.12,143.352 C 77.472,144.289 77.904,145.728 79.164,146.628 C 80.388,147.528 81.9,147.492 82.584,146.556 C 83.232,145.657 82.764,144.216 81.54,143.317 C 80.28,142.416 78.768,142.452 78.12,143.352 z"
               i:knockout="Off"
               id="path16548"
               style="fill:#d1eca9;fill-rule:evenodd" />
            <path
               clip-rule="evenodd"
               d="M 78.48,142.488 C 77.832,143.387 78.3,144.864 79.524,145.727 C 80.748,146.627 82.296,146.591 82.944,145.692 C 83.592,144.755 83.16,143.316 81.9,142.416 C 80.676,141.552 79.128,141.552 78.48,142.488 z"
               i:knockout="Off"
               id="path16550"
               style="fill:#86a338;fill-rule:evenodd" />
            <path
               clip-rule="evenodd"
               d="M 218.88,4.968 L 313.164,7.2 C 317.628,9.396 320.904,13.608 322.848,19.692 C 324.792,25.848 332.352,43.02 324.972,43.704 C 317.376,44.172 292.284,27.54 278.424,22.824 C 264.384,17.964 252.504,17.892 242.388,14.976 C 232.38,11.952 224.64,8.712 218.88,4.968 z"
               i:knockout="Off"
               id="path16552"
               style="fill:#abd148;fill-rule:evenodd" />
            <path
               clip-rule="evenodd"
               d="M 267.588,8.964 C 270.468,8.928 303.372,16.344 307.44,18.036 C 311.148,19.548 297.504,19.908 290.808,18.432 C 284.076,16.812 264.815,9.072 267.588,8.964 z"
               i:knockout="Off"
               id="path16554"
               style="fill:#e7f2d6;fill-rule:evenodd" />
          </g>
        </g>
        <g
           id="g18226"
           transform="matrix(0.513693,0,0,0.513693,251.6965,223.16)">
          <path
             transform="matrix(0.99258,0,0,1.003169,2.699692,-1.223402)"
             d="M 433.65625,768.59375 C 427.0407,768.47296 420.30702,769.59753 414.59375,771.375 C 410.2563,772.72442 405.44364,776.16414 401.8125,781.1875 C 398.18136,786.21086 395.79862,792.89956 396.71875,800.53125 C 397.88196,810.17905 403.5441,814.93313 408.53125,818.5625 C 411.02482,820.37719 413.35705,821.97711 415.03125,823.8125 C 416.70545,825.64789 417.79152,827.6319 418,830.625 C 418.31086,835.08809 419.08744,838.42833 420.46875,840.875 C 421.85006,843.32167 424.01724,844.84479 426.4375,845.0625 C 431.27803,845.49792 436.2854,841.81849 441.59375,836.15625 C 446.83527,830.56529 453.22826,822.39324 457.4375,813.09375 C 461.64674,803.79426 463.70345,793.25331 459.8125,783.21875 C 457.75927,777.92359 453.89661,774.22724 449.25,771.9375 C 444.60339,769.64776 439.16722,768.69437 433.65625,768.59375 z"
             id="path17958"
             style="fill:#000000;fill-opacity:1;fill-rule:evenodd;stroke:none;stroke-width:1px;stroke-linecap:butt;stroke-linejoin:miter;stroke-opacity:1"
             inkscape:original="M 433.625 770.34375 C 427.23598 770.2271 420.666 771.33863 415.125 773.0625 C 407.40912 775.46298 396.74426 786.00939 398.46875 800.3125 C 400.65492 818.44481 418.80652 816.95436 419.75 830.5 C 420.95025 847.73214 429.98196 845.95674 440.3125 834.9375 C 450.60036 823.96378 465.48634 802.74767 458.15625 783.84375 C 454.38089 774.10732 444.27337 770.53816 433.625 770.34375 z "
             inkscape:radius="1.7637793"
             sodipodi:type="inkscape:offset" />
          <path
             sodipodi:nodetypes="csssss"
             id="path17928"
             d="M 415.11476,773.04705 C 407.39887,775.44754 396.75824,786.00674 398.48273,800.30985 C 400.6689,818.44219 418.80081,816.9419 419.74429,830.48754 C 420.94454,847.71969 429.98945,845.96485 440.31999,834.94561 C 450.60784,823.9719 465.48236,802.75321 458.15227,783.84929 C 452.11171,768.27101 429.89077,768.45006 415.11476,773.04705 z"
             style="fill:#ff0000;fill-opacity:1;fill-rule:evenodd;stroke:none;stroke-width:1px;stroke-linecap:butt;stroke-linejoin:miter;stroke-opacity:1" />
          <path
             style="fill:url(#radialGradient2592);fill-opacity:1;fill-rule:evenodd;stroke:none;stroke-width:1px;stroke-linecap:butt;stroke-linejoin:miter;stroke-opacity:1"
             d="M 415.11476,773.04705 C 407.39887,775.44754 396.75824,786.00674 398.48273,800.30985 C 400.6689,818.44219 418.80081,816.9419 419.74429,830.48754 C 420.94454,847.71969 429.98945,845.96485 440.31999,834.94561 C 450.60784,823.9719 465.48236,802.75321 458.15227,783.84929 C 452.11171,768.27101 429.89077,768.45006 415.11476,773.04705 z"
             id="path17960"
             sodipodi:nodetypes="csssss" />
          <path
             transform="matrix(1,0,0,0.964694,0,27.94302)"
             d="M 422.59375,763.96875 C 416.10542,764.18411 408.66301,767.88599 404.25,775.90625 C 403.88239,776.54095 404.00564,777.34589 404.54632,777.84152 C 405.087,778.33714 405.89961,778.39006 406.5,777.96875 C 410.70144,775.18989 414.13793,774.23204 417.21875,774.09375 C 415.91163,775.54356 414.83462,777.13131 414.28125,779 C 413.35622,782.12375 413.74004,785.74891 415.75,789.46875 C 416.04959,790.00807 416.63843,790.32066 417.25301,790.26663 C 417.86758,790.2126 418.39285,789.80207 418.59375,789.21875 C 420.80381,782.89001 426.14705,780.23097 432.15625,778.5625 C 434.13563,779.9371 436.1961,781.41171 437.25,782.9375 C 437.83239,783.78065 438.14766,784.58207 438.125,785.5 C 438.10234,786.41793 437.72421,787.53672 436.6875,788.96875 C 436.28736,789.53723 436.31084,790.30168 436.74512,790.84453 C 437.1794,791.38738 437.92005,791.57809 438.5625,791.3125 C 444.65521,788.82727 447.78477,785.5161 448,781.90625 C 448.13956,779.56557 446.9316,777.51256 445.09375,775.875 C 449.63948,775.76236 454.16878,776.68041 458.40625,781.25 C 458.85642,781.75109 459.57702,781.90734 460.19431,781.63772 C 460.81161,781.3681 461.18668,780.73328 461.125,780.0625 C 460.54463,773.23149 456.40098,768.69686 451.40625,766.6875 C 446.57487,764.74386 440.96886,764.99468 436.53125,767.1875 C 435.1482,767.0999 433.73537,767.1579 432.34375,767.28125 C 429.95053,765.00628 426.44034,763.84109 422.59375,763.96875 z"
             id="path17951"
             style="fill:#000000;fill-opacity:1;fill-rule:evenodd;stroke:none;stroke-width:1.00000024px;stroke-linecap:butt;stroke-linejoin:miter;stroke-opacity:1"
             inkscape:original="M 422.65625 765.53125 C 416.71957 765.7283 409.7785 769.10762 405.625 776.65625 C 411.79464 772.57561 416.78889 772.06308 421.03125 772.6875 C 415.92468 776.21861 413.41515 781.85291 417.125 788.71875 C 419.64508 781.50222 425.95241 778.54808 432.4375 776.84375 C 436.67628 779.78767 442.64854 783.41072 437.96875 789.875 C 449.60134 785.13003 447.87684 778.05729 441 775.03125 C 442.14954 774.80696 443.2389 774.56319 444.25 774.3125 C 444.26143 774.30966 444.26984 774.31534 444.28125 774.3125 C 449.32613 774.06668 454.75671 775.00505 459.5625 780.1875 C 458.49462 767.61835 444.89495 764.43254 436.8125 768.75 C 436.80006 768.74905 436.79367 768.75095 436.78125 768.75 C 435.14389 768.62375 433.45712 768.65385 431.8125 768.84375 C 429.83847 766.62078 426.45815 765.40507 422.65625 765.53125 z "
             inkscape:radius="1.5626228"
             sodipodi:type="inkscape:offset" />
          <path
             id="path17934"
             d="M 422.6446,765.52473 C 416.70791,765.72177 409.77423,769.10869 405.62073,776.65732 C 411.79037,772.57671 416.80082,772.06842 421.04318,772.69284 C 415.93661,776.22392 413.40344,781.86392 417.11329,788.72976 C 419.63336,781.51321 425.93857,778.55182 432.42366,776.84749 C 436.66243,779.79139 442.66204,783.4144 437.98225,789.87868 C 449.61483,785.13369 447.86959,778.04683 440.99275,775.02079 C 442.14228,774.79652 443.23027,774.55709 444.24137,774.3064 C 444.25279,774.30356 444.26736,774.30714 444.27877,774.3043 C 449.32366,774.0585 454.74939,775.00017 459.55518,780.18262 C 458.4873,767.61347 444.88722,764.42323 436.80477,768.74069 C 436.79234,768.73971 436.77979,768.74374 436.76737,768.74279 C 435.13,768.61655 433.45992,768.64231 431.8153,768.83221 C 429.84128,766.60924 426.4465,765.39855 422.6446,765.52473 z"
             style="fill:#6b8e23;fill-opacity:1;fill-rule:evenodd;stroke:none;stroke-width:1.00000024px;stroke-linecap:butt;stroke-linejoin:miter;stroke-opacity:1" />
          <path
             style="fill:url(#radialGradient2594);fill-opacity:1;fill-rule:evenodd;stroke:none;stroke-width:1.00000024px;stroke-linecap:butt;stroke-linejoin:miter;stroke-opacity:1"
             d="M 422.6446,765.52473 C 416.70791,765.72177 409.77423,769.10869 405.62073,776.65732 C 411.79037,772.57671 416.80082,772.06842 421.04318,772.69284 C 415.93661,776.22392 413.40344,781.86392 417.11329,788.72976 C 419.63336,781.51321 425.93857,778.55182 432.42366,776.84749 C 436.66243,779.79139 442.66204,783.4144 437.98225,789.87868 C 449.61483,785.13369 447.86959,778.04683 440.99275,775.02079 C 442.14228,774.79652 443.23027,774.55709 444.24137,774.3064 C 444.25279,774.30356 444.26736,774.30714 444.27877,774.3043 C 449.32366,774.0585 454.74939,775.00017 459.55518,780.18262 C 458.4873,767.61347 444.88722,764.42323 436.80477,768.74069 C 436.79234,768.73971 436.77979,768.74374 436.76737,768.74279 C 435.13,768.61655 433.45992,768.64231 431.8153,768.83221 C 429.84128,766.60924 426.4465,765.39855 422.6446,765.52473 z"
             id="path17964" />
        </g>
        <g
           transform="matrix(0.256846,-0.444871,0.444871,0.256846,-22.01704,625.6361)"
           id="g18238">
          <path
             sodipodi:type="inkscape:offset"
             inkscape:radius="1.7637793"
             inkscape:original="M 433.625 770.34375 C 427.23598 770.2271 420.666 771.33863 415.125 773.0625 C 407.40912 775.46298 396.74426 786.00939 398.46875 800.3125 C 400.65492 818.44481 418.80652 816.95436 419.75 830.5 C 420.95025 847.73214 429.98196 845.95674 440.3125 834.9375 C 450.60036 823.96378 465.48634 802.74767 458.15625 783.84375 C 454.38089 774.10732 444.27337 770.53816 433.625 770.34375 z "
             style="fill:#000000;fill-opacity:1;fill-rule:evenodd;stroke:none;stroke-width:1px;stroke-linecap:butt;stroke-linejoin:miter;stroke-opacity:1"
             id="path18240"
             d="M 433.65625,768.59375 C 427.0407,768.47296 420.30702,769.59753 414.59375,771.375 C 410.2563,772.72442 405.44364,776.16414 401.8125,781.1875 C 398.18136,786.21086 395.79862,792.89956 396.71875,800.53125 C 397.88196,810.17905 403.5441,814.93313 408.53125,818.5625 C 411.02482,820.37719 413.35705,821.97711 415.03125,823.8125 C 416.70545,825.64789 417.79152,827.6319 418,830.625 C 418.31086,835.08809 419.08744,838.42833 420.46875,840.875 C 421.85006,843.32167 424.01724,844.84479 426.4375,845.0625 C 431.27803,845.49792 436.2854,841.81849 441.59375,836.15625 C 446.83527,830.56529 453.22826,822.39324 457.4375,813.09375 C 461.64674,803.79426 463.70345,793.25331 459.8125,783.21875 C 457.75927,777.92359 453.89661,774.22724 449.25,771.9375 C 444.60339,769.64776 439.16722,768.69437 433.65625,768.59375 z"
             transform="matrix(0.99258,0,0,1.003169,2.699692,-1.223402)" />
          <path
             style="fill:#ff0000;fill-opacity:1;fill-rule:evenodd;stroke:none;stroke-width:1px;stroke-linecap:butt;stroke-linejoin:miter;stroke-opacity:1"
             d="M 415.11476,773.04705 C 407.39887,775.44754 396.75824,786.00674 398.48273,800.30985 C 400.6689,818.44219 418.80081,816.9419 419.74429,830.48754 C 420.94454,847.71969 429.98945,845.96485 440.31999,834.94561 C 450.60784,823.9719 465.48236,802.75321 458.15227,783.84929 C 452.11171,768.27101 429.89077,768.45006 415.11476,773.04705 z"
             id="path18242"
             sodipodi:nodetypes="csssss" />
          <path
             sodipodi:nodetypes="csssss"
             id="path18244"
             d="M 415.11476,773.04705 C 407.39887,775.44754 396.75824,786.00674 398.48273,800.30985 C 400.6689,818.44219 418.80081,816.9419 419.74429,830.48754 C 420.94454,847.71969 429.98945,845.96485 440.31999,834.94561 C 450.60784,823.9719 465.48236,802.75321 458.15227,783.84929 C 452.11171,768.27101 429.89077,768.45006 415.11476,773.04705 z"
             style="fill:url(#radialGradient2596);fill-opacity:1;fill-rule:evenodd;stroke:none;stroke-width:1px;stroke-linecap:butt;stroke-linejoin:miter;stroke-opacity:1" />
          <path
             sodipodi:type="inkscape:offset"
             inkscape:radius="1.5626228"
             inkscape:original="M 422.65625 765.53125 C 416.71957 765.7283 409.7785 769.10762 405.625 776.65625 C 411.79464 772.57561 416.78889 772.06308 421.03125 772.6875 C 415.92468 776.21861 413.41515 781.85291 417.125 788.71875 C 419.64508 781.50222 425.95241 778.54808 432.4375 776.84375 C 436.67628 779.78767 442.64854 783.41072 437.96875 789.875 C 449.60134 785.13003 447.87684 778.05729 441 775.03125 C 442.14954 774.80696 443.2389 774.56319 444.25 774.3125 C 444.26143 774.30966 444.26984 774.31534 444.28125 774.3125 C 449.32613 774.06668 454.75671 775.00505 459.5625 780.1875 C 458.49462 767.61835 444.89495 764.43254 436.8125 768.75 C 436.80006 768.74905 436.79367 768.75095 436.78125 768.75 C 435.14389 768.62375 433.45712 768.65385 431.8125 768.84375 C 429.83847 766.62078 426.45815 765.40507 422.65625 765.53125 z "
             style="fill:#000000;fill-opacity:1;fill-rule:evenodd;stroke:none;stroke-width:1.00000024px;stroke-linecap:butt;stroke-linejoin:miter;stroke-opacity:1"
             id="path18246"
             d="M 422.59375,763.96875 C 416.10542,764.18411 408.66301,767.88599 404.25,775.90625 C 403.88239,776.54095 404.00564,777.34589 404.54632,777.84152 C 405.087,778.33714 405.89961,778.39006 406.5,777.96875 C 410.70144,775.18989 414.13793,774.23204 417.21875,774.09375 C 415.91163,775.54356 414.83462,777.13131 414.28125,779 C 413.35622,782.12375 413.74004,785.74891 415.75,789.46875 C 416.04959,790.00807 416.63843,790.32066 417.25301,790.26663 C 417.86758,790.2126 418.39285,789.80207 418.59375,789.21875 C 420.80381,782.89001 426.14705,780.23097 432.15625,778.5625 C 434.13563,779.9371 436.1961,781.41171 437.25,782.9375 C 437.83239,783.78065 438.14766,784.58207 438.125,785.5 C 438.10234,786.41793 437.72421,787.53672 436.6875,788.96875 C 436.28736,789.53723 436.31084,790.30168 436.74512,790.84453 C 437.1794,791.38738 437.92005,791.57809 438.5625,791.3125 C 444.65521,788.82727 447.78477,785.5161 448,781.90625 C 448.13956,779.56557 446.9316,777.51256 445.09375,775.875 C 449.63948,775.76236 454.16878,776.68041 458.40625,781.25 C 458.85642,781.75109 459.57702,781.90734 460.19431,781.63772 C 460.81161,781.3681 461.18668,780.73328 461.125,780.0625 C 460.54463,773.23149 456.40098,768.69686 451.40625,766.6875 C 446.57487,764.74386 440.96886,764.99468 436.53125,767.1875 C 435.1482,767.0999 433.73537,767.1579 432.34375,767.28125 C 429.95053,765.00628 426.44034,763.84109 422.59375,763.96875 z"
             transform="matrix(1,0,0,0.964694,0,27.94302)" />
          <path
             style="fill:#6b8e23;fill-opacity:1;fill-rule:evenodd;stroke:none;stroke-width:1.00000024px;stroke-linecap:butt;stroke-linejoin:miter;stroke-opacity:1"
             d="M 422.6446,765.52473 C 416.70791,765.72177 409.77423,769.10869 405.62073,776.65732 C 411.79037,772.57671 416.80082,772.06842 421.04318,772.69284 C 415.93661,776.22392 413.40344,781.86392 417.11329,788.72976 C 419.63336,781.51321 425.93857,778.55182 432.42366,776.84749 C 436.66243,779.79139 442.66204,783.4144 437.98225,789.87868 C 449.61483,785.13369 447.86959,778.04683 440.99275,775.02079 C 442.14228,774.79652 443.23027,774.55709 444.24137,774.3064 C 444.25279,774.30356 444.26736,774.30714 444.27877,774.3043 C 449.32366,774.0585 454.74939,775.00017 459.55518,780.18262 C 458.4873,767.61347 444.88722,764.42323 436.80477,768.74069 C 436.79234,768.73971 436.77979,768.74374 436.76737,768.74279 C 435.13,768.61655 433.45992,768.64231 431.8153,768.83221 C 429.84128,766.60924 426.4465,765.39855 422.6446,765.52473 z"
             id="path18248" />
          <path
             id="path18250"
             d="M 422.6446,765.52473 C 416.70791,765.72177 409.77423,769.10869 405.62073,776.65732 C 411.79037,772.57671 416.80082,772.06842 421.04318,772.69284 C 415.93661,776.22392 413.40344,781.86392 417.11329,788.72976 C 419.63336,781.51321 425.93857,778.55182 432.42366,776.84749 C 436.66243,779.79139 442.66204,783.4144 437.98225,789.87868 C 449.61483,785.13369 447.86959,778.04683 440.99275,775.02079 C 442.14228,774.79652 443.23027,774.55709 444.24137,774.3064 C 444.25279,774.30356 444.26736,774.30714 444.27877,774.3043 C 449.32366,774.0585 454.74939,775.00017 459.55518,780.18262 C 458.4873,767.61347 444.88722,764.42323 436.80477,768.74069 C 436.79234,768.73971 436.77979,768.74374 436.76737,768.74279 C 435.13,768.61655 433.45992,768.64231 431.8153,768.83221 C 429.84128,766.60924 426.4465,765.39855 422.6446,765.52473 z"
             style="fill:url(#radialGradient2598);fill-opacity:1;fill-rule:evenodd;stroke:none;stroke-width:1.00000024px;stroke-linecap:butt;stroke-linejoin:miter;stroke-opacity:1" />
        </g>
      </g>
    </g>
  </g>
</svg>
