<?xml version="1.0" encoding="UTF-8" standalone="no"?>
<!-- Created with Inkscape (http://www.inkscape.org/) -->
<svg
   xmlns:dc="http://purl.org/dc/elements/1.1/"
   xmlns:cc="http://web.resource.org/cc/"
   xmlns:rdf="http://www.w3.org/1999/02/22-rdf-syntax-ns#"
   xmlns:svg="http://www.w3.org/2000/svg"
   xmlns="http://www.w3.org/2000/svg"
   xmlns:sodipodi="http://sodipodi.sourceforge.net/DTD/sodipodi-0.dtd"
   xmlns:inkscape="http://www.inkscape.org/namespaces/inkscape"
   width="1104.973"
   height="747.64148"
   id="svg2"
   sodipodi:version="0.32"
   inkscape:version="0.45.1"
   version="1.0"
   sodipodi:docbase="C:\Dokumente und Einstellungen\Klaus\Eigene Dateien\Eigene Bilder\OpenClipartLibrary\_ready"
   sodipodi:docname="RedPlane.svg"
   inkscape:output_extension="org.inkscape.output.svg.inkscape"
   inkscape:export-filename="C:\Dokumente und Einstellungen\Klaus\Eigene Dateien\Eigene Bilder\OpenClipartLibrary\_ready\RedPlane.png"
   inkscape:export-xdpi="26.122147"
   inkscape:export-ydpi="26.122147">
  <defs
     id="defs4" />
  <sodipodi:namedview
     id="base"
     pagecolor="#ffffff"
     bordercolor="#666666"
     borderopacity="1.0"
     inkscape:pageopacity="0.0"
     inkscape:pageshadow="2"
     inkscape:zoom="1.033918"
     inkscape:cx="552.48655"
     inkscape:cy="373.82078"
     inkscape:document-units="px"
     inkscape:current-layer="layer1"
     width="1052.3622px"
     height="744.09448px"
     inkscape:window-width="1280"
     inkscape:window-height="977"
     inkscape:window-x="-4"
     inkscape:window-y="-4" />
  <metadata
     id="metadata7">
    <rdf:RDF>
      <cc:Work
         rdf:about="">
        <dc:format>image/svg+xml</dc:format>
        <dc:type
           rdf:resource="http://purl.org/dc/dcmitype/StillImage" />
        <dc:title>RedPlane</dc:title>
        <dc:date>20070128</dc:date>
        <dc:creator>
          <cc:Agent>
            <dc:title>Klaus Kellner</dc:title>
          </cc:Agent>
        </dc:creator>
        <dc:publisher>
          <cc:Agent>
            <dc:title>Klaus Kellner</dc:title>
          </cc:Agent>
        </dc:publisher>
        <dc:contributor>
          <cc:Agent>
            <dc:title>Klaus Kellner</dc:title>
          </cc:Agent>
        </dc:contributor>
        <dc:description>Plane, Clipart</dc:description>
        <cc:license
           rdf:resource="http://web.resource.org/cc/PublicDomain" />
        <dc:rights>
          <cc:Agent>
            <dc:title>Klaus Kellner</dc:title>
          </cc:Agent>
        </dc:rights>
      </cc:Work>
      <cc:License
         rdf:about="http://web.resource.org/cc/PublicDomain">
        <cc:permits
           rdf:resource="http://web.resource.org/cc/Reproduction" />
        <cc:permits
           rdf:resource="http://web.resource.org/cc/Distribution" />
        <cc:permits
           rdf:resource="http://web.resource.org/cc/DerivativeWorks" />
      </cc:License>
    </rdf:RDF>
  </metadata>
  <g
     inkscape:label="Ebene 1"
     inkscape:groupmode="layer"
     id="layer1"
     transform="translate(-164.62288,-79.174805)">
    <rect
       y="-640.70074"
       x="164.7"
       height="561.52594"
       width="1102.8883"
       id="rect6335"
       style="fill:#82a0f5;fill-opacity:1;stroke:none;stroke-width:26.10954285;stroke-linecap:round;stroke-linejoin:round;stroke-miterlimit:4;stroke-dasharray:none;stroke-opacity:1"
       transform="scale(1,-1)"
       inkscape:export-filename="C:\Dokumente und Einstellungen\Klaus\Eigene Dateien\Eigene Bilder\OpebClipartLibrary\BigPlane.png"
       inkscape:export-xdpi="28.273674"
       inkscape:export-ydpi="28.273674" />
    <path
       sodipodi:nodetypes="cccccccccc"
       id="path6360"
       d="M 164.62288,443.90487 L 288.65257,517.77493 L 578.88988,499.30742 L 808.48173,373.11275 L 967.28144,511.6191 L 1132.863,554.70997 L 1267.6655,493.15159 L 1267.6655,602.02633 L 164.62288,602.02633 L 164.62288,443.90487 z "
       style="fill:#c8beb7;fill-opacity:1;stroke:none;stroke-width:16.78343201;stroke-linecap:round;stroke-linejoin:round;stroke-miterlimit:4;stroke-opacity:1"
       inkscape:export-filename="C:\Dokumente und Einstellungen\Klaus\Eigene Dateien\Eigene Bilder\OpebClipartLibrary\BigPlane.png"
       inkscape:export-xdpi="28.273674"
       inkscape:export-ydpi="28.273674" />
    <path
       style="fill:#ac9d93;fill-opacity:1;stroke:none;stroke-width:16.78343201;stroke-linecap:round;stroke-linejoin:round;stroke-miterlimit:4;stroke-opacity:1"
       d="M 164.62288,465.55217 L 418.83809,524.03263 L 808.48173,428.61713 L 1087.3203,533.26638 L 1267.6655,514.79888 L 1267.6655,623.67362 L 164.62288,623.67362 L 164.62288,465.55217 z "
       id="rect6357"
       sodipodi:nodetypes="cccccccc"
       inkscape:export-filename="C:\Dokumente und Einstellungen\Klaus\Eigene Dateien\Eigene Bilder\OpebClipartLibrary\BigPlane.png"
       inkscape:export-xdpi="28.273674"
       inkscape:export-ydpi="28.273674" />
    <rect
       style="fill:#808000;fill-opacity:1;stroke:none;stroke-width:16.78343201;stroke-linecap:round;stroke-linejoin:round;stroke-miterlimit:4;stroke-dasharray:none;stroke-opacity:1"
       id="rect6333"
       width="1103.0426"
       height="231.99152"
       x="164.62288"
       y="594.82471"
       inkscape:export-filename="C:\Dokumente und Einstellungen\Klaus\Eigene Dateien\Eigene Bilder\OpebClipartLibrary\BigPlane.png"
       inkscape:export-xdpi="28.273674"
       inkscape:export-ydpi="28.273674" />
    <path
       style="fill:#b3b3b3;fill-opacity:1;stroke:none;stroke-width:11.83848763;stroke-linecap:round;stroke-linejoin:round;stroke-miterlimit:4;stroke-opacity:1"
       d="M 703.66051,635.23958 L 752.13419,637.51205 L 1261.1078,807.94703 L 1011.4684,798.85716 L 703.66051,635.23958 z "
       id="rect6330"
       sodipodi:nodetypes="ccccc"
       inkscape:export-filename="C:\Dokumente und Einstellungen\Klaus\Eigene Dateien\Eigene Bilder\OpebClipartLibrary\BigPlane.png"
       inkscape:export-xdpi="28.273674"
       inkscape:export-ydpi="28.273674" />
    <path
       style="fill:#6b6d00;fill-opacity:1;stroke:none;stroke-width:16.78343201;stroke-linecap:round;stroke-linejoin:round;stroke-miterlimit:4;stroke-opacity:1"
       d="M 164.62288,594.82475 L 525.88699,594.82475 L 833.6789,811.42667 L 164.62288,826.81626 L 164.62288,594.82475 z "
       id="rect6362"
       sodipodi:nodetypes="ccccc"
       inkscape:export-filename="C:\Dokumente und Einstellungen\Klaus\Eigene Dateien\Eigene Bilder\OpebClipartLibrary\BigPlane.png"
       inkscape:export-xdpi="28.273674"
       inkscape:export-ydpi="28.273674" />
    <path
       style="fill:#6b6d00;fill-opacity:1;stroke:none;stroke-width:16.78343201;stroke-linecap:round;stroke-linejoin:round;stroke-miterlimit:4;stroke-opacity:1"
       d="M 795.59629,594.82475 L 1267.6655,594.82475 L 1269.5959,737.55662 L 795.59629,594.82475 z "
       id="rect7334"
       sodipodi:nodetypes="cccc"
       inkscape:export-filename="C:\Dokumente und Einstellungen\Klaus\Eigene Dateien\Eigene Bilder\OpebClipartLibrary\BigPlane.png"
       inkscape:export-xdpi="28.273674"
       inkscape:export-ydpi="28.273674" />
    <g
       id="g9344"
       transform="matrix(0.9941845,-0.1076902,0.1076902,0.9941845,599.1624,739.69576)">
      <path
         id="path4389"
         d="M 288.125,-573.125 C 280.60831,-573.03763 274.57514,-572.27356 269.28125,-570.28125 C 263.98736,-568.28894 258.61734,-564.15509 257.03125,-557.875 C 255.44516,-551.59491 257.84643,-546.03885 260.84375,-541.78125 C 263.84107,-537.52365 267.8681,-533.82603 272.8125,-530.125 C 292.5901,-515.32089 328.28494,-500.56223 371.78125,-493.53125 C 378.2123,-492.4917 385.26938,-491.51243 392.65625,-490.5625 C 378.28228,-470.62513 365.76296,-446.23121 356.75,-423.21875 C 313.73174,-415.50097 261.80041,-405.89755 201,-402 C 133.19641,-412.7571 60.229228,-422.99523 -7.875,-431.84375 C -20.454791,-441.84072 -39.321085,-443.80468 -60.96875,-442.8125 C -71.351003,-454.29486 -84.077288,-463.54881 -98.9375,-468.96875 C -129.51195,-480.12012 -161.57741,-472.68923 -185.15625,-452.78125 C -209.23473,-455.25653 -230.41016,-457.26573 -245.4375,-458.34375 C -256.45553,-459.13415 -266.27426,-459.52389 -274.9375,-459.53125 C -293.80061,-459.54728 -307.1126,-458.06134 -317.03125,-454 C -321.99057,-451.96933 -326.44872,-449.13179 -329.34375,-444.34375 C -332.23878,-439.55571 -332.3905,-433.22639 -330.65625,-428.4375 C -327.18774,-418.85973 -319.32369,-412.31993 -308.40625,-404.84375 C -299.3036,-398.61033 -287.22955,-392.15697 -273.5,-385.59375 C -278.10656,-366.42099 -274.49863,-346.07676 -271.8125,-325.78125 C -286.91557,-316.10167 -299.86029,-305.80757 -308.59375,-294.65625 C -313.49996,-288.39176 -317.19669,-281.80053 -318.75,-274.53125 C -320.30331,-267.26197 -319.30589,-259.23088 -315.375,-252.40625 C -305.38639,-235.06436 -286.84277,-226.94519 -267.78125,-228.9375 C -248.71973,-230.92981 -228.76925,-241.49001 -210.03125,-259 C -203.05315,-265.5208 -193.75322,-272.55398 -183.84375,-279.625 C -175.44275,-272.47736 -165.88517,-266.6488 -155.28125,-262.78125 C -127.15642,-252.52332 -98.055993,-258.03519 -75.125,-274.4375 C -76.772637,-271.00052 -78.102826,-267.34343 -78.90625,-263.375 C -80.459953,-255.70072 -85.487026,-249.31807 -93.03125,-242.4375 C -100.57547,-235.55693 -110.27109,-228.7533 -118.6875,-219.96875 C -127.10391,-211.1842 -134.37719,-199.49321 -134.4375,-184.6875 C -134.49781,-169.88179 -127.90163,-153.36196 -113.09375,-133.125 C -100.98587,-116.57793 -79.897954,-108.3473 -55.53125,-103.84375 C -31.164546,-99.340202 -2.8559325,-98.7861 25.46875,-100.28125 C 82.118115,-103.27155 137.98726,-114.35986 161.4375,-122.25 C 210.93873,-138.90531 237.51172,-162.34472 260.9375,-185.28125 C 299.14447,-185.57525 333.88267,-211.22091 348.96875,-250.90625 C 356.54949,-254.26893 364.77163,-257.48447 373.90625,-260.5625 C 404.48057,-257.76741 433.63503,-255.48062 461.1875,-253.65625 C 458.1868,-235.04503 461.41506,-215.48992 463.9375,-195.84375 C 448.26955,-185.59692 434.87283,-174.68853 425.875,-162.9375 C 420.85237,-156.37802 417.10137,-149.47826 415.53125,-141.96875 C 413.96113,-134.45924 414.92691,-126.25492 418.90625,-119.1875 C 429.06179,-101.15098 447.9301,-92.819542 467.3125,-95.09375 C 486.6949,-97.367958 507.00685,-108.39084 526.84375,-126 C 545.75414,-142.78669 577.66587,-163.20451 604,-181.28125 C 617.16707,-190.31962 628.94618,-198.76039 637.5625,-206.53125 C 641.87066,-210.41668 645.42342,-214.04917 648.09375,-218.25 C 650.76408,-222.45083 653.12551,-228.57242 650.40625,-234.90625 C 650.3379,-235.07488 650.26495,-235.2416 650.1875,-235.40625 C 646.89933,-242.06119 640.54056,-246.13622 633.96875,-248.1875 C 627.39694,-250.23878 620.13245,-250.73088 612.09375,-250.40625 C 598.94447,-249.87523 583.60706,-246.87799 567.28125,-242.28125 C 566.84007,-244.7144 566.40297,-247.11534 565.90625,-249.5 C 591.78197,-249.45877 613.03265,-250.45624 628.0625,-253.15625 C 636.80036,-254.72595 643.53394,-256.39687 649.34375,-260.84375 C 652.24866,-263.06719 655.14027,-266.628 655.875,-271.21875 C 656.60973,-275.8095 654.97819,-280.16146 652.84375,-283.28125 C 647.58267,-290.97109 639.31188,-295.93578 628.28125,-301.21875 C 617.25062,-306.50172 603.30077,-311.63579 586.65625,-316.8125 C 557.30913,-325.93992 519.31106,-335.12867 476,-344.375 C 481.3859,-350.32465 486.33932,-356.12474 490.28125,-361.53125 C 493.6771,-366.18879 496.47285,-370.56613 498.46875,-374.9375 C 500.46465,-379.30887 502.0787,-383.77135 501.03125,-389.4375 C 497.92153,-406.25947 489.10342,-418.83164 476.71875,-425.96875 C 481.26886,-445.98418 484.06036,-465.53454 482.96875,-482.71875 C 523.55746,-480.45158 564.73787,-479.60822 596.625,-481.21875 C 614.13254,-482.10301 628.71733,-483.62603 639.59375,-486.3125 C 645.03196,-487.65573 649.54256,-489.1153 653.71875,-492.0625 C 655.80684,-493.5361 657.94243,-495.51303 659.375,-498.5625 C 660.80757,-501.61197 661.03857,-505.68329 660.03125,-508.8125 C 658.32135,-514.12443 654.83242,-516.77358 651.375,-519.03125 C 647.91758,-521.28892 643.93759,-523.09638 639.28125,-524.875 C 629.96858,-528.43225 617.90482,-531.68802 603.5625,-534.875 C 574.87786,-541.24896 537.22805,-547.20214 497.71875,-552.46875 C 418.70014,-563.00197 332.53548,-570.73587 297.6875,-572.84375 C 294.27748,-573.05001 291.10467,-573.15963 288.125,-573.125 z M 288.25,-563.125 C 290.92997,-563.15615 293.87243,-563.06985 297.09375,-562.875 C 365.81527,-558.71819 642.0799,-531.90772 650.5,-505.75 C 655.83611,-489.1735 559.75446,-487.72525 471.65625,-493.3125 C 475.42085,-474.16294 472.01336,-447.47507 465.25,-420.34375 C 479.11502,-415.55582 487.87812,-405.52703 491.1875,-387.625 C 492.82883,-378.74624 477.15621,-359.07361 456.5625,-338.3125 C 557.82719,-317.37994 631.57826,-296.64903 644.59375,-277.625 C 654.14367,-263.6664 616.62379,-258.6275 553.34375,-259.53125 C 555.81641,-250.1924 557.81068,-239.95756 559.3125,-229.53125 C 599.0956,-242.1683 634.06333,-245.45064 641.21875,-230.96875 C 648.12274,-214.88763 560.27551,-169.027 520.21875,-133.46875 C 482.61141,-100.08482 444.49978,-94.12368 427.625,-124.09375 C 416.35844,-144.10348 439.71085,-169.17974 474.65625,-190.9375 C 471.58753,-217.54003 466.60886,-242.50391 473.59375,-262.8125 C 442.27078,-264.74947 408.1819,-267.44667 372.59375,-270.71875 C 360.92149,-266.86284 350.51822,-262.74694 341.125,-258.40625 C 327.70212,-218.35578 293.49452,-193.64721 256.9375,-195.25 C 232.92891,-171.55884 208.13059,-148.5017 158.25,-131.71875 C 115.37473,-117.29281 -66.57695,-86.478194 -105.03125,-139.03125 C -161.42035,-216.09453 -77.773347,-218.53471 -69.09375,-261.40625 C -63.463639,-289.21561 -28.495609,-301.42098 0.625,-318.5625 C -16.569652,-321.48959 -32.812808,-324.39102 -47.75,-327.25 C -64.213879,-281.1032 -109.15528,-256.6178 -151.84375,-272.1875 C -163.73777,-276.52559 -174.29226,-283.5742 -183.125,-292.5 C -195.79513,-283.73646 -207.69347,-274.86313 -216.84375,-266.3125 C -252.00285,-233.45757 -290.33625,-228.9635 -306.71875,-257.40625 C -317.65842,-276.39922 -294.99741,-300.19256 -261.0625,-320.84375 C -264.13141,-346.84388 -269.15423,-371.20849 -261.4375,-390.78125 C -330.04192,-421.87155 -347.85687,-449.5932 -274.9375,-449.53125 C -266.5644,-449.52414 -256.98185,-449.1516 -246.15625,-448.375 C -230.27467,-447.2357 -208.23974,-445.20031 -182,-442.46875 C -160.61673,-462.46048 -130.97649,-469.99428 -102.375,-459.5625 C -87.698548,-454.20958 -75.106955,-444.78275 -65.21875,-432.71875 C -40.998337,-434.28031 -20.752053,-430.93104 -11.90625,-422.3125 C 57.260594,-413.34701 131.70843,-402.88101 200.59375,-391.9375 C 265.01218,-395.98964 319.75133,-406.46675 363.875,-414.34375 C 374.72782,-443.63339 392.67457,-476.95282 411.5,-498.375 C 397.48883,-499.89889 384.5586,-501.59847 373.375,-503.40625 C 289.16355,-517.01865 233.75734,-562.4916 288.25,-563.125 z M -41.5625,-316 C -37.578054,-315.25487 -33.172898,-314.49948 -29.03125,-313.75 C -35.700455,-310.15156 -42.335569,-306.43824 -48.5625,-302.3125 C -48.823001,-302.1399 -49.052967,-301.9245 -49.3125,-301.75 C -46.427426,-306.23625 -43.808848,-310.96767 -41.5625,-316 z "
         style="fill:#000000;fill-opacity:1;fill-rule:evenodd;stroke:none;stroke-width:20;stroke-linecap:round;stroke-linejoin:round;stroke-miterlimit:4;stroke-dasharray:none;stroke-opacity:1" />
      <g
         transform="translate(943.04591,284.9864)"
         id="g4360">
        <path
           sodipodi:nodetypes="cssc"
           id="path2173"
           d="M -1042.4245,-643.80647 C -1035.7219,-628.54487 -1121.604,-587.06301 -1159.8907,-551.28537 C -1195.0498,-518.43045 -1233.3851,-513.93696 -1249.7676,-542.37971 C -1279.4869,-593.97704 -1061.3088,-681.1686 -1042.4245,-643.80647"
           style="fill:#c83737;fill-opacity:1;fill-rule:evenodd;stroke:#000000;stroke-width:4;stroke-linecap:round;stroke-linejoin:round;stroke-miterlimit:4;stroke-dasharray:none;stroke-opacity:1" />
        <path
           sodipodi:nodetypes="ccsc"
           id="path2176"
           d="M -1119.3645,-619.5988 C -1133.3525,-602.71007 -1163.2402,-592.09798 -1202.3386,-584.4929 C -1204.1815,-637.90789 -1230.0108,-688.11556 -1161.0464,-709.88506 C -1135.9373,-717.80016 -1122.936,-664.91864 -1119.3645,-619.5988 z "
           style="fill:#c83737;fill-opacity:1;fill-rule:evenodd;stroke:#000000;stroke-width:4;stroke-linecap:round;stroke-linejoin:round;stroke-miterlimit:4;stroke-dasharray:none;stroke-opacity:1" />
        <path
           style="fill:#c83737;fill-opacity:1;fill-rule:evenodd;stroke:#000000;stroke-width:4;stroke-linecap:round;stroke-linejoin:round;stroke-miterlimit:4;stroke-dasharray:none;stroke-opacity:1"
           d="M -301.84218,-515.95166 C -294.93818,-499.87054 -382.78095,-454.02062 -422.83771,-418.46237 C -460.44506,-385.07844 -498.54023,-379.10842 -515.41501,-409.07849 C -546.02715,-463.44649 -321.29389,-555.32006 -301.84218,-515.95166"
           id="path2168"
           sodipodi:nodetypes="cssc" />
        <path
           style="fill:#c83737;fill-opacity:1;fill-rule:evenodd;stroke:#000000;stroke-width:4;stroke-linecap:round;stroke-linejoin:round;stroke-miterlimit:4;stroke-dasharray:none;stroke-opacity:1"
           d="M -381.09384,-490.44409 C -395.50216,-472.64847 -426.28784,-461.46653 -466.56093,-453.45307 C -468.45919,-509.73634 -495.06454,-562.64005 -424.02809,-585.57853 C -398.16461,-593.91865 -384.77269,-538.19751 -381.09384,-490.44409 z "
           id="path2171"
           sodipodi:nodetypes="ccsc" />
        <path
           style="fill:#c83737;fill-rule:evenodd;stroke:#000000;stroke-width:4;stroke-linecap:round;stroke-linejoin:round;stroke-miterlimit:4;stroke-dasharray:none;stroke-opacity:1"
           d="M -1217.9733,-734.52578 C -1343.5697,-734.63247 -1200.0713,-652.33936 -991.30001,-612.31615 C -974.39086,-609.07453 -955.84295,-605.77839 -936.06553,-602.45485 C -873.67486,-634.96493 -801.63525,-647.48467 -738.16314,-676.27303 C -908.32472,-703.44332 -1114.6579,-728.01255 -1189.2118,-733.36085 C -1200.0374,-734.13745 -1209.6002,-734.51867 -1217.9733,-734.52578 z "
           id="path2175"
           sodipodi:nodetypes="csccsc" />
        <path
           style="fill:#c83737;fill-opacity:1;fill-rule:evenodd;stroke:#000000;stroke-width:4;stroke-linecap:round;stroke-linejoin:round;stroke-miterlimit:4;stroke-dasharray:none;stroke-opacity:1"
           d="M -783.53911,-675.32567 C -843.53526,-668.50085 -897.56024,-651.73199 -916.83076,-622.77535 C -945.36729,-592.69395 -1004.6462,-583.34846 -1012.1279,-546.39336 C -1020.8075,-503.52181 -1104.4661,-501.08068 -1048.077,-424.0174 C -1009.6227,-371.46435 -827.66211,-402.2713 -784.78684,-416.69724 C -677.66699,-452.73907 -686.13661,-517.68074 -570.01394,-555.86718 C -549.35704,-562.66012 -447.7872,-650.68255 -451.84286,-672.62156 C -466.36559,-751.18197 -585.42571,-678.21547 -783.53911,-675.32567 z "
           id="rect2160"
           sodipodi:nodetypes="ccsssssc" />
        <path
           inkscape:transform-center-y="4.852077"
           inkscape:transform-center-x="24.14546"
           sodipodi:type="arc"
           style="fill:#00ffff;fill-opacity:1;fill-rule:evenodd;stroke:#000000;stroke-width:9.37396812;stroke-linecap:round;stroke-linejoin:round;stroke-miterlimit:4;stroke-dasharray:none;stroke-opacity:1"
           id="path2187"
           sodipodi:cx="403.97217"
           sodipodi:cy="373.7493"
           sodipodi:rx="19.27947"
           sodipodi:ry="39.455662"
           d="M 423.25164 373.7493 A 19.27947 39.455662 0 1 1  384.6927,373.7493 A 19.27947 39.455662 0 1 1  423.25164 373.7493 z"
           transform="matrix(0.4906428,0.3892281,-0.1367242,0.2626506,-909.48389,-825.32218)" />
        <path
           style="fill:#c83737;fill-opacity:1;fill-rule:evenodd;stroke:#000000;stroke-width:4;stroke-linecap:round;stroke-linejoin:round;stroke-miterlimit:4;stroke-dasharray:none;stroke-opacity:1"
           d="M -724.63539,-666.44856 C -796.00369,-670.89647 -874.84174,-635.84478 -893.26233,-595.51944 C -648.26921,-557.38657 -270.39778,-521.59608 -298.45328,-562.6033 C -320.45388,-594.76041 -515.93176,-631.76069 -724.63539,-666.44856 z "
           id="rect2177"
           sodipodi:nodetypes="ccsc" />
        <path
           style="fill:#00ffff;fill-opacity:1;fill-rule:evenodd;stroke:#000000;stroke-width:4;stroke-linecap:round;stroke-linejoin:round;stroke-miterlimit:4;stroke-dasharray:none;stroke-opacity:1"
           d="M -998.84106,-567.8669 C -984.0711,-553.9175 -963.06799,-546.64723 -909.18833,-549.66645 L -914.85029,-525.15338 C -943.49151,-518.50012 -1000.8314,-521.35022 -1012.8936,-538.134 C -1010.49,-548.53093 -1008.6959,-559.05773 -998.84106,-567.8669 z "
           id="rect2178"
           sodipodi:nodetypes="ccccc" />
        <path
           sodipodi:type="arc"
           style="fill:#00ffff;fill-opacity:1;fill-rule:evenodd;stroke:#000000;stroke-width:8.53938484;stroke-linecap:round;stroke-linejoin:round;stroke-miterlimit:4;stroke-dasharray:none;stroke-opacity:1"
           id="path2181"
           sodipodi:cx="403.97217"
           sodipodi:cy="373.7493"
           sodipodi:rx="19.27947"
           sodipodi:ry="39.455662"
           d="M 423.25164 373.7493 A 19.27947 39.455662 0 1 1  384.6927,373.7493 A 19.27947 39.455662 0 1 1  423.25164 373.7493 z"
           transform="matrix(0.5271691,0.4365292,-0.1469028,0.2945694,-1020.1537,-831.48363)" />
        <path
           sodipodi:nodetypes="ccsc"
           id="path2183"
           d="M -479.18158,-699.94653 C -498.6474,-687.88976 -542.81165,-681.13124 -583.47687,-686.8301 C -566.73061,-740.59787 -519.8953,-818.33498 -488.38459,-803.91391 C -463.67447,-792.60519 -466.92611,-746.24692 -479.18158,-699.94653 z "
           style="fill:#c83737;fill-opacity:1;fill-rule:evenodd;stroke:#000000;stroke-width:4;stroke-linecap:round;stroke-linejoin:round;stroke-miterlimit:4;stroke-dasharray:none;stroke-opacity:1" />
        <path
           sodipodi:nodetypes="csss"
           id="path2180"
           d="M -292.54948,-790.7471 C -284.98368,-767.24424 -481.31416,-774.12082 -569.66715,-788.40268 C -658.02015,-802.68455 -714.68287,-852.03139 -645.96134,-847.87458 C -577.23983,-843.71777 -300.96958,-816.90482 -292.54948,-790.7471 z "
           style="fill:#c83737;fill-opacity:1;fill-rule:evenodd;stroke:#000000;stroke-width:4;stroke-linecap:round;stroke-linejoin:round;stroke-miterlimit:4;stroke-dasharray:none;stroke-opacity:1" />
        <path
           transform="matrix(0.4906428,0.3892281,-0.1367242,0.2626506,-958.93773,-809.77437)"
           d="M 423.25164 373.7493 A 19.27947 39.455662 0 1 1  384.6927,373.7493 A 19.27947 39.455662 0 1 1  423.25164 373.7493 z"
           sodipodi:ry="39.455662"
           sodipodi:rx="19.27947"
           sodipodi:cy="373.7493"
           sodipodi:cx="403.97217"
           id="path2185"
           style="fill:#00ffff;fill-opacity:1;fill-rule:evenodd;stroke:#000000;stroke-width:9.37396812;stroke-linecap:round;stroke-linejoin:round;stroke-miterlimit:4;stroke-dasharray:none;stroke-opacity:1"
           sodipodi:type="arc"
           inkscape:transform-center-x="24.145464"
           inkscape:transform-center-y="4.8520769" />
        <path
           sodipodi:type="arc"
           style="fill:#782121;fill-opacity:1;fill-rule:evenodd;stroke:#000000;stroke-width:3.04615068;stroke-linecap:round;stroke-linejoin:round;stroke-miterlimit:4;stroke-dasharray:none;stroke-opacity:1"
           id="path2189"
           sodipodi:cx="178.89555"
           sodipodi:cy="394.37384"
           sodipodi:rx="17.486032"
           sodipodi:ry="17.037672"
           d="M 196.38159 394.37384 A 17.486032 17.037672 0 1 1  161.40952,394.37384 A 17.486032 17.037672 0 1 1  196.38159 394.37384 z"
           transform="matrix(1.2817058,-0.2587262,0.3657372,1.2715022,-1412.3472,-919.6494)" />
        <path
           transform="matrix(0.7896166,-0.1303916,0.2253186,0.6408059,-1274.6272,-697.82218)"
           d="M 196.38159 394.37384 A 17.486032 17.037672 0 1 1  161.40952,394.37384 A 17.486032 17.037672 0 1 1  196.38159 394.37384 z"
           sodipodi:ry="17.037672"
           sodipodi:rx="17.486032"
           sodipodi:cy="394.37384"
           sodipodi:cx="178.89555"
           id="path2191"
           style="fill:#c83737;fill-opacity:1;fill-rule:evenodd;stroke:#000000;stroke-width:5.46679401;stroke-linecap:round;stroke-linejoin:round;stroke-miterlimit:4;stroke-dasharray:none;stroke-opacity:1"
           sodipodi:type="arc" />
        <path
           style="fill:#c83737;fill-opacity:1;fill-rule:evenodd;stroke:#000000;stroke-width:4;stroke-linecap:round;stroke-linejoin:round;stroke-miterlimit:4;stroke-dasharray:none;stroke-opacity:1"
           d="M -950.4188,-693.3069 C -952.98982,-678.35167 -1003.8748,-667.31094 -1042.5184,-635.80317 C -1079.4817,-605.66539 -1101.5696,-638.54947 -1099.1758,-661.71658 C -1096.7819,-684.88367 -1077.1606,-706.8151 -1031.9147,-714.82379 C -986.66885,-722.83248 -946.47275,-716.26051 -950.4188,-693.3069 z "
           id="path3149"
           sodipodi:nodetypes="cssss" />
        <path
           transform="matrix(0.4525339,0.165052,-0.1363671,0.5165896,-1061.5771,-669.10754)"
           d="M 173.73695 37.733265 A 181.34587 181.34587 0 1 1  -188.95479,37.733265 A 181.34587 181.34587 0 1 1  173.73695 37.733265 z"
           sodipodi:ry="181.34587"
           sodipodi:rx="181.34587"
           sodipodi:cy="37.733265"
           sodipodi:cx="-7.6089177"
           id="path4129"
           style="fill:#b3b3b3;fill-opacity:0.58823529;fill-rule:evenodd;stroke:#000000;stroke-width:7.90134382;stroke-linecap:round;stroke-linejoin:round;stroke-miterlimit:4;stroke-dasharray:none;stroke-opacity:1"
           sodipodi:type="arc" />
        <path
           transform="matrix(0.4462921,0.1627754,-0.1363671,0.5165896,-1060.4927,-668.71201)"
           inkscape:transform-center-y="37.221348"
           inkscape:transform-center-x="-40.931504"
           sodipodi:end="0.52359878"
           sodipodi:start="0"
           sodipodi:type="arc"
           style="fill:#aa0000;fill-opacity:1;fill-rule:evenodd;stroke:none;stroke-width:7.95640564;stroke-linecap:round;stroke-linejoin:round;stroke-miterlimit:4;stroke-dasharray:none;stroke-opacity:1"
           id="path4131"
           sodipodi:cx="-7.6089177"
           sodipodi:cy="37.733265"
           sodipodi:rx="181.34587"
           sodipodi:ry="181.34587"
           d="M 173.73695,37.733265 A 181.34587,181.34587 0 0 1 149.44121,128.4062 L -7.6089177,37.733265 z" />
        <path
           transform="matrix(-0.4462921,-0.1627754,0.1363671,-0.5165896,-1078.5052,-634.24197)"
           d="M 173.73695,37.733265 A 181.34587,181.34587 0 0 1 149.44121,128.4062 L -7.6089177,37.733265 z"
           sodipodi:ry="181.34587"
           sodipodi:rx="181.34587"
           sodipodi:cy="37.733265"
           sodipodi:cx="-7.6089177"
           id="path4133"
           style="fill:#aa0000;fill-opacity:1;fill-rule:evenodd;stroke:none;stroke-width:7.95640564;stroke-linecap:round;stroke-linejoin:round;stroke-miterlimit:4;stroke-dasharray:none;stroke-opacity:1"
           sodipodi:type="arc"
           sodipodi:start="0"
           sodipodi:end="0.52359878"
           inkscape:transform-center-x="40.931506"
           inkscape:transform-center-y="-37.221347" />
        <path
           style="fill:#c83737;fill-opacity:1;fill-rule:evenodd;stroke:#000000;stroke-width:4;stroke-linecap:round;stroke-linejoin:round;stroke-miterlimit:4;stroke-dasharray:none;stroke-opacity:1"
           d="M -1053.187,-644.67806 C -1055.8599,-634.55262 -1065.0464,-630.5073 -1073.7315,-633.92467 C -1086.4321,-638.92199 -1089.2011,-644.36646 -1084.7364,-658.04775 C -1081.696,-667.34966 -1072.9395,-671.99164 -1064.1919,-668.80115 C -1055.4443,-665.61067 -1050.5141,-654.80352 -1053.187,-644.67806 z "
           id="path4135"
           sodipodi:nodetypes="csssc" />
        <path
           sodipodi:nodetypes="cssss"
           id="path4148"
           d="M -561.1291,-624.24719 C -563.77187,-608.94278 -616.07693,-597.64426 -655.79897,-565.40083 C -693.79385,-534.55938 -716.4982,-568.21126 -714.03754,-591.91928 C -711.57687,-615.62729 -691.40803,-638.0708 -644.89941,-646.26648 C -598.39081,-654.46216 -557.07292,-647.73674 -561.1291,-624.24719 z "
           style="fill:#c83737;fill-opacity:1;fill-rule:evenodd;stroke:#000000;stroke-width:4;stroke-linecap:round;stroke-linejoin:round;stroke-miterlimit:4;stroke-dasharray:none;stroke-opacity:1" />
        <path
           sodipodi:type="arc"
           style="fill:#b3b3b3;fill-opacity:0.58823529;fill-rule:evenodd;stroke:#000000;stroke-width:7.70392609;stroke-linecap:round;stroke-linejoin:round;stroke-miterlimit:4;stroke-dasharray:none;stroke-opacity:1"
           id="path4150"
           sodipodi:cx="-7.6089177"
           sodipodi:cy="37.733265"
           sodipodi:rx="181.34587"
           sodipodi:ry="181.34587"
           d="M 173.73695 37.733265 A 181.34587 181.34587 0 1 1  -188.95479,37.733265 A 181.34587 181.34587 0 1 1  173.73695 37.733265 z"
           transform="matrix(0.4651631,0.1689057,-0.1401728,0.5286512,-675.38962,-599.48281)" />
        <path
           d="M 173.73695,37.733265 A 181.34587,181.34587 0 0 1 149.44121,128.4062 L -7.6089177,37.733265 z"
           sodipodi:ry="181.34587"
           sodipodi:rx="181.34587"
           sodipodi:cy="37.733265"
           sodipodi:cx="-7.6089177"
           id="path4152"
           style="fill:#aa0000;fill-opacity:1;fill-rule:evenodd;stroke:none;stroke-width:7.75761223;stroke-linecap:round;stroke-linejoin:round;stroke-miterlimit:4;stroke-dasharray:none;stroke-opacity:1"
           sodipodi:type="arc"
           sodipodi:start="0"
           sodipodi:end="0.52359878"
           inkscape:transform-center-x="-42.073809"
           inkscape:transform-center-y="38.090411"
           transform="matrix(0.4587471,0.166576,-0.1401728,0.5286512,-674.27492,-599.07805)" />
        <path
           inkscape:transform-center-y="-38.09041"
           inkscape:transform-center-x="42.073813"
           sodipodi:end="0.52359878"
           sodipodi:start="0"
           sodipodi:type="arc"
           style="fill:#aa0000;fill-opacity:1;fill-rule:evenodd;stroke:none;stroke-width:7.75761223;stroke-linecap:round;stroke-linejoin:round;stroke-miterlimit:4;stroke-dasharray:none;stroke-opacity:1"
           id="path4154"
           sodipodi:cx="-7.6089177"
           sodipodi:cy="37.733265"
           sodipodi:rx="181.34587"
           sodipodi:ry="181.34587"
           d="M 173.73695,37.733265 A 181.34587,181.34587 0 0 1 149.44121,128.4062 L -7.6089177,37.733265 z"
           transform="matrix(-0.4587471,-0.166576,0.1401728,-0.5286512,-692.79014,-563.80318)" />
        <path
           sodipodi:nodetypes="csssc"
           id="path4156"
           d="M -666.76531,-574.48295 C -669.51279,-564.12109 -678.95569,-559.98132 -687.88318,-563.47847 C -700.93818,-568.59248 -703.78446,-574.16407 -699.19519,-588.16479 C -696.06997,-597.6839 -687.06905,-602.43426 -678.07735,-599.16928 C -669.08564,-595.9043 -664.01786,-584.84482 -666.76531,-574.48295 z "
           style="fill:#c83737;fill-opacity:1;fill-rule:evenodd;stroke:#000000;stroke-width:4;stroke-linecap:round;stroke-linejoin:round;stroke-miterlimit:4;stroke-dasharray:none;stroke-opacity:1" />
      </g>
    </g>
  </g>
</svg>
