<?xml version="1.0" encoding="UTF-8" standalone="no"?>
<!-- Created with Inkscape (http://www.inkscape.org/) -->

<svg
   xmlns:svg="http://www.w3.org/2000/svg"
   xmlns="http://www.w3.org/2000/svg"
   version="1.0"
   width="580.54938"
   height="623.00085"
   id="svg2214">
  <defs
     id="defs2217" />
  <g
     transform="matrix(0.3690484,0,0,0.3355156,-139.16133,51.499652)"
     id="g9857"
     style="stroke:#000000;stroke-width:8.5255661;stroke-miterlimit:4;stroke-opacity:1;stroke-dasharray:none">
    <path
       d="m 857.04895,788.03671 16.09995,13.69659 c -49.61568,96.13762 -90.62546,157.30027 -134.41795,229.772 l -38.97584,0.1446 C 791.75976,815.99264 818.69368,785.65929 857.04895,788.03671 z"
       id="path33233"
       style="fill:#fdef3c;fill-opacity:1;fill-rule:evenodd;stroke:#000000;stroke-width:8.5255661;stroke-linecap:butt;stroke-linejoin:miter;stroke-miterlimit:4;stroke-opacity:1;stroke-dasharray:none" />
    <path
       d="m 724.58389,1048.2131 -24.49305,-13.1412 c -17.80935,87.0044 -34.54564,174.2702 -25.56119,267.7996 l -32.95776,188.3942 12.94336,3.7678 55.57026,-182.2718 c 27.42088,-83.7588 25.30372,-180.9303 14.49838,-264.5486 z"
       id="path33235"
       style="fill:#fdef3c;fill-opacity:1;fill-rule:evenodd;stroke:#000000;stroke-width:8.5255661;stroke-linecap:butt;stroke-linejoin:miter;stroke-miterlimit:4;stroke-opacity:1;stroke-dasharray:none" />
    <path
       d="m 668.7909,1455.58 c 10.36205,39.9493 25.44928,17.9408 39.74304,6.3372"
       id="path33237"
       style="fill:none;stroke:#000000;stroke-width:8.5255661;stroke-linecap:butt;stroke-linejoin:miter;stroke-miterlimit:4;stroke-opacity:1;stroke-dasharray:none" />
    <path
       d="M 642.09266,1456.2313 C 621.2312,1466.2326 603.28212,1470.0262 601.5,1439.3594"
       id="path33239"
       style="fill:none;stroke:#000000;stroke-width:8.5255661;stroke-linecap:butt;stroke-linejoin:miter;stroke-miterlimit:4;stroke-opacity:1;stroke-dasharray:none" />
    <path
       d="m 988.38964,781.86858 -133.35927,-3.60904 33.11544,23.67248 119.56859,26.10689 -19.32476,-46.17033 z"
       id="path33241"
       style="fill:#fdef3c;fill-opacity:1;fill-rule:evenodd;stroke:#000000;stroke-width:8.5255661;stroke-linecap:butt;stroke-linejoin:miter;stroke-miterlimit:4;stroke-opacity:1;stroke-dasharray:none" />
    <path
       d="m 1488.9777,789.58291 -17.2079,12.27568 c 41.2478,100.01386 76.8997,164.44691 114.361,240.38491 l 38.8219,3.4635 c -73.3039,-222.70937 -97.5566,-255.22634 -135.975,-256.12409 z"
       id="path33329"
       style="fill:#fdef3c;fill-opacity:1;fill-rule:evenodd;stroke:#000000;stroke-width:8.5255661;stroke-linecap:butt;stroke-linejoin:miter;stroke-miterlimit:4;stroke-opacity:1;stroke-dasharray:none" />
    <path
       d="m 1598.4065,1059.4514 24.2413,-10.5792 c 9.7383,84.5922 18.4402,169.3473 2.3013,258.0092 l 15.7844,182.7175 -12.5509,2.5545 -37.6735,-178.6944 c -19.0949,-82.2673 -9.1542,-174.9652 7.8974,-254.0076 z"
       id="path33331"
       style="fill:#fdef3c;fill-opacity:1;fill-rule:evenodd;stroke:#000000;stroke-width:8.5255661;stroke-linecap:butt;stroke-linejoin:miter;stroke-miterlimit:4;stroke-opacity:1;stroke-dasharray:none" />
    <path
       d="m 1620.1099,1465.9424 c -13.7267,38.9217 -26.8847,15.7082 -40.1383,2.9295"
       id="path33333"
       style="fill:none;stroke:#000000;stroke-width:8.5255661;stroke-linecap:butt;stroke-linejoin:miter;stroke-miterlimit:4;stroke-opacity:1;stroke-dasharray:none" />
    <path
       d="m 1636.6179,1463.3461 c 19.9339,11.7417 37.4947,17.0501 41.8821,-13.3536"
       id="path33335"
       style="fill:none;stroke:#000000;stroke-width:8.5255661;stroke-linecap:butt;stroke-linejoin:miter;stroke-miterlimit:4;stroke-opacity:1;stroke-dasharray:none" />
    <path
       d="m 1358.6395,772.25154 133.1821,7.76163 -35.0112,20.7662 -121.3576,15.82896 23.1867,-44.35679 z"
       id="path33337"
       style="fill:#fdef3c;fill-opacity:1;fill-rule:evenodd;stroke:#000000;stroke-width:8.5255661;stroke-linecap:butt;stroke-linejoin:miter;stroke-miterlimit:4;stroke-opacity:1;stroke-dasharray:none" />
    <g
       transform="translate(1853.1073,696.57604)"
       id="g2254"
       style="fill:#fdef3c;fill-opacity:1;stroke:#000000;stroke-width:8.5255661;stroke-miterlimit:4;stroke-opacity:1;stroke-dasharray:none">
      <g
         transform="translate(-280.7427,-494.64191)"
         id="g2256"
         style="fill:#fdef3c;fill-opacity:1;stroke:#000000;stroke-width:8.5255661;stroke-miterlimit:4;stroke-opacity:1;stroke-dasharray:none">
        <path
           d="m -780.94222,454.53581 c -10.0415,4.09571 42.2505,40.04276 -140.3714,207.21488 l -13.3687,-23.3953 c 98.187,-189.24352 127.8748,-170.86015 153.7401,-183.81958 z"
           id="path2258"
           style="fill:#fdef3c;fill-opacity:1;fill-rule:evenodd;stroke:#000000;stroke-width:8.5255661;stroke-linecap:butt;stroke-linejoin:miter;stroke-miterlimit:4;stroke-opacity:1;stroke-dasharray:none" />
        <path
           d="m -938.02452,641.69759 13.3687,20.0531 c -55.1463,84.6675 -142.37838,105.1636 -213.89918,157.0822 l -3.3421,-10.0265 c 189.98878,-183.8358 185.29758,-163.2575 203.87258,-167.1088 z"
           id="path2260"
           style="fill:#fdef3c;fill-opacity:1;fill-rule:evenodd;stroke:#000000;stroke-width:8.5255661;stroke-linecap:butt;stroke-linejoin:miter;stroke-miterlimit:4;stroke-opacity:1;stroke-dasharray:none" />
        <path
           d="m -1138.555,802.12199 c -19.7391,-27.6422 -5.1313,-32.3864 0,-43.4483"
           id="path2262"
           style="fill:#fdef3c;fill-opacity:1;fill-rule:evenodd;stroke:#000000;stroke-width:8.5255661;stroke-linecap:butt;stroke-linejoin:miter;stroke-miterlimit:4;stroke-opacity:1;stroke-dasharray:none" />
        <path
           d="m -1131.8706,815.49069 c 9.299,14.4371 18.7512,28.4149 36.7639,16.7109"
           id="path2264"
           style="fill:#fdef3c;fill-opacity:1;fill-rule:evenodd;stroke:#000000;stroke-width:8.5255661;stroke-linecap:butt;stroke-linejoin:miter;stroke-miterlimit:4;stroke-opacity:1;stroke-dasharray:none" />
      </g>
      <path
         d="m -909.6778,-47.904504 c 20.05307,38.854591 11.74677,58.540141 31.79987,80.212201 -75.35557,-12.45483 -140.61557,-29.95746 -180.47747,-60.159151 l 0,-13.3687 c 33.4738,-8.86041 106.9492,-6.07857 148.6776,-6.68435 z"
         id="path2266"
         style="fill:#fdef3c;fill-opacity:1;fill-rule:evenodd;stroke:#000000;stroke-width:8.5255661;stroke-linecap:butt;stroke-linejoin:miter;stroke-miterlimit:4;stroke-opacity:1;stroke-dasharray:none" />
    </g>
    <g
       transform="matrix(-1,0,0,1,470.26787,689.4045)"
       id="g30156"
       style="fill:#fdef3c;fill-opacity:1;stroke:#000000;stroke-width:8.5255661;stroke-miterlimit:4;stroke-opacity:1;stroke-dasharray:none">
      <g
         transform="translate(-280.7427,-494.64191)"
         id="g30158"
         style="fill:#fdef3c;fill-opacity:1;stroke:#000000;stroke-width:8.5255661;stroke-miterlimit:4;stroke-opacity:1;stroke-dasharray:none">
        <path
           d="m -780.94222,454.53581 c -10.0415,4.09571 42.2505,40.04276 -140.3714,207.21488 l -13.3687,-23.3953 c 98.187,-189.24352 127.8748,-170.86015 153.7401,-183.81958 z"
           id="path30160"
           style="fill:#fdef3c;fill-opacity:1;fill-rule:evenodd;stroke:#000000;stroke-width:8.5255661;stroke-linecap:butt;stroke-linejoin:miter;stroke-miterlimit:4;stroke-opacity:1;stroke-dasharray:none" />
        <path
           d="m -938.02452,641.69759 13.3687,20.0531 c -55.1463,84.6675 -142.37838,105.1636 -213.89918,157.0822 l -3.3421,-10.0265 c 189.98878,-183.8358 185.29758,-163.2575 203.87258,-167.1088 z"
           id="path30162"
           style="fill:#fdef3c;fill-opacity:1;fill-rule:evenodd;stroke:#000000;stroke-width:8.5255661;stroke-linecap:butt;stroke-linejoin:miter;stroke-miterlimit:4;stroke-opacity:1;stroke-dasharray:none" />
        <path
           d="m -1138.555,802.12199 c -19.7391,-27.6422 -5.1313,-32.3864 0,-43.4483"
           id="path30164"
           style="fill:#fdef3c;fill-opacity:1;fill-rule:evenodd;stroke:#000000;stroke-width:8.5255661;stroke-linecap:butt;stroke-linejoin:miter;stroke-miterlimit:4;stroke-opacity:1;stroke-dasharray:none" />
        <path
           d="m -1131.8706,815.49069 c 9.299,14.4371 18.7512,28.4149 36.7639,16.7109"
           id="path30166"
           style="fill:#fdef3c;fill-opacity:1;fill-rule:evenodd;stroke:#000000;stroke-width:8.5255661;stroke-linecap:butt;stroke-linejoin:miter;stroke-miterlimit:4;stroke-opacity:1;stroke-dasharray:none" />
      </g>
      <path
         d="m -909.6778,-47.904504 c 20.05307,38.854591 11.74677,58.540141 31.79987,80.212201 -75.35557,-12.45483 -140.61557,-29.95746 -180.47747,-60.159151 l 0,-13.3687 c 33.4738,-8.86041 106.9492,-6.07857 148.6776,-6.68435 z"
         id="path30168"
         style="fill:#fdef3c;fill-opacity:1;fill-rule:evenodd;stroke:#000000;stroke-width:8.5255661;stroke-linecap:butt;stroke-linejoin:miter;stroke-miterlimit:4;stroke-opacity:1;stroke-dasharray:none" />
    </g>
    <path
       d="m 1178.6738,706.31299 a 127.00266,173.79311 0 1 1 -254.00532,0 127.00266,173.79311 0 1 1 254.00532,0 z"
       transform="matrix(1.1577619,0,0,0.9229799,-52.279733,-32.496249)"
       id="path2227"
       style="fill:#fdef3c;fill-opacity:1;fill-rule:evenodd;stroke:#000000;stroke-width:8.24740791;stroke-linecap:butt;stroke-linejoin:miter;stroke-miterlimit:4;stroke-opacity:1;stroke-dasharray:none" />
    <path
       d="m 1080.8043,391.22756 160.7027,0 c 178.8582,41.4188 274.0598,549.05411 33.0857,529.37352 -62.9388,-1.57552 -107.178,-1.57551 -217.4212,0 -157.70437,2.71052 -221.06688,-326.72303 23.6328,-529.37352 z"
       id="path3202"
       style="fill:#fdef3c;fill-opacity:1;fill-rule:evenodd;stroke:#000000;stroke-width:8.5255661;stroke-linecap:butt;stroke-linejoin:miter;stroke-miterlimit:4;stroke-opacity:1;stroke-dasharray:none" />
    <path
       d="m 1090.2574,755.17185 c 68.404,-14.83644 103.9522,-10.18578 147.334,0 l -4.7266,0"
       id="path3204"
       style="fill:#fdef3c;fill-opacity:1;fill-rule:evenodd;stroke:#000000;stroke-width:8.5255661;stroke-linecap:butt;stroke-linejoin:miter;stroke-miterlimit:4;stroke-opacity:1;stroke-dasharray:none" />
    <path
       d="m 1361.5,492.3283 c 59.8694,-47.2652 83.5026,-15.7554 28.3593,66.1717"
       id="path3208"
       style="fill:#fdef3c;fill-opacity:1;fill-rule:evenodd;stroke:#000000;stroke-width:8.5255661;stroke-linecap:butt;stroke-linejoin:miter;stroke-miterlimit:4;stroke-opacity:1;stroke-dasharray:none" />
    <path
       d="m 1406.9362,460.55028 14.1796,14.17965 c 33.8527,-34.70317 59.0609,-86.69537 80.3514,-146.52303 l -9.4531,-4.72655 c -34.1286,29.42492 -63.5352,77.74671 -85.0779,137.06993 z"
       id="path3210"
       style="fill:#fdef3c;fill-opacity:1;fill-rule:evenodd;stroke:#000000;stroke-width:8.5255661;stroke-linecap:butt;stroke-linejoin:miter;stroke-miterlimit:4;stroke-opacity:1;stroke-dasharray:none" />
    <path
       d="m 1495.0663,313.0504 10.0265,6.68435 63.5014,-93.58091 -10.0266,-6.68435 -63.5013,93.58091 z"
       id="path3212"
       style="fill:#fdef3c;fill-opacity:1;fill-rule:evenodd;stroke:#000000;stroke-width:8.5255661;stroke-linecap:butt;stroke-linejoin:miter;stroke-miterlimit:4;stroke-opacity:1;stroke-dasharray:none" />
    <path
       d="m 985.1847,488.90957 c -59.8694,-47.26525 -83.5026,-15.75541 -28.3593,66.17169"
       id="path3325"
       style="fill:#fdef3c;fill-opacity:1;fill-rule:evenodd;stroke:#000000;stroke-width:8.5255661;stroke-linecap:butt;stroke-linejoin:miter;stroke-miterlimit:4;stroke-opacity:1;stroke-dasharray:none" />
    <path
       d="M 933.1926,460.55028 919.013,474.72993 C 885.1603,440.02676 859.9521,388.03456 838.6616,328.2069 l 9.4531,-4.72655 c 34.1286,29.42492 63.5352,77.74671 85.0779,137.06993 z"
       id="path3327"
       style="fill:#fdef3c;fill-opacity:1;fill-rule:evenodd;stroke:#000000;stroke-width:8.5255661;stroke-linecap:butt;stroke-linejoin:miter;stroke-miterlimit:4;stroke-opacity:1;stroke-dasharray:none" />
    <path
       d="m 845.0625,313.0504 -10.0265,6.68435 -63.5014,-93.58091 10.0266,-6.68435 63.5013,93.58091 z"
       id="path3329"
       style="fill:#fdef3c;fill-opacity:1;fill-rule:evenodd;stroke:#000000;stroke-width:8.5255661;stroke-linecap:butt;stroke-linejoin:miter;stroke-miterlimit:4;stroke-opacity:1;stroke-dasharray:none" />
    <g
       transform="translate(3.1891435e-6,1.98613)"
       id="g2718"
       style="fill:#fdef3c;fill-opacity:1;stroke:#000000;stroke-width:8.5255661;stroke-miterlimit:4;stroke-opacity:1;stroke-dasharray:none">
      <path
         d="m 1176.3226,253.07403 12.2218,4.43984 45.8812,-84.79118 -6.1109,-9.4531 c 77.3109,-93.563564 107.8517,-196.481126 241.054,-278.86641 33.5784,-59.3034 -7.287,-25.55294 -18.9062,-28.35929 -182.558,140.0723074 -172.231,210.004663 -228.5455,304.17024 l -12.5085,1.67109 -33.0859,91.18881 z"
         id="path3224"
         style="fill:#fdef3c;fill-opacity:1;fill-rule:evenodd;stroke:#000000;stroke-width:8.5255661;stroke-linecap:butt;stroke-linejoin:miter;stroke-miterlimit:4;stroke-opacity:1;stroke-dasharray:none" />
      <path
         d="m 1146.5191,253.07403 -12.2218,4.43984 -45.8812,-84.79118 6.1109,-9.4531 C 1017.216,69.706026 986.6752,-33.211536 853.47288,-115.59682 c -33.5784,-59.3034 7.287,-25.55294 18.9062,-28.35929 182.55812,140.0723074 172.23112,210.004663 228.54562,304.17024 l 12.5085,1.67109 33.0859,91.18881 z"
         id="path3311"
         style="fill:#fdef3c;fill-opacity:1;fill-rule:evenodd;stroke:#000000;stroke-width:8.5255661;stroke-linecap:butt;stroke-linejoin:miter;stroke-miterlimit:4;stroke-opacity:1;stroke-dasharray:none" />
      <g
         transform="translate(-3.7392669,280.6612)"
         id="g2244"
         style="fill:#fdef3c;fill-opacity:1;stroke:#000000;stroke-width:8.5255661;stroke-miterlimit:4;stroke-opacity:1;stroke-dasharray:none">
        <path
           d="m 1187.9394,-117.96503 -14.1797,75.62479"
           id="path3234"
           style="fill:#fdef3c;fill-opacity:1;fill-rule:evenodd;stroke:#000000;stroke-width:8.5255661;stroke-linecap:butt;stroke-linejoin:miter;stroke-miterlimit:4;stroke-opacity:1;stroke-dasharray:none" />
        <path
           d="m 1202.119,-113.23848 -23.6327,80.35134"
           id="path3236"
           style="fill:#fdef3c;fill-opacity:1;fill-rule:evenodd;stroke:#000000;stroke-width:8.5255661;stroke-linecap:butt;stroke-linejoin:miter;stroke-miterlimit:4;stroke-opacity:1;stroke-dasharray:none" />
        <g
           transform="translate(-3.342175,3.342175)"
           id="g2238"
           style="fill:#fdef3c;fill-opacity:1;stroke:#000000;stroke-width:8.5255661;stroke-miterlimit:4;stroke-opacity:1;stroke-dasharray:none">
          <path
             d="m 1151.1753,-121.30721 14.1797,75.624795"
             id="path2234"
             style="fill:#fdef3c;fill-opacity:1;fill-rule:evenodd;stroke:#000000;stroke-width:8.5255661;stroke-linecap:butt;stroke-linejoin:miter;stroke-miterlimit:4;stroke-opacity:1;stroke-dasharray:none" />
          <path
             d="m 1136.9957,-116.58066 23.6327,80.351345"
             id="path2236"
             style="fill:#fdef3c;fill-opacity:1;fill-rule:evenodd;stroke:#000000;stroke-width:8.5255661;stroke-linecap:butt;stroke-linejoin:miter;stroke-miterlimit:4;stroke-opacity:1;stroke-dasharray:none" />
        </g>
        <path
           d="m 1165.305,-116.97612 3.3422,73.527854"
           id="path2242"
           style="fill:#fdef3c;fill-opacity:1;fill-rule:evenodd;stroke:#000000;stroke-width:8.5255661;stroke-linecap:butt;stroke-linejoin:miter;stroke-miterlimit:4;stroke-opacity:1;stroke-dasharray:none" />
      </g>
    </g>
    <g
       id="g4958"
       style="stroke:#000000;stroke-width:8.5255661;stroke-miterlimit:4;stroke-opacity:1;stroke-dasharray:none">
      <path
         d="m 1568.5942,219.46949 c -3.3422,0 73.5278,-103.60742 73.5278,-103.60742 l -20.053,-10.02653 c 0,0 -50.1327,113.63395 -53.4748,113.63395 z"
         id="path3214"
         style="fill:#fdef3c;fill-opacity:1;fill-rule:evenodd;stroke:#000000;stroke-width:8.5255661;stroke-linecap:butt;stroke-linejoin:miter;stroke-miterlimit:4;stroke-opacity:1;stroke-dasharray:none" />
      <path
         d="m 1575.2785,209.44297 30.0796,-16.71088"
         id="path3216"
         style="fill:none;stroke:#000000;stroke-width:8.5255661;stroke-linecap:butt;stroke-linejoin:miter;stroke-miterlimit:4;stroke-opacity:1;stroke-dasharray:none" />
      <g
         id="g2274"
         style="fill:none;stroke:#000000;stroke-width:8.5255661;stroke-miterlimit:4;stroke-opacity:1;stroke-dasharray:none">
        <path
           d="m 1591.9894,186.04774 26.7374,-10.02652"
           id="path3218"
           style="fill:none;stroke:#000000;stroke-width:8.5255661;stroke-linecap:butt;stroke-linejoin:miter;stroke-miterlimit:4;stroke-opacity:1;stroke-dasharray:none" />
        <path
           d="m 1608.7003,162.65252 30.0795,-13.3687"
           id="path3220"
           style="fill:none;stroke:#000000;stroke-width:8.5255661;stroke-linecap:butt;stroke-linejoin:miter;stroke-miterlimit:4;stroke-opacity:1;stroke-dasharray:none" />
        <path
           d="m 1642.122,115.86207 c 15.6278,5.53929 25.5392,16.79503 23.3952,40.1061"
           id="path3222"
           style="fill:none;stroke:#000000;stroke-width:8.5255661;stroke-linecap:butt;stroke-linejoin:miter;stroke-miterlimit:4;stroke-opacity:1;stroke-dasharray:none" />
      </g>
      <path
         d="m 1621.4998,105.82352 c -29.809,-19.557009 -28.8603,-15.387766 -43.4242,0 l 1e-4,0"
         id="path2314"
         style="fill:none;stroke:#000000;stroke-width:8.5255661;stroke-linecap:butt;stroke-linejoin:miter;stroke-miterlimit:4;stroke-opacity:1;stroke-dasharray:none" />
      <path
         d="m 1597.5597,158.75332 -10.0265,-26.7374"
         id="path2316"
         style="fill:none;stroke:#000000;stroke-width:8.5255661;stroke-linecap:butt;stroke-linejoin:miter;stroke-miterlimit:4;stroke-opacity:1;stroke-dasharray:none" />
      <path
         d="m 1585.8621,182.14855 -10.0266,-23.39523"
         id="path2318"
         style="fill:none;stroke:#000000;stroke-width:8.5255661;stroke-linecap:butt;stroke-linejoin:miter;stroke-miterlimit:4;stroke-opacity:1;stroke-dasharray:none" />
      <path
         d="m 1574.1644,208.88595 -8.3554,-28.40849"
         id="path2320"
         style="fill:none;stroke:#000000;stroke-width:8.5255661;stroke-linecap:butt;stroke-linejoin:miter;stroke-miterlimit:4;stroke-opacity:1;stroke-dasharray:none" />
    </g>
    <path
       d="m 1165.305,456.76393 0,287.42706 0,0"
       id="path2702"
       style="fill:#fdef3c;fill-opacity:1;fill-rule:evenodd;stroke:#000000;stroke-width:8.5255661;stroke-linecap:butt;stroke-linejoin:miter;stroke-miterlimit:4;stroke-opacity:1;stroke-dasharray:none" />
    <g
       transform="translate(-779.99997,39.999998)"
       id="g2735"
       style="fill:#fdef3c;fill-opacity:1;stroke:#000000;stroke-width:8.5255661;stroke-miterlimit:4;stroke-opacity:1;stroke-dasharray:none">
      <path
         d="m 1778.817,352.62954 160,0 160,0 c 128.7589,-194.98332 -82.3799,-218.45876 -160,-100 -68.3062,-120.73294 -287.9275,-86.20409 -160,100 z"
         id="path2731"
         style="fill:#fdef3c;fill-opacity:1;fill-rule:evenodd;stroke:#000000;stroke-width:8.5255661;stroke-linecap:butt;stroke-linejoin:miter;stroke-miterlimit:4;stroke-opacity:1;stroke-dasharray:none" />
      <path
         d="m 1940.5,250.0469 0,100"
         id="path2733"
         style="fill:#fdef3c;fill-opacity:1;fill-rule:evenodd;stroke:#000000;stroke-width:8.5255661;stroke-linecap:butt;stroke-linejoin:miter;stroke-miterlimit:4;stroke-opacity:1;stroke-dasharray:none" />
    </g>
    <g
       id="g30170"
       style="stroke:#000000;stroke-width:8.5255661;stroke-miterlimit:4;stroke-opacity:1;stroke-dasharray:none">
      <g
         transform="matrix(8.1353782,0,0,6.7751709,-683.39367,-991.85146)"
         id="g13398"
         style="stroke:#000000;stroke-width:1.14834988;stroke-miterlimit:4;stroke-opacity:1;stroke-dasharray:none">
        <path
           d="m 199.83644,282.42413 57.53449,0 3.45206,29.91794 -0.59227,6.45108 0.59227,14.26133 -2.30137,11.5069 -6.90414,24.16448 -4.60276,9.97265 c -9.3578,20.26859 -26.84943,28.57669 -40.27414,0 l -4.60276,-10.35621 -5.75345,-23.0138 -2.30138,-17.26034 1.15069,-10.35621 0,-9.20552 4.60276,-26.0823 z"
           id="path2711"
           style="fill:#fdef3c;fill-opacity:1;fill-rule:evenodd;stroke:#000000;stroke-width:1.14834988;stroke-linecap:butt;stroke-linejoin:miter;stroke-miterlimit:4;stroke-opacity:1;stroke-dasharray:none" />
        <path
           d="m 195.23368,310.80781 c 20.70113,-2.42912 42.56424,-1.67977 64.42734,0 0.6594,1.74214 0.88299,4.00758 0,7.60177 -21.8631,5.87918 -42.56424,4.14174 -64.42734,-0.69763 l 0,-6.90414 z"
           id="path2713"
           style="fill:#000000;fill-opacity:1;fill-rule:evenodd;stroke:#000000;stroke-width:1.14834988;stroke-linecap:butt;stroke-linejoin:miter;stroke-miterlimit:4;stroke-opacity:1;stroke-dasharray:none" />
        <path
           d="m 194.65833,328.6435 c 22.24667,6.52695 43.337,6.32242 65.58367,0.57535 0.67948,4.60276 -1.02193,9.20551 -1.72038,13.80827 -20.71242,6.13702 -41.42483,6.13701 -62.13725,0 l -1.72604,-14.38362 z"
           id="path2715"
           style="fill:#000000;fill-opacity:1;fill-rule:evenodd;stroke:#000000;stroke-width:1.14834988;stroke-linecap:butt;stroke-linejoin:miter;stroke-miterlimit:4;stroke-opacity:1;stroke-dasharray:none" />
        <path
           d="m 199.26109,356.8354 c 18.41104,2.64289 36.82208,3.22574 55.23312,-0.24458 l -2.87673,10.60079 c -16.49322,2.82566 -32.98644,3.30356 -49.47966,0 l -2.87673,-10.35621 z"
           id="path2717"
           style="fill:#000000;fill-opacity:1;fill-rule:evenodd;stroke:#000000;stroke-width:1.14834988;stroke-linecap:butt;stroke-linejoin:miter;stroke-miterlimit:4;stroke-opacity:1;stroke-dasharray:none" />
        <path
           d="m 207.25075,378.62334 39.0557,0.11603 c -0.66942,2.98342 -3.39443,5.96685 -5.57998,8.95027 l -28.36109,-0.11603 -5.11463,-8.95027 z"
           id="path5626"
           style="fill:#000000;fill-opacity:1;fill-rule:evenodd;stroke:#000000;stroke-width:1.14834988;stroke-linecap:butt;stroke-linejoin:miter;stroke-miterlimit:4;stroke-opacity:1;stroke-dasharray:none" />
        <path
           d="m 198.53316,291.56167 c 10.93834,-3.21127 21.37459,-4.9804 31.84771,-4.72848 9.04015,0.21745 18.10778,2.43403 27.5495,5.54214 l 0,-4.88196 c -19.52785,-7.70203 -43.124,-5.55681 -58.58355,-0.81366 l -0.81366,4.88196 z"
           id="path6599"
           style="fill:#000000;fill-opacity:1;fill-rule:evenodd;stroke:#000000;stroke-width:1.14834988;stroke-linecap:butt;stroke-linejoin:miter;stroke-miterlimit:4;stroke-opacity:1;stroke-dasharray:none" />
      </g>
      <path
         d="m 1303.025,953.99761 c -141.9042,63.76379 -115.7712,125.40869 6.6837,155.41239 l -269.1941,10e-5 c 128.1469,-30.4958 146.2699,-91.1935 3.3419,-155.41249 95.7377,-15.59948 171.2458,-17.41345 259.1685,0 z"
         id="path13455"
         style="fill:#000000;fill-opacity:1;fill-rule:evenodd;stroke:#000000;stroke-width:8.5255661;stroke-linecap:butt;stroke-linejoin:miter;stroke-miterlimit:4;stroke-opacity:1;stroke-dasharray:none" />
    </g>
    <path
       d="m 926.51391,614.73051 c -15.4867,24.55522 12.669,33.91551 18.9062,9.4531 49.2288,-98.1113 -59.2981,-105.60423 -18.9062,-9.4531 z"
       id="path2671"
       style="fill:#000000;fill-opacity:1;fill-rule:evenodd;stroke:#000000;stroke-width:8.5255661;stroke-linecap:butt;stroke-linejoin:miter;stroke-miterlimit:4;stroke-opacity:1;stroke-dasharray:none" />
    <path
       d="m 1140,280 0,100 -133.3156,0 C 925.84127,268.08211 1009.9651,169.77728 1140,280 z"
       id="path32142"
       style="fill:#000000;fill-opacity:1;fill-rule:evenodd;stroke:#000000;stroke-width:8.5255661;stroke-linecap:butt;stroke-linejoin:miter;stroke-miterlimit:4;stroke-opacity:1;stroke-dasharray:none" />
    <path
       d="m 1180.5,279.5 0,100 133.3156,0 c 80.8431,-111.91789 -3.2807,-210.22272 -133.3156,-100 z"
       id="path33113"
       style="fill:#000000;fill-opacity:1;fill-rule:evenodd;stroke:#000000;stroke-width:8.5255661;stroke-linecap:butt;stroke-linejoin:miter;stroke-miterlimit:4;stroke-opacity:1;stroke-dasharray:none" />
    <g
       transform="matrix(-2.2270249,0,0,2.635554,2279.9793,-524.02115)"
       id="g33131"
       style="fill:#f9f9f6;fill-opacity:0.30588235;stroke:#000000;stroke-width:3.5190444;stroke-miterlimit:4;stroke-opacity:1;stroke-dasharray:none">
      <path
         d="m 607.10168,442.23004 c 139.40105,43.43656 204.50821,-6.09424 245.46707,48.48732 2.66583,60.29011 -79.16736,46.64357 -136.3706,54.54824 -88.34188,-28.16171 -82.14218,-35.31417 -103.03555,-48.48732 l -6.06092,-54.54824 z"
         id="path33133"
         style="fill:#f9f9f6;fill-opacity:0.30588235;fill-rule:evenodd;stroke:#000000;stroke-width:3.5190444;stroke-linecap:butt;stroke-linejoin:miter;stroke-miterlimit:4;stroke-opacity:1;stroke-dasharray:none" />
      <path
         d="m 607.10168,442.23005 84.85281,45.45686 c 10.10153,-5.81188 20.20305,-1.8046 30.30458,0 l 39.39595,3.03046 3.03046,-6.06092 c 34.0788,-1.75392 54.62904,10.02072 72.73098,24.24366 l 0,0"
         id="path33135"
         style="fill:#f9f9f6;fill-opacity:0.30588235;fill-rule:evenodd;stroke:#000000;stroke-width:3.5190444;stroke-linecap:butt;stroke-linejoin:miter;stroke-miterlimit:4;stroke-opacity:1;stroke-dasharray:none" />
      <path
         d="m 740.44182,462.20617 0,7.29799 25.45792,15.15229"
         id="path33137"
         style="fill:#f9f9f6;fill-opacity:0.30588235;fill-rule:evenodd;stroke:#000000;stroke-width:3.5190444;stroke-linecap:butt;stroke-linejoin:miter;stroke-miterlimit:4;stroke-opacity:1;stroke-dasharray:none" />
      <path
         d="m 761.65502,491.72752 15.15229,9.09137"
         id="path33139"
         style="fill:#f9f9f6;fill-opacity:0.30588235;fill-rule:evenodd;stroke:#000000;stroke-width:3.5190444;stroke-linecap:butt;stroke-linejoin:miter;stroke-miterlimit:4;stroke-opacity:1;stroke-dasharray:none" />
      <path
         d="m 721.35097,487.45998 52.42588,43.66349"
         id="path33141"
         style="fill:#f9f9f6;fill-opacity:0.30588235;fill-rule:evenodd;stroke:#000000;stroke-width:3.5190444;stroke-linecap:butt;stroke-linejoin:miter;stroke-miterlimit:4;stroke-opacity:1;stroke-dasharray:none" />
      <path
         d="m 691.95449,487.45998 -6.96901,11.56553"
         id="path33143"
         style="fill:#f9f9f6;fill-opacity:0.30588235;fill-rule:evenodd;stroke:#000000;stroke-width:3.5190444;stroke-linecap:butt;stroke-linejoin:miter;stroke-miterlimit:4;stroke-opacity:1;stroke-dasharray:none" />
      <path
         d="m 607.10168,442.23005 103.03556,75.76144"
         id="path33145"
         style="fill:#f9f9f6;fill-opacity:0.30588235;fill-rule:evenodd;stroke:#000000;stroke-width:3.5190444;stroke-linecap:butt;stroke-linejoin:miter;stroke-miterlimit:4;stroke-opacity:1;stroke-dasharray:none" />
    </g>
    <g
       transform="translate(1651.754,319.91669)"
       id="g33245"
       style="fill:#f9f9f6;fill-opacity:0.30588235;stroke:#000000;stroke-width:8.5255661;stroke-miterlimit:4;stroke-opacity:1;stroke-dasharray:none">
      <path
         d="m -712.42762,306.36604 c -8.2462,266.59166 45.284,440.84995 -67.8353,821.32336 -260.57428,354.2082 -447.89488,322.3722 -226.87428,-245.78051 l 294.70958,-575.54285 z"
         id="path33247"
         style="fill:#f9f9f6;fill-opacity:0.30588235;fill-rule:evenodd;stroke:#000000;stroke-width:8.5255661;stroke-linecap:butt;stroke-linejoin:miter;stroke-miterlimit:4;stroke-opacity:1;stroke-dasharray:none" />
      <path
         d="m -731.42187,306.05759 c -366.94263,546.888 -465.60303,1000.45021 15.36125,9.4531 -10.6706,-1.82613 -14.09555,-4.49197 -15.36125,-9.4531 z"
         id="path33249"
         style="fill:#f9f9f6;fill-opacity:0.30588235;fill-rule:evenodd;stroke:#000000;stroke-width:8.5255661;stroke-linecap:butt;stroke-linejoin:miter;stroke-miterlimit:4;stroke-opacity:1;stroke-dasharray:none" />
      <path
         d="m -988.15712,1140.7958 6.6844,63.5013"
         id="path33251"
         style="fill:#f9f9f6;fill-opacity:0.30588235;fill-rule:evenodd;stroke:#000000;stroke-width:8.5255661;stroke-linecap:butt;stroke-linejoin:miter;stroke-miterlimit:4;stroke-opacity:1;stroke-dasharray:none" />
      <path
         d="m -1021.5788,1043.8727 c 3.9699,40.5924 11.7633,77.3613 33.42168,100.2652"
         id="path33253"
         style="fill:#f9f9f6;fill-opacity:0.30588235;fill-rule:evenodd;stroke:#000000;stroke-width:8.5255661;stroke-linecap:butt;stroke-linejoin:miter;stroke-miterlimit:4;stroke-opacity:1;stroke-dasharray:none" />
      <path
         d="m -1001.5258,868.96549 c 23.83888,14.0391 18.60158,57.1544 16.71088,96.9231 -13.3687,23.2436 -26.73738,45.08561 -40.10608,76.87001 -27.1242,115.4121 -51.9263,186.7047 -70.1857,133.687"
         id="path33255"
         style="fill:#f9f9f6;fill-opacity:0.30588235;fill-rule:evenodd;stroke:#000000;stroke-width:8.5255661;stroke-linecap:butt;stroke-linejoin:miter;stroke-miterlimit:4;stroke-opacity:1;stroke-dasharray:none" />
      <path
         d="m -988.15712,970.34479 c -3.6284,39.92561 10.3778,68.09481 33.4218,90.23881"
         id="path33257"
         style="fill:#f9f9f6;fill-opacity:0.30588235;fill-rule:evenodd;stroke:#000000;stroke-width:8.5255661;stroke-linecap:butt;stroke-linejoin:miter;stroke-miterlimit:4;stroke-opacity:1;stroke-dasharray:none" />
      <path
         d="m -988.15712,1144.1379 c 46.3877,-23.4028 35.4732,-182.92371 83.5544,-233.95221 l -10.0265,-53.4748 c -21.586,31.3363 -40.2702,53.967 -70.1857,110.2918"
         id="path33259"
         style="fill:#f9f9f6;fill-opacity:0.30588235;fill-rule:evenodd;stroke:#000000;stroke-width:8.5255661;stroke-linecap:butt;stroke-linejoin:miter;stroke-miterlimit:4;stroke-opacity:1;stroke-dasharray:none" />
      <path
         d="m -966.14627,1114.0584 c 131.0892,12.2122 143.75045,-96.2323 178.51965,-229.22576"
         id="path33261"
         style="fill:#f9f9f6;fill-opacity:0.30588235;fill-rule:evenodd;stroke:#000000;stroke-width:8.5255661;stroke-linecap:butt;stroke-linejoin:miter;stroke-miterlimit:4;stroke-opacity:1;stroke-dasharray:none" />
      <path
         d="m -713.52532,313.89414 c -53.1446,195.22147 -47.834,376.60735 -33.9952,551.72915 l -26.7374,20.0531 c -18.1854,1.1466 -43.1473,-18.0362 -70.1856,-43.4483 40.1061,-155.8437 80.2122,-327.37269 120.3183,-491.29971"
         id="path33263"
         style="fill:#f9f9f6;fill-opacity:0.30588235;fill-rule:evenodd;stroke:#000000;stroke-width:8.5255661;stroke-linecap:butt;stroke-linejoin:miter;stroke-miterlimit:4;stroke-opacity:1;stroke-dasharray:none" />
      <path
         d="m -917.97142,860.05309 200.5305,-548.11675 0,0"
         id="path33265"
         style="fill:#f9f9f6;fill-opacity:0.30588235;fill-rule:evenodd;stroke:#000000;stroke-width:8.5255661;stroke-linecap:butt;stroke-linejoin:miter;stroke-miterlimit:4;stroke-opacity:1;stroke-dasharray:none" />
    </g>
    <path
       d="m 1399.1688,614.73051 c -15.4867,24.55522 12.669,33.91551 18.9062,9.4531 49.2288,-98.1113 -59.2981,-105.60423 -18.9062,-9.4531 z"
       id="path33339"
       style="fill:#000000;fill-opacity:1;fill-rule:evenodd;stroke:#000000;stroke-width:8.5255661;stroke-linecap:butt;stroke-linejoin:miter;stroke-miterlimit:4;stroke-opacity:1;stroke-dasharray:none" />
    <g
       transform="matrix(-1,0,0,1,693.55581,335.44241)"
       id="g33341"
       style="fill:#f9f9f6;fill-opacity:0.30588235;stroke:#000000;stroke-width:8.5255661;stroke-miterlimit:4;stroke-opacity:1;stroke-dasharray:none">
      <path
         d="m -712.42762,306.36604 c -8.2462,266.59166 45.284,440.84995 -67.8353,821.32336 -260.57428,354.2082 -447.89488,322.3722 -226.87428,-245.78051 l 294.70958,-575.54285 z"
         id="path33343"
         style="fill:#f9f9f6;fill-opacity:0.30588235;fill-rule:evenodd;stroke:#000000;stroke-width:8.5255661;stroke-linecap:butt;stroke-linejoin:miter;stroke-miterlimit:4;stroke-opacity:1;stroke-dasharray:none" />
      <path
         d="m -731.42187,306.05759 c -366.94263,546.888 -465.60303,1000.45021 15.36125,9.4531 -10.6706,-1.82613 -14.09555,-4.49197 -15.36125,-9.4531 z"
         id="path33345"
         style="fill:#f9f9f6;fill-opacity:0.30588235;fill-rule:evenodd;stroke:#000000;stroke-width:8.5255661;stroke-linecap:butt;stroke-linejoin:miter;stroke-miterlimit:4;stroke-opacity:1;stroke-dasharray:none" />
      <path
         d="m -988.15712,1140.7958 6.6844,63.5013"
         id="path33347"
         style="fill:#f9f9f6;fill-opacity:0.30588235;fill-rule:evenodd;stroke:#000000;stroke-width:8.5255661;stroke-linecap:butt;stroke-linejoin:miter;stroke-miterlimit:4;stroke-opacity:1;stroke-dasharray:none" />
      <path
         d="m -1021.5788,1043.8727 c 3.9699,40.5924 11.7633,77.3613 33.42168,100.2652"
         id="path33349"
         style="fill:#f9f9f6;fill-opacity:0.30588235;fill-rule:evenodd;stroke:#000000;stroke-width:8.5255661;stroke-linecap:butt;stroke-linejoin:miter;stroke-miterlimit:4;stroke-opacity:1;stroke-dasharray:none" />
      <path
         d="m -1001.5258,868.96549 c 23.83888,14.0391 18.60158,57.1544 16.71088,96.9231 -13.3687,23.2436 -26.73738,45.08561 -40.10608,76.87001 -27.1242,115.4121 -51.9263,186.7047 -70.1857,133.687"
         id="path33351"
         style="fill:#f9f9f6;fill-opacity:0.30588235;fill-rule:evenodd;stroke:#000000;stroke-width:8.5255661;stroke-linecap:butt;stroke-linejoin:miter;stroke-miterlimit:4;stroke-opacity:1;stroke-dasharray:none" />
      <path
         d="m -988.15712,970.34479 c -3.6284,39.92561 10.3778,68.09481 33.4218,90.23881"
         id="path33353"
         style="fill:#f9f9f6;fill-opacity:0.30588235;fill-rule:evenodd;stroke:#000000;stroke-width:8.5255661;stroke-linecap:butt;stroke-linejoin:miter;stroke-miterlimit:4;stroke-opacity:1;stroke-dasharray:none" />
      <path
         d="m -988.15712,1144.1379 c 46.3877,-23.4028 35.4732,-182.92371 83.5544,-233.95221 l -10.0265,-53.4748 c -21.586,31.3363 -40.2702,53.967 -70.1857,110.2918"
         id="path33355"
         style="fill:#f9f9f6;fill-opacity:0.30588235;fill-rule:evenodd;stroke:#000000;stroke-width:8.5255661;stroke-linecap:butt;stroke-linejoin:miter;stroke-miterlimit:4;stroke-opacity:1;stroke-dasharray:none" />
      <path
         d="m -966.14627,1114.0584 c 131.0892,12.2122 143.75045,-96.2323 178.51965,-229.22576"
         id="path33357"
         style="fill:#f9f9f6;fill-opacity:0.30588235;fill-rule:evenodd;stroke:#000000;stroke-width:8.5255661;stroke-linecap:butt;stroke-linejoin:miter;stroke-miterlimit:4;stroke-opacity:1;stroke-dasharray:none" />
      <path
         d="m -713.52532,313.89414 c -53.1446,195.22147 -47.834,376.60735 -33.9952,551.72915 l -26.7374,20.0531 c -18.1854,1.1466 -43.1473,-18.0362 -70.1856,-43.4483 40.1061,-155.8437 80.2122,-327.37269 120.3183,-491.29971"
         id="path33359"
         style="fill:#f9f9f6;fill-opacity:0.30588235;fill-rule:evenodd;stroke:#000000;stroke-width:8.5255661;stroke-linecap:butt;stroke-linejoin:miter;stroke-miterlimit:4;stroke-opacity:1;stroke-dasharray:none" />
      <path
         d="m -917.97142,860.05309 200.5305,-548.11675 0,0"
         id="path33361"
         style="fill:#f9f9f6;fill-opacity:0.30588235;fill-rule:evenodd;stroke:#000000;stroke-width:8.5255661;stroke-linecap:butt;stroke-linejoin:miter;stroke-miterlimit:4;stroke-opacity:1;stroke-dasharray:none" />
    </g>
    <g
       transform="matrix(2.2270249,0,0,2.635554,47.281857,-524.02115)"
       id="g33363"
       style="fill:#f9f9f6;fill-opacity:0.30588235;stroke:#000000;stroke-width:3.5190444;stroke-miterlimit:4;stroke-opacity:1;stroke-dasharray:none">
      <path
         d="m 607.10168,442.23004 c 139.40105,43.43656 204.50821,-6.09424 245.46707,48.48732 2.66583,60.29011 -79.16736,46.64357 -136.3706,54.54824 -88.34188,-28.16171 -82.14218,-35.31417 -103.03555,-48.48732 l -6.06092,-54.54824 z"
         id="path33365"
         style="fill:#f9f9f6;fill-opacity:0.30588235;fill-rule:evenodd;stroke:#000000;stroke-width:3.5190444;stroke-linecap:butt;stroke-linejoin:miter;stroke-miterlimit:4;stroke-opacity:1;stroke-dasharray:none" />
      <path
         d="m 607.10168,442.23005 84.85281,45.45686 c 10.10153,-5.81188 20.20305,-1.8046 30.30458,0 l 39.39595,3.03046 3.03046,-6.06092 c 34.0788,-1.75392 54.62904,10.02072 72.73098,24.24366 l 0,0"
         id="path33367"
         style="fill:#f9f9f6;fill-opacity:0.30588235;fill-rule:evenodd;stroke:#000000;stroke-width:3.5190444;stroke-linecap:butt;stroke-linejoin:miter;stroke-miterlimit:4;stroke-opacity:1;stroke-dasharray:none" />
      <path
         d="m 740.44182,462.20617 0,7.29799 25.45792,15.15229"
         id="path33369"
         style="fill:#f9f9f6;fill-opacity:0.30588235;fill-rule:evenodd;stroke:#000000;stroke-width:3.5190444;stroke-linecap:butt;stroke-linejoin:miter;stroke-miterlimit:4;stroke-opacity:1;stroke-dasharray:none" />
      <path
         d="m 761.65502,491.72752 15.15229,9.09137"
         id="path33371"
         style="fill:#f9f9f6;fill-opacity:0.30588235;fill-rule:evenodd;stroke:#000000;stroke-width:3.5190444;stroke-linecap:butt;stroke-linejoin:miter;stroke-miterlimit:4;stroke-opacity:1;stroke-dasharray:none" />
      <path
         d="m 721.35097,487.45998 52.42588,43.66349"
         id="path33373"
         style="fill:#f9f9f6;fill-opacity:0.30588235;fill-rule:evenodd;stroke:#000000;stroke-width:3.5190444;stroke-linecap:butt;stroke-linejoin:miter;stroke-miterlimit:4;stroke-opacity:1;stroke-dasharray:none" />
      <path
         d="m 691.95449,487.45998 -6.96901,11.56553"
         id="path33375"
         style="fill:#f9f9f6;fill-opacity:0.30588235;fill-rule:evenodd;stroke:#000000;stroke-width:3.5190444;stroke-linecap:butt;stroke-linejoin:miter;stroke-miterlimit:4;stroke-opacity:1;stroke-dasharray:none" />
      <path
         d="m 607.10168,442.23005 103.03556,75.76144"
         id="path33377"
         style="fill:#f9f9f6;fill-opacity:0.30588235;fill-rule:evenodd;stroke:#000000;stroke-width:3.5190444;stroke-linecap:butt;stroke-linejoin:miter;stroke-miterlimit:4;stroke-opacity:1;stroke-dasharray:none" />
    </g>
    <g
       transform="matrix(-1,0,0,1,2344.309,-1.172922)"
       id="g4970"
       style="stroke:#000000;stroke-width:8.5255661;stroke-miterlimit:4;stroke-opacity:1;stroke-dasharray:none">
      <path
         d="m 1568.5942,219.46949 c -3.3422,0 73.5278,-103.60742 73.5278,-103.60742 l -20.053,-10.02653 c 0,0 -50.1327,113.63395 -53.4748,113.63395 z"
         id="path4972"
         style="fill:#fdef3c;fill-opacity:1;fill-rule:evenodd;stroke:#000000;stroke-width:8.5255661;stroke-linecap:butt;stroke-linejoin:miter;stroke-miterlimit:4;stroke-opacity:1;stroke-dasharray:none" />
      <path
         d="m 1575.2785,209.44297 30.0796,-16.71088"
         id="path4974"
         style="fill:none;stroke:#000000;stroke-width:8.5255661;stroke-linecap:butt;stroke-linejoin:miter;stroke-miterlimit:4;stroke-opacity:1;stroke-dasharray:none" />
      <g
         id="g4976"
         style="fill:none;stroke:#000000;stroke-width:8.5255661;stroke-miterlimit:4;stroke-opacity:1;stroke-dasharray:none">
        <path
           d="m 1591.9894,186.04774 26.7374,-10.02652"
           id="path4978"
           style="fill:none;stroke:#000000;stroke-width:8.5255661;stroke-linecap:butt;stroke-linejoin:miter;stroke-miterlimit:4;stroke-opacity:1;stroke-dasharray:none" />
        <path
           d="m 1608.7003,162.65252 30.0795,-13.3687"
           id="path4980"
           style="fill:none;stroke:#000000;stroke-width:8.5255661;stroke-linecap:butt;stroke-linejoin:miter;stroke-miterlimit:4;stroke-opacity:1;stroke-dasharray:none" />
        <path
           d="m 1642.122,115.86207 c 15.6278,5.53929 25.5392,16.79503 23.3952,40.1061"
           id="path4982"
           style="fill:none;stroke:#000000;stroke-width:8.5255661;stroke-linecap:butt;stroke-linejoin:miter;stroke-miterlimit:4;stroke-opacity:1;stroke-dasharray:none" />
      </g>
      <path
         d="m 1621.4998,105.82352 c -29.809,-19.557009 -28.8603,-15.387766 -43.4242,0 l 1e-4,0"
         id="path4984"
         style="fill:none;stroke:#000000;stroke-width:8.5255661;stroke-linecap:butt;stroke-linejoin:miter;stroke-miterlimit:4;stroke-opacity:1;stroke-dasharray:none" />
      <path
         d="m 1597.5597,158.75332 -10.0265,-26.7374"
         id="path4986"
         style="fill:none;stroke:#000000;stroke-width:8.5255661;stroke-linecap:butt;stroke-linejoin:miter;stroke-miterlimit:4;stroke-opacity:1;stroke-dasharray:none" />
      <path
         d="m 1585.8621,182.14855 -10.0266,-23.39523"
         id="path4988"
         style="fill:none;stroke:#000000;stroke-width:8.5255661;stroke-linecap:butt;stroke-linejoin:miter;stroke-miterlimit:4;stroke-opacity:1;stroke-dasharray:none" />
      <path
         d="m 1574.1644,208.88595 -8.3554,-28.40849"
         id="path4990"
         style="fill:none;stroke:#000000;stroke-width:8.5255661;stroke-linecap:butt;stroke-linejoin:miter;stroke-miterlimit:4;stroke-opacity:1;stroke-dasharray:none" />
    </g>
  </g>
</svg>
