<?xml version="1.0" encoding="UTF-8" standalone="no"?>
<!-- Created with Inkscape (http://www.inkscape.org/) -->

<svg
   xmlns:dc="http://purl.org/dc/elements/1.1/"
   xmlns:cc="http://creativecommons.org/ns#"
   xmlns:rdf="http://www.w3.org/1999/02/22-rdf-syntax-ns#"
   xmlns:svg="http://www.w3.org/2000/svg"
   xmlns="http://www.w3.org/2000/svg"
   xmlns:xlink="http://www.w3.org/1999/xlink"
   xmlns:sodipodi="http://sodipodi.sourceforge.net/DTD/sodipodi-0.dtd"
   xmlns:inkscape="http://www.inkscape.org/namespaces/inkscape"
   version="1.1"
   width="640"
   height="480"
   id="svg8799"
   inkscape:version="0.47 r22583"
   sodipodi:docname="orange_slice.svg">
  <metadata
     id="metadata418">
    <rdf:RDF>
      <cc:Work
         rdf:about="">
        <dc:format>image/svg+xml</dc:format>
        <dc:type
           rdf:resource="http://purl.org/dc/dcmitype/StillImage" />
      </cc:Work>
    </rdf:RDF>
  </metadata>
  <sodipodi:namedview
     pagecolor="#ffffff"
     bordercolor="#666666"
     borderopacity="1"
     objecttolerance="10"
     gridtolerance="10"
     guidetolerance="10"
     inkscape:pageopacity="0"
     inkscape:pageshadow="2"
     inkscape:window-width="640"
     inkscape:window-height="483"
     id="namedview416"
     showgrid="false"
     inkscape:zoom="0.49166667"
     inkscape:cx="320"
     inkscape:cy="240"
     inkscape:window-x="482"
     inkscape:window-y="224"
     inkscape:window-maximized="0"
     inkscape:current-layer="svg8799" />
  <title
     id="title12133">orange slice</title>
  <defs
     id="defs8801">
    <filter
       x="-0.17038029"
       y="-0.80669856"
       width="1.3407606"
       height="2.6133971"
       color-interpolation-filters="sRGB"
       id="filter12350">
      <feGaussianBlur
         id="feGaussianBlur12352"
         stdDeviation="23.528708" />
    </filter>
    <linearGradient
       x1="-2.7321475"
       y1="426.65588"
       x2="0.87464708"
       y2="425.78058"
       id="linearGradient10957"
       xlink:href="#linearGradient8089-1"
       gradientUnits="userSpaceOnUse" />
    <linearGradient
       id="linearGradient8089-1">
      <stop
         id="stop8091-7"
         style="stop-color:#ffffff;stop-opacity:1"
         offset="0" />
      <stop
         id="stop8093-2"
         style="stop-color:#ffffff;stop-opacity:0"
         offset="1" />
    </linearGradient>
    <filter
       x="-0.31713599"
       y="-0.19079967"
       width="1.634272"
       height="1.3815993"
       color-interpolation-filters="sRGB"
       id="filter8289-3">
      <feGaussianBlur
         id="feGaussianBlur8291-7"
         stdDeviation="1.0545477" />
    </filter>
    <linearGradient
       x1="-0.98871672"
       y1="425.58005"
       x2="-6.9915638"
       y2="426.0488"
       id="linearGradient10959"
       xlink:href="#linearGradient8089-1"
       gradientUnits="userSpaceOnUse" />
    <filter
       x="-0.10903892"
       y="-0.068793602"
       width="1.2180778"
       height="1.1375872"
       color-interpolation-filters="sRGB"
       id="filter8101-85">
      <feGaussianBlur
         id="feGaussianBlur8103-8"
         stdDeviation="0.37067021" />
    </filter>
    <filter
       x="-0.18629032"
       y="-62.28532"
       width="1.3725806"
       height="125.57064"
       color-interpolation-filters="sRGB"
       id="filter8059-5">
      <feGaussianBlur
         id="feGaussianBlur8061-8"
         stdDeviation="1.9645829" />
    </filter>
    <filter
       x="-0.987876"
       y="-0.90223235"
       width="2.9757521"
       height="2.8044648"
       color-interpolation-filters="sRGB"
       id="filter8293-7">
      <feGaussianBlur
         id="feGaussianBlur8295-3"
         stdDeviation="3.663958" />
    </filter>
    <filter
       x="-0.90223235"
       y="-0.987876"
       width="2.8044648"
       height="2.9757521"
       color-interpolation-filters="sRGB"
       id="filter8297-3">
      <feGaussianBlur
         id="feGaussianBlur8299-1"
         stdDeviation="3.663958" />
    </filter>
    <filter
       x="-2.1950164"
       y="-2.4033835"
       width="5.3900328"
       height="5.806767"
       color-interpolation-filters="sRGB"
       id="filter8301-0">
      <feGaussianBlur
         id="feGaussianBlur8303-8"
         stdDeviation="3.663958" />
    </filter>
    <linearGradient
       x1="-218.76601"
       y1="1002.8835"
       x2="-224.76601"
       y2="949.88348"
       id="linearGradient10961"
       xlink:href="#linearGradient8041-1"
       gradientUnits="userSpaceOnUse" />
    <linearGradient
       id="linearGradient8041-1">
      <stop
         id="stop8043-0"
         style="stop-color:#ffff00;stop-opacity:1"
         offset="0" />
      <stop
         id="stop8045-9"
         style="stop-color:#f44800;stop-opacity:1"
         offset="1" />
    </linearGradient>
    <filter
       color-interpolation-filters="sRGB"
       id="filter8006-2">
      <feGaussianBlur
         id="feGaussianBlur8008-4"
         stdDeviation="1.336398" />
    </filter>
    <filter
       x="-0.1159232"
       y="-0.17481066"
       width="1.2318465"
       height="1.3496213"
       color-interpolation-filters="sRGB"
       id="filter8305-5">
      <feGaussianBlur
         id="feGaussianBlur8307-7"
         stdDeviation="3.663958" />
    </filter>
    <filter
       x="-0.066911653"
       y="-1.0264364"
       width="1.1338233"
       height="3.0528729"
       color-interpolation-filters="sRGB"
       id="filter8063-3">
      <feGaussianBlur
         id="feGaussianBlur8065-3"
         stdDeviation="7.8756664" />
    </filter>
    <filter
       x="-0.066911653"
       y="-1.0264364"
       width="1.1338233"
       height="3.0528729"
       color-interpolation-filters="sRGB"
       id="filter8067-4">
      <feGaussianBlur
         id="feGaussianBlur8069-2"
         stdDeviation="7.8756664" />
    </filter>
    <filter
       x="-0.066911653"
       y="-1.0264364"
       width="1.1338233"
       height="3.0528729"
       color-interpolation-filters="sRGB"
       id="filter8071-2">
      <feGaussianBlur
         id="feGaussianBlur8073-0"
         stdDeviation="7.8756664" />
    </filter>
    <filter
       x="-0.047630291"
       y="-0.35795057"
       width="1.0952606"
       height="1.7159011"
       color-interpolation-filters="sRGB"
       id="filter8385-1">
      <feGaussianBlur
         id="feGaussianBlur8387-2"
         stdDeviation="4.5974543" />
    </filter>
    <filter
       x="-0.13969496"
       y="-0.48854601"
       width="1.2793899"
       height="1.977092"
       color-interpolation-filters="sRGB"
       id="filter8117-7">
      <feGaussianBlur
         id="feGaussianBlur8119-7"
         stdDeviation="8.493464" />
    </filter>
    <filter
       x="-0.093604311"
       y="-0.32735622"
       width="1.1872087"
       height="1.6547124"
       color-interpolation-filters="sRGB"
       id="filter8389-0">
      <feGaussianBlur
         id="feGaussianBlur8391-2"
         stdDeviation="5.6911493" />
    </filter>
    <filter
       x="-0.093604311"
       y="-0.32735622"
       width="1.1872087"
       height="1.6547124"
       color-interpolation-filters="sRGB"
       id="filter8393-4">
      <feGaussianBlur
         id="feGaussianBlur8395-1"
         stdDeviation="5.6911493" />
    </filter>
    <filter
       x="-0.10486203"
       y="-0.18902661"
       width="1.2097241"
       height="1.3780532"
       color-interpolation-filters="sRGB"
       id="filter7966-0">
      <feGaussianBlur
         id="feGaussianBlur7968-3"
         stdDeviation="3.6546638" />
    </filter>
    <filter
       x="-0.10486203"
       y="-0.18902661"
       width="1.2097241"
       height="1.3780532"
       color-interpolation-filters="sRGB"
       id="filter7958-7">
      <feGaussianBlur
         id="feGaussianBlur7960-3"
         stdDeviation="3.6546638" />
    </filter>
    <filter
       x="-0.1847074"
       y="-0.33295766"
       width="1.3694148"
       height="1.6659153"
       color-interpolation-filters="sRGB"
       id="filter8417-9">
      <feGaussianBlur
         id="feGaussianBlur8419-5"
         stdDeviation="6.4374446" />
    </filter>
    <filter
       x="-0.1847074"
       y="-0.33295766"
       width="1.3694148"
       height="1.6659153"
       color-interpolation-filters="sRGB"
       id="filter8421-9">
      <feGaussianBlur
         id="feGaussianBlur8423-7"
         stdDeviation="6.4374446" />
    </filter>
    <filter
       x="-0.1435243"
       y="-1.4220864"
       width="1.2870486"
       height="3.8441727"
       color-interpolation-filters="sRGB"
       id="filter8309-2">
      <feGaussianBlur
         id="feGaussianBlur8311-0"
         stdDeviation="14.688162" />
    </filter>
    <filter
       x="-0.1435243"
       y="-1.4220864"
       width="1.2870486"
       height="3.8441727"
       color-interpolation-filters="sRGB"
       id="filter8313-2">
      <feGaussianBlur
         id="feGaussianBlur8315-8"
         stdDeviation="14.688162" />
    </filter>
    <filter
       x="-0.1435243"
       y="-1.4220864"
       width="1.2870486"
       height="3.8441727"
       color-interpolation-filters="sRGB"
       id="filter8317-6">
      <feGaussianBlur
         id="feGaussianBlur8319-7"
         stdDeviation="14.688162" />
    </filter>
    <filter
       x="-0.10486203"
       y="-0.18902661"
       width="1.2097241"
       height="1.3780532"
       color-interpolation-filters="sRGB"
       id="filter7962-0">
      <feGaussianBlur
         id="feGaussianBlur7964-81"
         stdDeviation="3.6546638" />
    </filter>
    <filter
       x="-0.33539736"
       y="-0.048135046"
       width="1.6707947"
       height="1.0962701"
       color-interpolation-filters="sRGB"
       id="filter7922-8">
      <feGaussianBlur
         id="feGaussianBlur7924-3"
         stdDeviation="0.77460522" />
    </filter>
    <filter
       x="-0.22359826"
       y="-0.034764174"
       width="1.4471965"
       height="1.0695283"
       color-interpolation-filters="sRGB"
       id="filter7926-0">
      <feGaussianBlur
         id="feGaussianBlur7928-36"
         stdDeviation="0.77460522" />
    </filter>
    <filter
       x="-0.26831791"
       y="-0.041717026"
       width="1.5366358"
       height="1.0834341"
       color-interpolation-filters="sRGB"
       id="filter7930-20">
      <feGaussianBlur
         id="feGaussianBlur7932-2"
         stdDeviation="0.77460522" />
    </filter>
    <filter
       x="-1.0592974"
       y="-0.31205243"
       width="3.1185949"
       height="1.6241049"
       color-interpolation-filters="sRGB"
       id="filter8321-8">
      <feGaussianBlur
         id="feGaussianBlur8323-4"
         stdDeviation="6.3234935" />
    </filter>
    <filter
       x="-0.26767677"
       y="-0.33180895"
       width="1.5353535"
       height="1.6636178"
       color-interpolation-filters="sRGB"
       id="filter8425-1">
      <feGaussianBlur
         id="feGaussianBlur8427-8"
         stdDeviation="6.5613457" />
    </filter>
    <filter
       x="-0.32568517"
       y="-0.48852775"
       width="1.6513703"
       height="1.9770555"
       color-interpolation-filters="sRGB"
       id="filter8325-3">
      <feGaussianBlur
         id="feGaussianBlur8327-7"
         stdDeviation="3.663958" />
    </filter>
    <radialGradient
       cx="-206"
       cy="197.23227"
       r="8.8133974"
       fx="-206"
       fy="197.23227"
       id="radialGradient10963"
       xlink:href="#linearGradient7724-5"
       gradientUnits="userSpaceOnUse"
       gradientTransform="matrix(0.22692217,-3.9597385,5.375918,0.30629995,-1219.5585,-682.23408)" />
    <linearGradient
       id="linearGradient7724-5">
      <stop
         id="stop7726-8"
         style="stop-color:#fdca01;stop-opacity:1"
         offset="0" />
      <stop
         id="stop7728-17"
         style="stop-color:#eeeeee;stop-opacity:1"
         offset="1" />
    </linearGradient>
    <filter
       x="-0.38798547"
       y="-0.048499778"
       width="1.7759711"
       height="1.0969996"
       color-interpolation-filters="sRGB"
       id="filter7732-0">
      <feGaussianBlur
         id="feGaussianBlur7734-4"
         stdDeviation="1.7782668" />
    </filter>
    <filter
       x="-0.15251578"
       y="-0.23248477"
       width="1.3050317"
       height="1.4649696"
       color-interpolation-filters="sRGB"
       id="filter8397-8">
      <feGaussianBlur
         id="feGaussianBlur8399-8"
         stdDeviation="4.7242542" />
    </filter>
    <filter
       x="-0.13333452"
       y="-0.076980732"
       width="1.266669"
       height="1.1539615"
       color-interpolation-filters="sRGB"
       id="filter7408-1">
      <feGaussianBlur
         id="feGaussianBlur7410-3"
         stdDeviation="1.9720431" />
    </filter>
    <filter
       x="-0.17518307"
       y="-0.30367541"
       width="1.3503662"
       height="1.6073508"
       color-interpolation-filters="sRGB"
       id="filter8075-67">
      <feGaussianBlur
         id="feGaussianBlur8077-8"
         stdDeviation="4.5815069" />
    </filter>
    <filter
       x="-0.28007913"
       y="-2.6785686"
       width="1.5601583"
       height="6.3571372"
       color-interpolation-filters="sRGB"
       id="filter8329-9">
      <feGaussianBlur
         id="feGaussianBlur8331-5"
         stdDeviation="8.5445359" />
    </filter>
    <filter
       x="-0.32016402"
       y="-0.60186112"
       width="1.640328"
       height="2.2037222"
       color-interpolation-filters="sRGB"
       id="filter8333-5">
      <feGaussianBlur
         id="feGaussianBlur8335-5"
         stdDeviation="8.5445358" />
    </filter>
    <filter
       x="-1.0737914"
       y="-0.17208716"
       width="3.1475828"
       height="1.3441743"
       color-interpolation-filters="sRGB"
       id="filter8337-6">
      <feGaussianBlur
         id="feGaussianBlur8339-6"
         stdDeviation="6.0819604" />
    </filter>
    <filter
       x="-0.57827473"
       y="-0.1932079"
       width="2.1565495"
       height="1.3864158"
       color-interpolation-filters="sRGB"
       id="filter8341-3">
      <feGaussianBlur
         id="feGaussianBlur8343-00"
         stdDeviation="6.0819605" />
    </filter>
    <filter
       x="-0.33685681"
       y="-0.33769727"
       width="1.6737136"
       height="1.6753945"
       color-interpolation-filters="sRGB"
       id="filter8345-8">
      <feGaussianBlur
         id="feGaussianBlur8347-8"
         stdDeviation="6.0819605" />
    </filter>
    <filter
       color-interpolation-filters="sRGB"
       id="filter7748-2">
      <feGaussianBlur
         id="feGaussianBlur7750-3"
         stdDeviation="1.1350237" />
    </filter>
    <linearGradient
       x1="290.33154"
       y1="282.9809"
       x2="196.92165"
       y2="250.60834"
       id="linearGradient10965"
       xlink:href="#linearGradient7343-0"
       gradientUnits="userSpaceOnUse"
       gradientTransform="matrix(-0.51584462,1.9295842,-1.624823,-0.43637111,846.2716,-68.674496)" />
    <linearGradient
       id="linearGradient7343-0">
      <stop
         id="stop7345-6"
         style="stop-color:#faa10f;stop-opacity:1"
         offset="0" />
      <stop
         id="stop7347-5"
         style="stop-color:#fcb927;stop-opacity:1"
         offset="1" />
    </linearGradient>
    <linearGradient
       x1="286.70337"
       y1="264.08154"
       x2="205.54802"
       y2="260.4371"
       id="linearGradient10967"
       xlink:href="#linearGradient7369-0"
       gradientUnits="userSpaceOnUse"
       gradientTransform="matrix(0.44908232,-1.6798511,1.6759981,0.4501148,-227.1379,425.51808)" />
    <linearGradient
       id="linearGradient7369-0">
      <stop
         id="stop7371-9"
         style="stop-color:#faa10f;stop-opacity:1"
         offset="0" />
      <stop
         id="stop7373-7"
         style="stop-color:#fcbd25;stop-opacity:1"
         offset="1" />
    </linearGradient>
    <linearGradient
       x1="227.17731"
       y1="274.76596"
       x2="286.55319"
       y2="279.92908"
       id="linearGradient10969"
       xlink:href="#linearGradient7297-2"
       gradientUnits="userSpaceOnUse"
       gradientTransform="matrix(0.994772,-0.57433187,0.48473304,0.83958225,-542.45499,855.28456)" />
    <linearGradient
       id="linearGradient7297-2">
      <stop
         id="stop7299-2"
         style="stop-color:#faa10f;stop-opacity:1"
         offset="0" />
      <stop
         id="stop7301-8"
         style="stop-color:#fa7a0f;stop-opacity:1"
         offset="1" />
    </linearGradient>
    <linearGradient
       x1="293.15421"
       y1="292.96811"
       x2="209.3495"
       y2="272.90228"
       id="linearGradient10971"
       xlink:href="#linearGradient7349-48"
       gradientUnits="userSpaceOnUse"
       gradientTransform="matrix(-1.4032194,0.86997501,-0.81014899,-1.5068411,792.73251,455.71059)" />
    <linearGradient
       id="linearGradient7349-48">
      <stop
         id="stop7351-2"
         style="stop-color:#faa10f;stop-opacity:1"
         offset="0" />
      <stop
         id="stop7353-7"
         style="stop-color:#fabe28;stop-opacity:1"
         offset="1" />
    </linearGradient>
    <linearGradient
       x1="253.40836"
       y1="290.74161"
       x2="215.26793"
       y2="260.61469"
       id="linearGradient10973"
       xlink:href="#linearGradient7363-2"
       gradientUnits="userSpaceOnUse"
       gradientTransform="matrix(-1.4093137,-1.4125536,1.1894531,-1.1921877,286.09423,839.17106)" />
    <linearGradient
       id="linearGradient7363-2">
      <stop
         id="stop7365-5"
         style="stop-color:#faa10f;stop-opacity:1"
         offset="0" />
      <stop
         id="stop7367-8"
         style="stop-color:#fcc028;stop-opacity:1"
         offset="1" />
    </linearGradient>
    <linearGradient
       x1="263.0817"
       y1="319.72733"
       x2="234.78738"
       y2="262.22598"
       id="linearGradient10975"
       xlink:href="#linearGradient7297-2"
       gradientUnits="userSpaceOnUse"
       gradientTransform="matrix(1.2269153,1.229737,-1.2269154,1.229737,395.79742,-339.66249)" />
    <linearGradient
       x1="227.17731"
       y1="274.76596"
       x2="286.55319"
       y2="279.92908"
       id="linearGradient10977"
       xlink:href="#linearGradient7297-2"
       gradientUnits="userSpaceOnUse"
       gradientTransform="matrix(1.7351206,0,0,1.7391099,-29.8077,-237.74239)" />
    <radialGradient
       cx="-303"
       cy="917.46533"
       r="49.294479"
       fx="-303"
       fy="917.46533"
       id="radialGradient10979"
       xlink:href="#linearGradient7994-4"
       gradientUnits="userSpaceOnUse"
       gradientTransform="matrix(2.5695334,1.0584013,-0.54877053,1.3384089,1415.9956,-753.24462)" />
    <linearGradient
       id="linearGradient7994-4">
      <stop
         id="stop7996-73"
         style="stop-color:#fa8a07;stop-opacity:1"
         offset="0" />
      <stop
         id="stop7998-95"
         style="stop-color:#fca913;stop-opacity:1"
         offset="1" />
    </linearGradient>
    <filter
       color-interpolation-filters="sRGB"
       id="filter8037-1">
      <feGaussianBlur
         id="feGaussianBlur8039-9"
         stdDeviation="2.8386866" />
    </filter>
    <linearGradient
       x1="-0.98871672"
       y1="425.58005"
       x2="-6.9915638"
       y2="426.0488"
       id="linearGradient12115"
       xlink:href="#linearGradient8089-1"
       gradientUnits="userSpaceOnUse" />
    <linearGradient
       x1="-0.98871672"
       y1="425.58005"
       x2="-6.9915638"
       y2="426.0488"
       id="linearGradient12119"
       xlink:href="#linearGradient8089-1"
       gradientUnits="userSpaceOnUse" />
    <linearGradient
       x1="-0.98871672"
       y1="425.58005"
       x2="-6.9915638"
       y2="426.0488"
       id="linearGradient12123"
       xlink:href="#linearGradient8089-1"
       gradientUnits="userSpaceOnUse" />
    <linearGradient
       x1="-0.98871672"
       y1="425.58005"
       x2="-6.9915638"
       y2="426.0488"
       id="linearGradient12127"
       xlink:href="#linearGradient8089-1"
       gradientUnits="userSpaceOnUse" />
    <linearGradient
       x1="-2.7321475"
       y1="426.65588"
       x2="0.87464708"
       y2="425.78058"
       id="linearGradient12131"
       xlink:href="#linearGradient8089-1"
       gradientUnits="userSpaceOnUse" />
  </defs>
  <g
     id="layer1">
    <path
       d="m 524.3509,220.52088 c 0,103.60457 -88.11145,183.64331 -197.55764,197.01808 -9.80419,1.19789 -16.10951,7.37946 -26.27289,7.37946 -77.8368,0 -133.44508,-34.42778 -173.54899,-89.48137 -23.58796,-32.38039 -50.281833,-73.10957 -50.281833,-114.91617 0,-67.20193 35.602973,-125.89911 90.446923,-162.55835 37.28276,-24.920954 83.45749,-38.659784 133.3839,-41.83858 69.23845,-4.408528 122.42957,28.495706 160.60419,65.103163 39.90174,38.263547 63.22634,81.602537 63.22634,139.293767 z"
       id="path8035"
       style="fill:#fb8b00;fill-opacity:1;stroke:#fcc627;stroke-width:0;stroke-linecap:round;stroke-miterlimit:4;stroke-opacity:1;stroke-dasharray:none;stroke-dashoffset:0" />
    <path
       d="m 527.76842,220.52378 c 0,105.1866 -89.45679,186.44724 -200.57406,200.02613 -9.95397,1.21738 -16.35554,7.492 -26.67415,7.492 -79.02517,0 -135.48251,-34.95279 -176.19889,-90.84713 -23.94814,-32.87501 -51.049111,-74.22618 -51.049111,-116.671 0,-68.2277 36.146271,-127.821281 91.827721,-165.040174 37.85201,-25.301225 84.73178,-39.250042 135.42028,-42.477425 70.2959,-4.4756492 124.29914,28.930758 163.05647,66.09719 40.51124,38.847879 64.19174,82.848639 64.19174,141.420409 z"
       id="path8029"
       style="fill:#fb8b00;fill-opacity:1;stroke:#fcc627;stroke-width:0;stroke-linecap:round;stroke-miterlimit:4;stroke-opacity:1;stroke-dasharray:none;stroke-dashoffset:0" />
    <path
       d="m -86,260 c 0,58.79792 -47.63196,104.22161 -106.79722,111.81226 C -198.09724,372.49223 -201.50586,376 -207,376 c -42.0776,0 -72.13877,-19.53817 -93.81844,-50.78225 C -313.5698,306.84088 -328,283.72617 -328,260 c 0,-38.13855 19.24642,-71.45069 48.89439,-92.2556 C -258.95101,153.60129 -233.9896,145.80404 -207,144 c 37.42947,-2.50187 66.18397,16.17196 86.82072,36.94758 C -98.608957,202.66306 -86,227.25896 -86,260 z"
       transform="matrix(1.8019263,0,0,1.7164035,673.51907,-225.74936)"
       id="path8018"
       style="fill:#fffcd9;fill-opacity:1;stroke:#fcf827;stroke-width:0;stroke-linecap:round;stroke-miterlimit:4;stroke-opacity:1;stroke-dasharray:none;stroke-dashoffset:0;filter:url(#filter8037-1)" />
    <path
       d="m 127.42295,197.85365 c 69.93625,39.75796 96.18447,35.26811 146.27821,34.22051 9.1128,-0.19021 7.71768,-15.23387 7.71768,-15.23387 C 261.522,192.32539 205.63825,114.86688 179.44982,91.490775 160.17408,74.284757 95.35352,179.6226 127.42295,197.85365 z"
       id="path7305"
       style="fill:url(#radialGradient10979);fill-opacity:1;stroke:#fcc627;stroke-width:1.8331213;stroke-linecap:butt;stroke-linejoin:miter;stroke-miterlimit:4;stroke-opacity:1;stroke-dasharray:none" />
    <path
       d="m 487.5537,231.12654 c -10.19311,-13.49203 -108.68637,-14.5496 -152.29703,-13.46888 -7.93337,0.19765 -13.37049,11.37522 -6.71881,15.71367 57.48491,37.4939 73.8109,55.85918 114.22273,103.26125 27.01154,-16.30229 71.44424,-70.22953 44.79311,-105.50604 z"
       id="path6787"
       style="fill:url(#linearGradient10977);fill-opacity:1;stroke:#fcc627;stroke-width:1.73711419;stroke-linecap:butt;stroke-linejoin:miter;stroke-miterlimit:4;stroke-opacity:1;stroke-dasharray:none" />
    <path
       d="m 429.96635,337.91378 c 7.3358,-15.24322 -70.59877,-116.17898 -110.74508,-99.07148 -66.44589,28.31475 -8.7081,-3.83909 -9.11786,4.10433 -3.22363,62.49205 -25.08369,86.69097 -12.46351,139.5716 34.85678,16.14731 120.4087,-19.84063 132.32645,-44.60445 z"
       id="path7309"
       style="fill:url(#linearGradient10975);fill-opacity:1;stroke:#fcc627;stroke-width:1.73711419;stroke-linecap:butt;stroke-linejoin:miter;stroke-miterlimit:4;stroke-opacity:1;stroke-dasharray:none" />
    <path
       d="m 187.60981,93.187721 c 11.35364,13.390519 58.10086,69.498439 91.35246,114.466849 5.42734,7.33986 16.20458,-5.30203 16.20458,-5.30203 3.22552,-31.43601 20.64652,-93.70103 2.55376,-150.838169 -33.08945,-10.814658 -127.99607,20.579686 -110.1108,41.67335 z"
       id="path7311"
       style="fill:url(#linearGradient10973);fill-opacity:1;stroke:#fcc627;stroke-width:1.8331213;stroke-linecap:butt;stroke-linejoin:miter;stroke-miterlimit:4;stroke-opacity:1;stroke-dasharray:none" />
    <path
       d="m 166.65331,323.74009 c 14.52868,6.57918 83.93648,-56.76567 118.70181,-79.56807 6.32433,-4.14806 5.16316,-14.53003 -1.88644,-16.98391 -55.45945,-19.30466 -166.16541,-33.88947 -164.43646,-23.37728 -6.97718,32.04252 9.63428,102.72672 47.62109,119.92926 z"
       id="path7317"
       style="fill:url(#linearGradient10971);fill-opacity:1;stroke:#fcc627;stroke-width:4.00786686;stroke-linecap:butt;stroke-linejoin:miter;stroke-miterlimit:4;stroke-opacity:1;stroke-dasharray:none" />
    <path
       d="m -122.80668,891.59521 c -9.60451,-3.13949 -43.12993,38.74602 -67.83136,53.70302 -4.49361,2.72095 0.52771,9.81002 0.52771,9.81002 16.9789,6.47402 55.06812,3.85823 89.50181,2.28947 10.942287,-16.81111 2.913897,-57.59391 -22.19816,-65.80251 z"
       transform="matrix(1.7351202,0,0,1.7391096,659.69042,-1443.1302)"
       id="path7319"
       style="fill:url(#linearGradient10969);fill-opacity:1;stroke:#fcc627;stroke-width:1.05526805;stroke-linecap:butt;stroke-linejoin:miter;stroke-miterlimit:4;stroke-opacity:1;stroke-dasharray:none" />
    <path
       d="m 308.75457,49.155207 c -15.64066,6.376322 -7.96498,89.312793 -2.53341,140.792983 0.83504,7.91014 6.33613,14.18794 13.40459,10.57187 C 375.23293,172.07264 395.49308,136.39884 434.87383,99.003901 426.15411,68.633643 349.64891,32.482914 308.75457,49.155207 z"
       id="path7325"
       style="fill:url(#linearGradient10967);fill-opacity:1;stroke:#fcc627;stroke-width:1.73711419;stroke-linecap:butt;stroke-linejoin:miter;stroke-miterlimit:4;stroke-opacity:1;stroke-dasharray:none" />
    <path
       d="m 284.60887,382.7575 c 15.63568,-7.95022 7.61828,-80.71368 19.57385,-129.48299 2.17493,-8.87206 -12.68338,-11.41495 -12.68338,-11.41495 -28.77496,12.91832 -83.49606,48.19091 -123.81834,92.46432 11.56447,22.4653 76.04625,69.22043 116.92787,48.43362 z"
       id="path7327"
       style="fill:url(#linearGradient10965);fill-opacity:1;stroke:#fcc627;stroke-width:1.8331213;stroke-linecap:butt;stroke-linejoin:miter;stroke-miterlimit:4;stroke-opacity:1;stroke-dasharray:none" />
    <path
       d="m -272.99455,884.05609 c 20.41539,24.30939 55.03444,70.00781 64.07093,64.4539 l 2.58156,-88.23404 c 3.40626,29.5188 -5.99504,97.4603 10.32624,88.23404 32.22335,-16.90279 44.17499,-38.87351 66.19859,-58.32624 l -62.32625,64.78014 88.36171,3.58156 -87.07093,1.58157 c 30.79313,16.05202 42.09711,39.89968 60.90781,60.74468 -22.59555,-20.0225 -44.1694,-59.6623 -72.52483,-54.29078 0.71654,-0.74033 -7.06886,87.10058 -4.90482,84.45458 3.71609,-4.5437 7.51181,-78.50682 -4.13064,-83.1638 l -60.52483,41.1986 c 19.50792,-18.03548 58.25381,-36.07095 57.94327,-54.10641 l -95.65621,-0.42218 93.91152,0.84062 z"
       transform="matrix(1.7351202,0,0,1.7391096,659.69042,-1443.1302)"
       id="path7333"
       style="fill:#fcfcbe;fill-opacity:1;stroke:#fcc627;stroke-width:1.20000005;stroke-linecap:butt;stroke-linejoin:miter;stroke-miterlimit:4;stroke-opacity:1;stroke-dasharray:none;filter:url(#filter7748-2)" />
    <path
       d="m 182.76504,289.19678 c -18.07934,10.36261 -27.36166,34.99167 -35.49646,61.48166 l 19.61049,-31.14715 z"
       transform="matrix(1.3864369,0,0,0.78989698,37.809365,23.295265)"
       id="path7375"
       style="opacity:0.54146346;fill:#f44800;fill-opacity:1;stroke:#fcc627;stroke-width:0;stroke-linecap:butt;stroke-linejoin:miter;stroke-miterlimit:4;stroke-opacity:1;stroke-dasharray:none;filter:url(#filter7408-1)" />
    <path
       d="m 182.76504,289.19678 c -18.07934,10.36261 -27.36166,34.99167 -35.49646,61.48166 l 19.61049,-31.14715 z"
       transform="matrix(1.3391951,0.35966138,-0.20397146,0.76298183,222.84614,-110.5017)"
       id="path7412"
       style="opacity:0.54146346;fill:#f44800;fill-opacity:1;stroke:#fcc627;stroke-width:0;stroke-linecap:butt;stroke-linejoin:miter;stroke-miterlimit:4;stroke-opacity:1;stroke-dasharray:none;filter:url(#filter8345-8)" />
    <path
       d="m 182.76504,289.19678 c -18.07934,10.36261 -27.36166,34.99167 -35.49646,61.48166 l 19.61049,-31.14715 z"
       transform="matrix(1.3391951,-0.35966138,0.20397146,0.76298183,69.933503,-32.208076)"
       id="path7414"
       style="opacity:0.54146346;fill:#f44800;fill-opacity:1;stroke:#fcc627;stroke-width:0;stroke-linecap:butt;stroke-linejoin:miter;stroke-miterlimit:4;stroke-opacity:1;stroke-dasharray:none;filter:url(#filter8341-3)" />
    <path
       d="m 182.76504,289.19678 c -18.07934,10.36261 -27.36166,34.99167 -35.49646,61.48166 l 19.61049,-31.14715 z"
       transform="matrix(0.69321828,-1.20345,0.68250158,0.39494857,-48.334337,217.31376)"
       id="path7416"
       style="opacity:0.54146346;fill:#f44800;fill-opacity:1;stroke:#fcc627;stroke-width:0;stroke-linecap:butt;stroke-linejoin:miter;stroke-miterlimit:4;stroke-opacity:1;stroke-dasharray:none;filter:url(#filter8337-6)" />
    <path
       d="m 182.76504,289.19678 c -18.07934,10.36261 -27.36166,34.99167 -35.49646,61.48166 l 19.61049,-31.14715 z"
       transform="matrix(0,-0.7306312,0.75942082,0,-38.084543,281.16967)"
       id="path7418"
       style="opacity:0.54146346;fill:#f44800;fill-opacity:1;stroke:#fcc627;stroke-width:0;stroke-linecap:butt;stroke-linejoin:miter;stroke-miterlimit:4;stroke-opacity:1;stroke-dasharray:none;filter:url(#filter8333-5)" />
    <path
       d="m 182.76504,289.19678 c -18.07934,10.36261 -27.36166,34.99167 -35.49646,61.48166 l 19.61049,-31.14715 z"
       transform="matrix(-0.36447756,-0.63274537,0.65767752,-0.38058347,47.892758,460.85852)"
       id="path7420"
       style="opacity:0.54146346;fill:#f44800;fill-opacity:1;stroke:#fcc627;stroke-width:0;stroke-linecap:butt;stroke-linejoin:miter;stroke-miterlimit:4;stroke-opacity:1;stroke-dasharray:none;filter:url(#filter8329-9)" />
    <path
       d="m 182.76504,289.19678 c -18.07934,10.36261 -27.36166,34.99167 -35.49646,61.48166 l 19.61049,-31.14715 z"
       transform="matrix(-0.63129391,-0.36531545,0.37971034,-0.65918982,200.40535,530.63781)"
       id="path7422"
       style="opacity:0.54146346;fill:#f44800;fill-opacity:1;stroke:#fcc627;stroke-width:0;stroke-linecap:butt;stroke-linejoin:miter;stroke-miterlimit:4;stroke-opacity:1;stroke-dasharray:none;filter:url(#filter8075-67)" />
    <path
       d="m 182.76504,289.19678 c -18.07934,10.36261 -27.36166,34.99167 -35.49646,61.48166 l 19.61049,-31.14715 z"
       transform="matrix(-1.0763723,0.44838586,-1.1213575,-0.46712556,904.78933,374.18283)"
       id="path7424"
       style="opacity:0.54146346;fill:#f44800;fill-opacity:1;stroke:#fcc627;stroke-width:0;stroke-linecap:butt;stroke-linejoin:miter;stroke-miterlimit:4;stroke-opacity:1;stroke-dasharray:none;filter:url(#filter7408-1)" />
    <path
       d="m 182.76504,289.19678 c -18.07934,10.36261 -27.36166,34.99167 -35.49646,61.48166 l 19.61049,-31.14715 z"
       transform="matrix(-0.51544923,0.51663426,-0.53699159,-0.53822632,597.82191,389.54084)"
       id="path7426"
       style="opacity:0.54146346;fill:#f44800;fill-opacity:1;stroke:#fcc627;stroke-width:0;stroke-linecap:butt;stroke-linejoin:miter;stroke-miterlimit:4;stroke-opacity:1;stroke-dasharray:none;filter:url(#filter7408-1)" />
    <path
       d="m 182.76504,289.19678 c -18.07934,10.36261 -27.36166,34.99167 -35.49646,61.48166 l 19.61049,-31.14715 z"
       transform="matrix(-2.579759,0.51663426,-2.6875756,-0.53822632,1694.0675,351.37895)"
       id="path7428"
       style="opacity:0.54146346;fill:#f44800;fill-opacity:1;stroke:#fcc627;stroke-width:0;stroke-linecap:butt;stroke-linejoin:miter;stroke-miterlimit:4;stroke-opacity:1;stroke-dasharray:none;filter:url(#filter7408-1)" />
    <path
       d="m -234.92199,165.69504 a 5.8085108,14.843971 0 1 1 -11.61702,0 5.8085108,14.843971 0 1 1 11.61702,0 z"
       transform="matrix(-0.07206236,0.51611904,-0.64478822,0.83669121,335.19175,306.87433)"
       id="path7430"
       style="fill:#ffffff;fill-opacity:1;stroke:#fcc627;stroke-width:0;stroke-linecap:round;stroke-miterlimit:4;stroke-opacity:1;stroke-dasharray:none;stroke-dashoffset:0;filter:url(#filter8397-8)" />
    <path
       d="M -204,241.99711 -208,184 -207,155.99711 -207,154 z"
       transform="matrix(1.7351202,0,0,1.7441547,659.69042,-222.42158)"
       id="path7718"
       style="opacity:0.71219512;fill:url(#radialGradient10963);fill-opacity:1;stroke:#fcc627;stroke-width:0.99855262;stroke-linecap:butt;stroke-linejoin:miter;stroke-miterlimit:4;stroke-opacity:1;stroke-dasharray:none;filter:url(#filter7732-0)" />
    <path
       d="m -213,245 6,7 -9,11 10,-9 17,4 z"
       transform="matrix(1.7351202,0,0,1.7391096,659.69042,-221.6446)"
       id="path7752"
       style="opacity:0.23414636;fill:#ce5902;fill-opacity:1;stroke:#fcc627;stroke-width:0;stroke-linecap:butt;stroke-linejoin:miter;stroke-miterlimit:4;stroke-opacity:1;stroke-dasharray:none;filter:url(#filter8325-3)" />
    <path
       d="m -234.92199,165.69504 a 5.8085108,14.843971 0 1 1 -11.61702,0 5.8085108,14.843971 0 1 1 11.61702,0 z"
       transform="matrix(0.46542752,0.18729594,0.4547813,0.57135168,396.03902,284.72524)"
       id="path7910"
       style="fill:#ffffff;fill-opacity:1;stroke:#fcc627;stroke-width:0;stroke-linecap:round;stroke-miterlimit:4;stroke-opacity:1;stroke-dasharray:none;stroke-dashoffset:0;filter:url(#filter8425-1)" />
    <path
       d="m -233,193 a 10,17 0 0 1 -10.88242,16.93368 L -243,193 z"
       transform="matrix(1.1638094,1.5672508,0.21980392,1.166486,507.06903,249.71442)"
       id="path7912"
       style="opacity:0.07317074;fill:#b65454;fill-opacity:1;stroke:#fcc627;stroke-width:0;stroke-linecap:round;stroke-miterlimit:4;stroke-opacity:1;stroke-dasharray:none;stroke-dashoffset:0;filter:url(#filter8321-8)" />
    <path
       d="m -62.619029,1075.7183 6.928544,44.5634"
       transform="matrix(1.6759981,-0.45011477,0.44908231,1.6798511,-138.3155,-1757.2876)"
       id="path7916"
       style="fill:none;stroke:#fcc627;stroke-width:0.52388269;stroke-linecap:butt;stroke-linejoin:miter;stroke-miterlimit:4;stroke-opacity:1;stroke-dasharray:none;filter:url(#filter7930-20)" />
    <path
       d="m -41.741499,1071.9861 c 0.923806,2.3767 -7.020442,56.6141 -7.020442,56.6141"
       transform="matrix(1.6759981,-0.45011477,0.44908231,1.6798511,-138.3155,-1757.2876)"
       id="path7918"
       style="fill:none;stroke:#fcc627;stroke-width:0.52388269;stroke-linecap:butt;stroke-linejoin:miter;stroke-miterlimit:4;stroke-opacity:1;stroke-dasharray:none;filter:url(#filter7926-0)" />
    <path
       d="m -67.238059,1087.6019 c 11.55117,23.2717 12.080234,36.7695 15.252862,52.6114"
       transform="matrix(1.6759981,-0.45011477,0.44908231,1.6798511,-166.07743,-1781.6351)"
       id="path7920"
       style="fill:none;stroke:#fcc627;stroke-width:0.52388269;stroke-linecap:butt;stroke-linejoin:miter;stroke-miterlimit:4;stroke-opacity:1;stroke-dasharray:none;filter:url(#filter7922-8)" />
    <path
       d="m -15,397 a 21,24 0 1 1 -42,0 21,24 0 1 1 42,0 z"
       transform="matrix(0.15228067,0.09745782,-0.57369349,1.0909206,584.42707,-298.51582)"
       id="path7934"
       style="opacity:0.51219512;fill:#f44800;fill-opacity:1;stroke:#fcc627;stroke-width:0;stroke-linecap:round;stroke-miterlimit:4;stroke-opacity:1;stroke-dasharray:none;stroke-dashoffset:0;filter:url(#filter7966-0)" />
    <path
       d="m -15,397 a 21,24 0 1 1 -42,0 21,24 0 1 1 42,0 z"
       transform="matrix(0.08606647,0.04095254,-0.13575297,0.89968803,384.80518,-235.30219)"
       id="path7936"
       style="opacity:0.51219512;fill:#f44800;fill-opacity:1;stroke:#fcc627;stroke-width:0;stroke-linecap:round;stroke-miterlimit:4;stroke-opacity:1;stroke-dasharray:none;stroke-dashoffset:0;filter:url(#filter7962-0)" />
    <path
       d="m -15,397 a 21,24 0 1 1 -42,0 21,24 0 1 1 42,0 z"
       transform="matrix(0.12111068,0.07119697,-0.19102835,1.5641291,405.27071,-475.27508)"
       id="path7938"
       style="opacity:0.51219512;fill:#f44800;fill-opacity:1;stroke:#fcc627;stroke-width:0;stroke-linecap:round;stroke-miterlimit:4;stroke-opacity:1;stroke-dasharray:none;stroke-dashoffset:0;filter:url(#filter7958-7)" />
    <path
       d="m -15,397 a 21,24 0 1 1 -42,0 21,24 0 1 1 42,0 z"
       transform="matrix(0.0891974,0.15484937,-0.90944114,0.52627319,808.56156,-42.901175)"
       id="path7940"
       style="opacity:0.51219512;fill:#f44800;fill-opacity:1;stroke:#fcc627;stroke-width:0;stroke-linecap:round;stroke-miterlimit:4;stroke-opacity:1;stroke-dasharray:none;stroke-dashoffset:0;filter:url(#filter8317-6)" />
    <path
       d="m -15,397 a 21,24 0 1 1 -42,0 21,24 0 1 1 42,0 z"
       transform="matrix(0.0891974,0.15484937,-0.90944114,0.52627319,778.75097,-48.234528)"
       id="path7942"
       style="opacity:0.51219512;fill:#f44800;fill-opacity:1;stroke:#fcc627;stroke-width:0;stroke-linecap:round;stroke-miterlimit:4;stroke-opacity:1;stroke-dasharray:none;stroke-dashoffset:0;filter:url(#filter8313-2)" />
    <path
       d="m -15,397 a 21,24 0 1 1 -42,0 21,24 0 1 1 42,0 z"
       transform="matrix(0.0891974,0.15484937,-0.90944114,0.52627319,779.8577,-16.386987)"
       id="path7944"
       style="opacity:0.51219512;fill:#f44800;fill-opacity:1;stroke:#fcc627;stroke-width:0;stroke-linecap:round;stroke-miterlimit:4;stroke-opacity:1;stroke-dasharray:none;stroke-dashoffset:0;filter:url(#filter8309-2)" />
    <path
       d="m -15,397 a 21,24 0 1 1 -42,0 21,24 0 1 1 42,0 z"
       transform="matrix(0.17231577,-0.04627795,-0.27179433,-1.0166821,444.59956,677.63445)"
       id="path7970"
       style="opacity:0.51219512;fill:#f44800;fill-opacity:1;stroke:#fcc627;stroke-width:0;stroke-linecap:round;stroke-miterlimit:4;stroke-opacity:1;stroke-dasharray:none;stroke-dashoffset:0;filter:url(#filter8421-9)" />
    <path
       d="m -15,397 a 21,24 0 1 1 -42,0 21,24 0 1 1 42,0 z"
       transform="matrix(0.04142003,-0.03967255,-0.06533197,-0.87156787,346.80835,660.17119)"
       id="path7972"
       style="opacity:0.51219512;fill:#f44800;fill-opacity:1;stroke:#fcc627;stroke-width:0;stroke-linecap:round;stroke-miterlimit:4;stroke-opacity:1;stroke-dasharray:none;stroke-dashoffset:0;filter:url(#filter8417-9)" />
    <path
       d="m -15,397 a 21,24 0 1 1 -42,0 21,24 0 1 1 42,0 z"
       transform="matrix(0.17231577,-0.04627795,-0.27179433,-1.0166821,452.04366,734.06169)"
       id="path7974"
       style="opacity:0.51219512;fill:#f44800;fill-opacity:1;stroke:#fcc627;stroke-width:0;stroke-linecap:round;stroke-miterlimit:4;stroke-opacity:1;stroke-dasharray:none;stroke-dashoffset:0;filter:url(#filter7958-7)" />
    <path
       d="m -15,397 a 21,24 0 1 1 -42,0 21,24 0 1 1 42,0 z"
       transform="matrix(-0.15449399,-0.08940249,-0.52506594,0.91153228,465.96485,-51.829474)"
       id="path7976"
       style="opacity:0.51219512;fill:#f44800;fill-opacity:1;stroke:#fcc627;stroke-width:0;stroke-linecap:round;stroke-miterlimit:4;stroke-opacity:1;stroke-dasharray:none;stroke-dashoffset:0;filter:url(#filter7966-0)" />
    <path
       d="m -15,397 a 21,24 0 1 1 -42,0 21,24 0 1 1 42,0 z"
       transform="matrix(-0.09642512,-0.09099084,-0.32771208,0.92772681,384.09396,-21.322514)"
       id="path7978"
       style="opacity:0.51219512;fill:#f44800;fill-opacity:1;stroke:#fcc627;stroke-width:0;stroke-linecap:round;stroke-miterlimit:4;stroke-opacity:1;stroke-dasharray:none;stroke-dashoffset:0;filter:url(#filter8393-4)" />
    <path
       d="m -15,397 a 21,24 0 1 1 -42,0 21,24 0 1 1 42,0 z"
       transform="matrix(-0.15449399,-0.08940249,-0.52506594,0.91153228,422.73136,-21.768748)"
       id="path7980"
       style="opacity:0.51219512;fill:#f44800;fill-opacity:1;stroke:#fcc627;stroke-width:0;stroke-linecap:round;stroke-miterlimit:4;stroke-opacity:1;stroke-dasharray:none;stroke-dashoffset:0;filter:url(#filter8389-0)" />
    <path
       d="m -15,397 a 21,24 0 1 1 -42,0 21,24 0 1 1 42,0 z"
       transform="matrix(-0.11857194,-0.10269681,-0.40298066,1.0470788,430.53371,-105.61741)"
       id="path7982"
       style="opacity:0.51219512;fill:#f44800;fill-opacity:1;stroke:#fcc627;stroke-width:0;stroke-linecap:round;stroke-miterlimit:4;stroke-opacity:1;stroke-dasharray:none;stroke-dashoffset:0;filter:url(#filter8117-7)" />
    <path
       d="m -15,397 a 21,24 0 1 1 -42,0 21,24 0 1 1 42,0 z"
       transform="matrix(-0.17643617,-0.13851839,-1.0386047,0.81539941,615.70179,0.2937142)"
       id="path7986"
       style="opacity:0.18048778;fill:#f44800;fill-opacity:1;stroke:#fcc627;stroke-width:0;stroke-linecap:round;stroke-miterlimit:4;stroke-opacity:1;stroke-dasharray:none;stroke-dashoffset:0;filter:url(#filter8385-1)" />
    <path
       d="m -15,397 a 21,24 0 1 1 -42,0 21,24 0 1 1 42,0 z"
       transform="matrix(-0.04617188,-0.16740949,-1.0143496,0.38891096,646.86932,86.491272)"
       id="path7988"
       style="opacity:0.51219512;fill:#f44800;fill-opacity:1;stroke:#fcc627;stroke-width:0;stroke-linecap:round;stroke-miterlimit:4;stroke-opacity:1;stroke-dasharray:none;stroke-dashoffset:0;filter:url(#filter8071-2)" />
    <path
       d="m -15,397 a 21,24 0 1 1 -42,0 21,24 0 1 1 42,0 z"
       transform="matrix(-0.05587256,-0.09304372,-1.2274637,0.21615096,656.89738,163.942)"
       id="path7990"
       style="opacity:0.51219512;fill:#f44800;fill-opacity:1;stroke:#fcc627;stroke-width:0;stroke-linecap:round;stroke-miterlimit:4;stroke-opacity:1;stroke-dasharray:none;stroke-dashoffset:0;filter:url(#filter8067-4)" />
    <path
       d="m -15,397 a 21,24 0 1 1 -42,0 21,24 0 1 1 42,0 z"
       transform="matrix(-0.00136927,0.08508108,-1.0802136,-0.05512087,588.7799,263.80627)"
       id="path7992"
       style="opacity:0.51219512;fill:#f44800;fill-opacity:1;stroke:#fcc627;stroke-width:0;stroke-linecap:round;stroke-miterlimit:4;stroke-opacity:1;stroke-dasharray:none;stroke-dashoffset:0;filter:url(#filter8063-3)" />
    <path
       d="m -231.23062,956.28419 c -2.86562,-1.58485 -75.85625,-26.44238 -75.85625,-26.44238 0,0 57.89468,15.81925 50.06566,12.17871 -7.82901,-3.64054 -43.41596,-15.39459 -43.41596,-15.39459 0,0 71.73599,21.7509 58.94357,16.05467 -12.79242,-5.69623 -43.19004,-26.64399 -43.19004,-26.64399 l 43.26535,22.89419 -20.93744,-32.9496 z"
       transform="matrix(1.7351202,0,0,1.7391096,659.69042,-1443.1302)"
       id="path8002"
       style="opacity:0.04390247;fill:#980101;stroke:#fcc627;stroke-width:0;stroke-linecap:butt;stroke-linejoin:miter;stroke-miterlimit:4;stroke-opacity:1;stroke-dasharray:none;filter:url(#filter8305-5)" />
    <path
       d="m -220.47182,931.10391 c -1.41421,-2.82842 -45.96194,-60.10408 -45.96194,-60.10408 0,0 37.47665,41.71931 33.23402,34.64823 -4.24264,-7.07106 -26.16295,-34.64823 -26.16295,-34.64823 0,0 45.25483,53.74013 38.18377,42.42641 -7.07108,-11.31371 -19.79899,-45.25483 -19.79899,-45.25483 l 21.92031,41.71929 1.41421,-41.01219 z"
       transform="matrix(1.7351202,0,0,1.7391096,659.69042,-1443.1302)"
       id="path8004"
       style="opacity:0.0926829;fill:#d40000;stroke:#fcc627;stroke-width:0;stroke-linecap:butt;stroke-linejoin:miter;stroke-miterlimit:4;stroke-opacity:1;stroke-dasharray:none;filter:url(#filter8006-2)" />
    <path
       d="m -216.85925,1011.5588 c -1.41421,-2.8284 -45.96194,-60.10411 -45.96194,-60.10411 0,0 37.47665,41.71927 33.23402,34.64827 -4.24264,-7.0711 -26.16295,-34.64827 -26.16295,-34.64827 0,0 45.25483,53.74021 38.18377,42.42637 -7.07108,-11.3137 -19.79899,-45.25479 -19.79899,-45.25479 l 21.92031,41.71929 1.41421,-41.01219 z"
       transform="matrix(0,-1.7391096,1.7351202,0,-1465.63,-149.93403)"
       id="path8016"
       style="opacity:0.26829266;fill:url(#linearGradient10961);fill-opacity:1;stroke:#fcc627;stroke-width:0;stroke-linecap:butt;stroke-linejoin:miter;stroke-miterlimit:4;stroke-opacity:1;stroke-dasharray:none;filter:url(#filter8006-2)" />
    <path
       d="m -225.62303,902.2939 1.04582,-3.6588 2.9603,0.8858 z"
       transform="matrix(1.7351202,0,0,1.7391096,659.69042,-1443.1302)"
       id="path8051"
       style="fill:#ffffff;fill-opacity:1;stroke:#feffff;stroke-width:0.18125081px;stroke-linecap:butt;stroke-linejoin:miter;stroke-opacity:1;filter:url(#filter8301-0)" />
    <path
       d="m -168.49316,904.91521 2.54435,-8.90142 7.20203,2.15504 z"
       transform="matrix(1.7351202,0,0,1.7391096,659.69042,-1443.1302)"
       id="path8053"
       style="fill:#ffffff;fill-opacity:1;stroke:#feffff;stroke-width:0.44096187px;stroke-linecap:butt;stroke-linejoin:miter;stroke-opacity:1;filter:url(#filter8297-3)" />
    <path
       d="m -149.35899,968.32872 8.90142,2.54434 -2.15505,7.20204 z"
       transform="matrix(1.7351202,0,0,1.7391096,649.36418,-1365.6834)"
       id="path8055"
       style="fill:#ffffff;fill-opacity:1;stroke:#feffff;stroke-width:0.44096187px;stroke-linecap:butt;stroke-linejoin:miter;stroke-opacity:1;filter:url(#filter8293-7)" />
    <path
       d="m -246.67525,977.74894 -17.56485,-0.0514 -7.7451,0.0757 z"
       transform="matrix(1.7351202,0,0,1.7391096,659.69042,-1443.1302)"
       id="path8057"
       style="fill:#ffffff;fill-opacity:1;stroke:#feffff;stroke-width:0.06947562px;stroke-linecap:butt;stroke-linejoin:miter;stroke-opacity:1;filter:url(#filter8059-5)" />
    <path
       d="m 2,427 a 3.5,7 0 1 1 -7,0 3.5,7 0 1 1 7,0 z"
       transform="matrix(5.4535864,3.1558675,-2.4559535,4.2636162,1513.5537,-1540.0896)"
       id="path8087"
       style="opacity:0.19024389;fill:url(#linearGradient10959);fill-opacity:1;stroke:#feffff;stroke-width:0;stroke-linecap:round;stroke-miterlimit:4;stroke-opacity:1;stroke-dasharray:none;stroke-dashoffset:0;filter:url(#filter8101-85)" />
    <path
       d="m 2,427 a 3.5,7 0 1 1 -7,0 3.5,7 0 1 1 7,0 z"
       transform="matrix(5.637765,3.8145311,-2.5388964,5.153478,1255.5039,-2049.9616)"
       id="path8097"
       style="opacity:0.64390241;fill:url(#linearGradient10957);fill-opacity:1;stroke:#feffff;stroke-width:0;stroke-linecap:round;stroke-miterlimit:4;stroke-opacity:1;stroke-dasharray:none;stroke-dashoffset:0;filter:url(#filter8289-3)" />
    <path
       d="m -222,71 -6.49303,2.343258 -6.83826,-0.94261 -5.61692,-4.012537 -3.10882,-6.16324 0.11147,-6.902019 3.30624,-6.059628 5.74357,-3.829051 6.86514,-0.721283 6.41397,2.551721 4.49344,5.240158 1.54352,6.728137 -1.75999,6.674781 L -222,71 z"
       transform="matrix(0.2728047,0,0,0.0990343,337.18886,357.72034)"
       id="path8121"
       style="fill:#ffffff;fill-opacity:1;stroke:#feffff;stroke-width:0;stroke-linecap:round;stroke-miterlimit:4;stroke-opacity:1;stroke-dasharray:none;stroke-dashoffset:0" />
    <path
       d="m 130,533.79075 c -8.57143,2.85714 -62.857139,30 -62.857139,30 0,0 184.285709,17.14286 189.999999,17.14286 5.71428,0 141.42857,-35.71429 141.42857,-35.71429 0,0 -24.28572,-17.14285 -34.28572,-17.14285 -10,0 -120,-17.14286 -120,-17.14286 z"
       transform="matrix(1.330215,0,0,0.21178213,-15.452259,325.41764)"
       id="path8437"
       style="fill:#000000;fill-opacity:1;stroke:#000000;stroke-width:0;stroke-linecap:butt;stroke-linejoin:miter;stroke-miterlimit:4;stroke-opacity:1;stroke-dasharray:none;filter:url(#filter12350)" />
    <path
       d="m -15,397 a 21,24 0 1 1 -42,0 21,24 0 1 1 42,0 z"
       transform="matrix(-0.07805024,-0.07541245,-1.1296949,0.52647678,626.32023,59.448286)"
       id="path12111"
       style="opacity:0.51219512;fill:#f44800;fill-opacity:1;stroke:#fcc627;stroke-width:0;stroke-linecap:round;stroke-miterlimit:4;stroke-opacity:1;stroke-dasharray:none;stroke-dashoffset:0;filter:url(#filter8067-4)" />
    <path
       d="m 2,427 a 3.5,7 0 1 1 -7,0 3.5,7 0 1 1 7,0 z"
       transform="matrix(6.0878033,-1.6247326,1.2782106,4.7514532,-76.110634,-1860.1201)"
       id="path12113"
       style="opacity:0.19024389;fill:url(#linearGradient12115);fill-opacity:1;stroke:#feffff;stroke-width:0;stroke-linecap:round;stroke-miterlimit:4;stroke-opacity:1;stroke-dasharray:none;stroke-dashoffset:0;filter:url(#filter8101-85)" />
    <path
       d="m 2,427 a 3.5,7 0 1 1 -7,0 3.5,7 0 1 1 7,0 z"
       transform="matrix(1.636842,-6.0845586,4.7539844,1.2687638,-1658.5879,-458.43909)"
       id="path12117"
       style="opacity:0.19024389;fill:url(#linearGradient12119);fill-opacity:1;stroke:#feffff;stroke-width:0;stroke-linecap:round;stroke-miterlimit:4;stroke-opacity:1;stroke-dasharray:none;stroke-dashoffset:0;filter:url(#filter8101-85)" />
    <path
       d="m 2,427 a 3.5,7 0 1 1 -7,0 3.5,7 0 1 1 7,0 z"
       transform="matrix(1.636842,-6.0845586,4.7539844,1.2687638,-1790.2475,-202.86462)"
       id="path12121"
       style="opacity:0.19024389;fill:url(#linearGradient12123);fill-opacity:1;stroke:#feffff;stroke-width:0;stroke-linecap:round;stroke-miterlimit:4;stroke-opacity:1;stroke-dasharray:none;stroke-dashoffset:0;filter:url(#filter8101-85)" />
    <path
       d="m 2,427 a 3.5,7 0 1 1 -7,0 3.5,7 0 1 1 7,0 z"
       transform="matrix(6.0218574,-3.7062718,2.7180952,5.0187419,-989.85592,-1883.1477)"
       id="path12125"
       style="opacity:0.19024389;fill:url(#linearGradient12127);fill-opacity:1;stroke:#feffff;stroke-width:0;stroke-linecap:round;stroke-miterlimit:4;stroke-opacity:1;stroke-dasharray:none;stroke-dashoffset:0;filter:url(#filter8101-85)" />
    <path
       d="m 2,427 a 3.5,7 0 1 1 -7,0 3.5,7 0 1 1 7,0 z"
       transform="matrix(-0.4845984,6.7897133,-5.7324911,0.37799024,2693.886,-72.195272)"
       id="path12129"
       style="opacity:0.64390241;fill:url(#linearGradient12131);fill-opacity:1;stroke:#feffff;stroke-width:0;stroke-linecap:round;stroke-miterlimit:4;stroke-opacity:1;stroke-dasharray:none;stroke-dashoffset:0;filter:url(#filter8289-3)" />
  </g>
</svg>
