<?xml version="1.0" encoding="UTF-8" standalone="no"?>
<!-- Created with Inkscape (http://www.inkscape.org/) -->

<svg
   xmlns:dc="http://purl.org/dc/elements/1.1/"
   xmlns:cc="http://creativecommons.org/ns#"
   xmlns:rdf="http://www.w3.org/1999/02/22-rdf-syntax-ns#"
   xmlns:svg="http://www.w3.org/2000/svg"
   xmlns="http://www.w3.org/2000/svg"
   xmlns:xlink="http://www.w3.org/1999/xlink"
   xmlns:sodipodi="http://sodipodi.sourceforge.net/DTD/sodipodi-0.dtd"
   xmlns:inkscape="http://www.inkscape.org/namespaces/inkscape"
   width="616.43463"
   height="671.13831"
   id="svg2"
   version="1.1"
   inkscape:version="0.48.1 r9760"
   sodipodi:docname="oven.svg"
   style="display:inline">
  <title
     id="title4137">oven</title>
  <defs
     id="defs4">
    <linearGradient
       id="linearGradient3124">
      <stop
         style="stop-color:#ffffff;stop-opacity:1"
         offset="0"
         id="stop3126" />
      <stop
         id="stop3128"
         offset="0.45226029"
         style="stop-color:#f2f2f2;stop-opacity:1" />
      <stop
         style="stop-color:#808080;stop-opacity:1"
         offset="1"
         id="stop3130" />
    </linearGradient>
    <linearGradient
       id="linearGradient3055">
      <stop
         id="stop3057"
         offset="0"
         style="stop-color:#ffffff;stop-opacity:1" />
      <stop
         style="stop-color:#f2f2f2;stop-opacity:1"
         offset="0.58862329"
         id="stop3059" />
      <stop
         id="stop3061"
         offset="1"
         style="stop-color:#808080;stop-opacity:1" />
    </linearGradient>
    <linearGradient
       id="linearGradient3043">
      <stop
         id="stop3045"
         offset="0"
         style="stop-color:#666666;stop-opacity:1" />
      <stop
         style="stop-color:#f2f2f2;stop-opacity:1"
         offset="0.10147253"
         id="stop3047" />
      <stop
         style="stop-color:#ffffff;stop-opacity:1"
         offset="0.75435394"
         id="stop3049" />
      <stop
         id="stop3051"
         offset="1"
         style="stop-color:#999999;stop-opacity:1" />
    </linearGradient>
    <linearGradient
       id="linearGradient3031">
      <stop
         id="stop3033"
         offset="0"
         style="stop-color:#666666;stop-opacity:1" />
      <stop
         style="stop-color:#f2f2f2;stop-opacity:1"
         offset="0.37428281"
         id="stop3035" />
      <stop
         style="stop-color:#ffffff;stop-opacity:1"
         offset="0.76141667"
         id="stop3037" />
      <stop
         id="stop3039"
         offset="1"
         style="stop-color:#999999;stop-opacity:1" />
    </linearGradient>
    <linearGradient
       id="linearGradient3873">
      <stop
         style="stop-color:#ffffff;stop-opacity:1"
         offset="0"
         id="stop3875" />
      <stop
         id="stop3881"
         offset="0.47099933"
         style="stop-color:#f2f2f2;stop-opacity:1" />
      <stop
         style="stop-color:#808080;stop-opacity:1"
         offset="1"
         id="stop3877" />
    </linearGradient>
    <linearGradient
       id="linearGradient3855">
      <stop
         style="stop-color:#666666;stop-opacity:1"
         offset="0"
         id="stop3857" />
      <stop
         id="stop3865"
         offset="0.39749986"
         style="stop-color:#f2f2f2;stop-opacity:1" />
      <stop
         id="stop3863"
         offset="0.79904819"
         style="stop-color:#ffffff;stop-opacity:1" />
      <stop
         style="stop-color:#999999;stop-opacity:1"
         offset="1"
         id="stop3859" />
    </linearGradient>
    <linearGradient
       inkscape:collect="always"
       xlink:href="#linearGradient3855"
       id="linearGradient3957"
       gradientUnits="userSpaceOnUse"
       x1="645.37726"
       y1="622.33307"
       x2="129.29953"
       y2="555.36713" />
    <radialGradient
       inkscape:collect="always"
       xlink:href="#linearGradient3124"
       id="radialGradient3122"
       cx="436.04037"
       cy="168.04973"
       fx="436.04037"
       fy="168.04973"
       r="98.287842"
       gradientTransform="matrix(1.2080148,0.12742555,-0.25040106,2.373843,-48.378519,-300.14981)"
       gradientUnits="userSpaceOnUse" />
    <linearGradient
       inkscape:collect="always"
       xlink:href="#linearGradient3031"
       id="linearGradient3356"
       gradientUnits="userSpaceOnUse"
       x1="564.67529"
       y1="672.54486"
       x2="132.33"
       y2="627.08795" />
    <linearGradient
       inkscape:collect="always"
       xlink:href="#linearGradient3043"
       id="linearGradient3358"
       gradientUnits="userSpaceOnUse"
       x1="64.671341"
       y1="558.82446"
       x2="705.40576"
       y2="589.12903" />
    <radialGradient
       inkscape:collect="always"
       xlink:href="#linearGradient3055"
       id="radialGradient3360"
       gradientUnits="userSpaceOnUse"
       gradientTransform="matrix(1.156295,0.14748213,-0.17859357,1.400216,14.820422,-190.8906)"
       cx="321.5015"
       cy="367.87213"
       fx="321.5015"
       fy="367.87213"
       r="239.76331" />
  </defs>
  <sodipodi:namedview
     id="base"
     pagecolor="#ffffff"
     bordercolor="#666666"
     borderopacity="1.0"
     inkscape:pageopacity="0.0"
     inkscape:pageshadow="2"
     inkscape:zoom="1.4142136"
     inkscape:cx="259.5955"
     inkscape:cy="247.63997"
     inkscape:document-units="px"
     inkscape:current-layer="layer2"
     showgrid="false"
     inkscape:window-width="1920"
     inkscape:window-height="1152"
     inkscape:window-x="0"
     inkscape:window-y="0"
     inkscape:window-maximized="1"
     inkscape:object-paths="true"
     inkscape:object-nodes="false"
     inkscape:snap-smooth-nodes="true"
     inkscape:snap-nodes="false"
     fit-margin-top="0"
     fit-margin-left="0"
     fit-margin-right="0"
     fit-margin-bottom="0" />
  <metadata
     id="metadata7">
    <rdf:RDF>
      <cc:Work
         rdf:about="">
        <dc:format>image/svg+xml</dc:format>
        <dc:type
           rdf:resource="http://purl.org/dc/dcmitype/StillImage" />
        <dc:title>oven</dc:title>
        <dc:date>2011-07-23</dc:date>
        <dc:creator>
          <cc:Agent>
            <dc:title>tzunghaor (Prim András)</dc:title>
          </cc:Agent>
        </dc:creator>
        <cc:license
           rdf:resource="http://creativecommons.org/licenses/publicdomain/" />
        <dc:publisher>
          <cc:Agent>
            <dc:title>openclipart.org</dc:title>
          </cc:Agent>
        </dc:publisher>
        <dc:subject>
          <rdf:Bag>
            <rdf:li>oven</rdf:li>
            <rdf:li>folk</rdf:li>
            <rdf:li>fire</rdf:li>
            <rdf:li>kitchen</rdf:li>
            <rdf:li>bake</rdf:li>
            <rdf:li>cook</rdf:li>
            <rdf:li>gastronomy</rdf:li>
          </rdf:Bag>
        </dc:subject>
      </cc:Work>
      <cc:License
         rdf:about="http://creativecommons.org/licenses/publicdomain/">
        <cc:permits
           rdf:resource="http://creativecommons.org/ns#Reproduction" />
        <cc:permits
           rdf:resource="http://creativecommons.org/ns#Distribution" />
        <cc:permits
           rdf:resource="http://creativecommons.org/ns#DerivativeWorks" />
      </cc:License>
    </rdf:RDF>
  </metadata>
  <g
     inkscape:groupmode="layer"
     id="layer2"
     inkscape:label="Réteg"
     style="display:inline"
     transform="translate(-86.915669,-58.592765)">
    <path
       sodipodi:type="inkscape:offset"
       inkscape:radius="8.0622578"
       inkscape:original="M 404.46875 66.65625 L 355 210.625 C 303.44587 218.79636 251.04489 252.67557 223.1875 289.40625 C 154.62882 379.80259 150.8125 507.65625 150.8125 507.65625 C 150.8548 507.69705 150.8952 507.74055 150.9375 507.78125 C 149.27951 508.13495 125.87594 513.10421 105.46875 516.5 C 100.41547 517.34088 96.96875 522.03125 96.96875 522.03125 C 96.96875 522.03125 94.789719 527.7188 95 530.65625 C 96.154991 546.79056 95.661539 563.68239 97.4375 577 C 97.645768 578.56176 100.46875 580.625 100.46875 580.625 C 108.58492 588.34406 117.17827 595.50452 126.1875 602.125 L 125.75 627.09375 C 125.6742 631.66678 127.28125 637.6875 127.28125 637.6875 C 147.03319 661.72426 173.0889 679.63613 203.125 692.59375 C 203.125 692.59375 206.15634 694.00009 208.03125 693.09375 L 231.84375 681.46875 L 305.65625 697.59375 C 308.16887 704.32683 309.4765 711.47511 310.46875 718.625 C 465.20915 734.68918 648.43916 682.75568 677.3125 657.40625 L 679.5 612.9375 C 684.02 610.86297 688.34838 608.74209 692.53125 606.625 C 692.53125 606.625 695.10755 606.05695 695.125 600.59375 L 695.28125 552.71875 C 695.29125 549.67065 695.59396 546.55803 693.875 541.34375 C 693.9071 541.30445 693.93695 541.25805 693.96875 541.21875 C 693.96875 541.21875 694.03535 535.81177 687.8125 533.875 L 630.34375 515.96875 C 627.13546 488.61896 626.47756 412.23408 570.34375 322.03125 C 561.16568 307.28278 549.94701 293.36362 537.21875 280.65625 L 491.4375 68.0625 L 404.46875 66.65625 z "
       style="fill:#000000;fill-opacity:1;stroke:none"
       id="path3352"
       d="m 404.59375,58.59375 a 8.063064,8.063064 0 0 0 -7.75,5.4375 l -47.9375,139.53125 c -52.45323,9.80807 -103.67464,43.41501 -132.15625,80.96875 -61.57185,81.18403 -72.0136,189.90601 -73.6875,216.625 -7.41414,1.5448 -22.76373,4.72011 -38.90625,7.40625 -9.2563,1.54027 -13.6875,8.6875 -13.6875,8.6875 a 8.063064,8.063064 0 0 0 -1.03125,1.90625 c 0,0 -0.660411,1.70145 -1.28125,3.84375 -0.620839,2.1423 -1.460723,4.40205 -1.1875,8.21875 1.114697,15.57143 0.548852,32.44678 2.46875,46.84375 0.673535,5.0507 2.776539,5.96659 3.96875,7.125 0.779542,0.75744 1.079161,0.95513 1.5,1.28125 7.34112,6.98194 15.11506,13.43335 23.15625,19.53125 l -0.375,20.9375 a 8.063064,8.063064 0 0 0 0,0.0312 c -0.10904,6.57832 1.8125,12.8125 1.8125,12.8125 a 8.063064,8.063064 0 0 0 1.5625,3.03125 c 20.66371,25.14632 47.78686,43.74414 78.65625,57.09375 0,0 0.0614,0.0307 0.0625,0.0312 0.0517,0.0223 0.10456,0.0402 0.15625,0.0625 0.17707,0.082 1.35145,0.62031 3.0625,1.03125 1.83671,0.44112 4.58986,1.21779 8.53125,-0.6875 a 8.063064,8.063064 0 0 0 0.0312,0 l 21.3125,-10.40625 66.375,14.5 c 1.40903,4.79999 2.46772,9.86954 3.21875,15.28125 a 8.063064,8.063064 0 0 0 7.15625,6.9375 c 78.58284,8.15798 163.71652,-0.94759 233.09375,-15.21875 34.68861,-7.13558 65.42883,-15.5801 89.5,-23.90625 24.07117,-8.32615 41.03654,-15.83634 50.40625,-24.0625 a 8.063064,8.063064 0 0 0 2.75,-5.65625 l 1.96875,-39.71875 c 2.98919,-1.42774 6.02205,-2.85309 8.84375,-4.28125 l -0.0312,-0.0625 c 0.35292,-0.14351 0.46764,-0.13272 0.78125,-0.3125 1.06628,-0.61126 2.23226,-1.5533 3.21875,-2.8125 1.97297,-2.5184 3.01848,-6.002 3.03125,-10 l 0.15625,-47.875 c 0.008,-2.31005 0.15043,-6.74578 -1.40625,-12.34375 -0.0561,-1.01024 -0.23759,-3.08134 -1.4375,-5.59375 -1.54489,-3.23475 -5.12935,-7.02155 -10.28125,-8.625 l -52.375,-16.3125 c -1.35158,-13.94805 -2.72648,-37.62287 -9.78125,-69.0625 -7.74314,-34.50736 -22.27618,-77.07509 -50.875,-123.03125 C 568.08271,303.15054 557.038,289.38338 544.625,276.75 L 499.3125,66.375 A 8.063064,8.063064 0 0 0 491.5625,60 l -86.96875,-1.40625 z" />
    <path
       style="fill:url(#radialGradient3122);fill-opacity:1;stroke:none"
       d="M 404.46508,66.65533 348.60364,229.28989 545.17933,317.67824 491.43921,68.069543 z"
       id="path3118"
       inkscape:connector-curvature="0" />
    <path
       style="fill:#000000;fill-opacity:1;stroke:none"
       d="m 233.85031,513.95088 c 0,0 65.6875,-14.04479 98.99495,-13.63706 22.00253,0.26934 65.15484,10.6066 65.15484,10.6066 L 396.98995,401.31887 249.50768,387.17673 z"
       id="path3152"
       inkscape:connector-curvature="0"
       sodipodi:nodetypes="cacccc" />
    <path
       style="fill:#666666;fill-opacity:1;stroke:none"
       d="m 230.31478,681.13113 86.62058,18.94036 -3.53553,-42.67895 -82.0749,-9.84899 z"
       id="path3025"
       inkscape:connector-curvature="0" />
    <path
       style="fill:#333333;fill-opacity:1;stroke:none"
       d="m 203.125,692.59375 c 0,0 3.04489,1.39633 4.9198,0.48999 l 23.95853,-11.71277 c 0,0 1.10474,-2.38268 1.74225,-3.95223 4.60027,-11.32574 13.89684,-20.27831 21.31794,-30.6328 l -43.43656,8.58629 z"
       id="path3023"
       inkscape:connector-curvature="0"
       sodipodi:nodetypes="cscsccc" />
    <path
       style="fill:url(#linearGradient3356);fill-opacity:1;stroke:none"
       d="m 126.46875,584.84375 -0.71875,42.25 c -0.0758,4.57303 1.53125,10.59375 1.53125,10.59375 19.75194,24.03676 45.80765,41.94863 75.84375,54.90625 6.63146,-23.72707 24.28639,-36.69701 54.96875,-30.15625 42.41269,9.04138 49.0968,32.56558 52.375,56.1875 154.7404,16.06418 337.97041,-35.86932 366.84375,-61.21875 l 3.03125,-61.625 -553.875,-10.9375 z"
       id="path3018"
       inkscape:connector-curvature="0" />
    <path
       style="opacity:0.5;fill:#4d4d4d;fill-opacity:1;stroke:none"
       d="M 39.4375 533.15625 L 39.0625 555.46875 C 68.572861 578.44992 101.46361 595.07419 136.3125 606.65625 C 145.18972 602.0065 156.75054 600.76613 171.1875 603.84375 C 190.40575 607.94063 202.2588 615.01293 209.8125 623.71875 C 348.92645 643.84701 501.86346 604.9574 591.40625 578.21875 L 593.4375 537.1875 L 516.75 535.6875 L 39.4375 533.15625 z "
       transform="translate(86.915669,58.592765)"
       id="path3362" />
    <path
       style="fill:url(#linearGradient3358);fill-opacity:1;stroke:none"
       d="m 96.974644,522.03209 c 0,0 -2.194814,5.67167 -1.984533,8.60912 1.154991,16.13431 0.663043,33.05401 2.439004,46.37162 0.208268,1.56176 3.053505,3.60811 3.053505,3.60811 149.29519,141.99046 458.82962,93.45317 592.06361,26.01887 0,0 2.55331,-0.57369 2.57076,-6.03689 l 0.15291,-47.87716 c 0.0107,-3.34665 0.42444,-6.74709 -1.93184,-12.95026 z"
       id="path3016"
       inkscape:connector-curvature="0"
       sodipodi:nodetypes="cssccsscc" />
    <path
       style="fill:#e6e6e6;fill-opacity:1;stroke:none"
       d="m 151.52288,507.64486 c 0,0 -24.91017,5.33229 -46.06205,8.852 -5.05328,0.84088 -8.486186,5.53523 -8.486186,5.53523 127.501176,161.97822 543.742606,84.92543 597.000156,19.19291 0,0 0.0757,-5.4232 -6.14713,-7.35997 l -57.49249,-17.89385 z"
       id="path3014"
       inkscape:connector-curvature="0"
       sodipodi:nodetypes="csccscc" />
    <path
       style="fill:#333333;fill-opacity:1;stroke:none"
       d="m 241.69448,557.31637 c 0,0 45.05469,-15.88851 56.92641,-18.72792 19.47056,-4.65686 46.36143,-10e-6 46.36143,-10e-6 l 18.47056,-36.35534 c -25.32385,-14.19868 -84.76435,-9.31049 -125.15789,4.94975 z"
       id="path3354"
       inkscape:connector-curvature="0"
       sodipodi:nodetypes="cscccc" />
    <path
       style="fill:url(#radialGradient3360);fill-opacity:1;stroke:none"
       d="m 377.25,208.78125 c -58.12362,0.29815 -122.17445,38.57979 -154.0625,80.625 -68.55868,90.39634 -72.375,218.25 -72.375,218.25 20.64473,19.92359 50.23837,34.35315 84.78125,44.28125 -0.0114,-24.71775 0.39889,-87.41846 5.0625,-94.3125 5.80838,-8.5863 33.86452,-41.91387 53.5625,-41.15625 19.69797,0.75761 70.6875,38.62738 70.6875,47.71875 0,8.10005 -1.60654,86.52366 -2,105.375 115.72081,3.07956 235.75013,-22.09154 267.4375,-53.59375 -3.20829,-27.34979 -3.86619,-103.73467 -60,-193.9375 -38.96732,-62.61758 -114.55712,-110.39114 -187.5,-113.15625 -1.86135,-0.0706 -3.71879,-0.10337 -5.59375,-0.0937 z"
       id="path3012"
       inkscape:connector-curvature="0" />
    <path
       style="fill:#4d4d4d;fill-opacity:1;stroke:none"
       d="m 576.72096,574.46891 c 0,0 3.89322,-7.40003 3.98528,-13.20279 0.061,-3.84732 -8.3033,-16.25305 -8.3033,-16.25305 3.72328,-5.08359 7.77463,-10.05782 6.01041,-16.97057 l -8.83884,-3.18198 -131.52186,22.27387 3.53553,10.6066 -9.54594,12.02081 -13.78858,0.35356 14.14214,16.26345 53.74807,8.53614 28.2279,10.28421 z"
       id="path3178"
       inkscape:connector-curvature="0"
       sodipodi:nodetypes="csccccccccccc" />
    <path
       style="fill:#241f1c;fill-opacity:1;stroke:none"
       d="m 469.16535,590.97501 7.07107,-1.76777 20.15254,-2.12132 14.49569,17.32412 2.12132,2.12132 60.81118,-37.83022 c 0,0 -9.89949,-19.79899 -18.73833,-22.27386 -8.83883,-2.47487 -72.89015,21.33712 -74.59976,22.98097 -9.19239,8.83883 -11.31371,21.56676 -11.31371,21.56676 z"
       id="path3144"
       inkscape:connector-curvature="0"
       sodipodi:nodetypes="ccccccssc" />
    <path
       style="fill:#dccfa3;fill-opacity:1;stroke:none"
       d="m 440.88108,552.79124 c 10.93844,12.02516 17.74916,24.87586 24.04163,37.83021 l -32.88047,-4.59619 -8.48528,-13.43503 4.5962,-8.48528 1.06066,3.18198 z"
       id="path3140"
       inkscape:connector-curvature="0"
       sodipodi:nodetypes="ccccccc" />
    <path
       style="fill:#241f1c;fill-opacity:1;stroke:none"
       d="m 440.88108,552.79124 c 10.38895,12.63502 17.7424,26.02892 24.39518,39.59798 l 55.50788,-27.57716 -40.30508,-29.69849 z"
       id="path3146"
       inkscape:connector-curvature="0"
       sodipodi:nodetypes="ccccc" />
    <path
       style="fill:#dccfa3;fill-opacity:1;stroke:none"
       d="m 471.28667,591.68211 19.79899,0.35356 -0.70711,2.47487 c 0,0 21.92031,11.66726 21.21321,9.8995 -0.70711,-1.76777 -0.78973,-30.45804 -20.15255,-33.23402 -18.75441,-2.68876 -20.15254,20.50609 -20.15254,20.50609 z"
       id="path3142"
       inkscape:connector-curvature="0"
       sodipodi:nodetypes="cccssc" />
    <path
       style="fill:#241f1c;fill-opacity:1;stroke:none"
       d="m 471.28667,548.90215 43.84062,-12.02081 -28.63782,-17.32412 -35.7089,7.07107 c -4.24264,1.06066 -12.02081,13.43503 -12.02081,13.43503 l 2.12132,0.53033 z"
       id="path3148"
       inkscape:connector-curvature="0"
       sodipodi:nodetypes="ccccccc" />
    <path
       style="fill:#483e37;fill-opacity:1;stroke:none"
       d="m 465.84375,523.65625 -15.0625,2.96875 C 446.53861,527.68566 438.75,540.0625 438.75,540.0625 l 2.125,0.53125 30.40625,8.3125 2.5625,-0.71875 -2.375,-4.0625 -5.625,-20.46875 z"
       id="path3168"
       inkscape:connector-curvature="0" />
    <path
       style="fill:#dccfa3;fill-opacity:1;stroke:none"
       d="m 478.00418,539.00266 -10.6066,15.2028 c 0,0 -3.53553,5.65685 1.41422,6.71751 4.94974,1.06066 14.84924,2.47487 16.61701,4.24264 1.76776,1.76777 9.54594,6.36396 9.54594,6.36396 l 12.37436,-11.84404 z"
       id="path3132"
       inkscape:connector-curvature="0"
       sodipodi:nodetypes="ccssccc" />
    <path
       sodipodi:nodetypes="cccccc"
       inkscape:connector-curvature="0"
       id="path3262"
       d="m 295.31013,426.02937 c -0.26387,1.31213 5.14006,2.8803 5.75979,1.63063 l 16.20784,-18.11641 c 1.85687,-2.42098 -3.33723,-7.78579 -5.19092,-8.07726 -5.75242,-0.89988 -12.3082,0.25498 -14.1832,1.1925 z"
       style="fill:#ac9393;fill-opacity:1;stroke:none" />
    <path
       sodipodi:nodetypes="ccscc"
       inkscape:connector-curvature="0"
       id="path3258"
       d="m 302.80953,430.79838 c -0.27669,-0.57392 -2.4493,-2.81083 -2.4493,-2.81083 l 14.1356,-21.88957 c 0.80203,-1.24198 2.99656,-0.71559 2.99656,-0.71559 z"
       style="fill:#a02c2c;fill-opacity:1;stroke:none" />
    <path
       style="fill:#501616;fill-opacity:1;stroke:none"
       d="m 236.83218,558.16019 c 0,0 3.08538,0.34663 4.81829,-0.64482 l 7.33938,-4.19905 c 1.38633,-0.79316 2.40084,-1.59386 2.43872,-3.00508 l 0.35714,-13.3062 c 0.0853,-3.17823 -2.32142,-3.57143 -2.32142,-3.57143 l -27.11746,-0.70055 -5.65641,2.12154 z"
       id="path3099"
       inkscape:connector-curvature="0"
       sodipodi:nodetypes="csssscccc" />
    <path
       style="fill:#a02c2c;fill-opacity:1;stroke:none"
       d="m 215.54599,535.30161 c 0.84717,-0.47175 1.71065,-0.77667 1.71065,-0.77667 l 21.48616,3.81006 -3.62979,2.51119 z"
       id="path3101"
       inkscape:connector-curvature="0"
       sodipodi:nodetypes="ccccc" />
    <path
       style="fill:#ac9393;fill-opacity:1;stroke:none"
       d="m 216.04638,532.13362 c 0,0 -0.30986,1.21867 0.0415,1.8309 0.25126,0.43785 0.96869,0.63135 0.96869,0.63135 l 22.03395,3.91434 c 0,0 1.13642,0 1.57836,-0.1894 0.44195,-0.18941 9.40705,-3.85121 9.84899,-4.54569 0.44194,-0.69448 -0.82075,-2.02031 -0.82075,-2.02031 z"
       id="path3105"
       inkscape:connector-curvature="0"
       sodipodi:nodetypes="cscccscc" />
    <path
       sodipodi:nodetypes="ccccc"
       inkscape:connector-curvature="0"
       id="path3107"
       d="m 216.88527,514.49804 c 0.84717,-0.47175 1.71065,-0.77667 1.71065,-0.77667 l 21.48616,3.81006 -3.62979,2.51119 z"
       style="fill:#a02c2c;fill-opacity:1;stroke:none" />
    <path
       sodipodi:nodetypes="cssssccc"
       inkscape:connector-curvature="0"
       id="path3103"
       d="m 239.10765,538.02177 c 0,0 2.00274,-0.33664 3.79282,-1.22069 l 6.32923,-3.12576 c 1.43207,-0.70725 2.40084,-1.59386 2.43872,-3.00508 l 0.35714,-13.3062 c 0.0853,-3.17823 -2.32142,-3.57143 -2.32142,-3.57143 l -11.93948,4.19888 z"
       style="fill:#501616;fill-opacity:1;stroke:none" />
    <path
       style="fill:#782121;fill-opacity:1;stroke:none"
       d="m 215.46733,516.46728 -0.30484,15.14857 c -0.0234,1.1639 0.90464,1.26485 2.02031,1.51523 l 21.61367,4.85053 c 0.81765,0.1835 1.52555,-1.2093 1.54586,-2.14658 l 0.32651,-15.06562 c 1e-5,-1.64151 -1.14774,-2.45594 -2.90418,-2.77792 l -20.02448,-3.67078 c -0.87823,-0.16099 -2.25489,1.2539 -2.27285,2.14657 z"
       id="path3065"
       inkscape:connector-curvature="0"
       sodipodi:nodetypes="ssssscsss" />
    <path
       sodipodi:nodetypes="ssssccsss"
       inkscape:connector-curvature="0"
       id="path3067"
       d="m 214.21733,537.18157 -0.30484,13.89857 c -0.0255,1.16386 0.91539,1.22103 2.02031,1.51523 l 20.89938,5.56482 c 1.65164,0.43978 1.90301,-2.14658 1.90301,-2.14658 l 0.68365,-14.52991 c 1e-5,-1.64151 -1.14774,-2.45594 -2.90418,-2.77792 L 216.49018,535.035 c -0.87823,-0.16099 -2.25327,1.25393 -2.27285,2.14657 z"
       style="fill:#782121;fill-opacity:1;stroke:none" />
    <path
       sodipodi:nodetypes="cscccscc"
       inkscape:connector-curvature="0"
       id="path3109"
       d="m 216.76066,511.41934 c 0,0 -0.0274,0.94674 0.48789,2.05411 0.24132,0.51862 1.32583,0.63135 1.32583,0.63135 l 21.23038,3.69113 c 0,0 1.13642,0 1.57836,-0.1894 0.44195,-0.18941 9.40705,-3.85121 9.84899,-4.54569 0.44194,-0.69448 -0.82075,-2.02031 -0.82075,-2.02031 z"
       style="fill:#ac9393;fill-opacity:1;stroke:none" />
    <path
       style="fill:#501616;fill-opacity:1;stroke:none"
       d="m 239.55407,517.17356 c 0,0 2.2706,-0.20271 4.06068,-1.08676 l 6.32923,-3.12576 c 1.43207,-0.70725 2.40084,-1.59386 2.43872,-3.00508 l 0.35714,-13.3062 c 0.0853,-3.17823 -2.32142,-3.57143 -2.32142,-3.57143 l -11.93948,4.19888 z"
       id="path3111"
       inkscape:connector-curvature="0"
       sodipodi:nodetypes="cssssccc" />
    <path
       style="fill:#a02c2c;fill-opacity:1;stroke:none"
       d="m 217.9567,493.64983 c 0.84717,-0.47175 1.71065,-0.77667 1.71065,-0.77667 l 21.48616,3.81006 -3.62979,2.51119 z"
       id="path3125"
       inkscape:connector-curvature="0"
       sodipodi:nodetypes="ccccc" />
    <path
       sodipodi:nodetypes="ssssscsss"
       inkscape:connector-curvature="0"
       id="path3113"
       d="m 216.18161,495.753 -0.30484,15.14857 c -0.0234,1.1639 0.90464,1.26485 2.02031,1.51523 l 21.61367,4.85053 c 0.81765,0.1835 1.52746,-1.29739 1.54586,-2.14658 l 0.32651,-15.06562 c 1e-5,-1.64151 -1.14774,-2.45594 -2.90418,-2.77792 l -20.02448,-3.67078 c -0.87823,-0.16099 -2.25489,1.2539 -2.27285,2.14657 z"
       style="fill:#782121;fill-opacity:1;stroke:none" />
    <path
       style="fill:#ac9393;fill-opacity:1;stroke:none"
       d="m 217.29638,490.52649 c 0,0 -0.0274,0.94674 0.48789,2.05411 0.24132,0.51862 1.32583,0.63135 1.32583,0.63135 l 21.23038,3.69113 c 0,0 1.13642,0 1.57836,-0.1894 0.44195,-0.18941 9.40705,-3.85121 9.84899,-4.54569 0.44194,-0.69448 -0.82075,-2.02031 -0.82075,-2.02031 z"
       id="path3127"
       inkscape:connector-curvature="0"
       sodipodi:nodetypes="cscccscc" />
    <path
       sodipodi:nodetypes="ccccc"
       inkscape:connector-curvature="0"
       id="path3133"
       d="m 218.31384,472.80162 c 0.84717,-0.47175 1.71065,-0.77667 1.71065,-0.77667 l 21.48616,3.81006 -3.62979,2.51119 z"
       style="fill:#a02c2c;fill-opacity:1;stroke:none" />
    <path
       sodipodi:nodetypes="cssssccc"
       inkscape:connector-curvature="0"
       id="path3129"
       d="m 240.26836,496.32535 c 0,0 2.09203,-0.24735 3.88211,-1.1314 l 6.32923,-3.12576 c 1.43207,-0.70725 2.40084,-1.59386 2.43872,-3.00508 l 0.35714,-13.3062 c 0.0853,-3.17823 -2.32142,-3.57143 -2.32142,-3.57143 l -11.93948,4.19888 z"
       style="fill:#501616;fill-opacity:1;stroke:none" />
    <path
       sodipodi:nodetypes="cscccscc"
       inkscape:connector-curvature="0"
       id="path3137"
       d="m 223.18924,463.8747 c 0,0 -2.4402,-2.53708 -3.9764,3.3934 -1.2008,4.63572 1.23655,5.18492 1.23655,5.18492 l 21.23038,3.69113 c 0,0 1.13642,0 1.57836,-0.1894 0.44195,-0.18941 9.40705,-3.85121 9.84899,-4.54569 0.44194,-0.69448 -0.82075,-2.02031 -0.82075,-2.02031 z"
       style="fill:#ac9393;fill-opacity:1;stroke:none" />
    <path
       style="fill:#a02c2c;fill-opacity:1;stroke:none"
       d="m 226.90552,444.25035 3.53553,-0.63135 20.45559,12.2481 -5.42957,1.89404 z"
       id="path3139"
       inkscape:connector-curvature="0" />
    <path
       style="fill:#501616;fill-opacity:1;stroke:none"
       d="m 242.58183,473.93934 c 0,0 0.95977,0.44299 2.88291,-0.0933 l 5.07484,-1.41515 c 1.5385,-0.42902 2.7501,-0.86106 3.18005,-2.20572 l 4.05392,-12.67865 c 0.96829,-3.02834 -1.23328,-4.07715 -1.23328,-4.07715 l -8.97607,1.77392 z"
       id="path3135"
       inkscape:connector-curvature="0"
       sodipodi:nodetypes="cssssccc" />
    <path
       style="fill:#782121;fill-opacity:1;stroke:none"
       d="m 216.71733,474.86015 -0.30484,15.14857 c -0.0234,1.1639 0.90464,1.26485 2.02031,1.51523 l 21.61367,4.85053 c 0.81765,0.1835 1.52834,-1.33825 1.54586,-2.14658 l 0.32651,-15.06562 c 1e-5,-1.64151 -1.14774,-2.45594 -2.90418,-2.77792 l -20.02448,-3.67078 c -0.87823,-0.16099 -2.25489,1.2539 -2.27285,2.14657 z"
       id="path3131"
       inkscape:connector-curvature="0"
       sodipodi:nodetypes="ssssscsss" />
    <path
       sodipodi:nodetypes="ssssscsss"
       inkscape:connector-curvature="0"
       id="path3073"
       d="m 224.36621,446.72686 -6.255,20.13867 c -0.3453,1.11175 0.50471,1.68063 1.61869,1.9384 l 22.85244,5.28794 c 0.81642,0.18892 1.80188,-0.97977 1.99719,-1.73456 l 3.77491,-14.58868 c 0.37669,-1.59771 -0.62191,-2.51453 -2.18923,-3.37022 l -18.55852,-10.13214 c -0.78367,-0.42785 -2.97565,1.60793 -3.24048,2.46059 z"
       style="fill:#782121;fill-opacity:1;stroke:none" />
    <path
       style="fill:#ac9393;fill-opacity:1;stroke:none"
       d="m 232.81517,439.60667 c 0,0 -2.389,-0.57358 -3.30459,1.69206 -0.854,2.11323 -5.5e-4,3.25583 -5.5e-4,3.25583 l 17.49858,10.23434 c 0,0 1.05668,0.41818 1.53731,0.40469 0.48064,-0.0135 7.89132,-0.87699 8.55781,-1.36011 0.66648,-0.48313 -0.0197,-2.18058 -0.0197,-2.18058 z"
       id="path3141"
       inkscape:connector-curvature="0"
       sodipodi:nodetypes="cscccscc" />
    <path
       sodipodi:nodetypes="cssssccc"
       inkscape:connector-curvature="0"
       id="path3143"
       d="m 248.71964,455.01099 c 0,0 0.16273,0.76954 2.33947,0.16694 l 5.57425,-1.54315 c 1.34825,-0.37324 1.77483,-0.35292 2.48405,-1.5075 l 6.26709,-10.20257 c 1.59727,-2.60029 1.19882,-4.00646 1.19882,-4.00646 l -8.74457,-0.191 z"
       style="fill:#501616;fill-opacity:1;stroke:none" />
    <path
       style="fill:#782121;fill-opacity:1;stroke:none"
       d="m 238.03449,424.31999 -9.43924,16.19064 c -0.58633,1.0057 0.0574,1.69274 1.01967,2.31037 l 18.98473,12.18563 c 0.70522,0.45265 2.39891,-1.11479 2.39891,-1.11479 l 7.66116,-12.97636 c 0.80373,-1.43128 0.2068,-2.70958 -1.17212,-3.84412 l -16.42033,-13.51021 c -0.68949,-0.56729 -2.58322,-0.0123 -3.03278,0.75884 z"
       id="path3075"
       inkscape:connector-curvature="0"
       sodipodi:nodetypes="ssssccsss" />
    <path
       sodipodi:nodetypes="cscsccc"
       inkscape:connector-curvature="0"
       id="path3156"
       d="m 249.24374,417.28524 c 0,0 -3.639,0.7657 -4.91173,2.13849 -1.54963,1.67144 -3.66127,3.97011 -3.66127,3.97011 l 16.69501,14.34149 c 2.02544,1.73991 5.16707,2.25005 8.57727,0.38386 0.66648,-0.48313 3.01601,-5.48415 3.01601,-5.48415 z"
       style="fill:#ac9393;fill-opacity:1;stroke:none" />
    <path
       style="fill:#501616;fill-opacity:1;stroke:none"
       d="m 259.15486,438.10904 c 0,0 0.48214,1.42639 2.44158,1.04357 l 4.27023,-0.83428 c 1.56755,-0.30626 2.97758,-1.20128 3.97087,-2.08493 l 8.56961,-7.62371 c 1.40311,-1.24823 1.02125,-2.37081 1.02125,-2.37081 l -12.8445,-19.50438 -5.32925,-1.63901 z"
       id="path3154"
       inkscape:connector-curvature="0"
       sodipodi:nodetypes="csssscccc" />
    <path
       sodipodi:nodetypes="ssssccsss"
       inkscape:connector-curvature="0"
       id="path3077"
       d="m 259.52711,405.48418 -16.4307,13.8145 c -0.89104,0.74916 -0.59835,1.69639 0.19717,2.51767 l 16.2088,16.73357 c 0.58304,0.60192 2.63271,-0.25761 2.63271,-0.25761 l 11.52559,-9.70774 c 1.2323,-1.08442 1.08008,-2.48093 0.16681,-4.01538 l -11.18742,-18.79687 c -0.45665,-0.76726 -2.42958,-0.86271 -3.11296,-0.28814 z"
       style="fill:#782121;fill-opacity:1;stroke:none" />
    <path
       style="fill:#ac9393;fill-opacity:1;stroke:none"
       d="m 280.52945,402.10667 c 0,0 -4.03989,-2.8604 -8.53673,-1.07543 -1.99557,0.79196 -8.58567,4.34582 -6.94698,7.09511 l 10.62358,17.82364 c 1.36709,2.29363 3.47064,0.19648 6.88084,-1.66971 -6.93572,-4.12766 1.9068,-15.09326 -2.02071,-22.17361 z"
       id="path3158"
       inkscape:connector-curvature="0"
       sodipodi:nodetypes="cssscc" />
    <path
       sodipodi:nodetypes="csssssccc"
       inkscape:connector-curvature="0"
       id="path3160"
       d="m 360.90361,576.66019 c 0,0 0.90505,0.46477 2.48793,-0.75196 l 2.88403,-2.21691 c 0.51661,-0.39711 0.73629,-1.59324 0.74229,-2.38008 l 0.125,-16.38656 c 0.0161,-2.10788 -1.0797,-2.93125 -2.62499,-2.99106 l -29.58175,1.11194 -1.72784,2.13047 z"
       style="fill:#501616;fill-opacity:1;stroke:none" />
    <path
       sodipodi:nodetypes="ccccc"
       inkscape:connector-curvature="0"
       id="path3162"
       d="m 333.50136,554.62303 c 0.34717,-0.53425 1.27315,-1.15167 1.27315,-1.15167 l 26.9683,0.68506 -1.30836,1.88619 z"
       style="fill:#a02c2c;fill-opacity:1;stroke:none" />
    <path
       style="fill:#782121;fill-opacity:1;stroke:none"
       d="m 363.00635,557.09303 -0.23088,18.20136 c -0.0148,1.16548 -0.89218,1.44824 -2.02031,1.40208 l -26.14938,-1.06998 c -1.68634,-0.069 -1.90301,-2.25317 -1.90301,-2.25317 l 0.1556,-16.85391 c -10e-6,-1.64151 1.1347,-2.67874 2.90418,-2.61526 l 25.50662,0.91502 c 1.23038,0.0441 1.75427,0.92593 1.73718,2.27386 z"
       id="path3172"
       inkscape:connector-curvature="0"
       sodipodi:nodetypes="ssssccsss" />
    <path
       sodipodi:nodetypes="sscccscs"
       inkscape:connector-curvature="0"
       id="path3164"
       d="m 336.11781,551.42827 c -0.74423,0.0384 -2.10702,0.39884 -2.021,0.9559 0.16595,1.07467 0.90619,1.19385 0.90619,1.19385 l 25.59645,0.60184 c 0,0 1.57392,-0.1875 2.01586,-0.3769 0.44195,-0.18941 3.40735,-1.53503 3.41149,-2.35819 0.004,-0.88198 -1.94575,-1.45781 -1.94575,-1.45781 z"
       style="fill:#ac9393;fill-opacity:1;stroke:none" />
    <path
       style="fill:#501616;fill-opacity:1;stroke:none"
       d="m 360.90361,552.91019 c 0,0 0.90505,0.46477 2.48793,-0.75196 l 2.88403,-2.21691 c 0.51661,-0.39711 0.73629,-1.59324 0.74229,-2.38008 l 0.125,-16.38656 c 0.0161,-2.10788 -1.0797,-2.93125 -2.62499,-2.99106 l -29.58175,1.11194 -1.72784,2.13047 z"
       id="path3204"
       inkscape:connector-curvature="0"
       sodipodi:nodetypes="csssssccc" />
    <path
       style="fill:#a02c2c;fill-opacity:1;stroke:none"
       d="m 333.50136,530.87303 c 0.34717,-0.53425 1.27315,-1.15167 1.27315,-1.15167 l 26.9683,0.68506 -1.30836,1.88619 z"
       id="path3206"
       inkscape:connector-curvature="0"
       sodipodi:nodetypes="ccccc" />
    <path
       sodipodi:nodetypes="ssssccsss"
       inkscape:connector-curvature="0"
       id="path3208"
       d="m 363.00635,533.34303 -0.23088,18.20136 c -0.0148,1.16548 -0.89218,1.44824 -2.02031,1.40208 l -26.14938,-1.06998 c -1.68634,-0.069 -1.90301,-2.25317 -1.90301,-2.25317 l 0.1556,-16.85391 c -10e-6,-1.64151 1.1347,-2.67874 2.90418,-2.61526 l 25.50662,0.91502 c 1.23038,0.0441 1.75427,0.92593 1.73718,2.27386 z"
       style="fill:#782121;fill-opacity:1;stroke:none" />
    <path
       style="fill:#ac9393;fill-opacity:1;stroke:none"
       d="m 336.11781,527.67827 c -0.74423,0.0384 -2.10702,0.39884 -2.021,0.9559 0.16595,1.07467 0.90619,1.19385 0.90619,1.19385 l 25.59645,0.60184 c 0,0 1.57392,-0.1875 2.01586,-0.3769 0.44195,-0.18941 3.40735,-1.53503 3.41149,-2.35819 0.004,-0.88198 -1.94575,-1.45781 -1.94575,-1.45781 z"
       id="path3210"
       inkscape:connector-curvature="0"
       sodipodi:nodetypes="sscccscs" />
    <path
       sodipodi:nodetypes="csssssccc"
       inkscape:connector-curvature="0"
       id="path3212"
       d="m 361.15361,529.66019 c 0,0 0.90505,0.46477 2.48793,-0.75196 l 2.88403,-2.21691 c 0.51661,-0.39711 0.73629,-1.59324 0.74229,-2.38008 l 0.125,-16.38656 c 0.0161,-2.10788 -1.0797,-2.93125 -2.62499,-2.99106 l -29.58175,1.11194 -1.72784,2.13047 z"
       style="fill:#501616;fill-opacity:1;stroke:none" />
    <path
       sodipodi:nodetypes="ccccc"
       inkscape:connector-curvature="0"
       id="path3214"
       d="m 333.75136,507.62303 c 0.34717,-0.53425 1.27315,-1.15167 1.27315,-1.15167 l 26.9683,0.68506 -1.30836,1.88619 z"
       style="fill:#a02c2c;fill-opacity:1;stroke:none" />
    <path
       style="fill:#782121;fill-opacity:1;stroke:none"
       d="m 363.25635,510.09303 -0.23088,18.20136 c -0.0148,1.16548 -0.89218,1.44824 -2.02031,1.40208 l -26.14938,-1.06998 c -1.68634,-0.069 -1.90301,-2.25317 -1.90301,-2.25317 l 0.1556,-16.85391 c -10e-6,-1.64151 1.1347,-2.67874 2.90418,-2.61526 l 25.50662,0.91502 c 1.23038,0.0441 1.75427,0.92593 1.73718,2.27386 z"
       id="path3216"
       inkscape:connector-curvature="0"
       sodipodi:nodetypes="ssssccsss" />
    <path
       sodipodi:nodetypes="sscccscs"
       inkscape:connector-curvature="0"
       id="path3218"
       d="m 336.36781,504.42827 c -0.74423,0.0384 -2.10702,0.39884 -2.021,0.9559 0.16595,1.07467 0.90619,1.19385 0.90619,1.19385 l 25.59645,0.60184 c 0,0 1.57392,-0.1875 2.01586,-0.3769 0.44195,-0.18941 3.40735,-1.53503 3.41149,-2.35819 0.004,-0.88198 -1.94575,-1.45781 -1.94575,-1.45781 z"
       style="fill:#ac9393;fill-opacity:1;stroke:none" />
    <path
       style="fill:#501616;fill-opacity:1;stroke:none"
       d="m 361.40361,506.16019 c 0,0 0.90505,0.46477 2.48793,-0.75196 l 2.88403,-2.21691 c 0.51661,-0.39711 0.73629,-1.59324 0.74229,-2.38008 l 0.125,-16.38656 c 0.0161,-2.10788 -1.0797,-2.93125 -2.62499,-2.99106 l -29.58175,1.11194 -1.72784,2.13047 z"
       id="path3220"
       inkscape:connector-curvature="0"
       sodipodi:nodetypes="csssssccc" />
    <path
       style="fill:#a02c2c;fill-opacity:1;stroke:none"
       d="m 334.00136,484.12303 c 0.34717,-0.53425 1.27315,-1.15167 1.27315,-1.15167 l 26.9683,0.68506 -1.30836,1.88619 z"
       id="path3222"
       inkscape:connector-curvature="0"
       sodipodi:nodetypes="ccccc" />
    <path
       sodipodi:nodetypes="ssssccsss"
       inkscape:connector-curvature="0"
       id="path3224"
       d="m 363.50635,486.59303 -0.23088,18.20136 c -0.0148,1.16548 -0.89218,1.44824 -2.02031,1.40208 l -26.14938,-1.06998 c -1.68634,-0.069 -1.90301,-2.25317 -1.90301,-2.25317 l 0.1556,-16.85391 c -10e-6,-1.64151 1.1347,-2.67874 2.90418,-2.61526 l 25.50662,0.91502 c 1.23038,0.0441 1.75427,0.92593 1.73718,2.27386 z"
       style="fill:#782121;fill-opacity:1;stroke:none" />
    <path
       style="fill:#ac9393;fill-opacity:1;stroke:none"
       d="m 336.61781,480.92827 c -0.70637,0.23749 -2.10702,0.39884 -2.021,0.9559 0.16595,1.07467 0.90619,1.19385 0.90619,1.19385 l 26.47145,0.72684 c 0,0 2.19892,-1.25 2.64086,-1.4394 0.44195,-0.18941 2.19521,-1.73748 1.78649,-5.29569 -0.56054,-4.87991 -2.44575,-5.33281 -2.44575,-5.33281 z"
       id="path3226"
       inkscape:connector-curvature="0"
       sodipodi:nodetypes="sscccscs" />
    <path
       sodipodi:nodetypes="csssssccc"
       inkscape:connector-curvature="0"
       id="path3228"
       d="m 362.52513,480.96244 c 0,0 0.76213,0.0399 2.26564,-1.27362 l 2.33461,-2.03961 c 0.49071,-0.42871 0.35428,-1.71118 0.20846,-2.48442 l -3.68173,-19.52367 c -0.39063,-2.07143 -1.204,-2.82184 -2.71118,-2.4756 l -29.38658,6.75087 -1.22468,2.45448 z"
       style="fill:#501616;fill-opacity:1;stroke:none" />
    <path
       sodipodi:nodetypes="ccccc"
       inkscape:connector-curvature="0"
       id="path3230"
       d="m 330.49584,461.76747 c 0.22305,-0.59682 0.99309,-1.40036 0.99309,-1.40036 l 26.47504,-5.17986 -0.86816,2.12504 z"
       style="fill:#a02c2c;fill-opacity:1;stroke:none" />
    <path
       style="fill:#782121;fill-opacity:1;stroke:none"
       d="m 359.8343,457.77994 3.84694,21.56825 c 0.20466,1.14746 -0.53972,1.76865 -1.66816,1.80686 l -25.88408,0.8765 c -1.68678,0.0571 -2.34637,-1.78684 -2.34637,-1.78684 l -3.5032,-16.48654 c -0.35601,-1.60244 0.52675,-2.86107 2.26789,-3.18285 l 25.09801,-4.63838 c 1.21066,-0.22378 1.95227,0.51591 2.18897,1.843 z"
       id="path3232"
       inkscape:connector-curvature="0"
       sodipodi:nodetypes="ssssccsss" />
    <path
       sodipodi:nodetypes="sscccscs"
       inkscape:connector-curvature="0"
       id="path3234"
       d="m 332.35718,458.08132 c -0.6076,0.43148 -1.97038,0.8463 -1.7656,1.37144 0.39507,1.01311 1.14354,0.96891 1.14354,0.96891 l 25.99278,-4.96358 c 0,0 3.0583,-1.89937 3.44865,-2.18011 0.39035,-0.28075 0.6583,-3.07308 -0.11862,-4.79191 -3.31942,-7.34374 -7.0906,-5.75114 -7.0906,-5.75114 z"
       style="fill:#ac9393;fill-opacity:1;stroke:none" />
    <path
       style="fill:#501616;fill-opacity:1;stroke:none"
       d="m 356.97014,452.5889 c 0,0 1.21976,0.38375 3.01864,-1.54675 l 1.81782,-1.95082 c 0.44422,-0.47672 -0.36339,-2.05801 -0.79462,-2.71619 l -13.73522,-20.96358 c -0.9061,-1.38295 -2.69706,-2.47775 -3.96492,-1.59229 l -24.50264,17.1123 3.4228,1.99196 z"
       id="path3236"
       inkscape:connector-curvature="0"
       sodipodi:nodetypes="csssssccc" />
    <path
       style="fill:#a02c2c;fill-opacity:1;stroke:none"
       d="m 320.37861,442.93126 c -0.049,-0.63525 -0.81395,-2.18833 -0.81395,-2.18833 l 21.20698,-15.22189 0.10742,2.29303 z"
       id="path3238"
       inkscape:connector-curvature="0"
       sodipodi:nodetypes="ccccc" />
    <path
       sodipodi:nodetypes="ssssccsss"
       inkscape:connector-curvature="0"
       id="path3240"
       d="m 343.55984,427.08505 14.37914,23.21908 c 0.61367,0.99094 0.34121,2.05964 -0.75217,2.34131 l -24.91561,6.41848 c -1.6344,0.42104 -2.88063,-0.63262 -2.88063,-0.63262 l -8.61996,-13.97832 c -0.99769,-1.30351 -0.7071,-2.78933 0.71671,-3.8419 l 19.311,-14.27588 c 0.99001,-0.73188 2.05178,-0.39622 2.76152,0.74985 z"
       style="fill:#782121;fill-opacity:1;stroke:none" />
    <path
       style="fill:#ac9393;fill-opacity:1;stroke:none"
       d="m 318.76463,438.92906 c -0.42642,0.61117 -1.43078,1.59734 -1.02391,1.98741 0.78496,0.75254 1.44522,0.39727 1.44522,0.39727 l 21.31699,-15.01667 c 0,0 2.36313,-1.85961 2.74673,-2.1495 0.58807,-0.4444 0.76823,-1.47693 -1.53669,-3.57109 -3.6989,-3.36067 -6.68116,-3.9126 -7.80616,-3.3501 z"
       id="path3242"
       inkscape:connector-curvature="0"
       sodipodi:nodetypes="ssccsscs" />
    <path
       sodipodi:nodetypes="cssssscc"
       inkscape:connector-curvature="0"
       id="path3256"
       d="m 316.79911,439.67976 c 0,0 0.85554,1.41554 2.93184,-0.2129 l 22.04629,-17.29087 c 0.51273,-0.40213 0.10466,-3.25088 -1.2281,-4.05365 l -21.3714,-12.87271 c -0.70284,-0.42334 -3.01234,-0.48583 -3.80965,0.83923 l -13.78811,22.91466 c 6.18429,4.0644 11.50862,4.0807 15.21913,10.67624 z"
       style="fill:#501616;fill-opacity:1;stroke:none" />
    <path
       style="fill:#782121;fill-opacity:1;stroke:none"
       d="m 317.5994,406.22828 19.81706,13.01272 c 0.9743,0.63976 2.14356,3.60704 1.2759,4.32953 l -18.97745,15.80225 c -1.29697,1.07997 -2.91343,0.45842 -2.91343,0.45842 l -14.20406,-9.1245 c -1.40346,-0.85137 -1.67756,-2.34388 -0.72971,-3.83945 l 12.88658,-20.33308 c 0.65906,-1.0399 1.71829,-1.04581 2.84511,-0.30589 z"
       id="path3260"
       inkscape:connector-curvature="0"
       sodipodi:nodetypes="ssssccsss" />
    <path
       sodipodi:nodetypes="ssssccsss"
       inkscape:connector-curvature="0"
       id="path3268"
       d="m 270.64268,399.11572 35.92878,0.18519 c 4.04111,0.0208 5.23911,2.50534 4.57283,3.69806 l -13.45627,24.08837 c -0.82309,1.47343 -2.32514,1.81437 -2.32514,1.81437 l -16.33055,-0.70345 c -1.64027,-0.0635 -1.83387,-1.36304 -2.5009,-3.00324 l -9.47815,-23.30645 c -0.46379,-1.14046 2.24137,-2.7798 3.5894,-2.77285 z"
       style="fill:#782121;fill-opacity:1;stroke:none" />
    <path
       style="fill:#c1b37c;fill-opacity:1;stroke:none"
       d="M 505.2278,559.50876 558.96791,537.942 534.57273,527.3354 478.00418,539.00266 z"
       id="path3134"
       inkscape:connector-curvature="0" />
    <path
       style="fill:#483e37;fill-opacity:1;stroke:none"
       d="m 509.5,525.36218 58.75,-6 4,-2.25 c 0,0 1,1.25 0.25,3.25 -0.75,2 -9.5,9.75 -11.5,10.5 -2,0.75 -46.00758,6.12652 -67.25,10 -7.89112,1.43892 -14.32468,-5.75544 -18.5,-11.75 -4.53073,-6.50483 -5,-23.25 -5,-23.25 l 75,0.75 0.5,1.75 -74,-0.25 z"
       id="path3114"
       inkscape:connector-curvature="0"
       sodipodi:nodetypes="cccsssaccccc" />
    <path
       style="fill:#483e37;fill-opacity:1;stroke:none"
       d="m 505.58135,558.80165 -10.96016,12.37437 0.70711,2.12132 61.51829,-22.62742 7.07107,-12.72792 -3.53554,-1.41421 z"
       id="path3136"
       inkscape:connector-curvature="0"
       sodipodi:nodetypes="ccccccc" />
    <path
       style="fill:#dccfa3;fill-opacity:1;stroke:none"
       d="m 471.5,507.11218 23.25,12.75 15.75,5.25 c 0,0 -11.7935,17.81788 -24,12.25 -14.25,-6.5 -15,-30.25 -15,-30.25 z"
       id="path3112"
       inkscape:connector-curvature="0"
       sodipodi:nodetypes="cccsc" />
    <path
       style="fill:#c1b37c;fill-opacity:1;stroke:none"
       d="m 471.75,507.36218 73.75,0.75 22.86612,11.45711 -59.11612,6.04289 -15.42721,-5.64957 z"
       id="path3116"
       inkscape:connector-curvature="0"
       sodipodi:nodetypes="cccccc" />
    <path
       style="fill:#dccfa3;fill-opacity:1;stroke:none"
       d="m 450.42702,556.68033 21.92031,-9.19239 c -9.55703,-15.63682 -19.1455,-30.8334 -31.46625,-7.77817 z"
       id="path3138"
       inkscape:connector-curvature="0"
       sodipodi:nodetypes="cccc" />
    <path
       style="fill:#241f1c;fill-opacity:1;stroke:none"
       d="m 568.6875,524.71875 -60.28125,7.375 c -2.46074,4.43599 -8.46962,6.6544 -14.625,8.78125 21.25275,-3.87311 65.2196,-9.25032 67.21875,-10 1.19955,-0.44983 4.81402,-3.42111 7.6875,-6.15625 z"
       id="path3150"
       inkscape:connector-curvature="0"
       sodipodi:nodetypes="cccsc" />
    <path
       style="fill:#483e37;fill-opacity:1;stroke:none"
       d="M 564.21875,553.75 509.125,582.125 c 3.75759,8.0203 3.90765,16.0422 4.4375,24.0625 l 60.25,-37.5 c 0,0 -4.21191,-8.39248 -9.59375,-14.9375 z"
       id="path3157"
       inkscape:connector-curvature="0" />
    <path
       style="fill:#241f1c;fill-opacity:1;stroke:none"
       d="m 563.59375,537.8125 -57.125,22.40625 -10.9375,13.03125 61.3125,-22.59375 7.0625,-12.71875 -0.3125,-0.125 z"
       id="path3163"
       inkscape:connector-curvature="0" />
    <path
       style="fill:#483e37;fill-opacity:1;stroke:none"
       d="m 442.15625,552.21875 -1.28125,0.5625 c 10.38895,12.63502 17.75347,26.02469 24.40625,39.59375 l 1.28125,-0.625 -3.0625,-6.96875 4.96875,-10.4375 -4.4375,-8.28125 -9.88848,1.75428 z"
       id="path3173"
       inkscape:connector-curvature="0"
       sodipodi:nodetypes="ccccccccc" />
  </g>
</svg>
