<?xml version="1.0" encoding="UTF-8" standalone="no"?>
<!-- Created with Inkscape (http://www.inkscape.org/) -->
<svg
   xmlns:dc="http://purl.org/dc/elements/1.1/"
   xmlns:cc="http://web.resource.org/cc/"
   xmlns:rdf="http://www.w3.org/1999/02/22-rdf-syntax-ns#"
   xmlns:svg="http://www.w3.org/2000/svg"
   xmlns="http://www.w3.org/2000/svg"
   xmlns:sodipodi="http://sodipodi.sourceforge.net/DTD/sodipodi-0.dtd"
   xmlns:inkscape="http://www.inkscape.org/namespaces/inkscape"
   width="305"
   height="990"
   id="svg2"
   sodipodi:version="0.32"
   inkscape:version="0.45.1"
   version="1.0"
   sodipodi:docbase="C:\Documents and Settings\Owner\Desktop"
   sodipodi:docname="Wood_screw.svg"
   inkscape:output_extension="org.inkscape.output.svg.inkscape">
  <defs
     id="defs4" />
  <sodipodi:namedview
     id="base"
     pagecolor="#ffffff"
     bordercolor="#666666"
     borderopacity="1.0"
     gridtolerance="10000"
     guidetolerance="10"
     objecttolerance="10"
     inkscape:pageopacity="0.0"
     inkscape:pageshadow="2"
     inkscape:zoom="0.43660388"
     inkscape:cx="29.042051"
     inkscape:cy="590.61331"
     inkscape:document-units="px"
     inkscape:current-layer="layer1"
     width="305px"
     height="990px"
     inkscape:window-width="744"
     inkscape:window-height="576"
     inkscape:window-x="99"
     inkscape:window-y="81" />
  <metadata
     id="metadata7">
    <rdf:RDF>
      <cc:Work
         rdf:about="">
        <dc:format>image/svg+xml</dc:format>
        <dc:type
           rdf:resource="http://purl.org/dc/dcmitype/StillImage" />
      </cc:Work>
    </rdf:RDF>
  </metadata>
  <g
     inkscape:label="Layer 1"
     inkscape:groupmode="layer"
     id="layer1"
     transform="translate(-19.489677,-19.506799)">
    <path
       style="fill:#0000ff;fill-opacity:1"
       d="M 145.63689,979.67821 C 142.22871,979.67821 136.52705,976.57731 132.96662,972.78731 C 126.63499,966.04771 126.60373,965.66411 131.54183,955.30892 C 134.31863,949.48577 138.46003,944.7214 140.74488,944.7214 C 143.93757,944.7214 144.46396,942.19295 143.01886,933.79741 C 138.99914,910.44518 137.84056,906.85157 134.33135,906.85157 C 129.9768,906.85157 118.03323,894.66492 118.03323,890.22175 C 118.03323,888.49176 121.96581,882.86636 126.77243,877.72093 C 131.57893,872.57549 135.49716,865.55476 135.47954,862.11926 C 135.41281,849.12895 131.71262,834.02148 128.57603,833.93291 C 125.04886,833.83332 109.29404,820.83525 109.29404,818.02488 C 109.29404,814.02136 122.36421,799.06821 125.86363,799.06821 C 128.62538,799.06821 129.68549,793.81598 129.68549,780.13328 C 129.68549,766.63118 128.60904,761.19837 125.93409,761.19837 C 123.87079,761.19837 117.75686,757.5035 112.34745,752.98752 L 102.51221,744.77671 L 109.18391,735.75273 C 112.8533,730.78958 118.48075,726.04229 121.6892,725.20328 C 126.88302,723.84506 127.37149,721.85387 126.14361,707.04694 C 125.0443,693.79054 123.34278,689.36402 117.75744,685.23091 C 97.23976,670.04775 97.98605,672.77418 110.8376,659.94805 C 121.88858,648.91887 122.36421,647.6839 121.53497,632.17048 C 120.68917,616.34712 120.33813,615.74239 107.69786,608.33473 C 100.56488,604.15448 94.728715,599.63116 94.728715,598.28298 C 94.728715,596.93475 99.972231,591.09447 106.38097,585.30454 C 116.21995,576.41557 118.03323,572.9926 118.03323,563.30725 C 118.03323,547.112 113.93476,538.24239 103.64162,532.1621 C 98.739457,529.26634 94.735363,526.19658 94.743413,525.34038 C 94.75158,524.48419 99.117794,519.21641 104.44601,513.63422 C 113.3672,504.28799 114.02389,502.32852 112.74445,488.87318 C 111.69892,477.87677 108.93787,471.30435 101.58533,462.3093 L 91.815648,450.35703 L 91.815648,296.99293 L 91.815648,143.62882 L 57.943009,143.62882 L 24.070488,143.62882 L 25.963338,131.24829 C 29.227909,109.8949 43.786002,84.397289 62.724074,66.863979 C 80.152654,50.728116 113.80562,32.059499 131.87023,28.505815 L 141.33775,26.643365 L 141.33775,56.005454 L 141.33775,85.367549 L 173.38136,85.367549 L 205.42507,85.367549 L 205.42507,55.872785 L 205.42507,26.378016 L 214.8926,28.248373 C 235.08713,32.237923 266.93017,50.244105 285.74995,68.315859 C 306.11341,87.869829 317.22541,107.5013 320.54714,129.79177 L 322.60915,143.62882 L 288.77817,143.62882 L 254.94718,143.62882 L 254.87263,288.55375 L 254.79809,433.47867 L 244.6769,449.36554 C 231.07334,470.71862 230.58127,486.6795 243.29492,494.18965 C 248.10153,497.02894 252.03411,500.33259 252.03411,501.53113 C 252.03411,502.72961 247.44601,508.71922 241.83838,514.84138 C 232.59264,524.93534 231.64267,527.57613 231.64267,543.18298 C 231.64267,559.76423 232.0154,560.61339 241.83838,566.40907 C 247.44601,569.71766 252.03411,573.03814 252.03411,573.78786 C 252.03411,577.45867 236.30287,595.15373 233.03946,595.15373 C 230.62548,595.15373 228.56008,601.54347 227.20785,613.1947 C 225.01308,632.10484 226.67994,635.43549 242.87423,644.49827 C 246.68992,646.63363 246.14791,648.57429 239.18688,657.70065 C 234.69852,663.58513 229.19869,669.10104 226.96496,669.95822 C 224.12387,671.04844 222.90347,676.70458 222.90347,688.78166 C 222.90347,705.42519 223.27048,706.26317 233.09919,712.06226 C 238.70681,715.37087 243.29492,719.46327 243.29492,721.1565 C 243.29492,726.4165 228.66042,743.71999 224.21183,743.71999 C 221.50421,743.71999 219.9904,746.72333 219.9904,752.09504 C 219.9904,756.70133 219.19231,764.46097 218.21666,769.33873 C 216.65128,777.16598 217.67313,779.00453 226.9198,784.99644 C 232.68213,788.73044 237.41291,792.78707 237.43274,794.01119 C 237.51149,798.86982 224.0541,816.32479 219.26219,817.57944 C 215.11926,818.66417 214.16426,822.19994 214.16426,836.45388 C 214.16426,851.95364 215.06128,854.69907 221.87637,860.05989 L 229.58846,866.12623 L 224.34704,877.74971 C 221.46419,884.14264 217.47842,889.37318 215.48967,889.37318 C 213.34086,889.37318 210.58109,896.71163 208.68778,907.46043 C 205.61266,924.91807 205.75908,925.81632 212.89579,933.26533 C 220.24472,940.93598 220.25861,941.04821 215.18763,951.68217 C 212.27923,957.7813 207.31361,963.07707 203.63815,963.99961 C 199.78794,964.96591 198.36232,969.75601 195.24638,973.37631 L 169.93455,1002.784 L 169.21848,999.13599 L 198.25347,963.93931 L 146.79522,977.31801 L 171.89845,999.97239 L 169.74521,1002.9576 L 145.63689,979.67821 z M 205.7999,959.28931 C 206.80717,959.28788 209.27413,955.32064 211.282,950.47319 C 214.39945,942.94713 214.22563,940.87829 210.09205,936.3108 C 205.40792,931.13486 204.33603,931.22109 176.93595,938.97832 C 140.19505,949.37993 139.8089,949.56197 135.79651,958.36816 C 133.00128,964.50291 133.21664,966.79371 136.97947,970.95161 C 141.34148,975.77151 143.19538,975.60121 172.77412,967.66341 C 189.93111,963.05904 204.79263,959.29072 205.7999,959.28931 z M 165.37269,937.23546 L 178.79344,932.66259 L 178.2722,916.84891 C 177.69729,899.40426 177.39595,899.22226 155.17475,902.89519 C 143.22687,904.87004 142.29613,907.74713 146.12046,930.88435 C 148.19576,943.43954 147.67195,943.26673 165.37269,937.23546 z M 204.02816,906.08564 C 205.82768,894.0229 205.48329,892.44676 201.39193,894.01679 C 197.8126,895.39029 196.70711,899.75812 196.77454,912.26111 C 196.87673,931.22983 200.77198,927.91355 204.02816,906.08564 z M 178.23662,893.14088 C 214.95827,885.55237 216.77237,884.83679 220.82325,876.34199 C 224.78594,868.03228 224.63999,867.15658 218.52266,862.54232 C 212.31773,857.8619 209.99369,858.08196 172.07649,866.93988 C 135.99332,875.36939 131.69373,877.05176 127.28247,884.46732 C 122.64338,892.2658 122.68153,892.87617 128.05747,896.84784 C 135.35728,902.24092 133.55729,902.37386 178.23662,893.14088 z M 168.65243,863.11089 C 181.27229,859.93112 192.09346,857.32948 192.69951,857.32948 C 193.30558,857.32948 193.62406,849.48212 193.40731,839.89095 C 193.0425,823.75387 192.55229,822.54808 186.83862,823.73435 C 183.44258,824.43938 171.16021,826.59773 159.54435,828.53062 L 138.42469,832.045 L 138.42469,850.51335 C 138.42469,863.36988 139.53112,868.96814 142.06597,868.93703 C 144.0687,868.91241 156.03258,866.29064 168.65243,863.11089 z M 173.5945,821.10562 C 193.5046,817.20435 212.83792,813.59944 216.55737,813.09468 C 220.2768,812.58995 225.49162,808.57972 228.1457,804.1831 C 232.74196,796.56937 232.67851,795.89626 226.81119,790.02891 L 220.65083,783.86862 L 172.9833,793.16328 C 131.26907,801.29714 124.64427,803.36145 119.93857,809.69242 C 114.81183,816.58988 114.79888,817.18938 119.66184,822.56286 C 126.17861,829.76383 129.92384,829.66263 173.5945,821.10562 z M 160.68928,791.45603 C 192.71537,784.88082 193.7728,784.10211 193.7728,767.0939 C 193.7728,759.23392 192.7897,752.19765 191.58807,751.45769 C 188.55461,749.5898 137.56803,757.97669 134.73512,760.80957 C 132.76598,762.77874 134.959,796.15514 137.05764,796.15514 C 137.46665,796.15514 148.10091,794.04055 160.68928,791.45603 z M 214.16426,762.48298 C 214.16426,753.57639 213.0282,746.99136 211.63969,747.84955 C 210.25106,748.70771 209.11499,755.99491 209.11499,764.0433 C 209.11499,772.09172 210.25106,778.67676 211.63969,778.67676 C 213.0282,778.67676 214.16426,771.38955 214.16426,762.48298 z M 170.68143,748.35963 C 190.59154,744.5027 211.66989,740.53459 217.52228,739.5416 C 224.26375,738.39776 229.86787,735.13399 232.81581,730.63485 C 238.7711,721.54598 238.74764,721.38769 230.65639,716.08608 C 224.42964,712.00621 219.3582,712.39613 171.67727,720.62086 C 142.98561,725.57 119.49198,729.84247 119.46911,730.11524 C 119.44624,730.38803 116.94442,733.56068 113.90932,737.16559 C 108.57995,743.49554 108.57155,743.9195 113.66363,749.54613 C 120.41618,757.00772 126.71538,756.87664 170.68143,748.35963 z M 169.27798,716.40109 C 179.03739,714.30574 188.40563,711.7365 190.09619,710.69166 C 191.78675,709.64684 193.25774,701.43876 193.36518,692.45149 L 193.56037,676.11102 L 184.19912,677.70417 C 179.05046,678.58039 164.67867,680.86347 152.2617,682.77768 L 129.68549,686.25805 L 129.68549,703.33676 L 129.68549,720.41547 L 140.60942,720.31314 C 146.61767,720.25686 159.51845,718.49644 169.27798,716.40109 z M 217.07732,698.61996 C 217.07732,694.9862 217.89665,687.91661 218.89808,682.90979 C 220.44212,675.18949 219.85064,673.80646 215.00529,673.80646 C 210.18619,673.80646 209.33117,675.74446 209.54326,686.18698 C 209.68151,692.99627 211.1056,699.53058 212.70773,700.70769 C 214.51181,702.03312 214.23462,702.86486 211.97953,702.8925 C 209.97677,702.91701 208.33813,704.20684 208.33813,705.75874 C 208.33813,707.31062 210.30449,707.82582 212.70773,706.9036 C 215.11109,705.98137 217.07732,702.25374 217.07732,698.61996 z M 170.46829,675.14954 C 193.70001,671.07618 216.68978,667.13414 221.55658,666.38941 C 227.42495,665.49145 232.11584,662.13976 235.48377,656.43836 C 240.49396,647.95675 240.46247,647.77599 233.13827,642.97697 C 224.6387,637.40786 217.87355,637.95357 157.58302,649.07145 C 126.14058,654.8696 118.69961,657.2599 112.43051,663.5759 L 104.92444,671.13807 L 112.2071,676.77711 C 121.43009,683.9186 120.27094,683.95095 170.46829,675.14954 z M 168.28354,642.72825 L 193.7728,638.12689 L 193.7728,620.63462 L 193.7728,603.14235 L 178.47928,605.09389 C 170.06778,606.16723 154.99264,608.437 144.97902,610.13782 L 126.77243,613.23019 L 126.77243,631.4621 L 126.77243,649.69404 L 134.78329,648.51183 C 139.1893,647.8616 154.26444,645.25898 168.28354,642.72825 z M 222.90347,615.54518 C 222.90347,605.93206 221.92035,598.08687 220.71872,598.11138 C 214.79261,598.2324 211.93484,603.78828 210.62752,617.72997 C 209.26572,632.25296 209.53883,633.02356 216.04848,633.02356 C 222.48476,633.02356 222.90347,631.95602 222.90347,615.54518 z M 183.57709,599.29868 C 228.95066,592.27207 233.6391,590.98414 239.54375,583.92422 L 245.9882,576.21881 L 239.94927,571.12095 C 231.99754,564.40837 227.59645,564.61549 166.52147,574.57684 C 123.10537,581.65797 113.32263,584.17457 107.33096,589.80348 L 100.15283,596.5469 L 108.3647,603.23308 C 114.30435,608.06912 118.99488,609.51089 125.3159,608.44348 C 130.12239,607.63181 156.33999,603.51667 183.57709,599.29868 z M 169.01175,569.41893 L 192.31628,564.56656 L 193.18997,547.81644 C 194.0136,532.02425 193.68041,531.067 187.36382,531.07803 C 175.34607,531.09903 125.41855,539.99413 122.83891,542.5738 C 121.45612,543.95657 121.24308,551.76464 122.36538,559.92508 C 124.40417,574.74895 124.41561,574.76204 135.05664,574.5168 C 140.9145,574.38175 156.19427,572.08771 169.01175,569.41893 z M 225.81653,547.32642 C 225.81653,540.24763 226.61228,532.38236 227.58477,529.84805 C 228.89526,526.43279 227.53824,525.24019 222.34126,525.24019 C 211.93811,525.24019 209.6864,529.19127 210.80415,545.48367 C 211.71762,558.79826 212.47908,560.19696 218.81502,560.19696 C 225.1519,560.19696 225.81653,558.97513 225.81653,547.32642 z M 180.66402,526.4808 C 228.65271,519.23337 233.65381,517.91864 239.63918,510.97702 C 247.88209,501.41716 247.86587,501.25808 238.05666,495.46363 C 230.34467,490.90808 226.85039,491.13077 173.24089,499.59448 C 122.72061,507.57044 115.68878,509.36543 108.38815,516.14899 L 100.19949,523.7575 L 108.38815,530.39058 C 113.0802,534.19138 119.06441,536.46347 122.40283,535.71173 C 125.6072,534.99016 151.82467,530.83625 180.66402,526.4808 z M 174.83788,495.02968 L 192.31628,491.49684 L 192.61714,480.69441 C 192.78257,474.75307 192.12717,469.9147 191.16062,469.94247 C 183.33197,470.16736 133.64887,476.07464 128.3042,477.41604 C 123.21422,478.69354 121.239,481.58346 120.37034,489.02384 C 119.73428,494.47258 120.58674,499.54996 122.26482,500.30697 C 126.29388,502.12445 153.00016,499.4437 174.83788,495.02968 z M 229.87452,482.76252 C 230.84702,480.2282 231.64267,475.55708 231.64267,472.38221 C 231.64267,467.63547 229.97869,466.77198 222.27803,467.52262 C 214.32561,468.2978 212.62398,469.86305 210.99373,477.9029 C 209.14019,487.0438 209.40222,487.37037 218.5901,487.37037 C 224.58037,487.37037 228.76144,485.66304 229.87452,482.76252 z M 189.68846,465.34611 C 213.49125,462.84589 233.05066,460.55185 233.1539,460.24824 C 233.25714,459.94466 236.91056,454.12503 241.27269,447.31573 C 246.16224,439.68296 247.79145,434.97495 245.52108,435.03886 C 228.56778,435.51599 108.39317,450.84799 105.99435,453.24687 C 101.39668,457.84441 113.80071,472.94962 119.87335,472.94962 C 122.69694,472.94962 165.88554,467.84634 189.68846,465.34611 z M 170.42057,438.98498 C 188.81942,436.54314 204.27699,434.1413 204.77071,433.64757 C 205.26443,433.15385 205.58676,376.65068 205.48714,308.08499 C 205.31132,187.25974 205.12816,183.29573 199.53933,179.38113 C 194.99369,176.19726 193.7728,171.98516 193.7728,159.48549 L 193.7728,143.62882 L 145.70735,143.62882 L 97.641779,143.62882 L 97.641779,295.44751 L 97.641779,447.26619 L 117.30491,445.34545 C 128.11964,444.28906 152.02171,441.42683 170.42057,438.98498 z M 249.12105,425.96233 C 249.92216,424.79897 250.21989,373.39842 249.78276,311.73894 L 248.98782,199.63075 L 241.77178,198.25133 C 236.51601,197.24662 234.54569,198.14702 234.51863,201.5658 C 233.87581,282.76941 234.83886,427.21053 236.03605,429.14757 C 237.70795,431.85266 246.54654,429.70111 249.12105,425.96233 z M 302.28455,137.82001 C 318.78204,137.79937 319.45016,135.29378 309.83355,109.5096 C 300.92087,85.612719 272.66158,57.759767 243.29492,43.927562 C 206.4391,26.567826 208.33813,25.739225 208.33813,59.179948 C 208.33813,75.258249 207.08786,88.220539 205.48433,88.766139 C 203.91463,89.300189 188.18409,89.327649 170.52755,88.827159 L 138.42469,87.917169 L 138.42469,59.240974 C 138.42469,25.793423 140.21395,26.616493 104.29563,43.541946 C 68.145503,60.576585 37.449238,94.669159 32.053709,123.77663 C 30.959181,129.68087 31.055544,136.11639 32.267785,138.0778 C 33.981092,140.84992 62.74799,141.22018 161.4596,139.74066 C 231.30294,138.69382 294.67407,137.82953 302.28455,137.82001 z "
       id="path4218"
       sodipodi:nodetypes="cssssssssssssscccssssssssssssscccccccscccccccccscccccccssssssssssssssssssssscccssssssccccccccssssssccccssccssccsssssccssscccsccsscccssccssssccsssccsssssssccsccccccccccsssssssccssssccccccccccccccccssscccccscccsccccssssccssssccssscccsccccssssccssssccsssssccsssccccccccccccssccsssscccssssc" />
  </g>
</svg>
