<?xml version="1.0" encoding="UTF-8" standalone="no"?>
<svg
   xmlns:dc="http://purl.org/dc/elements/1.1/"
   xmlns:cc="http://creativecommons.org/ns#"
   xmlns:rdf="http://www.w3.org/1999/02/22-rdf-syntax-ns#"
   xmlns:svg="http://www.w3.org/2000/svg"
   xmlns="http://www.w3.org/2000/svg"
   xmlns:sodipodi="http://sodipodi.sourceforge.net/DTD/sodipodi-0.dtd"
   xmlns:inkscape="http://www.inkscape.org/namespaces/inkscape"
   width="300pt"
   height="300pt"
   viewBox="0 0 300 300"
   version="1.1"
   id="svg2"
   inkscape:version="0.47 r22583"
   sodipodi:docname="teddytest.svg">
  <metadata
     id="metadata46">
    <rdf:RDF>
      <cc:Work
         rdf:about="">
        <dc:format>image/svg+xml</dc:format>
        <dc:type
           rdf:resource="http://purl.org/dc/dcmitype/StillImage" />
        <dc:title></dc:title>
      </cc:Work>
    </rdf:RDF>
  </metadata>
  <defs
     id="defs44">
    <inkscape:perspective
       sodipodi:type="inkscape:persp3d"
       inkscape:vp_x="0 : 187.5 : 1"
       inkscape:vp_y="0 : 1000 : 0"
       inkscape:vp_z="375 : 187.5 : 1"
       inkscape:persp3d-origin="187.5 : 125 : 1"
       id="perspective48" />
    <inkscape:perspective
       id="perspective2862"
       inkscape:persp3d-origin="0.5 : 0.33333333 : 1"
       inkscape:vp_z="1 : 0.5 : 1"
       inkscape:vp_y="0 : 1000 : 0"
       inkscape:vp_x="0 : 0.5 : 1"
       sodipodi:type="inkscape:persp3d" />
  </defs>
  <sodipodi:namedview
     pagecolor="#ffffff"
     bordercolor="#666666"
     borderopacity="1"
     objecttolerance="10"
     gridtolerance="10"
     guidetolerance="10"
     inkscape:pageopacity="0"
     inkscape:pageshadow="2"
     inkscape:window-width="1280"
     inkscape:window-height="738"
     id="namedview42"
     showgrid="false"
     inkscape:zoom="1.7800235"
     inkscape:cx="151.0196"
     inkscape:cy="203.97332"
     inkscape:window-x="-8"
     inkscape:window-y="-8"
     inkscape:window-maximized="1"
     inkscape:current-layer="svg2" />
  <path
     fill="#ffffff"
     d=" M 0.00 0.00 L 300.00 0.00 L 300.00 300.00 L 0.00 300.00 L 0.00 0.00 Z"
     id="path4"
     style="opacity:0;fill:#ffffff;fill-opacity:0" />
  <path
     style="fill:#000000"
     d="m 191.41768,22.490196 c 4.99,-2.47 10.52,-2.79 15.99,-2.33 3.66,1.24 6.73,3.79 8.45,7.27 2.25,6.1 0.21,12.61 -2.57,18.15 -2.96,4.2 -5.84,8.67 -10.02,11.77 6.99,11.17 10.55,24.439996 9.73,37.619996 -0.98,8.390018 -2.7,16.880018 -6.69,24.430018 -0.24,0.5 -0.74,1.48999 -0.99,1.98999 -1.88,4.55 -5.2,8.17 -8.65,11.58 0.78,1.03 1.55,2.07 2.31,3.12 0.68,-0.28 2.03,-0.84 2.71,-1.11 4.15,0.1 8.15,1.65 11.73,3.66 1.02,0.67 2.03,1.35 3.04,2.04 5.11,4.09 10.08,8.44 14.11,13.63 3.82,4.9 8.09,9.59 10.68,15.3 2.49,3.92 5.37,7.62 7.36,11.85 2.03,3.89 2.92,8.26 5.08,12.09 1.81,3.11 2.16,6.79 3.85,9.96 0.26,1.52 0.64,3.03 1.18,4.49 2.46,9.23 4.5,18.95 2.62,28.47 -0.83,4.13 -2.68,8.38 -6.67,10.32 -1.11,0.22 -2.21,0.47 -3.29,0.77 -0.45,0 -1.35,0 -1.8,0 -3.12,-0.77 -6.28,-1.56 -9.05,-3.24 -1.46,-0.95 -2.92,-1.92 -4.37,-2.88 -0.29,1.68 -0.57,3.38 -0.95,5.04 -0.18,1.68 -0.26,3.39 -0.83,5 -0.58,2.45 -1.56,4.77 -2.59,7.06 -3.59,7.09 -9.24,13.15 -16.35,16.78 -8.48,4.49 -18.78,6.17 -27.97,2.92 -0.48,-0.12 -1.44,-0.37 -1.92,-0.49 -1.68,-0.69 -3.39,-1.3 -5.06,-2 -5.58,-2.71 -9.57,-7.46 -13.94,-11.68 -11.35,-0.16 -22.73,-0.16 -34.08,0 -3.41,3.01 -6.16,6.77 -10.03,9.24 -2.8,1.87 -5.88,3.25 -9.03,4.43 -6.1,1.59 -12.61,3.33 -18.870002,1.48 -3.9,-0.37 -7.57,-1.84 -11.09,-3.47 -7.4,-3.76 -13.26,-10.02 -17.23,-17.25 -1.76,-3.81 -3.1,-7.85 -3.39,-12.05 -0.32,-1.27 -0.61,-2.54 -0.88,-3.81 -3.3,2.72 -7.41,4.01 -11.52,4.93 -0.45,-0.01 -1.35,-0.01 -1.8,-0.02 -1.09,-0.29 -2.18,-0.54 -3.28,-0.76 -4,-1.93 -5.84,-6.2 -6.68,-10.33 -1.9,-9.52 0.18,-19.23 2.63,-28.46 0.53,-1.46 0.92,-2.97 1.18,-4.49 1.87,-4.57 3.19,-9.33 5.59,-13.68 2.18,-7.41 6.32,-13.95 10.7,-20.22 2.58,-5.7 6.84,-10.38 10.65,-15.27 4.04,-5.2 9.01,-9.56 14.13,-13.66 1.01,-0.69 2.03,-1.37 3.05,-2.04 3.37,-2 7.18,-3.18 11.040002,-3.79 -3.130002,-4.09 -7.250002,-7.44 -9.360002,-12.25 -0.51,-1.08 -1.05,-2.14 -1.56,-3.20999 -9.08,-17.23 -8.8,-38.440018 -0.51,-55.910014 1,-1.51 1.98,-3.03 3.05,-4.49 -4.23,-3.45 -7.48,-7.92 -10.53,-12.41 -2.77,-5.54 -4.82,-12.05 -2.57,-18.15 1.72,-3.48 4.78,-6.03 8.44,-7.27 4.68,-0.09 9.65,-0.65 13.950002,1.61 3.58,1.06 6.26,3.73 9.48,5.46 2.63,1.43 4.23,4.09 6.54,5.9 1.04,-0.43 2.07,-0.89 3.09,-1.37 2.26,-1.13 4.51,-2.31 6.91,-3.14 2.28,-0.74 4.59,-1.45 6.94,-1.96 1.63,-0.49 3.33,-0.68 5.01,-0.91 6.52,-1.2 13.44,-1.2 19.96,0 3.07,0.32 6.07,1.09 9.03,1.97 0.45,0.14 1.34,0.41 1.79,0.54 2.43,0.61 4.88,1.21 7.08,2.47 1.26,0.3 2.93,2.15 3.96,0.72 3.42,-4.45 8.51,-6.91 13.08,-9.96 z"
     id="path6" />
  <path
     style="fill:#a05e00"
     d="m 197.79768,24.800196 c 4.1,-1.54 9.27,-1.28 12.53,1.9 2.38,2.8 2.82,6.81 1.78,10.26 -1.93,6.58 -6.28,12.07 -10.95,16.95 -5.44,-7.31 -12.09,-13.67 -19.77,-18.59 4.34,-4.93 10.26,-8.35 16.41,-10.52 z"
     id="path8" />
  <path
     style="fill:#a05e00"
     d="m 84.567678,25.780196 c 5.13,-2.19 10.62,0.08 15.260002,2.38 3.95,2.22 7.91,4.64 10.84,8.17 -7.67,4.94 -14.200002,11.43 -19.600002,18.76 -5,-5.13 -9.67,-11.04 -11.41,-18.13 -1.02,-4.22 0.55,-9.55 4.91,-11.18 z"
     id="path10" />
  <path
     style="fill:#000000"
     d="m 192.29768,43.190196 c 1.88,-6.64 7.6,-12.11 14.14,-14.17 -0.13,5.12 -4.42,8.37 -7.78,11.63 -1.63,1.78 -4.11,2.15 -6.36,2.54 z"
     id="path12" />
  <path
     style="fill:#000000"
     d="m 85.547678,30.030196 c 6.56,2.02 12.300002,7.53 14.170002,14.18 -2.03,-0.44 -4.320002,-0.62 -5.890002,-2.15 -3.53,-3.36 -8.02,-6.7 -8.28,-12.03 z"
     id="path14" />
  <path
     style="fill:#a05e00"
     d="m 141.19768,30.270196 c 16.61,-1.36 33.9,3.94 46.5,14.97 5.13,4.29 9.04,9.77 12.7,15.31 3.83,5.3 5.58,11.72 7.14,17.97 3.55,14.999996 0.18,31.150014 -7.76,44.220004 -8.79,14.59 -24.19,24.74 -40.84,27.92 -19.11,4.14 -39.1,-2.48 -54.22,-14.28 -11.160002,-9.7 -18.280002,-23.73999 -20.220002,-38.340008 -1.66,-11.52 1.2,-23.219996 5.83,-33.739996 7.650002,-15.51 22.210002,-27.59 39.030002,-31.81 3.86,-1.12 7.84,-1.78 11.84,-2.22 z"
     id="path16" />
  <path
     style="fill:#000000"
     d="m 117.40768,66.580196 c 5.92,-2.7 13.04,3.32 11.44,9.59 -0.96,6.129996 -9.23,9.009996 -13.8,4.809996 -4.9,-3.779996 -3.49,-12.389996 2.36,-14.399996 z"
     id="path18" />
  <path
     style="fill:#000000"
     d="m 170.49768,66.540196 c 5.09,-2.19 11.35,1.91 11.51,7.41 0.51,5.32 -4.85,10.079996 -10.08,8.879996 -4.44,-0.76 -7.72,-5.459996 -6.77,-9.899996 0.53,-2.86 2.61,-5.37 5.34,-6.39 z"
     id="path20" />
  <path
     style="fill:#150c00"
     d="m 138.52768,94.710192 c 12.03,-1.87 25.01,-0.22 35.29,6.630018 5.25,3.66 9.87,8.74 11.6,15.03 1.32,5.82999 0.64,12.27999 -2.76,17.30999 -5.68,8.8 -15.7,13.79 -25.75,15.66 -5.66,0.55 -11.37,0.53 -17.04,0.14 -10.68,-1.43 -21.45,-6.62 -27.43,-15.9 -4.64,-7.1 -4.48,-16.91999 0.41,-23.84999 5.79,-8.54001 15.73,-13.320018 25.68,-15.020018 z"
     id="path22" />
  <path
     style="fill:#a07900"
     d="m 124.48768,101.1702 c 9.65,-5.920008 21.52,-7.060008 32.52,-5.220008 9.43,1.91 18.93,6.700018 24.01,15.190018 4.45,7.05 3.61,16.73999 -1.65,23.13999 -7.16,8.98 -19.12,13.47 -30.42,13.16 0.08,-5.87 0.04,-11.74 0.13,-17.61 5.11,-0.11 10.53,-1.81 13.89,-5.86 2.28,-2.66 2.72,-6.75999 0.84,-9.75999 -2.55,-4.19 -7.46,-6.23 -12.12,-6.97 -6.17,-0.85 -13.06,0.34 -17.72,4.73 -2.96,2.68 -3.95,7.41 -1.72,10.84999 2.89,4.6 8.48,6.64 13.69,6.95 0.1,5.97 0.08,11.93 0.05,17.9 -9.49,-0.12 -19.06,-3.25 -26.38,-9.37 -5.42,-4.72 -9.26,-11.92 -8.22,-19.24999 1.09,-7.66 6.54,-14.1 13.1,-17.88001 z"
     id="path24" />
  <path
     style="fill:#000000"
     d="m 133.96768,111.97021 c 4.66,-4.39 11.55,-5.58 17.72,-4.73 4.66,0.74 9.57,2.78 12.12,6.97 1.88,3 1.44,7.09999 -0.84,9.75999 -3.36,4.05 -8.78,5.75 -13.89,5.86 -1.05,0.01 -2.1,-0.01 -3.14,-0.06 -5.21,-0.31 -10.8,-2.35 -13.69,-6.95 -2.23,-3.43999 -1.24,-8.16999 1.72,-10.84999 z"
     id="path26" />
  <path
     style="fill:#1c1c1c"
     d="m 145.93768,129.7702 c 1.04,0.05 2.09,0.07 3.14,0.06 -0.09,5.87 -0.05,11.74 -0.13,17.61 l -0.01,0.65 c -0.73,-0.11 -2.21,-0.32 -2.95,-0.42 0.03,-5.97 0.05,-11.93 -0.05,-17.9 z"
     id="path28" />
  <path
     style="fill:#a05e00"
     d="m 162.70768,154.3202 c 11.37,-1.99 20.82,-8.91 29.39,-16.23 0.49,0.28 1.46,0.84 1.94,1.12 -4.13,9.95 -3.03,21.06 -0.47,31.26 2.58,11.33 7.38,21.95 12.11,32.5 -18.83,-4.87 -39,8.52 -43.97,26.85 -3.33,10.34 -1.47,21.72 3.67,31.15 -10.35,0.03 -20.7,-0.01 -31.04,0.02 6.21,-10.15 7.4,-23.11 2.93,-34.17 -6.22,-16.78 -25.21,-27.84 -42.860002,-24.08 6.320002,-13.66 12.210002,-27.82 13.990002,-42.91 0.52,-5.53 0.6,-11.21 -1.05,-16.58 8.91,6.62 19.56,10.62 30.48,12.32 -3.53,0.53 -7.01,1.33 -10.5,2.1 -2.93,5 -6.04,9.91 -8.42,15.21 10.47,-5.15 20.83,-10.52 31.25,-15.75 2.51,-1.65 5.29,-0.1 7.69,0.9 8.65,3.92 17.49,7.4 26.14,11.34 -1.62,-4.31 -3.43,-8.53 -5.55,-12.61 -5.26,-0.72 -10.42,-2.15 -15.73,-2.44 z"
     id="path30" />
  <path
     style="fill:#a05e00"
     d="m 92.437678,140.5302 c 2.31,-0.89 5.060002,-1.87 7.450002,-0.74 3.95,3.47 4.6,9.22 4.7,14.17 -0.54,11.02 -3.75,21.74 -7.71,31.97 -2.900002,5.81 -4.450002,12.31 -8.220002,17.65 -1.93,1.63 -4.45,2.31 -6.61,3.56 -9.99,5.45 -17.27,15.63 -19.17,26.85 -0.38,1.41 -0.37,3.18 -1.77,4.04 -3.57,2.66 -7.71,4.98 -12.21,5.36 -2.5,0.17 -4.04,-2.15 -4.9,-4.16 -2.2,-4.68 -2.1,-9.97 -1.66,-15 1.36,-10.97 4.52,-21.67 9.21,-31.67 2.25,-5.82 4.66,-11.64 8.27,-16.78 8.37,-13.61 17.82,-28.03 32.62,-35.25 z"
     id="path32" />
  <path
     style="fill:#a05e00"
     d="m 199.43768,140.4002 c 1.06,-1.37 3,-1.15 4.51,-0.99 4.55,0.95 8.54,3.54 12.13,6.38 7.66,6.04 13.6,13.9 19.1,21.87 4.24,7.27 9.47,14.06 12.16,22.14 4.96,10.94 8.87,22.48 10.34,34.45 0.55,5.87 0.49,12.34 -3.03,17.35 -1.68,2.54 -5.13,1.89 -7.53,0.95 -4.17,-1.63 -8.22,-3.94 -11.36,-7.17 -1.82,-7.6 -4.62,-15.22 -10.18,-20.95 -3.63,-4.29 -8.59,-6.98 -13.34,-9.78 -3.31,-3.67 -4.71,-8.63 -6.64,-13.09 -5,-10.96 -8.71,-22.63 -9.99,-34.64 -0.46,-5.63 -0.06,-12.08 3.83,-16.52 z"
     id="path34" />
  <path
     style="fill:#00009d"
     d="m 146.99768,155.9202 c 5.28,0.04 10.46,-1.22 15.71,-1.6 5.31,0.29 10.47,1.72 15.73,2.44 2.12,4.08 3.93,8.3 5.55,12.61 -8.65,-3.94 -17.49,-7.42 -26.14,-11.34 -2.4,-1 -5.18,-2.55 -7.69,-0.9 -10.42,5.23 -20.78,10.6 -31.25,15.75 2.38,-5.3 5.49,-10.21 8.42,-15.21 3.49,-0.77 6.97,-1.57 10.5,-2.1 3.06,-0.18 6.11,0.41 9.17,0.35 z"
     id="path36" />
  <path
     style="fill:#a05e00"
     d="m 94.437678,206.5802 c 16.820002,-3.52 35.250002,7.22 40.000002,23.82 5.12,15.2 -2.49,33.17 -16.75,40.38 -14.86,8.35 -35.370002,3.8 -45.130002,-10.23 -9.64,-12.7 -8.39,-31.96 2.65,-43.41 5.08,-5.44 11.93,-9.17 19.23,-10.56 z"
     id="path38" />
  <path
     style="fill:#a05e00"
     d="m 191.48768,206.6102 c 16.33,-3.57 34.01,7.06 38.78,23.01 5.55,15.82 -2.33,34.95 -17.6,41.99 -13.88,7.06 -32.2,2.63 -41.44,-9.86 -9.41,-11.87 -9.59,-29.91 -0.43,-41.97 4.92,-6.78 12.49,-11.53 20.69,-13.17 z"
     id="path40" />
</svg>
