<?xml version="1.0" encoding="UTF-8" standalone="no"?>
<!-- Created with Inkscape (http://www.inkscape.org/) -->
<svg
   xmlns:dc="http://purl.org/dc/elements/1.1/"
   xmlns:cc="http://web.resource.org/cc/"
   xmlns:rdf="http://www.w3.org/1999/02/22-rdf-syntax-ns#"
   xmlns:svg="http://www.w3.org/2000/svg"
   xmlns="http://www.w3.org/2000/svg"
   xmlns:sodipodi="http://sodipodi.sourceforge.net/DTD/sodipodi-0.dtd"
   xmlns:inkscape="http://www.inkscape.org/namespaces/inkscape"
   width="308.31918"
   height="180.2012"
   id="svg1307"
   sodipodi:version="0.32"
   inkscape:version="0.45.1"
   sodipodi:docbase="/Users/johnolsen/Desktop"
   sodipodi:docname="TheresaKnott_Swan_swimming.svg"
   inkscape:output_extension="org.inkscape.output.svg.inkscape"
   version="1.0">
  <defs
     id="defs1309">
    <linearGradient
       id="linearGradient7528">
      <stop
         style="stop-color:#ffffff;stop-opacity:1;"
         offset="0"
         id="stop7530" />
      <stop
         id="stop7536"
         offset="0.10714286"
         style="stop-color:#ffffd0;stop-opacity:1;" />
      <stop
         style="stop-color:#c8c5cb;stop-opacity:1;"
         offset="1"
         id="stop7532" />
    </linearGradient>
  </defs>
  <sodipodi:namedview
     inkscape:document-units="mm"
     pagecolor="#ffffff"
     bordercolor="#666666"
     borderopacity="1.0"
     inkscape:pageopacity="0.0"
     inkscape:pageshadow="2"
     inkscape:zoom="0.70529234"
     inkscape:cx="378.84089"
     inkscape:cy="560.79683"
     inkscape:current-layer="layer1"
     id="namedview1311"
     showguides="true"
     inkscape:guide-bbox="true"
     inkscape:window-width="1063"
     inkscape:window-height="913"
     inkscape:window-x="119"
     inkscape:window-y="38" />
  <metadata
     id="metadata1313">
    <rdf:RDF>
      <cc:Work
         rdf:about="">
        <dc:format>image/svg+xml</dc:format>
        <dc:type
           rdf:resource="http://purl.org/dc/dcmitype/StillImage" />
        <dc:title>Swan Swimming</dc:title>
        <dc:date>10 Sept 2006</dc:date>
        <dc:creator>
          <cc:Agent>
            <dc:title>Theresa Knott (theresaknott@gmail.com)</dc:title>
          </cc:Agent>
        </dc:creator>
        <dc:description>A white swan swimming</dc:description>
        <cc:license
           rdf:resource="http://web.resource.org/cc/PublicDomain" />
      </cc:Work>
      <cc:License
         rdf:about="http://web.resource.org/cc/PublicDomain">
        <cc:permits
           rdf:resource="http://web.resource.org/cc/Reproduction" />
        <cc:permits
           rdf:resource="http://web.resource.org/cc/Distribution" />
        <cc:permits
           rdf:resource="http://web.resource.org/cc/DerivativeWorks" />
      </cc:License>
    </rdf:RDF>
  </metadata>
  <g
     inkscape:label="Layer 1"
     inkscape:groupmode="layer"
     id="layer1"
     transform="translate(-115.62991,-67.621647)">
    <path
       style="fill:#000000;fill-opacity:0.20430106;fill-rule:nonzero;stroke:none;stroke-width:1px;stroke-linecap:butt;stroke-linejoin:miter;stroke-opacity:1"
       id="path10208"
       d="M 194.15844,208.17482 C 177.42757,212.27435 158.44733,214.50448 142.02725,218.89112 C 163.51528,212.4375 137.67109,221.35349 132.04,223.64299 C 125.72125,226.80826 126.8697,229.74334 132.61892,232.84058 C 140.91973,235.9793 151.16389,237.89661 160.91982,239.91672 C 171.15091,241.63152 182.24522,242.29414 193.05695,242.87324 C 211.90375,243.33115 230.6553,244.40258 249.5634,244.22505 C 263.98061,243.70997 277.94766,241.91261 292.05391,240.55136 C 311.43069,239.02947 330.74581,237.10332 350.31237,236.10664 C 359.34448,235.73407 368.38631,236.23222 377.37166,235.65558 C 384.81027,234.56538 392.69321,234.5111 400.3308,233.88099 C 405.61077,233.2793 410.91637,232.71986 416.29603,232.32633 C 418.91625,232.09319 421.41637,231.66707 423.94909,231.30106 L 413.40495,235.06755 C 410.76329,235.43432 408.14284,235.85151 405.43289,236.10402 C 400.08259,236.53562 394.80146,237.09192 389.49875,237.62348 C 381.81489,238.14708 374.01818,238.39237 366.51535,239.38559 C 357.5909,239.7477 348.61474,239.45177 339.66792,239.72307 C 320.03506,240.55049 300.79672,242.55333 281.45473,244.22916 C 267.29866,245.52264 253.32987,247.44214 238.86012,247.82285 C 219.95512,247.72332 201.11859,246.69778 182.2282,246.4024 C 171.33865,245.76991 160.00172,245.25007 149.84325,243.28265 C 139.9777,241.16957 129.38087,239.40641 121.1731,236.03783 C 115.13437,232.76043 113.22738,229.55819 119.53347,226.00681 C 129.56472,221.77095 140.35814,217.90786 152.48886,215.00751 C 169.45946,210.9048 188.18691,208.292 205.39307,204.42899 L 194.15844,208.17482 z " />
    <path
       style="fill:#000000;fill-opacity:0.12365591;fill-rule:nonzero;stroke:none;stroke-width:1px;stroke-linecap:butt;stroke-linejoin:miter;stroke-opacity:1"
       id="path10206"
       d="M 178.04238,217.18609 C 160.63858,220.06229 184.43672,215.07209 174.98165,217.3968 C 169.91129,219.26263 164.08068,220.89655 159.94875,223.0824 C 157.40177,226.0455 159.32826,227.66478 166.17393,229.11805 C 174.59328,230.05702 182.77263,231.42327 191.36243,232.11324 C 199.79469,232.36176 208.27239,232.24665 216.72361,232.23894 C 224.72014,231.86064 232.87585,231.93766 240.85602,231.46511 C 244.21581,231.02881 247.71409,230.80428 251.17978,230.55362 L 240.35039,233.77232 C 236.87334,234.01734 233.42133,234.29089 230.0034,234.6429 C 221.95754,234.96879 213.83039,235.10014 205.77821,235.34466 C 197.27321,235.34644 188.71668,235.45297 180.2473,235.1588 C 171.68035,234.33046 163.42715,232.99918 154.95822,232.03688 C 147.81072,230.38472 145.08631,228.5328 147.55537,225.2815 C 151.23973,222.88275 157.40505,221.33698 162.39019,219.32743 C 170.79596,217.21273 179.27883,214.67534 189.27701,213.99904 L 178.04238,217.18609 z " />
    <path
       style="fill:#f3f4e5;fill-opacity:1;fill-rule:evenodd;stroke:#000000;stroke-width:0.34850693px;stroke-linecap:butt;stroke-linejoin:miter;stroke-opacity:1"
       d="M 173.08098,224.48722 C 166.74548,223.6873 169.09623,213.97633 169.09623,208.31662 C 169.09623,202.65691 194.59859,123.42098 194.59859,120.18687 C 194.59859,116.95275 192.00142,114.7077 194.39227,110.66506 C 196.78311,106.62241 196.98944,104.01627 196.98944,100.78215 C 196.98944,97.548031 176.26877,96.7395 172.28403,99.165089 C 168.29928,101.59068 160.70824,104.07126 153.9542,108.05892 C 150.98225,107.68835 149.96946,106.44186 153.15726,104.8248 C 156.34505,103.20774 169.89318,91.888321 169.89318,91.888321 L 169.09623,87.037143 L 173.87793,82.994492 C 173.87793,82.994492 176.26877,76.526255 180.25351,74.100666 C 184.23826,71.675077 199.68978,64.607635 208.04356,69.458814 C 214.42031,73.161899 221.31056,81.272771 222.90446,90.975131 C 224.49836,100.67749 209.35633,190.05275 207.76243,196.52099 C 206.16854,202.98923 212.92842,175.97543 212.92842,175.97543 C 212.92842,175.97543 249.58806,137.97452 255.1667,135.54893 C 260.74535,133.12335 284.65381,122.61246 284.65381,122.61246 L 274.29348,128.27217 L 298.20194,122.61246 L 287.84161,129.08069 C 287.84161,129.08069 310.95313,126.6551 317.32871,129.08069 C 323.70431,131.50629 353.19141,133.12335 357.97311,137.16599 C 353.98836,140.40011 350.00362,141.20864 350.00362,141.20864 C 350.00362,141.20864 364.3487,148.48541 367.53649,151.71953 C 370.72429,154.95365 375.50598,165.46454 372.31819,170.31572 C 369.13039,175.1669 356.37921,189.72044 356.37921,189.72044 C 356.37921,189.72044 364.81809,176.9645 381.42248,172.71253 C 392.83147,169.79096 400.21139,166.27307 400.21139,166.27307 C 400.21139,166.27307 389.05411,199.4228 379.49072,205.89103 C 369.92734,212.35927 323.54441,229.3384 305.37448,229.3384 C 298.99889,229.3384 174.66191,224.68683 173.08098,224.48722 z "
       id="path1393"
       sodipodi:nodetypes="cssssscscccsssscscccccccsscscsss" />
    <path
       style="opacity:0.0918919;fill:#000000;fill-opacity:1;fill-rule:nonzero;stroke:none;stroke-width:1px;stroke-linecap:butt;stroke-linejoin:miter;stroke-opacity:1"
       id="path7544"
       d="M 358.04196,190.88763 C 360.87976,191.21691 363.24176,190.85761 365.7308,189.49494 C 344.09316,201.83488 387.3319,175.4242 364.94686,188.89682 C 390.99927,173.27277 352.86559,197.08679 377.08698,181.87319 C 378.67744,180.87422 373.79624,183.66489 372.15087,184.56075 C 377.0627,181.8808 382.52683,176.37213 379.28598,184.15382 C 378.16031,187.23938 376.08367,189.6679 374.05161,192.12233 C 369.85786,196.77005 363.93897,199.45085 358.25167,201.4361 C 354.43816,201.93926 352.22247,201.00613 351.05565,197.42312 C 355.66174,191.69548 360.68593,192.03024 366.40753,190.20458 C 372.64496,187.03024 356.88855,196.40428 365.7493,190.33706 C 379.50837,180.99893 371.92097,188.91411 368.35538,192.15491 C 352.40604,203.41233 360.04812,193.68779 367.7437,193.08977 C 367.0373,194.39784 373.1641,191.25669 371.9158,191.99577 C 348.11535,206.0874 371.22904,192.29797 365.63181,194.76093 C 380.3924,186.89561 362.99263,195.87107 357.46318,198.30262 C 352.82342,197.31788 364.77052,193.83635 367.71267,193.03087 C 373.90651,190.08161 364.37291,195.01161 362.44019,196.11123 L 368.89434,190.80056 C 376.80035,190.36998 365.55537,197.15291 361.23525,198.21213 C 352.46704,200.39337 355.56306,196.79881 363.87965,192.95015 C 378.6087,187.6131 350.13257,200.84296 372.14518,189.53005 C 376.27314,194.38224 366.71269,197.38542 361.21739,198.2263 C 348.19719,198.25954 379.81661,185.4268 360.75356,195.3321 C 365.77818,191.04443 366.51864,189.20526 373.42917,187.0863 C 369.21002,190.23773 364.88569,193.58105 359.95747,195.50522 C 352.75715,197.08334 351.46104,197.7393 358.50369,193.77002 C 359.75161,196.0505 361.29316,197.13668 364.74872,196.23941 C 375.94051,191.47235 359.297,200.65912 366.53563,195.45926 C 368.54814,193.0602 370.67079,190.7062 371.82632,187.70802 C 373.34158,184.11857 383.62173,175.39588 379.77659,181.44374 C 359.75314,194.34782 388.09744,177.14214 369.72331,187.8687 C 367.53109,189.14849 374.06271,185.22607 376.23295,183.90571 C 379.40728,181.97447 363.41845,191.41064 366.5707,189.44003 C 368.56493,188.19334 375.61578,183.98014 372.58735,185.76033 C 354.2094,197.0491 370.21252,187.21622 371.61822,186.36311 C 375.86571,183.78537 355.4507,198.02328 359.35192,194.90115 C 356.71773,195.97788 354.15434,196.15461 351.31341,196.01402 L 358.04196,190.88763 z " />
    <path
       style="fill:#000000;fill-opacity:1;fill-rule:evenodd;stroke:none;stroke-width:1px;stroke-linecap:butt;stroke-linejoin:miter;stroke-opacity:1"
       d="M 150.34515,110.64976 C 150.02144,109.67524 149.36068,108.71955 149.31884,107.73229 C 149.28546,106.9447 149.17402,105.81261 149.73402,105.31087 C 152.68158,102.66996 156.41245,100.78502 159.67645,98.420168 C 161.66825,96.715363 163.70607,95.054903 165.66934,93.322605 C 166.34282,92.411595 167.01628,91.500584 167.68975,90.589577 C 167.00655,90.07258 165.96302,89.785016 165.5805,89.082767 C 165.20144,88.38686 164.71875,87.326532 164.97366,86.634466 C 165.29592,85.759527 165.90968,84.614717 166.74722,84.228232 C 168.35239,83.487524 170.25504,83.040596 172.0556,82.847056 C 174.02026,82.63588 176.0452,83.035264 178.00602,82.759618 C 179.95348,82.485849 182.01487,82.478408 183.82437,81.69117 C 184.85322,81.243558 185.77643,80.075284 186.76883,80.031585 C 187.68296,79.991332 189.30071,80.760646 189.54396,81.43932 C 189.76323,82.051067 188.84888,83.39474 188.15639,83.902849 C 187.41704,84.445355 186.10154,84.044019 185.3312,84.793819 C 184.79751,85.313273 183.86631,85.533948 183.57135,86.205799 C 182.76185,88.049696 181.96452,89.942148 181.41764,91.893246 C 180.93428,93.61773 180.7451,95.46048 180.07922,97.104525 C 179.65435,98.153529 179.27797,99.565116 178.44341,100.09177 C 177.60088,100.62344 176.10505,99.84336 175.03359,100.19332 C 169.81642,101.89738 163.90696,104.30808 159.5309,105.81757 C 155.15485,107.32706 153.40707,107.60974 150.34515,110.64976 z "
       id="path1397"
       sodipodi:nodetypes="csscccssssssssssssssszc" />
    <path
       style="fill:#bd5900;fill-opacity:1;fill-rule:evenodd;stroke:none;stroke-width:1px;stroke-linecap:butt;stroke-linejoin:miter;stroke-opacity:1"
       d="M 172.67586,86.037838 C 173.87336,85.894909 173.9438,87.252735 175.4935,89.18228 C 177.0432,91.111825 177.19649,91.267339 178.18267,93.053955 C 179.16884,94.840571 179.20498,94.986424 178.74619,95.626682 C 178.32496,96.214531 177.31027,97.209859 173.80292,98.615611 L 150.98004,107.76308 C 150.98004,107.76308 149.64166,106.67853 153.23415,103.60555 C 156.82664,100.53257 160.42516,98.38859 164.09725,94.820282 C 166.44649,92.537439 167.00236,91.525876 167.32235,90.325715 C 170.48426,89.374617 171.47836,86.180767 172.67586,86.037838 z "
       id="path3154"
       sodipodi:nodetypes="cszzzcsscc" />
    <path
       style="fill:#383430;fill-opacity:1;fill-rule:evenodd;stroke:#000000;stroke-width:0.0558494px;stroke-linecap:butt;stroke-linejoin:miter;stroke-opacity:1"
       d="M 171.36729,91.71605 C 170.93731,91.551501 167.50896,94.218817 167.1582,94.504846 C 166.80745,94.790876 164.96597,95.791982 165.93055,96.650075 C 166.73649,97.367036 167.6405,96.953983 168.99968,95.720477 C 170.35886,94.486972 171.86935,91.908186 171.36729,91.71605 z "
       id="path4031"
       sodipodi:nodetypes="cssss" />
    <path
       style="fill:#000000;fill-opacity:0.14516129;fill-rule:nonzero;stroke:none;stroke-width:1px;stroke-linecap:butt;stroke-linejoin:miter;stroke-opacity:1"
       id="path7546"
       d="M 179.16842,84.2627 C 180.76266,79.57454 182.75826,80.379564 187.91445,76.489404 C 189.98821,74.924828 179.28742,82.136318 181.44434,80.724914 C 183.92236,79.103405 186.41572,77.511856 188.87774,75.85907 C 190.55109,74.735725 185.44711,77.935332 183.7318,78.973461 C 199.52782,70.365493 190.85531,73.690059 185.74389,75.459303 C 174.69871,79.672748 188.48424,70.591984 184.64226,75.130577 C 184.57553,77.358235 182.28433,78.885661 180.55724,79.936276 C 183.80924,76.618804 188.50351,75.657898 192.74015,74.452549 C 192.0486,75.529098 169.45078,89.072032 186.18557,78.158657 L 178.65606,81.584555 C 182.62356,78.888073 198.90381,69.118943 185.33014,78.318548 C 188.47536,75.989871 194.5456,71.417171 188.08067,76.537674 C 184.67289,78.860735 174.75583,87.968741 177.23017,78.814304 C 180.70598,73.472354 186.60581,70.484597 192.36284,70.183873 C 201.70227,75.411686 173.68404,85.045244 191.26336,75.554674 C 169.16839,91.022776 193.13924,72.927067 186.4911,80.015908 L 179.16842,84.2627 z " />
    <path
       style="fill:#000000;fill-opacity:0.34408599;fill-rule:evenodd;stroke:none;stroke-width:1px;stroke-linecap:butt;stroke-linejoin:miter;stroke-opacity:0.40322583"
       d="M 193.07042,98.199409 C 195.00232,98.199409 201.95085,98.199409 205.64224,98.199409 C 210.66665,98.199409 207.04171,102.3491 205.07872,103.34486 C 202.59234,104.60611 199.55033,105.68651 197.75285,104.48829 C 195.46947,102.96617 200.29927,101.01127 193.07042,98.199409 z "
       id="path7551"
       sodipodi:nodetypes="csssc" />
    <path
       style="fill:#000000;fill-opacity:0.32795697;fill-rule:evenodd;stroke:none;stroke-width:1px;stroke-linecap:butt;stroke-linejoin:miter;stroke-opacity:1"
       d="M 197.93875,97.238643 C 202.21182,97.238643 205.7552,97.566874 209.77284,98.382078 C 212.7028,98.976582 208.39044,100.61533 207.51872,102.38409 C 206.12109,105.21999 205.78384,106.11149 202.44698,106.95783 C 199.74268,107.64373 195.53498,109.71589 195.68464,108.67298 C 196.04977,106.12862 197.37522,103.39752 197.37522,100.66894 C 197.37522,98.161094 191.52661,99.084907 190.25279,97.792576 C 189.65878,97.189935 195.13972,97.238643 197.93875,97.238643 z "
       id="path7553"
       sodipodi:nodetypes="csssssss" />
    <path
       style="fill:#000000;fill-opacity:0.04838712;fill-rule:evenodd;stroke:none;stroke-width:1px;stroke-linecap:butt;stroke-linejoin:miter;stroke-opacity:1"
       d="M 215.90784,92.907698 C 215.3422,92.98918 214.19091,101.61749 211.00204,104.8527 C 207.81318,108.08791 204.36634,109.21418 201.19045,110.82521 C 198.01456,112.43623 196.8956,121.53056 195.30349,124.76105 C 193.71139,127.99153 193.34118,133.22765 193.34118,138.69688 C 193.34118,144.16611 193.36429,148.60416 191.37886,152.63272 C 189.39343,156.66129 187.51211,161.35654 186.47306,165.57314 C 185.43401,169.78973 184.63369,176.0238 183.52959,180.5044 C 182.42548,184.98501 180.85618,187.37175 179.60495,192.4494 C 178.35372,197.52705 178.31278,199.10179 182.54843,203.39899 C 186.78408,207.69619 195.84976,201.24136 198.24697,199.41732 C 200.64419,197.59328 200.04866,197.95503 203.15277,195.43565 C 206.25688,192.91628 209.03973,190.65086 209.03973,185.48148 C 209.03973,180.3121 209.82744,148.44063 211.00204,143.67397 C 212.17664,138.9073 213.94552,133.51634 213.94552,128.74271 C 213.94552,123.96909 214.92668,119.91168 214.92668,114.80687 C 214.92668,109.70207 215.90953,105.84125 216.88899,101.86645 C 217.86846,97.891647 216.47348,92.826217 215.90784,92.907698 z "
       id="path7557"
       sodipodi:nodetypes="czzzzzzzzzzzzzzzzz" />
    <path
       style="fill:#000000;fill-opacity:0.38709675;fill-rule:evenodd;stroke:none;stroke-width:1px;stroke-linecap:butt;stroke-linejoin:miter;stroke-opacity:1"
       d="M 189.01817,80.762043 C 189.80334,81.102668 192.41238,81.047901 194.08992,81.047901 C 195.81552,81.047901 196.73314,80.135876 197.75286,79.618608 C 198.85724,79.058393 200.34531,79.275634 200.5705,79.332751 C 201.66769,79.611033 199.11609,81.094142 198.31638,81.905474 C 197.29091,82.94585 196.09069,83.034495 194.93522,83.620628 C 193.8213,84.185677 192.23528,83.823263 191.27228,83.334766 C 189.73298,82.553928 189.01817,82.980433 189.01817,80.762043 z "
       id="path7563" />
    <path
       style="fill:#ffffff;fill-opacity:0.66129037;fill-rule:evenodd;stroke:none;stroke-width:1px;stroke-linecap:butt;stroke-linejoin:miter;stroke-opacity:1"
       d="M 203.10637,69.041843 C 204.25211,69.350209 205.50233,70.043328 206.48754,71.042854 C 207.31764,71.885021 208.86553,72.146243 210.15047,72.472147 C 211.30171,72.764137 212.29064,73.785841 213.24987,74.759012 C 214.10733,75.628931 214.32447,76.653584 214.94046,77.903458 C 215.55265,79.145641 216.11102,80.278604 216.63104,81.333758 C 217.46695,83.029879 218.13512,83.141472 217.47633,84.478201 C 216.64615,86.162685 214.48273,82.406022 214.37693,82.191335 C 213.4412,80.292684 214.83703,79.56614 212.68634,78.475174 C 210.95176,77.595278 208.79125,76.928111 207.33283,76.188305 C 206.55195,75.792192 205.3231,73.178015 205.07872,72.186289 C 204.6095,70.282148 203.10637,71.937851 203.10637,69.041843 z "
       id="path7565" />
    <path
       style="fill:none;fill-opacity:0.75;fill-rule:evenodd;stroke:#000000;stroke-width:0.34850693px;stroke-linecap:butt;stroke-linejoin:miter;stroke-opacity:1"
       d="M 140.55477,146.50949 C 140.53199,146.41705 140.55477,146.31892 140.55477,146.50949 z "
       id="path7567" />
    <path
       style="fill:#000000;fill-opacity:0.15053765;fill-rule:nonzero;stroke:none;stroke-width:1px;stroke-linecap:butt;stroke-linejoin:miter;stroke-opacity:1"
       id="path8444"
       d="M 286.7183,158.53604 C 288.68577,155.74035 290.7589,152.91689 292.78376,150.11925 C 297.10045,143.1177 301.51388,141.28607 309.26334,137.03017 C 316.34564,134.42988 322.33868,130.9246 310.72483,137.4223 L 320.31902,133.58473 C 314.00693,137.41487 308.09358,141.23362 301.10027,143.4666 C 313.11258,136.10363 306.30652,139.44325 302.35665,146.04529 C 300.25831,148.71979 297.98779,151.448 296.43061,154.4546 L 286.7183,158.53604 z " />
    <path
       style="fill:#000000;fill-opacity:0.12365591;fill-rule:nonzero;stroke:none;stroke-width:1px;stroke-linecap:butt;stroke-linejoin:miter;stroke-opacity:1"
       id="path8446"
       d="M 293.58641,146.59103 C 296.7088,143.09661 297.03445,140.22988 295.98882,136.5754 C 291.83575,133.87964 287.32123,134.98577 282.8201,135.99758 C 281.41391,136.68808 279.85786,136.89305 278.36157,137.27327 L 286.53137,130.97069 C 288.02354,130.53188 289.5464,130.19465 291.00213,129.62621 C 295.7683,128.63681 300.52076,127.96282 304.72713,130.97395 C 307.55427,135.07083 305.68351,138.40996 303.29872,142.5096 L 293.58641,146.59103 z " />
    <path
       style="fill:#000000;fill-opacity:0.09139787;fill-rule:nonzero;stroke:none;stroke-width:1px;stroke-linecap:butt;stroke-linejoin:miter;stroke-opacity:1"
       id="path8448"
       d="M 286.94399,149.66687 C 287.42452,144.88536 287.11465,143.5454 282.73096,141.8317 C 281.61463,141.22533 280.38941,140.88221 279.22143,140.4086 L 287.7227,134.58839 C 288.89604,135.05974 290.07869,135.50726 291.24296,136.00255 C 295.88608,137.84655 296.64252,139.82666 296.32111,144.81955 L 286.94399,149.66687 z " />
    <path
       style="opacity:0.06486487;fill:#000000;fill-opacity:1;fill-rule:nonzero;stroke:none;stroke-width:1px;stroke-linecap:butt;stroke-linejoin:miter;stroke-opacity:1"
       d="M 237.43462,197.1717 C 246.03159,201.35113 253.75695,210.87388 263.00555,210.84301 C 275.58221,211.60309 287.74787,217.73291 300.1942,220.16909 C 307.96656,220.00929 314.38266,211.1442 322.03851,209.82854 C 330.69623,206.9035 339.64672,205.96432 348.0147,200.98914 C 345.58105,203.6268 343.43927,203.3526 343.95849,198.48187 C 341.77218,196.49072 335.5823,204.01365 340.57813,198.75926 C 342.0475,197.16164 344.76614,195.39815 341.87529,198.13082 C 334.19456,206.20139 326.00536,212.92094 317.3597,217.66675 C 312.00537,221.3135 306.18667,222.59731 300.42843,221.86502 C 294.29002,222.26758 288.01015,222.07467 282.26167,218.02244 C 278.89841,214.45096 272.42265,216.90356 270.50964,212.2646 C 274.41206,206.8473 279.30186,203.26021 284.27719,201.28127 C 290.96105,198.09798 297.62369,193.8912 304.70581,194.19026 C 312.79523,194.63077 320.85276,196.72948 328.76754,199.47512 C 329.25496,206.78164 322.4325,207.30371 319.73689,211.39591 C 312.16306,216.80053 303.71384,215.16972 295.71713,214.60426 C 291.89825,215.72229 287.39353,207.20554 292.74407,204.75495 C 298.29486,202.76871 304.09862,204.05637 309.71447,204.81094 C 316.152,205.74376 322.56003,208.14888 329.0286,207.94108 C 332.13106,207.59252 337.42275,203.8498 338.96263,203.88635 C 337.55997,205.3701 331.88088,210.91041 335.99949,206.1046 C 337.87493,204.18387 340.37544,197.25743 336.16806,200.53823 C 329.34764,203.99469 323.58936,213.00549 316.07549,212.47526 C 305.28115,213.68523 294.67312,208.81532 283.97316,208.08422 C 286.49257,202.68541 291.75685,196.40887 296.72089,199.37782 C 308.23105,201.30286 320.45514,207.27854 331.6923,199.93173 C 336.59541,196.89086 340.86623,190.05523 346.3683,190.47566 C 351.77802,196.051 342.64629,202.86317 339.80214,205.98184 C 333.29928,212.77276 325.8143,218.38945 317.92066,216.98315 C 309.27452,214.86089 300.35294,215.49529 291.9148,211.27041 C 289.2461,205.66342 297.07644,204.17447 299.39206,203.94715 C 308.09423,206.86362 317.32628,207.51255 325.86668,202.93735 C 321.8622,209.37873 315.88789,207.8164 310.99882,205.75328 C 301.19,202.55267 290.84318,202.53858 281.38951,208.42024 C 278.65619,209.65136 271.6316,213.98456 271.5692,213.07348 C 275.80368,207.97532 281.13659,202.49184 286.41453,207.08235 C 292.60853,210.57954 299.0628,213.82221 305.68481,212.62101 C 312.4951,213.15438 319.50377,212.25489 325.71588,207.24964 C 328.82239,205.54544 337.52555,199.73315 337.0396,200.47826 C 335.66028,202.18631 328.2004,208.94834 333.14789,203.6774 C 338.2994,198.07973 343.43247,192.05406 349.33331,188.8217 C 356.03831,189.12394 352.25212,202.43973 348.06,204.77017 C 339.61025,214.22347 329.00247,214.30885 319.3425,217.80589 C 312.69684,219.53098 310.115,217.69461 304.05361,222.5239 C 296.97012,226.91868 285.83369,226.45975 278.75825,224.9255 C 269.63227,222.02876 260.37611,220.42088 251.11543,219.42881 C 243.46831,217.25784 237.08875,208.85812 229.42894,206.75734 C 232.0975,203.56212 234.76606,200.36691 237.43462,197.1717 z "
       id="path9323"
       sodipodi:nodetypes="ccccccccccccccccccccccccccccccccccccccccccccccccc" />
    <path
       style="fill:#f8f9ef;fill-opacity:1;fill-rule:evenodd;stroke:#000000;stroke-width:0.40187261px;stroke-linecap:butt;stroke-linejoin:miter;stroke-opacity:1"
       d="M 224.39182,191.96961 C 226.99207,182.57693 235.00642,173.89892 243.33914,170.84661 C 251.6579,167.79941 260.20755,164.86427 268.3884,161.26612 C 278.7459,156.71061 293.78443,153.12577 297.18151,142.7068 C 300.42103,132.77108 310.48725,129.32074 319.34919,127.50004 C 328.6843,125.58214 338.842,122.4959 347.90311,124.39769 C 353.87807,125.65175 367.03383,133.76099 367.68216,135.68803 C 368.15042,137.07982 364.59035,136.52658 361.2864,135.99599 C 362.42691,137.09878 369.50988,135.94621 370.47426,139.00057 C 371.53309,142.35409 366.48631,140.73285 364.15968,141.1875 C 365.48852,142.47238 371.57259,139.98096 372.74026,143.24238 C 373.75587,146.07911 370.5567,146.7676 368.33145,147.06025 C 371.14909,147.10262 374.072,146.26467 375.71458,148.85323 C 377.24545,151.26577 375.7063,152.79283 369.1442,152.12649 C 374.66472,152.7941 378.67958,153.24181 378.5073,154.98101 C 378.33419,156.72867 376.0719,157.24676 371.27558,156.17021 C 376.02663,157.18759 380.88827,157.31322 380.94256,159.19864 C 380.98446,160.65341 378.57793,162.01885 375.96659,162.2326 C 378.54247,162.91265 380.63712,163.05097 380.4972,165.15312 C 380.36648,167.1171 374.27887,167.90832 374.36811,168.79338 C 374.46181,169.72267 378.71901,168.96227 378.07168,171.35053 C 377.7859,172.40491 374.22142,172.8433 373.39712,174.31326 C 372.84141,175.30426 379.42999,177.33074 372.85239,177.29383 C 368.53464,177.2696 367.30935,177.1516 364.17325,177.59711 C 372.25863,178.078 372.26286,177.37208 373.35746,178.95967 C 374.18499,180.15992 368.68575,186.04388 365.66892,186.39392 C 360.67685,186.97316 363.69636,186.7971 354.02855,186.5136 C 364.01671,186.2403 365.41129,185.05288 366.62998,187.32321 C 367.46488,188.87855 353.95114,194.93844 347.77658,193.77095 C 371.83862,189.88162 356.84215,197.3764 349.46965,202.15541 C 340.79615,207.77775 329.64742,210.81456 319.89802,208.84188 C 312.08858,207.26173 278.77773,211.67588 269.04866,214.71024 C 262.65463,216.70445 228.22486,203.26445 224.04408,194.28601 L 224.14844,193.2202 L 224.39182,191.96961 L 224.39182,191.96961 z "
       id="path5779"
       sodipodi:nodetypes="cssssssczczczczczczsssscsscscssscccc" />
    <path
       style="opacity:0.09729728;fill:#000000;fill-opacity:1;fill-rule:nonzero;stroke:none;stroke-width:1px;stroke-linecap:butt;stroke-linejoin:miter;stroke-opacity:1"
       id="path7542"
       d="M 338.08979,133.51566 C 339.88988,133.36282 341.20183,134.00393 342.49785,135.00553 C 343.27077,136.5651 342.95642,138.12918 342.45326,139.70365 C 341.05036,141.53006 343.08314,141.87761 344.7235,142.62859 C 346.39181,143.17961 347.62027,144.13902 348.81859,145.27208 C 350.1675,146.53144 350.10251,148.12669 350.27575,149.74703 C 350.91025,151.3802 352.26601,152.62968 353.1317,154.14058 C 353.84633,155.73621 354.07382,157.37208 354.12094,159.07558 C 354.24301,160.85927 353.94801,162.58524 353.26543,164.25352 C 352.10103,165.67675 350.44686,166.58775 349.48733,168.1004 C 349.43306,169.8745 349.11752,171.47889 348.37032,173.12436 C 347.71082,174.69541 346.76621,176.02924 345.48345,177.22726 C 342.98533,179.06233 340.38008,180.4801 337.54384,181.90994 C 343.74531,177.44622 339.22725,182.03812 337.83149,183.44033 C 336.55149,185.92932 322.44876,192.76035 330.95329,188.41209 C 329.34398,189.40801 327.8321,190.53212 326.40506,191.72881 C 325.37025,193.16637 323.80227,194.09017 322.29679,195.08252 C 321.00458,195.90872 319.74431,196.76898 318.46006,197.60339 C 316.51506,198.68921 317.29859,199.213 318.22358,200.62893 C 317.21115,203.76986 314.07151,204.82083 311.04446,206.32037 C 309.31302,206.64981 307.73515,207.35904 306.15419,208.03209 C 304.3267,208.74042 302.83325,209.22914 300.92336,208.74435 C 300.76736,208.63455 300.57728,208.5839 300.40424,208.50367 L 303.92151,206.42361 C 304.09715,206.5066 304.2784,206.58007 304.44842,206.67258 C 306.26147,206.95041 307.7587,206.32342 309.45457,205.69164 C 311.03312,204.99815 312.64389,204.38929 314.35461,203.99838 C 308.58171,207.08923 313.3051,204.90396 314.48961,202.3713 C 313.51116,201.08102 312.63954,200.09749 314.54924,198.99712 C 315.82973,198.15342 317.09452,197.30674 318.39202,196.476 C 319.90476,195.50474 321.52767,194.59358 322.56621,193.1694 C 323.95421,191.93769 325.46048,190.81615 327.02924,189.77991 C 338.62348,183.75676 321.45474,193.73925 334.07253,184.85813 C 336.29478,182.45498 337.0232,180.8219 340.83491,179.55297 C 336.93407,181.65095 338.44106,180.77692 341.58046,178.6162 C 342.95516,177.53182 343.91619,176.24054 344.5828,174.68644 C 345.35966,173.06725 345.73394,171.4952 345.70133,169.72314 C 346.48959,168.04248 348.03024,167.12781 349.43449,165.79146 C 350.1439,164.18328 350.54998,162.54802 350.39035,160.78341 C 350.35848,159.11059 350.17444,157.50831 349.44592,155.94687 C 348.60327,154.42787 347.2236,153.18152 346.59956,151.5419 C 346.33269,150.0012 346.54857,148.43073 345.23144,147.21807 C 344.04927,146.1271 342.81474,145.24227 341.21221,144.67532 C 339.46424,143.88718 337.1765,143.23979 338.63421,141.26513 C 339.18892,139.83407 339.54011,138.41237 338.88161,136.94021 C 337.59861,136.00634 336.34106,135.55968 334.63193,135.76737 L 338.08979,133.51566 z " />
    <path
       style="opacity:0.26486487;fill:#585655;fill-opacity:0.51075266;fill-rule:nonzero;stroke:none;stroke-width:1px;stroke-linecap:butt;stroke-linejoin:miter;stroke-opacity:1"
       id="path7540"
       d="M 319.49208,136.6227 C 320.95565,136.0141 322.7424,135.96523 324.35019,135.68545 C 326.36381,135.26414 327.23765,136.09278 328.45428,137.52279 C 329.44748,138.88739 329.43499,140.33994 328.8263,141.81319 C 321.31317,146.88264 325.1958,142.59281 329.09816,142.76567 C 331.03998,142.57207 332.5692,142.87941 334.20092,143.86111 C 336.22499,147.23409 334.20264,148.03407 331.00464,149.87946 C 326.77133,150.84981 331.3203,149.24392 333.03542,148.46288 C 335.29652,148.47813 337.0971,148.9168 337.83971,151.17682 C 338.05868,152.83509 337.6973,154.49076 337.35058,156.10746 C 337.19283,160.08345 336.06496,160.01529 332.11946,162.24317 C 330.41369,163.02849 328.75837,163.27905 326.9073,163.07863 C 324.17665,161.76155 328.48501,160.94451 330.50243,162.9729 C 331.85482,164.17926 332.70181,165.62897 333.13619,167.36847 C 333.42176,170.74616 330.37197,171.15833 327.59659,172.56785 C 323.38233,172.71415 324.5543,172.36098 326.94213,171.31471 C 327.4276,172.97982 327.55116,174.46292 327.01035,176.11225 C 325.49305,178.80074 322.57721,180.40574 319.60568,180.91124 C 317.94953,181.16325 316.28642,181.44481 314.65331,181.83457 C 313.09167,182.61958 311.37561,182.70134 309.68291,182.97868 C 307.16849,184.66164 310.58542,178.46565 310.66144,184.26492 C 311.21981,186.31938 310.64496,187.59126 309.18579,188.98398 C 307.19577,190.33508 308.73603,189.8486 301.85102,192.79735 C 310.59902,187.90485 292.35848,198.64818 301.57736,193.34854 C 294.7461,200.06315 300.44298,188.20199 300.12506,196.85465 C 298.8828,199.54929 295.62991,200.92341 292.73615,201.02371 C 290.67373,202.01882 296.34335,195.57119 291.71035,203.49211 C 289.78095,206.77673 286.57679,206.93462 283.35101,206.84232 C 281.435,206.81241 279.51878,206.82894 277.60264,206.83199 C 275.63849,206.72747 273.72503,206.77639 271.81137,207.18543 L 274.79529,204.89505 C 276.73839,204.59641 278.68918,204.59693 280.6593,204.61028 C 282.57738,204.61257 284.49562,204.61308 286.41357,204.62598 C 293.62895,204.84626 285.06754,207.0082 288.3573,204.97522 C 290.01339,202.20475 291.81837,198.16289 295.82163,198.8233 C 300.4692,198.3327 292.90803,201.69008 296.72615,198.53046 C 296.95045,194.024 302.8846,191.1739 298.03702,194.73885 C 306.11465,189.98633 299.52142,193.8685 298.48971,194.4647 C 296.32648,195.71479 306.47107,188.5698 304.81172,190.43803 C 309.12773,188.78391 310.48608,188.02381 305.66277,190.38864 C 307.16127,189.12777 307.89228,188.07883 307.32159,186.03454 C 307.01653,182.71903 309.32401,181.36216 312.70099,180.71742 C 314.3955,180.43976 316.07188,180.24853 317.66129,179.5483 C 319.31131,179.19434 320.97002,178.85791 322.64496,178.64935 C 327.44167,177.44379 319.39226,181.4268 323.57392,177.65923 C 324.2238,176.08402 324.09134,174.66152 323.54523,173.04258 C 326.09949,171.02791 327.28407,170.05811 330.60225,170.27358 C 328.21026,171.84167 329.28007,172.52624 329.79704,169.13895 C 329.34819,167.47541 328.6,166.10219 327.29206,164.92152 C 324.52333,162.20687 326.02996,160.65882 329.98231,160.89434 C 331.78771,161.05149 333.41553,160.6606 335.06692,159.90265 C 331.4272,162.07555 333.89664,161.30061 333.95224,157.76572 C 334.31312,156.19589 334.64223,154.57079 334.50323,152.95474 C 333.71227,150.87233 332.10874,150.65968 329.94377,150.65533 C 326.43642,149.67384 332.24435,147.79951 333.97387,147.50537 C 328.80426,150.55666 332.8882,148.78289 331.00271,145.88646 C 329.41235,145.0244 327.89571,144.81181 326.06094,144.96181 C 319.63138,144.63342 330.73734,140.74118 325.32401,143.29962 C 325.99013,142.01244 326.17523,140.7968 325.21799,139.4816 C 324.0551,138.09147 323.21949,137.53003 321.33061,137.95173 C 319.67319,138.23693 317.95937,138.35757 316.37273,138.88991 L 319.49208,136.6227 z " />
    <path
       style="fill:#ffffff;fill-opacity:0.75806448;fill-rule:nonzero;stroke:none;stroke-width:1px;stroke-linecap:butt;stroke-linejoin:miter;stroke-opacity:1"
       d="M 233.09392,186.20394 C 234.80093,179.04381 242.12693,176.26993 247.86829,173.18821 C 253.71146,170.50565 260.18247,169.5526 266.02164,166.80031 C 271.5781,164.44988 277.32714,162.813 283.13439,161.27871 C 285.4176,160.86557 291.68995,157.69449 291.29567,158.16642 C 289.76611,159.29004 283.4095,163.29353 284.43179,162.60692 C 288.06349,160.28852 291.75328,158.05826 295.36962,155.71905 C 293.33549,156.80193 287.2802,160.68968 287.2766,160.31559 C 292.69722,157.21757 296.03502,151.68032 297.94825,145.83463 C 300.38719,139.26635 305.38159,133.83488 311.82099,131.18999 C 321.50989,126.84625 332.35004,127.51559 342.64448,126.17373 C 347.94656,125.43659 353.33667,126.74632 358.06537,129.08949 C 359.39806,130.5036 355.48836,131.24199 354.43457,132.34849 C 352.85999,133.28525 351.28541,134.222 349.71082,135.15875 C 344.77033,132.3987 338.85048,131.61843 333.26293,132.45479 C 325.29464,133.22294 317.29379,133.62255 309.45545,135.36904 C 304.27912,135.99953 317.84432,129.37787 312.07462,133.80099 C 306.09713,139.89189 306.16505,150.00265 298.8694,155.03821 C 295.637,157.76886 292.39287,160.48603 289.20763,163.27339 C 291.1005,162.03342 297.67372,155.37849 291.79342,158.66082 C 286.1379,161.58734 281.40299,166.37307 275.00622,167.63602 C 266.35159,169.56821 258.28608,173.38036 249.90177,176.14751 C 247.52116,176.65124 241.61149,178.82289 241.23706,178.83563 C 242.69242,177.632 246.83953,175.88848 243.79294,179.18724 C 242.90929,181.47592 240.79196,182.25931 238.75641,183.27683 C 236.86892,184.25254 234.98142,185.22824 233.09392,186.20394 z "
       id="path9327" />
    <path
       style="fill:#ffffff;fill-opacity:0.55913978;fill-rule:nonzero;stroke:none;stroke-width:1px;stroke-linecap:butt;stroke-linejoin:miter;stroke-opacity:1"
       d="M 270.05197,138.96391 C 266.07699,138.83504 262.07184,139.66671 258.34855,141.00144 C 257.29453,141.71222 253.39786,143.26803 256.30496,141.2733 C 257.41767,140.67903 260.55554,138.04706 260.89403,139.03139 C 258.2767,141.68039 254.98692,143.55489 252.52179,146.39479 C 250.29603,148.93913 247.91873,151.36376 245.08955,153.24054 C 242.07647,155.37222 238.9936,157.42596 235.74107,159.16329 C 238.26003,157.38684 241.00816,155.92991 243.64896,154.33536 C 239.07463,157.91507 234.11898,160.9779 229.05402,163.78389 C 231.12884,162.46013 233.29952,161.29289 235.43188,160.0661 C 231.03055,163.2884 226.35005,166.08659 221.69398,168.90312 C 222.99652,168.55719 225.57714,166.85365 226.01168,167.1532 C 223.99555,170.18985 221.76915,173.11051 219.1231,175.61283 C 220.18702,174.8172 223.8978,172.35536 223.27051,172.53128 C 221.91872,173.1954 218.32498,176.39484 220.47381,173.15885 C 222.28394,169.94255 223.81121,166.06684 227.50734,164.74476 C 229.99191,162.87332 232.21914,160.58197 235.18134,159.45167 C 238.94272,157.62847 243.03386,156.64448 246.68869,154.59979 C 247.82559,153.99807 251.74174,152.36721 248.68924,154.01573 C 247.39635,154.71656 244.37616,156.29051 244.13424,156.35768 C 249.9719,152.685 253.30365,146.38861 257.59355,141.17892 C 256.29441,142.14311 253.71305,142.64984 256.21539,140.87284 C 256.93105,140.10869 260.45038,137.88639 258.05449,140.12962 C 255.55622,141.87452 253.60177,144.09765 253.78347,147.235 C 249.8207,150.76976 245.05657,153.2317 240.49528,155.87117 C 239.7239,156.13758 243.66919,153.99303 244.8386,153.31359 C 245.9848,152.67819 247.52586,151.74974 245.62892,153.0388 C 241.64791,155.96121 238.71823,160.14117 234.38684,162.60545 C 231.0507,164.80226 227.67192,166.95812 224.1308,168.79811 C 227.1253,166.78564 230.43437,165.2794 233.28954,163.04613 C 232.09604,163.84644 228.67234,166.16932 231.69275,164.0697 C 236.03962,161.01734 240.60999,158.27181 244.604,154.72807 C 243.4357,154.84519 240.16711,156.35797 240.44716,155.95203 C 243.16952,154.48227 245.7579,152.6277 248.54766,151.37653 C 247.42258,152.81389 243.95694,154.43343 243.53003,154.93068 C 246.65007,153.69361 249.7701,152.45653 252.89014,151.21946 C 248.64118,153.62803 244.6864,158.01171 239.37882,157.22661 C 242.66842,154.05662 245.79713,149.85035 250.58103,149.179 C 252.67055,148.91223 255.53361,150.79955 252.62347,152.11283 C 248.67262,155.70641 243.86703,158.0963 239.79137,161.52716 C 234.99506,165.01465 230.03018,169.24516 223.89503,169.67943 C 222.22804,169.78335 219.88113,169.29664 222.53857,168.2629 C 225.93787,166.10596 229.31134,163.90508 232.7534,161.81878 C 230.60216,163.18518 228.40659,164.81832 226.11398,165.74801 C 228.81704,163.57389 231.36781,161.20328 233.85586,158.76886 C 237.86158,155.10042 242.92226,152.94563 247.49992,150.13663 C 249.63675,149.16696 252.48689,146.94284 254.38119,146.93574 C 251.74596,149.38679 248.66511,151.29112 245.76124,153.39411 C 242.5952,153.49768 241.54376,150.15925 244.11399,148.30697 C 247.43357,144.64089 251.3004,141.45319 255.40996,138.7334 C 258.73953,136.65266 262.78776,134.97088 266.73859,136.03486 C 264.7451,141.02925 261.19239,145.20682 257.66298,149.16512 C 253.90039,153.24332 248.747,155.49903 244.13666,158.39746 C 239.94407,160.68595 235.61247,163.02633 230.88169,163.8725 C 231.00204,162.26533 234.68913,161.03238 236.33677,159.98964 C 238.73672,159.16123 234.41486,161.80237 233.7433,162.25635 C 232.15616,163.30516 228.57123,165.44062 228.3078,165.66108 C 230.18575,164.63077 233.3242,162.60815 234.45193,162.25224 C 231.11274,164.68183 230.74792,169.54541 227.60088,171.80518 C 222.39624,175.23626 217.29699,179.63897 210.90566,180.35074 C 208.43551,180.41936 212.69876,177.24517 213.24886,175.8136 C 214.84283,174.07684 215.72833,171.6442 217.66388,170.29624 C 221.05121,167.91301 224.54057,165.66225 227.814,163.12264 C 225.51985,164.35625 223.40583,165.93599 221.12238,167.17347 C 226.40771,163.24283 232.19028,160.07237 237.88217,156.80227 C 235.62756,158.23341 233.36459,159.76764 230.88408,160.75224 C 233.96586,157.63759 238.11658,155.89175 241.81228,153.63104 C 244.06904,152.53001 239.69941,155.17882 238.98798,155.46652 C 237.7607,156.42634 236.25389,156.17625 238.11475,154.84793 C 240.99144,152.5059 243.54484,149.83014 246.19129,147.23108 C 252.76551,141.58013 260.0253,136.23531 268.46288,133.95587 C 271.77636,133.19916 275.15815,132.61151 278.56623,132.68805 C 275.72814,134.78 272.89005,136.87195 270.05197,138.96391 z "
       id="path10203" />
  </g>
</svg>
